<?xml version="1.0" encoding="utf-8"?>
<!-- Generator: Adobe Illustrator 23.0.6, SVG Export Plug-In . SVG Version: 6.00 Build 0)  -->
<svg version="1.1" id="レイヤー_1" xmlns="http://www.w3.org/2000/svg" xmlns:xlink="http://www.w3.org/1999/xlink" x="0px"
	 y="0px" viewBox="0 0 134 174" enable-background="new 0 0 134 174" xml:space="preserve">
<g>
	<path d="M111.55,7.207c-1.332,0.072-2.951,0.18-4.859,0.36c1.332,0.756,1.979,1.224,1.944,1.404
		c-0.036,0.18-0.108,0.396-0.288,0.612c-0.181,0.252-0.324,0.468-0.504,0.648v3.564c0.252-0.036,0.504-0.072,0.684-0.108
		c0.252-0.36,0.647-0.9,1.116-1.656c0.359,0.252,0.899,0.612,1.619,1.152c0.576,0.468,0.828,0.792,0.721,0.972
		c-0.108,0.18-0.396,0.324-0.864,0.36l-3.239,0.324v6.443l2.808-1.476c0.827-0.432,1.367-0.648,1.619-0.648
		c0.145,0,0.216,0.072,0.216,0.216c0,0.252-0.432,0.72-1.296,1.332c-0.684,0.504-1.8,1.332-3.419,2.375l-2.556,1.62
		c-0.612,0.396-1.368,0.864-2.304,1.512c-0.36,0.468-0.864,1.008-1.512,1.548c-0.252,0.072-0.685-0.252-1.296-1.008
		c-0.396-0.54-0.792-1.044-1.188-1.583c2.052-0.72,3.636-1.332,4.752-1.836c0.684-0.324,1.439-0.684,2.231-1.08v-7.235
		c-1.691,0.216-2.915,0.432-3.707,0.648c-0.217-0.36-0.469-0.864-0.792-1.476c0.54-0.036,1.367-0.036,2.483-0.108
		c0.324,0,1.008-0.072,2.016-0.144v-3.599c0-1.08,0-1.98-0.036-2.736c-0.611,0.072-1.403,0.144-2.447,0.252
		c-0.828,0.108-1.62,0.252-2.304,0.468c-0.36-0.504-0.684-1.044-0.972-1.62h2.556c2.699,0,4.751-0.324,6.155-0.504l1.151-1.836
		l2.052,1.512c0.54,0.396,0.756,0.72,0.684,0.936C112.702,7.062,112.306,7.17,111.55,7.207z M118.461,24.376
		c-0.288,0.18-0.576,0.324-0.863,0.432c-0.648,1.044-1.332,1.98-2.088,2.808c-1.477,1.62-3.132,2.771-4.968,3.456
		c-1.044,0.396-1.728,0.612-2.016,0.612c-0.18,0-0.288-0.036-0.324-0.144s0.181-0.324,0.648-0.612
		c0.468-0.252,0.936-0.54,1.403-0.792c0.937-0.54,1.836-1.296,2.736-2.268c1.439-1.548,2.556-3.6,3.312-6.12
		c0.468,0.324,0.972,0.648,1.439,0.972c0.72,0.54,1.08,0.9,1.116,1.116S118.749,24.232,118.461,24.376z M129.512,30.352
		c-1.044,0.432-2.771,0.648-5.255,0.684c-1.477,0-2.736-0.108-3.78-0.288c-0.54-0.108-0.863-0.504-1.008-1.224
		c-0.036-0.252-0.071-0.828-0.071-1.728v-7.091c-1.152,0.072-2.34,0.144-3.528,0.252c-0.071,0.468-0.144,0.792-0.252,0.936
		c-0.18,0.288-0.468,0.576-0.863,0.864c-0.324,0.216-0.612,0.324-0.9,0.324c-0.252,0-0.396-0.18-0.396-0.54
		c0-0.108,0.036-0.252,0.071-0.468c0.036-0.216,0.036-0.36,0.036-0.468c0.072-0.936,0.145-2.195,0.216-3.815
		c0.072-1.908,0.108-3.527,0.108-4.895c0-1.908-0.036-3.528-0.108-4.824c-0.035-0.9-0.107-2.087-0.216-3.635
		c0.828,0.468,1.729,1.043,2.772,1.728l6.083-0.54l1.151-1.512c1.764,1.26,2.628,2.016,2.628,2.304c0,0.324-0.396,0.72-1.152,1.26
		v1.944c0,2.771,0.072,5.795,0.252,9.143c0.108,1.979,0.108,2.016,0.108,2.052c0,0.252-0.108,0.72-0.936,1.224
		c-0.396,0.252-0.828,0.396-1.296,0.396c-0.252,0-0.36-0.18-0.36-0.576l-0.036-1.368c-0.936,0.036-1.871,0.108-2.844,0.18
		c0.181,0.036,0.396,0.108,0.721,0.288c1.044,0.54,1.583,0.972,1.583,1.188c0,0.216-0.071,0.432-0.252,0.612
		c-0.18,0.18-0.396,0.36-0.575,0.54v1.692c0,0.792-0.036,1.368-0.036,1.692c0,1.332,0.072,2.052,0.18,2.124
		c0.252,0.252,0.792,0.36,1.548,0.324c0.936-0.036,1.584-0.072,1.943-0.108c0.612-0.072,1.152-0.216,1.692-0.396
		c0.792-0.288,1.439-1.44,1.872-3.456c0.216-1.044,0.432-2.592,0.827-4.644c0.181-0.972,0.36-1.476,0.612-1.44
		c0.18,0.036,0.252,0.504,0.18,1.476c-0.071,1.548-0.107,2.7-0.107,3.419c0.036,1.62,0.144,2.736,0.468,3.312
		c0.036,0.108,0.18,0.252,0.432,0.504c0.18,0.18,0.288,0.36,0.288,0.54C131.312,29.164,130.699,29.848,129.512,30.352z
		 M122.78,6.774c-1.548,0.18-3.923,0.396-7.055,0.684c0,0.756,0,1.8,0.036,3.06c0.936-0.072,1.871-0.144,2.808-0.252
		c1.08-0.144,1.979-0.36,2.735-0.612c0.648,0.684,0.9,1.116,0.792,1.296c-0.036,0.072-0.288,0.144-0.756,0.18
		c-1.044,0.072-1.62,0.108-1.728,0.144c-0.828,0.072-2.124,0.216-3.852,0.396l0.071,3.276c0.828-0.036,2.052-0.144,3.672-0.36
		c0.756-0.108,1.368-0.324,1.908-0.504c0.611,0.756,0.863,1.188,0.756,1.332c-0.036,0.108-0.792,0.216-2.232,0.324l-4.067,0.324
		c0.036,1.224,0.036,2.448,0.036,3.708c0.324-0.036,2.628-0.18,6.911-0.468c0.036-1.224,0.036-2.051,0.036-2.447
		C122.853,14.585,122.816,11.238,122.78,6.774z"/>
	<path d="M127.352,46.77c-0.035,0.036-0.359,0.036-1.008,0.072l-10.042,0.54c-0.937,0.036-2.16,0.18-3.672,0.288
		c-0.396,0.792-0.828,1.62-1.368,2.484c-0.611,1.044-1.151,1.8-1.548,2.304c0,0.324,0,1.404-0.035,3.275
		c-0.036,1.332-0.036,2.52-0.036,3.492c0,0.18,0.036,0.936,0.036,2.196v2.916c0,0.612-0.036,1.08-0.072,1.332
		c-0.108,0.432-0.288,0.792-0.54,1.115c-0.54,0.612-1.08,0.937-1.584,0.937c-0.216,0-0.324-0.181-0.324-0.54
		c0-0.072,0-0.36,0.072-0.864c0.072-0.756,0.216-1.979,0.36-3.671c0.036-0.36,0.107-1.728,0.252-4.067
		c0.071-0.972,0.144-2.412,0.252-4.319c-0.324,0.468-1.116,1.26-2.376,2.339c-1.548,1.368-2.808,2.34-3.708,2.916
		c-1.835,1.116-2.987,1.691-3.455,1.691c-0.108,0-0.18-0.036-0.216-0.108c-0.108-0.252,0.252-0.648,1.151-1.224
		c1.692-1.116,3.348-2.412,4.932-3.924c1.404-1.332,2.628-2.771,3.672-4.247c-0.036-0.504-0.036-0.972-0.072-1.368
		c-0.036-0.216-0.036-0.576-0.072-1.044c0.288,0.144,0.72,0.36,1.296,0.612c0.396-0.612,0.756-1.296,1.08-2.052
		c-1.368,0.072-2.699,0.18-4.031,0.324c-0.792,0.072-2.088,0.216-3.888,0.432c-0.252-0.468-0.504-1.008-0.684-1.548
		c0.792,0,2.052-0.036,3.743-0.072c1.116-0.036,2.88-0.144,5.327-0.288c0.36-0.864,0.756-2.016,1.188-3.492
		c0.396-1.44,0.756-2.844,1.008-4.248c0.827,0.252,1.619,0.54,2.447,0.9c0.684,0.288,1.044,0.576,1.008,0.864
		c-0.036,0.252-0.504,0.612-1.476,1.116c-0.324,1.08-0.937,2.664-1.836,4.715l4.104-0.252c1.728-0.108,3.636-0.216,5.688-0.36
		l1.619-2.376c0.54,0.36,1.261,0.864,2.16,1.512c0.828,0.612,1.224,1.044,1.188,1.26C127.855,46.59,127.676,46.734,127.352,46.77z
		 M130.016,65.056c-0.792,0.036-1.943,0.036-3.491,0.072c-2.52,0.072-4.607,0.18-6.3,0.288l-5.543,0.396
		c-0.684,0.036-1.764,0.216-3.239,0.396c-0.145-0.288-0.396-0.792-0.721-1.477c1.548,0.036,2.844,0,3.888-0.071
		c0.9-0.036,2.232-0.108,4.031-0.216c0-0.324-0.035-2.808-0.071-7.452c-0.54,0.036-1.476,0.108-2.88,0.252
		c-0.36,0.036-1.26,0.216-2.699,0.468l-0.756-1.476c0.972-0.036,2.123-0.072,3.491-0.144c0.972-0.036,1.907-0.144,2.844-0.18v-3.132
		c0-1.044-0.036-2.268-0.108-3.671c0.612,0.216,1.188,0.432,1.764,0.612c0.937,0.324,1.404,0.612,1.44,0.864
		c0.036,0.324-0.216,0.792-0.756,1.44c0,0.324,0,1.584,0.036,3.708c1.043-0.072,2.051-0.144,2.987-0.216
		c0.576-0.756,1.044-1.404,1.403-1.872c1.764,1.332,2.592,2.124,2.556,2.412c-0.036,0.324-0.396,0.468-1.008,0.504
		c-0.107,0-0.684,0-1.764,0.036c-0.144,0-1.548,0.108-4.175,0.288l0.035,7.415c0.324-0.036,2.232-0.144,5.76-0.324
		c0.396-0.468,0.899-1.152,1.476-2.052c0.54,0.396,1.296,0.9,2.268,1.692c0.576,0.468,0.828,0.863,0.792,1.044
		C131.239,64.912,130.808,65.056,130.016,65.056z"/>
	<path d="M123.177,93.209c-1.332,1.331-2.7,2.304-4.14,2.915c-1.26,0.54-2.483,0.972-3.672,1.224
		c-1.403,0.324-2.556,0.504-3.455,0.54c-0.433,0.036-0.648-0.071-0.648-0.288c0-0.18,0.216-0.323,0.648-0.432
		c1.332-0.324,2.376-0.647,3.132-0.899c1.188-0.433,2.304-0.973,3.347-1.584c2.232-1.26,3.636-2.952,4.248-5.04
		c0.324-1.115,0.468-2.159,0.468-3.167c0-1.512-0.324-2.952-0.972-4.283c-0.684-1.44-1.656-2.484-2.916-3.204
		c-0.972-0.54-2.123-0.864-3.527-0.864c-0.36,0-0.684,0.036-0.972,0.072c0.288,0.54,0.504,1.008,0.684,1.332
		c0.252,0.576,0.36,1.116,0.36,1.62c0,0.72-0.108,1.403-0.36,2.052c-0.899,2.411-1.691,4.211-2.447,5.399
		c-1.116,1.764-2.34,3.383-3.744,4.859c-0.323,0.359-0.792,0.756-1.403,1.151c-0.36,0.252-0.684,0.36-0.972,0.36
		c-0.756,0-1.404-0.756-1.944-2.304c-0.288-0.828-0.468-1.729-0.647-2.736c-0.145-0.972-0.252-1.871-0.252-2.627
		c0-0.648,0.036-1.368,0.144-2.124c0.216-1.476,1.08-2.916,2.556-4.248c1.476-1.331,3.168-2.303,5.147-2.915
		c1.26-0.396,2.556-0.576,3.815-0.576c1.188,0,2.376,0.18,3.563,0.504c1.62,0.468,2.952,1.296,4.067,2.483
		c0.9,0.973,1.512,2.088,1.908,3.384c0.324,1.116,0.468,2.088,0.468,2.988C125.66,89.429,124.832,91.553,123.177,93.209z
		 M114.105,78.307c-1.548,0.18-2.951,0.684-4.211,1.512c-1.404,0.936-2.484,2.016-3.204,3.203c-0.504,0.864-0.756,2.016-0.756,3.492
		c0,1.079,0.145,2.231,0.432,3.455c0.252,1.044,0.576,1.548,1.044,1.548c0.396,0,0.937-0.324,1.584-0.936
		c0.937-0.864,1.8-1.979,2.628-3.348c1.8-2.987,2.699-5.615,2.699-7.812C114.321,79.099,114.25,78.738,114.105,78.307z"/>
	<path d="M124.688,109.949c-0.324,0.181-0.612,0.324-0.9,0.504c-0.035,0.685-0.144,1.512-0.287,2.448
		c0.863,0.611,1.26,1.008,1.224,1.224c-0.072,0.18-0.216,0.252-0.468,0.288h-0.756c-0.685,0-1.44,0.036-2.34,0.072
		c-1.764,0.071-3.888,0.18-6.371,0.323l-6.947,0.36c-0.108,1.691-0.216,3.203-0.36,4.535c-0.252,2.7-1.044,5.256-2.376,7.667
		c-1.476,2.628-3.527,4.716-6.19,6.191c-0.685,0.396-1.188,0.612-1.44,0.612c-0.18,0-0.252-0.072-0.252-0.216
		c0-0.108,0.468-0.504,1.368-1.188c2.556-1.943,4.428-4.355,5.579-7.235c0.972-2.375,1.476-6.407,1.62-12.058
		c0.036-0.828,0-1.836-0.036-3.096c-0.036-1.548-0.036-2.448-0.036-2.736c0.504,0.181,1.26,0.504,2.304,0.9
		c0.252,0.107,0.647,0.324,1.116,0.611c1.691-0.071,3.491-0.18,5.435-0.252c1.44-0.071,3.6-0.144,6.516-0.252l1.512-1.548
		c1.691,1.225,2.556,1.98,2.556,2.269C125.156,109.59,125.013,109.77,124.688,109.949z M125.553,124.384
		c-1.044,0-3.924,0.072-8.711,0.252c-1.044,0.036-2.16,0.072-3.348,0.144c-0.036,1.116-0.036,1.188-0.072,3.996
		c0,1.08,0,1.548-0.036,2.735c0.936-0.18,2.231-0.468,3.852-0.828c0.684-0.144,1.08-0.216,1.188-0.18
		c0.072,0.036,0.108,0.072,0.145,0.18c0.071,0.288-0.288,0.54-1.08,0.792s-1.979,0.685-3.6,1.188
		c-1.907,0.611-3.455,1.151-4.68,1.691c-0.432,0.288-1.044,0.612-1.8,0.972c-0.216,0.072-0.611-0.216-1.188-0.899
		c-0.216-0.252-0.612-0.72-1.151-1.404c0.899-0.107,2.052-0.324,3.419-0.576c1.044-0.18,2.016-0.359,2.88-0.539
		c0-0.756,0-1.765,0.036-3.024c0-0.432,0-1.764,0.036-3.995c-1.512,0.108-2.808,0.18-3.888,0.252
		c-0.145-0.288-0.36-0.684-0.648-1.224c0.828,0.036,1.836,0.036,2.988,0c0.611-0.036,1.476-0.072,2.663-0.108
		c-0.036-0.468-0.071-1.619-0.144-3.491c-0.612,0.036-1.584,0.144-2.844,0.252c-0.18-0.288-0.432-0.72-0.72-1.296h3.527
		c-0.036-0.396-0.036-1.008-0.072-1.764c-0.036-0.972-0.107-1.584-0.144-1.836c0.54,0.108,1.044,0.216,1.548,0.324
		c0.647,0.144,0.972,0.323,1.008,0.504c0.036,0.18-0.18,0.432-0.648,0.756c0,0.18,0,0.468,0.036,0.863
		c0.036,0.469,0.036,0.828,0.036,1.08c1.943-0.072,3.42-0.144,4.428-0.18c0.036-1.116,0.036-1.8,0.036-2.016
		c0-0.685,0-1.26-0.036-1.8c1.871,0.396,2.844,0.756,2.915,1.151c0.036,0.181-0.035,0.36-0.18,0.504
		c-0.18,0.181-0.324,0.324-0.504,0.469c0,0.252-0.036,0.791-0.072,1.583c0.469-0.036,0.9-0.036,1.26-0.036
		c0.288-0.396,0.721-0.936,1.26-1.655c0.396,0.252,0.973,0.647,1.692,1.151c0.72,0.54,1.044,0.864,0.972,1.044
		c-0.107,0.252-0.612,0.36-1.548,0.396c-0.792,0-2.016,0.036-3.707,0.144l-0.145,3.6l3.312-0.107
		c0.324-0.396,0.828-1.008,1.512-1.765l1.98,1.368c0.539,0.36,0.792,0.648,0.72,0.9S127.136,124.348,125.553,124.384z
		 M121.269,109.733l-6.659,0.288c-2.556,0.108-4.751,0.252-6.587,0.36l-0.144,3.671l13.066-0.611L121.269,109.733z M118.533,119.992
		c-0.972,0.036-2.448,0.108-4.392,0.216c0.036,1.404,0.108,2.592,0.145,3.563l2.627-0.107c0.36,0,0.864,0,1.476-0.036
		L118.533,119.992z M130.844,133.419c-0.72,0.18-1.368,0.432-1.979,0.684c-0.504,0.54-1.152,1.08-1.944,1.656
		c-0.107,0.035-0.54-0.108-1.224-0.36c-0.72-0.252-1.728-0.864-2.987-1.836c-0.9-0.684-1.872-1.548-2.952-2.592
		c-0.144-0.144-1.151-1.332-3.023-3.563c-0.576-0.684-0.864-1.151-0.864-1.439c0-0.108,0.036-0.216,0.108-0.252
		c0.144-0.072,0.396,0.036,0.792,0.432l0.72,0.72c0.72,0.72,1.584,1.332,2.412,1.908c0.611-0.504,1.331-1.152,2.016-1.908
		c0.323-0.359,0.756-1.008,1.367-1.8c0.433,0.396,0.864,0.864,1.26,1.332c0.396,0.468,0.576,0.828,0.504,1.008
		c-0.035,0.108-0.504,0.18-1.367,0.18c-0.972,0.576-1.872,1.188-2.988,1.729c1.548,0.972,2.16,1.224,4.428,2.123
		c0.685,0.252,1.476,0.469,2.376,0.648c1.296,0.252,2.411,0.432,3.384,0.54c0.684,0.071,1.044,0.18,1.008,0.323
		C131.888,133.095,131.527,133.238,130.844,133.419z"/>
	<path d="M126.561,153.294c-1.62,0-3.672,0.071-6.155,0.18c-2.052,0.108-4.14,0.252-6.191,0.36c0.504,0.18,1.08,0.359,1.728,0.575
		c0.756,0.252,1.116,0.54,1.116,0.864c0,0.216-0.108,0.396-0.324,0.576c-0.252,0.18-0.468,0.323-0.72,0.468
		c0.036,1.655,0.071,4.176,0.107,7.595c0,0.504,0,0.612,0.036,2.556c0.036,1.044,0.036,1.26,0.036,1.692
		c0,0.791-0.36,2.087-0.972,3.275c-0.252,0.504-0.576,0.828-0.9,0.936c-0.107,0.036-0.216,0.036-0.323,0.036
		c-0.145,0-0.252-0.036-0.36-0.144c-0.324-0.396-0.936-1.044-1.403-1.548c-0.396-0.433-0.864-0.756-1.404-0.973
		c-0.54-0.18-0.792-0.396-0.72-0.611c0.036-0.181,0.396-0.288,1.008-0.288c1.224,0.036,1.691,0.072,1.764,0.072
		c0.432-0.036,0.684-0.108,0.792-0.217c0.107-0.107,0.144-0.432,0.18-0.972c0-0.252-0.036-1.224-0.036-2.879l-0.071-8.676
		c0-0.504,0-1.296-0.036-2.339c-1.728,0.107-4.644,0.287-8.711,0.647c-0.864,0.072-2.088,0.288-3.708,0.54
		c-0.18-0.36-0.54-0.936-1.008-1.728c0.864-0.036,2.124-0.036,3.779-0.108c2.196-0.072,5.616-0.252,10.295-0.468
		c3.275-0.145,6.335-0.324,9.107-0.504c0.72-0.828,1.403-1.656,2.088-2.556c0.647,0.432,1.512,1.008,2.591,1.764
		c0.756,0.54,1.116,1.008,1.008,1.403C129.044,153.149,128.18,153.294,126.561,153.294z M109.354,157.973
		c0,0.54-0.145,1.26-0.396,2.088c-0.468,1.584-1.079,2.952-1.8,4.14c-1.188,1.943-2.268,2.916-3.275,2.88
		c-0.504,0-0.792-0.54-0.863-1.62c-0.072-0.828,0.107-1.584,0.575-2.195c0.108-0.181,0.433-0.433,0.9-0.756
		c0.611-0.396,1.008-0.685,1.224-0.864c0.684-0.612,1.404-1.476,2.16-2.556c0.252-0.36,0.468-0.756,0.72-1.151
		c0.252-0.396,0.432-0.54,0.575-0.505C109.282,157.469,109.354,157.649,109.354,157.973z M122.421,146.274
		c-1.116,0.072-3.204,0.18-6.228,0.324c-1.08,0.036-2.916,0.18-5.543,0.359c-1.332,0.108-2.484,0.252-3.492,0.433
		c-0.252-0.396-0.468-0.9-0.72-1.512c1.188,0,2.448-0.072,3.779-0.108c1.584-0.072,4.068-0.18,7.415-0.36l1.98-2.663
		c0.611,0.396,1.403,0.972,2.447,1.691c0.828,0.576,1.26,1.044,1.26,1.368C123.356,146.095,123.032,146.238,122.421,146.274z
		 M126.2,165.64c-0.324,0.576-0.72,0.9-1.26,0.864c-0.468,0-0.828-0.396-1.08-1.08c-0.252-0.684-0.504-1.367-0.72-2.016
		c-0.576-1.548-1.584-3.06-2.664-4.067c-0.252-0.252-0.575-0.432-0.827-0.647c-0.36-0.324-0.504-0.576-0.433-0.828
		c0.036-0.108,0.145-0.18,0.36-0.18c0.324,0,0.756,0.144,1.224,0.359c1.404,0.648,2.556,1.332,3.456,2.16
		c1.439,1.331,2.195,2.52,2.304,3.635C126.596,164.452,126.488,165.064,126.2,165.64z"/>
</g>
<g>
	<path d="M33.412,2.621c0.072,0,0.162-0.018,0.216-0.054c0.072-0.036,0.09-0.036,0.126-0.036c0.162,0,0.234,0.036,0.234,0.09
		c0,0.072-0.018,0.162-0.054,0.271c-0.162,0.648-0.306,1.782-0.324,2.484c0.018,0.144-0.018,0.198-0.162,0.198
		c-0.288,0-0.324-0.036-0.342-0.252c-0.09-0.9-0.252-1.423-0.522-1.711c-0.414-0.414-1.584-0.738-2.683-0.738
		c-2.755,0-4.555,2.07-4.555,5.221c0,3.259,1.854,5.438,4.645,5.438c1.062,0,2.071-0.306,2.755-0.846
		c0.342-0.252,0.45-0.378,0.774-0.882c0.036-0.054,0.072-0.072,0.126-0.072c0.144,0,0.288,0.072,0.288,0.144
		c0,0.036-0.018,0.09-0.036,0.126c-0.288,0.774-0.342,0.918-0.486,1.387c-0.09,0.324-0.09,0.324-0.396,0.432
		c-0.558,0.162-1.764,0.288-3.007,0.288c-1.8,0-3.151-0.36-4.195-1.081c-1.386-0.972-2.196-2.719-2.196-4.699
		c0-1.909,0.738-3.637,2.017-4.664c1.17-0.936,2.593-1.368,4.519-1.368c0.756,0,0.756,0,2.971,0.306L33.412,2.621z"/>
	<path d="M44.967,13.442c-0.792,0.27-2.161,0.612-2.503,0.612c-0.144,0-0.234-0.09-0.234-0.234c0-0.054,0-0.126,0.018-0.216
		c0.018-0.162,0.036-0.594,0.036-0.72c-1.855,0.937-2.521,1.17-3.331,1.17c-0.667,0-1.296-0.306-1.675-0.81
		c-0.324-0.396-0.432-0.811-0.432-1.549c0-0.18,0-0.18,0.036-1.602V9.607c0-2.269-0.054-2.413-0.882-2.431
		c-0.198-0.018-0.234-0.036-0.234-0.18c0-0.198,0-0.198,0.216-0.252c0.144-0.054,0.27-0.09,0.396-0.126
		c0.18-0.036,0.36-0.09,0.559-0.144c0.162-0.036,0.324-0.09,0.468-0.126c0.559-0.145,0.685-0.18,0.792-0.18
		c0.09,0,0.126,0.036,0.126,0.108c0,0.054,0,0.162-0.018,0.252c-0.072,0.738-0.144,2.395-0.144,3.349
		c0,1.242,0.054,1.747,0.234,2.25c0.216,0.594,0.774,0.937,1.495,0.937c0.684,0,1.422-0.18,2.215-0.558
		c0.216-0.108,0.252-0.234,0.252-0.955c0-0.81,0.036-1.962,0.036-2.557c0-1.656-0.018-1.8-0.342-1.999
		c-0.144-0.09-0.54-0.162-0.972-0.18c-0.144,0-0.18-0.036-0.18-0.198c0-0.18,0.018-0.198,0.396-0.198
		c1.099-0.054,1.567-0.108,2.197-0.198c0.054-0.018,0.09-0.018,0.126-0.018c0.09,0,0.144,0.054,0.144,0.145V6.51
		c-0.054,0.415-0.144,4.069-0.144,5.042c0,1.333,0.072,1.531,0.594,1.531c0.252,0,0.594-0.036,0.738-0.072
		c0.09-0.018,0.18-0.036,0.216-0.036c0.072,0,0.09,0.054,0.09,0.306c0,0.054-0.018,0.072-0.09,0.09L44.967,13.442z"/>
	<path d="M49.195,6.204c-0.055,0.415-0.09,1.207-0.09,1.513c1.584-1.116,2.34-1.566,2.646-1.566c0.324,0,0.811,0.54,0.811,0.918
		c0,0.288-0.522,1.026-0.738,1.026c-0.055,0-0.09-0.036-0.162-0.108c-0.271-0.36-0.541-0.522-0.865-0.522
		c-0.504,0-1.386,0.396-1.638,0.738c-0.091,0.108-0.108,0.54-0.108,1.873c0,1.53,0.036,2.34,0.126,2.772
		c0.091,0.432,0.288,0.522,1.368,0.612c0.289,0.036,0.307,0.054,0.307,0.216c0,0.234-0.018,0.27-0.198,0.27h-0.126
		c-0.396-0.018-1.603-0.054-2.197-0.054c-0.432,0-0.576,0-1.386,0.036h-0.072c-0.108,0-0.144-0.036-0.144-0.18
		c0-0.234,0-0.234,0.378-0.324c0.414-0.108,0.522-0.288,0.612-0.99c0.054-0.45,0.09-1.314,0.09-2.287
		c0-1.351-0.055-2.125-0.162-2.341c-0.09-0.162-0.359-0.252-0.702-0.252c-0.144,0-0.181-0.036-0.181-0.198c0-0.18,0-0.18,0.324-0.36
		c0.685-0.36,1.404-0.81,1.639-0.99c0.055-0.054,0.09-0.054,0.18-0.054c0.253,0,0.289,0.018,0.289,0.144V6.204z"/>
	<path d="M56.664,6.204c-0.053,0.415-0.09,1.207-0.09,1.513c1.585-1.116,2.342-1.566,2.647-1.566c0.323,0,0.81,0.54,0.81,0.918
		c0,0.288-0.521,1.026-0.738,1.026c-0.054,0-0.09-0.036-0.162-0.108c-0.27-0.36-0.539-0.522-0.863-0.522
		c-0.504,0-1.387,0.396-1.639,0.738c-0.09,0.108-0.108,0.54-0.108,1.873c0,1.53,0.036,2.34,0.126,2.772s0.288,0.522,1.369,0.612
		c0.287,0.036,0.306,0.054,0.306,0.216c0,0.234-0.019,0.27-0.198,0.27h-0.126c-0.396-0.018-1.603-0.054-2.196-0.054
		c-0.433,0-0.576,0-1.387,0.036h-0.072c-0.107,0-0.144-0.036-0.144-0.18c0-0.234,0-0.234,0.378-0.324
		c0.414-0.108,0.521-0.288,0.612-0.99c0.054-0.45,0.09-1.314,0.09-2.287c0-1.351-0.054-2.125-0.162-2.341
		c-0.09-0.162-0.36-0.252-0.702-0.252c-0.145,0-0.18-0.036-0.18-0.198c0-0.18,0-0.18,0.324-0.36c0.684-0.36,1.404-0.81,1.639-0.99
		c0.053-0.054,0.09-0.054,0.18-0.054c0.252,0,0.287,0.018,0.287,0.144V6.204z"/>
	<path d="M67.502,12.596c0,0.18-0.018,0.216-0.197,0.36c-0.847,0.702-1.999,1.134-3.025,1.134c-1.944,0-3.097-1.333-3.097-3.583
		c0-2.413,1.548-4.339,3.511-4.339c1.261,0,2.215,0.774,2.593,2.088c0.054,0.144,0.072,0.162,0.181,0.162
		c0.107,0,0.144,0.054,0.144,0.234c0,0.378-0.036,0.396-0.252,0.432c-1.062,0.162-3.89,0.703-4.825,0.918
		c0.072,2.035,0.936,3.169,2.412,3.169c0.883,0,1.729-0.306,2.413-0.828c0,0,0.054-0.054,0.108-0.054
		c0.018,0,0.035,0.018,0.035,0.072V12.596z M65.197,8.905c0.504-0.126,0.666-0.234,0.666-0.45c0-0.792-0.918-1.71-1.691-1.71
		c-0.955,0-1.531,0.99-1.639,2.755C63.217,9.373,63.396,9.337,65.197,8.905z"/>
	<path d="M69.336,7.555c-0.107,0-0.126-0.018-0.126-0.234c0-0.09,0.019-0.126,0.091-0.162c0,0,0.215-0.108,1.494-0.72
		c0.72-0.36,0.72-0.36,0.792-0.36c0.198,0,0.233,0.018,0.233,0.072c0,0.036,0,0.09-0.018,0.126c-0.054,0.558-0.072,0.774-0.072,1.08
		c1.783-0.792,2.791-1.116,3.494-1.116c0.647,0,1.26,0.288,1.566,0.738c0.287,0.432,0.414,0.99,0.414,1.927
		c0,0.198,0,0.63-0.019,1.17c-0.019,0.558-0.019,1.134-0.019,1.638c0,1.657,0.037,1.729,1.135,1.783
		c0.288,0,0.307,0.018,0.307,0.198c0,0.216-0.019,0.234-0.252,0.234l-1.891-0.018l-1.062,0.018
		c-0.288,0.018-0.576,0.018-0.631,0.018c-0.125,0-0.162-0.036-0.162-0.198c0-0.18,0.037-0.198,0.234-0.216
		c0.973-0.108,1.045-0.342,1.045-3.295c0-1.278-0.019-1.548-0.145-1.999c-0.162-0.63-0.756-1.008-1.584-1.008
		c-0.613,0-1.369,0.18-2.053,0.486c-0.36,0.162-0.36,0.18-0.379,0.378v0.45c-0.018,0.54-0.035,2.089-0.035,2.539
		c0,2.179,0.072,2.322,1.17,2.376c0.198,0.018,0.252,0.036,0.252,0.144v0.09c0,0.198-0.035,0.234-0.216,0.234
		c-0.036,0-0.036,0-0.45-0.018c-0.198-0.018-0.774-0.018-1.188-0.018l-1.494,0.018c-0.181,0.018-0.343,0.018-0.396,0.018
		c-0.162,0-0.198-0.018-0.198-0.18c0-0.234,0.019-0.252,0.252-0.288c0.541-0.072,0.828-0.324,0.9-0.792
		c0.055-0.432,0.108-1.729,0.108-2.935c0-1.351-0.019-1.783-0.09-1.909c-0.072-0.198-0.288-0.288-0.72-0.288
		c-0.037,0-0.109,0-0.217,0.018H69.336z"/>
	<path d="M85.592,6.745c0,0.378,0,0.378-0.09,0.414c-0.63,0.018-1.765,0.018-3.188,0.018c0,1.278,0,2.935,0,3.961
		c0,0.846,0.072,1.243,0.271,1.513c0.216,0.288,0.685,0.45,1.243,0.45c0.521,0,0.936-0.09,1.512-0.342h0.126v0.252
		c0,0.162,0,0.162-0.216,0.288c-0.883,0.486-1.746,0.756-2.467,0.756c-1.242,0-1.818-0.63-1.818-1.999c0-0.072-0.09-1.692,0-4.879
		h-0.828c-0.072,0-0.09-0.018-0.09-0.108c0-0.144,0-0.144,0.162-0.27c0.684-0.504,1.26-1.044,1.782-1.674
		c0.144-0.162,0.144-0.162,0.288-0.162c0.072,0,0.107,0.036,0.107,0.09v0.072c-0.054,0.558-0.072,0.828-0.072,1.242l0.307-0.018
		h1.242c0.703,0,1.135,0,1.404-0.018h0.108c0.198,0,0.216,0.036,0.216,0.288V6.745z"/>
	<path d="M9.795,27.679c0,0.126-0.054,0.162-0.216,0.162c-0.198,0-0.216-0.036-0.234-0.288c-0.072-0.846-0.432-1.17-1.35-1.26
		c-0.36-0.036-1.008-0.036-3.061-0.054c0,1.999,0,3.565,0.036,4.177c0.036,0.756,0.18,0.811,1.908,0.811
		c1.314,0,2.269-0.144,2.719-0.396c0.45-0.252,0.936-0.936,1.188-1.692c0.054-0.18,0.09-0.216,0.162-0.216
		c0.198,0,0.324,0.072,0.324,0.18c0,0.216-0.144,0.882-0.432,2.017c-0.216,0.847-0.216,0.847-0.396,0.847h-0.108
		c-0.414-0.054-2.701-0.09-5.474-0.09c-0.756,0-1.008,0-2.593,0.072H2.143c-0.198,0-0.234-0.018-0.234-0.198
		c0-0.162,0.036-0.216,0.162-0.216c0.882-0.072,1.134-0.198,1.26-0.667c0.108-0.36,0.144-1.747,0.144-4.879
		c0-1.692-0.036-3.727-0.072-4.321c-0.036-0.54-0.234-0.684-0.99-0.72c-0.288-0.018-0.306-0.036-0.306-0.234
		c0-0.162,0.036-0.216,0.162-0.216h0.145c0.09,0.018,2.07,0.036,2.484,0.036c1.008,0,5.023-0.054,5.492-0.072h0.288
		c0.126,0,0.18,0.054,0.18,0.162c0,0.054,0,0.054-0.09,0.559c-0.036,0.162-0.108,1.206-0.108,1.584c0,0.504,0,0.504-0.27,0.504
		c-0.198,0-0.234-0.036-0.234-0.216c-0.036-0.81-0.162-1.26-0.396-1.476c-0.324-0.306-1.134-0.432-2.719-0.432
		c-0.63,0-1.566,0.036-1.8,0.072c-0.27,0.054-0.288,0.09-0.306,0.522v1.584v1.53v0.774c2.881,0,3.007-0.018,3.475-0.072
		c0.72-0.126,0.882-0.324,0.99-1.152c0.018-0.252,0.036-0.27,0.216-0.27c0.18,0,0.216,0.036,0.216,0.18c0,0.036,0,0.09-0.018,0.162
		c-0.036,0.396-0.072,1.296-0.072,1.818c0,0.45,0.018,0.918,0.054,1.225V27.679z"/>
	<path d="M18.524,31.911c-0.216,0-0.486,0-0.81,0.018c-0.288,0.018-0.576,0.018-0.703,0.018c-0.144,0-0.18-0.036-0.18-0.18
		c0-0.198,0.018-0.216,0.27-0.234c0.45-0.018,0.63-0.108,0.63-0.306c0-0.198-0.558-1.116-1.566-2.575
		c-1.386,1.602-1.765,2.143-1.765,2.466c0,0.288,0.162,0.378,0.738,0.396c0.162,0.018,0.198,0.036,0.198,0.198
		c0,0.18-0.036,0.216-0.216,0.216h-0.396c-0.252-0.018-0.63-0.018-0.864-0.018c-0.504,0-0.828,0-1.332,0.036h-0.09
		c-0.144,0-0.198-0.036-0.198-0.162c0-0.234,0-0.252,0.288-0.306c0.27,0.018,0.756-0.45,3.349-3.259
		c-2.088-3.061-2.431-3.457-2.953-3.511c-0.072-0.018-0.09-0.054-0.09-0.198c0-0.126,0.036-0.162,0.162-0.162
		c0.072,0,0.252,0,0.432,0.018c0.252,0.018,0.576,0.018,0.882,0.018c0.594,0,0.9-0.018,1.639-0.054h0.054
		c0.126,0,0.162,0.036,0.162,0.18c0,0.18-0.018,0.198-0.252,0.216c-0.342,0.036-0.522,0.18-0.522,0.378
		c0,0.234,0.252,0.667,1.368,2.305c1.278-1.386,1.747-1.999,1.747-2.287c0-0.216-0.18-0.324-0.666-0.36
		c-0.144,0-0.18-0.036-0.18-0.198c0-0.18,0.036-0.216,0.18-0.216c0.072,0,0.216,0,0.342,0.018l0.882,0.018
		c0.306,0,0.738-0.018,1.17-0.036h0.072c0.126,0,0.162,0.036,0.162,0.18s0,0.144-0.288,0.288c-0.45,0.216-1.566,1.296-3.133,3.007
		c2.071,3.115,2.593,3.728,3.133,3.655c0.324,0,0.342,0.018,0.342,0.216c0,0.198-0.036,0.234-0.234,0.234
		c-0.054,0-0.306,0-0.576-0.018h-0.846H18.524z"/>
	<path d="M30.765,31.929c-0.072,0-0.288,0-0.558-0.018H28.82c-0.378,0-1.224,0.036-1.422,0.036c-0.162,0-0.198-0.036-0.198-0.216
		c0-0.162,0.018-0.18,0.288-0.216c0.558-0.072,0.81-0.324,0.882-0.846c0.036-0.216,0.108-2.107,0.108-2.791
		c0-0.972-0.126-1.621-0.378-1.999c-0.271-0.432-0.9-0.72-1.531-0.72c-0.648,0-1.333,0.162-2.341,0.576
		c0,2.017,0.018,3.547,0.054,4.591c0.036,0.9,0.216,1.098,1.08,1.152c0.216,0.018,0.234,0.036,0.234,0.234
		c0,0.162-0.054,0.216-0.198,0.216c-0.09,0-0.396-0.018-0.828-0.018c-0.216,0-1.333-0.018-1.333-0.018
		c-0.27,0-1.333,0.036-1.368,0.036c-0.126,0-0.18-0.036-0.18-0.216c0-0.162,0.018-0.18,0.306-0.234
		c0.558-0.108,0.756-0.342,0.846-0.972c0.072-0.486,0.126-2.395,0.126-4.609c0-3.493-0.018-4.52-0.054-4.844
		c-0.09-0.594-0.271-0.756-0.973-0.81c-0.144-0.018-0.162-0.036-0.162-0.198c0-0.144,0.036-0.162,0.504-0.324
		c0.702-0.234,1.584-0.522,1.854-0.522c0.162,0,0.27,0.036,0.27,0.108c0,0.108-0.054,0.559-0.072,0.829
		c-0.054,0.756-0.108,2.737-0.108,3.781v1.405c1.729-0.829,2.521-1.081,3.421-1.081c0.81,0,1.494,0.414,1.818,1.081
		c0.216,0.432,0.27,0.774,0.27,1.603v3.493c0,0.756,0.198,1.008,0.81,1.044c0.378,0.018,0.415,0.036,0.415,0.27
		C30.963,31.875,30.909,31.929,30.765,31.929z"/>
	<path d="M32.562,31.929c-0.108,0-0.145-0.036-0.145-0.144c0-0.198,0.018-0.234,0.145-0.252c1.188-0.198,1.188-0.378,1.206-3.601
		c0-1.477-0.036-1.819-0.18-2.035c-0.108-0.18-0.378-0.288-0.792-0.324c-0.144-0.018-0.198-0.072-0.198-0.18
		c0-0.144,0.072-0.198,0.738-0.54l0.486-0.252c0.918-0.486,1.008-0.522,1.17-0.522c0.108,0,0.162,0.036,0.162,0.126
		c0,0.072-0.072,0.738-0.072,0.973c-0.018,0.558-0.054,1.242-0.054,2.665c0,1.621,0.036,2.809,0.09,3.025
		c0.09,0.45,0.306,0.558,1.152,0.612c0.252,0.018,0.27,0.036,0.27,0.252c0,0.144-0.036,0.198-0.18,0.198s-0.504-0.018-0.756-0.018
		c-0.414,0-0.792-0.018-1.08-0.018c-0.468,0-1.692,0.018-1.873,0.036H32.562z M35.407,20.604c0,0.396-0.45,0.828-0.882,0.828
		c-0.342,0-0.774-0.432-0.774-0.792c0-0.414,0.45-0.864,0.846-0.864C34.957,19.775,35.407,20.225,35.407,20.604z"/>
	<path d="M38.791,30.02c0.072-1.333,0.126-3.889,0.126-6.986c0-2.521-0.108-2.827-0.99-2.845c-0.252,0-0.27-0.018-0.27-0.126
		c0-0.162,0-0.162,0.072-0.198c1.08-0.342,2.322-0.648,2.575-0.648c0.108,0,0.162,0.036,0.162,0.126c0,0.018,0,0.018-0.054,0.396
		c-0.108,0.684-0.252,3.817-0.252,5.239c1.242-0.594,2.035-0.81,2.989-0.81c1.873,0,3.133,1.386,3.133,3.403
		c0,1.17-0.415,2.197-1.171,3.007c-0.972,0.99-2.25,1.477-3.979,1.477c-0.522,0-1.008-0.036-1.477-0.108
		c-0.198-0.054-0.432-0.09-0.72-0.108c-0.198,0-0.27-0.054-0.27-0.162l0.018-0.234l0.036-0.45L38.791,30.02z M40.105,27.391
		c0,2.521,0.018,2.791,0.252,3.205c0.252,0.45,0.846,0.684,1.71,0.684c1.837,0,2.935-1.134,2.935-3.007
		c0-1.962-1.224-3.349-2.935-3.349c-0.576,0-0.936,0.09-1.926,0.486L40.105,27.391z"/>
	<path d="M48.15,31.929c-0.108,0-0.145-0.036-0.145-0.144c0-0.198,0.018-0.234,0.145-0.252c1.188-0.198,1.188-0.378,1.206-3.601
		c0-1.477-0.036-1.819-0.181-2.035c-0.107-0.18-0.377-0.288-0.791-0.324c-0.145-0.018-0.199-0.072-0.199-0.18
		c0-0.144,0.072-0.198,0.738-0.54l0.486-0.252c0.918-0.486,1.009-0.522,1.171-0.522c0.108,0,0.162,0.036,0.162,0.126
		c0,0.072-0.072,0.738-0.072,0.973c-0.019,0.558-0.054,1.242-0.054,2.665c0,1.621,0.035,2.809,0.09,3.025
		c0.09,0.45,0.307,0.558,1.152,0.612c0.252,0.018,0.27,0.036,0.27,0.252c0,0.144-0.035,0.198-0.18,0.198s-0.504-0.018-0.756-0.018
		c-0.414,0-0.793-0.018-1.08-0.018c-0.469,0-1.693,0.018-1.873,0.036H48.15z M50.995,20.604c0,0.396-0.45,0.828-0.882,0.828
		c-0.343,0-0.775-0.432-0.775-0.792c0-0.414,0.451-0.864,0.847-0.864C50.545,19.775,50.995,20.225,50.995,20.604z"/>
	<path d="M59.223,24.745c0,0.378,0,0.378-0.091,0.414c-0.63,0.018-1.765,0.018-3.187,0.018c0,1.278,0,2.935,0,3.961
		c0,0.846,0.072,1.243,0.27,1.513c0.217,0.288,0.685,0.45,1.242,0.45c0.522,0,0.937-0.09,1.513-0.342h0.126v0.252
		c0,0.162,0,0.162-0.216,0.288c-0.882,0.486-1.747,0.756-2.467,0.756c-1.242,0-1.818-0.63-1.818-1.999c0-0.072-0.091-1.692,0-4.879
		h-0.828c-0.072,0-0.091-0.018-0.091-0.108c0-0.144,0-0.144,0.162-0.27c0.685-0.504,1.261-1.044,1.783-1.674
		c0.145-0.162,0.145-0.162,0.288-0.162c0.071,0,0.108,0.036,0.108,0.09v0.072c-0.055,0.558-0.072,0.828-0.072,1.242l0.306-0.018
		h1.243c0.701,0,1.134,0,1.404-0.018h0.107c0.198,0,0.217,0.036,0.217,0.288V24.745z"/>
	<path d="M60.426,31.929c-0.107,0-0.144-0.036-0.144-0.144c0-0.198,0.018-0.234,0.144-0.252c1.188-0.198,1.188-0.378,1.207-3.601
		c0-1.477-0.037-1.819-0.181-2.035c-0.108-0.18-0.378-0.288-0.792-0.324c-0.145-0.018-0.198-0.072-0.198-0.18
		c0-0.144,0.072-0.198,0.738-0.54l0.486-0.252c0.918-0.486,1.009-0.522,1.171-0.522c0.107,0,0.161,0.036,0.161,0.126
		c0,0.072-0.071,0.738-0.071,0.973c-0.019,0.558-0.055,1.242-0.055,2.665c0,1.621,0.036,2.809,0.09,3.025
		c0.09,0.45,0.307,0.558,1.152,0.612c0.252,0.018,0.271,0.036,0.271,0.252c0,0.144-0.036,0.198-0.181,0.198
		c-0.144,0-0.504-0.018-0.756-0.018c-0.414,0-0.792-0.018-1.08-0.018c-0.469,0-1.692,0.018-1.873,0.036H60.426z M63.271,20.604
		c0,0.396-0.451,0.828-0.883,0.828c-0.342,0-0.774-0.432-0.774-0.792c0-0.414,0.45-0.864,0.847-0.864
		C62.82,19.775,63.271,20.225,63.271,20.604z"/>
	<path d="M74.145,27.985c0,2.359-1.836,4.105-4.303,4.105c-2.27,0-3.836-1.584-3.836-3.871c0-2.395,1.765-4.051,4.357-4.051
		C72.578,24.168,74.145,25.753,74.145,27.985z M67.41,27.715c0,2.053,1.352,3.763,2.971,3.763c1.405,0,2.359-1.188,2.359-2.899
		c0-2.088-1.351-3.799-3.007-3.799C68.365,24.78,67.41,25.987,67.41,27.715z"/>
	<path d="M76.141,25.555c-0.109,0-0.127-0.018-0.127-0.234c0-0.09,0.018-0.126,0.09-0.162c0,0,0.217-0.108,1.495-0.72
		c0.72-0.36,0.72-0.36,0.792-0.36c0.198,0,0.234,0.018,0.234,0.072c0,0.036,0,0.09-0.019,0.126c-0.054,0.558-0.071,0.774-0.071,1.08
		c1.782-0.792,2.791-1.116,3.492-1.116c0.648,0,1.261,0.288,1.566,0.738c0.289,0.432,0.414,0.99,0.414,1.927
		c0,0.198,0,0.63-0.018,1.17c-0.018,0.558-0.018,1.134-0.018,1.638c0,1.657,0.035,1.729,1.134,1.783
		c0.288,0,0.306,0.018,0.306,0.198c0,0.216-0.018,0.234-0.252,0.234l-1.891-0.018l-1.062,0.018c-0.288,0.018-0.576,0.018-0.63,0.018
		c-0.127,0-0.162-0.036-0.162-0.198c0-0.18,0.035-0.198,0.233-0.216c0.973-0.108,1.044-0.342,1.044-3.295
		c0-1.278-0.018-1.548-0.144-1.999c-0.162-0.63-0.757-1.008-1.585-1.008c-0.611,0-1.367,0.18-2.053,0.486
		c-0.359,0.162-0.359,0.18-0.377,0.378v0.45c-0.019,0.54-0.037,2.089-0.037,2.539c0,2.179,0.072,2.322,1.171,2.376
		c0.198,0.018,0.252,0.036,0.252,0.144v0.09c0,0.198-0.036,0.234-0.216,0.234c-0.036,0-0.036,0-0.45-0.018
		c-0.198-0.018-0.774-0.018-1.188-0.018l-1.494,0.018c-0.18,0.018-0.342,0.018-0.396,0.018c-0.162,0-0.197-0.018-0.197-0.18
		c0-0.234,0.018-0.252,0.252-0.288c0.539-0.072,0.828-0.324,0.9-0.792c0.053-0.432,0.107-1.729,0.107-2.935
		c0-1.351-0.018-1.783-0.09-1.909c-0.072-0.198-0.288-0.288-0.721-0.288c-0.035,0-0.107,0-0.216,0.018H76.141z"/>
</g>
<g>
</g>
<g>
</g>
<g>
</g>
<g>
</g>
<g>
</g>
<g>
</g>
<g>
</g>
<g>
</g>
<g>
</g>
<g>
</g>
<g>
</g>
<g>
</g>
<g>
</g>
<g>
</g>
<g>
</g>
</svg>
