<svg width="24" height="24" viewBox="0 0 24 24" fill="none" xmlns="http://www.w3.org/2000/svg">
<g clip-path="url(#clip0)">
<path d="M12 24C8.79465 24 5.7812 22.7518 3.51473 20.4853C1.24821 18.2188 0 15.2053 0 12C0 8.79467 1.24821 5.7812 3.51473 3.51471C5.7812 1.24821 8.79465 0 12 0C15.2053 0 18.2188 1.24821 20.4852 3.51471C22.7518 5.7812 24 8.79468 24 12C24 15.2053 22.7518 18.2188 20.4852 20.4853C18.2188 22.7518 15.2053 24 12 24ZM12 1.32162C6.11192 1.32162 1.32162 6.11192 1.32162 12C1.32162 17.8881 6.11192 22.6784 12 22.6784C17.888 22.6784 22.6783 17.8881 22.6783 12C22.6784 6.11192 17.8881 1.32162 12 1.32162Z" fill="white"/>
<path d="M11.9064 21.4209H12C11.9687 21.4209 11.9376 21.42 11.9064 21.4197V21.4209Z" fill="white"/>
<path d="M14.8544 14.688H17.1799C17.389 14.688 17.5651 14.5315 17.5897 14.3238L17.8469 12.1536C17.8761 11.9081 17.6843 11.6922 17.4371 11.6922H14.8428V9.87676C14.8428 9.05344 15.0715 8.49242 16.2521 8.49242L17.3453 8.49191C17.5731 8.49177 17.7578 8.30704 17.7578 8.07916V6.24917C17.7578 6.02121 17.573 5.83643 17.3451 5.83643H15.5637C13.3927 5.83643 11.9064 7.16154 11.9064 9.59514V11.6922H10.1604C9.93186 11.6922 9.74681 11.8779 9.74768 12.1065L9.75608 14.2768C9.75696 14.5041 9.94145 14.6879 10.1688 14.6879H11.918L11.9115 18.4793H11.9064V21.4196C11.9376 21.4199 11.9687 21.4208 12 21.4208C12.9927 21.4208 13.9494 21.2668 14.8479 20.9821V18.4793L14.8544 14.688Z" fill="white"/>
</g>
<defs>
<clipPath id="clip0">
<rect width="24" height="24" fill="white"/>
</clipPath>
</defs>
</svg>
