<svg width="79" height="24" viewBox="0 0 79 24" fill="none" xmlns="http://www.w3.org/2000/svg">
<path d="M32.3 17.015C32.585 17 33.545 16.985 33.89 16.985C34.325 16.985 35.24 17 35.465 17.015L36.05 17.03H36.185C36.275 17.03 36.305 16.97 36.305 16.775C36.305 16.565 36.305 16.565 35.975 16.55C35.075 16.535 34.775 16.31 34.715 15.635C34.67 14.99 34.655 14.405 34.655 11.6C34.655 10.73 34.67 9.29 34.685 8.33C37.61 8.315 37.685 8.345 37.7 9.275C37.7 9.74 37.7 9.74 37.715 9.785C37.745 9.845 37.79 9.86 38.015 9.86C38.195 9.86 38.195 9.86 38.345 9.29C38.465 8.795 38.735 7.535 38.735 7.445C38.735 7.37 38.69 7.34 38.585 7.34C38.51 7.34 38.495 7.34 38.42 7.37C38.06 7.52 36.785 7.565 33.455 7.565C31.205 7.565 30.095 7.505 29.87 7.4C29.735 7.325 29.735 7.325 29.645 7.325C29.51 7.325 29.495 7.34 29.45 7.61C29.315 8.255 29.09 9.545 29.09 9.695C29.09 9.815 29.165 9.86 29.39 9.86C29.57 9.86 29.6 9.83 29.645 9.665C29.945 8.45 30.23 8.33 33.035 8.33C33.05 9.305 33.065 10.355 33.065 11.3C33.065 12.14 33.05 13.64 33.02 14.57C33.005 15.77 32.945 16.01 32.705 16.22C32.48 16.43 32.27 16.475 31.565 16.55C31.445 16.565 31.415 16.595 31.415 16.775C31.415 17 31.43 17.03 31.595 17.03L32.3 17.015ZM46.5376 15.83L46.4776 15.8C46.1326 16.01 45.6976 16.145 45.4276 16.145C45.0526 16.145 44.9176 15.935 44.9176 15.32C44.9176 15.17 44.9176 14.945 44.9326 14.72C44.9926 12.635 44.9926 12.545 44.9926 12.23C44.9926 11.135 44.3926 10.535 43.2826 10.535C42.3526 10.535 41.4676 10.835 40.7626 11.39C40.3276 11.735 40.0126 12.17 40.0126 12.425C40.0126 12.545 40.1026 12.635 40.2376 12.635C40.4026 12.635 40.9126 12.53 41.1826 12.455C41.3926 12.38 41.4676 12.32 41.4676 12.17C41.4676 12.11 41.4676 12.05 41.4526 11.99C41.4376 11.915 41.4376 11.855 41.4376 11.825C41.4376 11.615 41.8576 11.48 42.4576 11.48C43.0876 11.48 43.4326 11.72 43.4926 12.215C43.5376 12.485 43.5376 12.875 43.5376 13.715C42.6226 13.805 41.7526 13.97 41.1076 14.165C39.9826 14.51 39.7576 14.75 39.7576 15.62C39.7576 16.625 40.2526 17.15 41.1526 17.15C41.7826 17.15 42.4726 16.955 43.5076 16.49C43.5976 16.94 43.8826 17.165 44.3326 17.165C44.8276 17.165 45.6226 16.91 46.3726 16.505C46.5226 16.43 46.5376 16.385 46.5376 16.175V15.83ZM43.0576 14.24C43.4026 14.24 43.5076 14.36 43.5076 14.75C43.5076 15.665 43.4776 15.86 43.3426 15.965C43.1026 16.115 42.5626 16.25 42.1276 16.25C41.4976 16.25 41.2576 15.965 41.2576 15.26C41.2576 14.915 41.3326 14.81 41.6926 14.63C42.1126 14.405 42.7126 14.24 43.0576 14.24ZM51.3743 17C51.8543 17.03 51.8543 17.03 51.8693 17.03C52.0343 17.03 52.0643 16.985 52.0643 16.76C52.0643 16.58 52.0343 16.565 51.8243 16.55C51.1193 16.49 50.9843 16.43 50.8943 16.13C50.8343 15.935 50.8193 15.29 50.8193 13.79C50.8193 12.23 50.8493 11.195 50.9093 10.715C50.9243 10.655 50.9243 10.595 50.9243 10.565C50.9243 10.475 50.8643 10.43 50.7743 10.43C50.5493 10.43 50.0993 10.595 48.7943 11.15L48.5393 11.255C48.4193 11.3 48.3893 11.345 48.3893 11.465C48.3893 11.69 48.4043 11.705 48.6143 11.72C49.3493 11.825 49.3793 11.9 49.3793 13.595C49.3793 16.22 49.3193 16.415 48.4943 16.55C48.2393 16.58 48.2243 16.595 48.2243 16.79C48.2243 17 48.2393 17.015 48.3893 17.015H48.4793C49.1543 17 49.6193 16.985 50.0693 16.985L51.3743 17ZM50.2643 6.89C49.8293 6.89 49.3643 7.355 49.3643 7.79C49.3643 8.195 49.7993 8.63 50.2193 8.63C50.6543 8.63 51.1043 8.18 51.1043 7.745C51.1043 7.34 50.6543 6.89 50.2643 6.89ZM54.4627 21.05C55.3027 21.005 55.5127 21.005 56.1877 21.005C56.5627 21.005 56.6827 21.005 57.2227 21.02C57.4777 21.035 57.7477 21.035 57.7927 21.035C57.9577 21.035 57.9877 21.005 57.9877 20.81C57.9877 20.585 57.9727 20.57 57.7477 20.555C57.0127 20.525 56.8327 20.405 56.7577 19.955C56.7127 19.73 56.6827 18.755 56.6827 16.94C57.2227 17.06 57.5227 17.105 57.9427 17.105C60.1327 17.105 61.7977 15.575 61.7977 13.55C61.7977 11.84 60.6427 10.535 59.1427 10.535C58.4677 10.535 57.8527 10.7 56.7427 11.165C56.7427 10.925 56.7577 10.775 56.7877 10.535C56.8027 10.49 56.8027 10.46 56.8027 10.415C56.8027 10.355 56.7577 10.325 56.6227 10.325C56.4277 10.325 56.3227 10.37 55.8277 10.655C55.6777 10.745 55.5277 10.82 55.3627 10.91C55.0627 11.075 54.5977 11.345 54.3427 11.495C54.2527 11.54 54.2527 11.555 54.2527 11.72C54.2527 11.9 54.2527 11.9 54.5077 11.9C54.9277 11.915 55.0777 11.975 55.1677 12.185C55.2577 12.425 55.2727 12.68 55.2727 14.6C55.2727 16.94 55.2577 18.71 55.2127 19.595C55.1827 20.24 55.0027 20.495 54.4777 20.57C54.2077 20.63 54.2077 20.63 54.2077 20.795C54.2077 21.02 54.2227 21.05 54.3727 21.05H54.4627ZM56.6827 15.74C56.6677 15.38 56.6677 15.05 56.6677 14.915C56.6677 13.55 56.6827 12.275 56.7127 11.675C57.1927 11.51 57.5827 11.435 58.0327 11.435C59.3977 11.435 60.3577 12.56 60.3577 14.15C60.3577 15.455 59.6977 16.205 58.5427 16.205C57.8227 16.205 57.2677 16.07 56.6827 15.74ZM69.9464 15.59H69.8414C69.3164 15.98 68.7014 16.19 68.0414 16.19C66.8714 16.19 66.1814 15.38 66.0314 13.865C66.8864 13.685 68.2214 13.445 69.9164 13.16C70.1864 13.115 70.2014 13.1 70.2014 12.89C70.2014 12.605 70.1864 12.56 70.0964 12.53C70.0064 12.5 70.0064 12.5 69.9764 12.365C69.8264 11.84 69.7664 11.69 69.5264 11.39C69.0764 10.85 68.3864 10.535 67.6364 10.535C65.8814 10.535 64.5164 12.11 64.5164 14.165C64.5164 16.04 65.5064 17.165 67.1564 17.165C68.1014 17.165 69.1064 16.805 69.8714 16.175C69.9764 16.1 70.0364 16.025 70.0364 15.965C70.0364 15.935 70.0364 15.935 69.9914 15.815L69.9464 15.59ZM66.0014 13.34C66.0014 12.02 66.4814 11.165 67.2464 11.165C67.8464 11.165 68.4614 11.84 68.4614 12.515C68.4614 12.71 68.3264 12.815 67.9364 12.92C67.2914 13.085 66.5264 13.25 66.0014 13.34ZM75.5764 17C76.0564 17.03 76.0564 17.03 76.0714 17.03C76.2364 17.03 76.2664 16.985 76.2664 16.76C76.2664 16.58 76.2364 16.565 76.0264 16.55C75.3214 16.49 75.1864 16.43 75.0964 16.13C75.0364 15.935 75.0214 15.29 75.0214 13.79C75.0214 12.23 75.0514 11.195 75.1114 10.715C75.1264 10.655 75.1264 10.595 75.1264 10.565C75.1264 10.475 75.0664 10.43 74.9764 10.43C74.7514 10.43 74.3014 10.595 72.9964 11.15L72.7414 11.255C72.6214 11.3 72.5914 11.345 72.5914 11.465C72.5914 11.69 72.6064 11.705 72.8164 11.72C73.5514 11.825 73.5814 11.9 73.5814 13.595C73.5814 16.22 73.5214 16.415 72.6964 16.55C72.4414 16.58 72.4264 16.595 72.4264 16.79C72.4264 17 72.4414 17.015 72.5914 17.015H72.6814C73.3564 17 73.8214 16.985 74.2714 16.985L75.5764 17ZM74.4664 6.89C74.0314 6.89 73.5664 7.355 73.5664 7.79C73.5664 8.195 74.0014 8.63 74.4214 8.63C74.8564 8.63 75.3064 8.18 75.3064 7.745C75.3064 7.34 74.8564 6.89 74.4664 6.89Z" fill="white"/>
<g clip-path="url(#clip0)">
<path d="M12 24C8.7947 24 5.7812 22.7518 3.51473 20.4853C1.24821 18.2188 0 15.2053 0 12C0 8.79469 1.24821 5.78123 3.51473 3.51473C5.7812 1.24821 8.7947 0 12 0C15.2054 0 18.2188 1.24821 20.4853 3.51473C22.7518 5.78123 24 8.79471 24 12C24 15.2053 22.7518 18.2188 20.4853 20.4853C18.2188 22.7518 15.2054 24 12 24ZM12 1.32162C6.11192 1.32162 1.32162 6.11192 1.32162 12C1.32162 17.8881 6.11192 22.6784 12 22.6784C17.8881 22.6784 22.6784 17.8881 22.6784 12C22.6784 6.11192 17.8881 1.32162 12 1.32162Z" fill="white"/>
<path d="M14.294 18.7779H9.70605C7.23354 18.7779 5.22205 16.7664 5.22205 14.2939V9.70598C5.22205 7.23347 7.23354 5.22192 9.70605 5.22192H14.294C16.7665 5.22192 18.778 7.23347 18.778 9.70598V14.2939C18.778 16.7664 16.7665 18.7779 14.294 18.7779ZM9.70605 6.54355C7.96228 6.54355 6.54366 7.96219 6.54366 9.70598V14.2939C6.54366 16.0376 7.96229 17.4563 9.70605 17.4563H14.294C16.0377 17.4563 17.4564 16.0377 17.4564 14.2939V9.70598C17.4564 7.9622 16.0377 6.54355 14.294 6.54355H9.70605Z" fill="white"/>
<path d="M12.0001 15.7196C9.94918 15.7196 8.28064 14.0511 8.28064 12.0002C8.28064 9.94928 9.94918 8.28076 12.0001 8.28076C14.0509 8.28076 15.7194 9.94928 15.7194 12.0002C15.7194 14.0511 14.0509 15.7196 12.0001 15.7196ZM12.0001 9.60238C10.6779 9.60238 9.60226 10.678 9.60226 12.0002C9.60226 13.3223 10.6779 14.3979 12.0001 14.3979C13.3222 14.3979 14.3978 13.3223 14.3978 12.0002C14.3978 10.678 13.3222 9.60238 12.0001 9.60238Z" fill="white"/>
<path d="M15.4827 9.11967C15.8154 9.11967 16.0851 8.85 16.0851 8.51735C16.0851 8.1847 15.8154 7.91504 15.4827 7.91504C15.1501 7.91504 14.8804 8.1847 14.8804 8.51735C14.8804 8.85 15.1501 9.11967 15.4827 9.11967Z" fill="white"/>
</g>
<defs>
<clipPath id="clip0">
<rect width="24" height="24" fill="white"/>
</clipPath>
</defs>
</svg>
