<svg width="75" height="24" viewBox="0 0 75 24" fill="none" xmlns="http://www.w3.org/2000/svg">
<path d="M33.035 12.305C36.11 15.815 36.305 16.04 36.305 16.25C36.305 16.43 36.095 16.535 35.69 16.55C35.435 16.565 35.405 16.58 35.405 16.745C35.405 16.985 35.42 17.015 35.555 17.015H35.675C35.84 17 36.86 16.985 37.175 16.985C37.43 16.985 38.78 17 39.11 17.015H39.275C39.47 17.015 39.5 16.985 39.5 16.79C39.5 16.625 39.47 16.595 39.365 16.565C38.915 16.52 38.735 16.37 37.52 15.035C35 12.245 34.85 12.05 34.235 11.33C34.31 11.27 34.385 11.21 34.475 11.15C37.7 8.405 37.955 8.21 38.72 7.97C39.02 7.895 39.02 7.895 39.02 7.7C39.02 7.52 38.99 7.475 38.855 7.475H38.735C37.745 7.52 37.61 7.52 36.62 7.52H36.125C35.33 7.49 35.33 7.49 35.315 7.49C35.15 7.49 35.12 7.535 35.12 7.73C35.12 7.925 35.15 7.955 35.345 7.955C35.975 7.97 36.2 8.075 36.2 8.315C36.2 8.57 35.705 9.125 34.535 10.205C33.785 10.88 33.08 11.51 32.42 12.11C32.42 11.09 32.45 9.53 32.48 9.11C32.525 8.195 32.645 8.06 33.395 7.955C33.665 7.91 33.68 7.91 33.68 7.685V7.61C33.68 7.505 33.65 7.475 33.53 7.475H33.425C32.735 7.505 32.075 7.52 31.73 7.52C31.46 7.52 30.275 7.49 29.945 7.475H29.81C29.69 7.475 29.66 7.52 29.66 7.7C29.66 7.895 29.66 7.895 29.945 7.925C30.815 8.03 30.845 8.135 30.845 10.91C30.845 13.19 30.815 14.795 30.77 15.485C30.695 16.28 30.575 16.43 29.765 16.58C29.645 16.595 29.615 16.625 29.615 16.775C29.615 17.015 29.63 17.03 29.78 17.03H29.885C30.845 17.015 31.46 17 31.76 17C32.135 17 32.795 17 32.99 17.015H33.47C33.74 17.015 33.74 17.015 33.74 16.76C33.74 16.565 33.74 16.565 33.44 16.55C32.645 16.475 32.54 16.37 32.48 15.56C32.435 15.11 32.435 14.825 32.42 12.815L33.035 12.305ZM43.0916 10.685C42.5366 10.715 42.2966 10.715 41.7116 10.715C41.3366 10.715 41.0066 10.715 40.7216 10.7L40.4816 10.685H40.3466C40.1966 10.685 40.1666 10.715 40.1666 10.91C40.1666 11.09 40.1666 11.105 40.3916 11.18C40.7366 11.3 40.8866 11.615 41.7566 13.895C42.6416 16.22 42.9866 17.15 42.9866 17.255C42.9866 17.345 42.4616 18.29 42.1766 18.725C41.6516 19.52 41.2916 19.91 40.9016 20.12C40.4516 20.36 40.4216 20.405 40.4216 20.705C40.4216 20.975 40.5566 21.065 40.9616 21.065C41.7866 21.065 41.9516 20.93 42.4466 19.82C43.8416 16.775 43.9316 16.58 45.2366 14.135C46.6166 11.6 46.7816 11.36 47.1716 11.15C47.2766 11.09 47.2916 11.045 47.2916 10.925C47.2916 10.73 47.2616 10.685 47.1416 10.685H46.9916C46.7816 10.7 46.2716 10.7 46.0616 10.7C45.8366 10.7 45.2516 10.7 45.1616 10.685H44.9516C44.8166 10.685 44.7866 10.73 44.7866 10.925C44.7866 11.12 44.8016 11.135 45.0416 11.15C45.5066 11.195 45.6416 11.27 45.6416 11.525C45.6416 11.855 45.4166 12.365 43.8866 15.575C43.2266 13.91 42.5366 11.87 42.5366 11.525C42.5366 11.315 42.7166 11.195 43.0316 11.165C43.3466 11.135 43.3466 11.135 43.3466 10.895C43.3466 10.715 43.3166 10.685 43.1666 10.685H43.0916ZM52.5379 10.535C50.2579 10.535 48.7429 11.9 48.7429 13.94C48.7429 15.86 50.0929 17.165 52.0429 17.165C54.2179 17.165 55.8229 15.71 55.8229 13.745C55.8229 11.885 54.4429 10.535 52.5379 10.535ZM51.9979 11.18C53.2579 11.18 54.2179 12.53 54.2179 14.315C54.2179 15.665 53.5579 16.52 52.5229 16.52C51.2779 16.52 50.3479 15.185 50.3479 13.43C50.3479 12.065 50.9929 11.18 51.9979 11.18ZM60.5614 11.525C61.3414 11.54 62.9314 11.525 62.9914 11.51C63.0814 11.495 63.0814 11.465 63.0814 11.075C63.0814 10.685 63.0814 10.685 62.8564 10.685H62.3914L61.5964 10.7H60.5914C60.6064 10.37 60.6364 9.875 60.6814 9.605V9.515C60.6814 9.44 60.6364 9.41 60.5014 9.41C60.3064 9.41 60.3064 9.41 60.1564 9.575C59.7514 10.055 59.1064 10.61 58.4464 11.075C58.3714 11.135 58.3564 11.165 58.3564 11.285C58.3564 11.495 58.3714 11.51 58.4914 11.51H59.1364C59.0614 13.91 59.0314 15.185 59.0314 15.35C59.0314 16.04 59.1364 16.43 59.4214 16.73C59.6614 16.985 60.0964 17.15 60.5314 17.15C61.1614 17.15 62.0464 16.895 62.7814 16.49C62.9914 16.37 62.9914 16.37 62.9914 16.175V15.89H62.8564C62.3914 16.1 62.0614 16.19 61.6564 16.19C61.2514 16.19 60.9064 16.055 60.7264 15.845C60.5614 15.62 60.5164 15.335 60.5164 14.555V13.94C60.5164 13.61 60.5314 13.1 60.5464 12.485L60.5614 11.795V11.525ZM68.9852 10.535C66.7052 10.535 65.1902 11.9 65.1902 13.94C65.1902 15.86 66.5402 17.165 68.4902 17.165C70.6652 17.165 72.2702 15.71 72.2702 13.745C72.2702 11.885 70.8902 10.535 68.9852 10.535ZM68.4452 11.18C69.7052 11.18 70.6652 12.53 70.6652 14.315C70.6652 15.665 70.0052 16.52 68.9702 16.52C67.7252 16.52 66.7952 15.185 66.7952 13.43C66.7952 12.065 67.4402 11.18 68.4452 11.18Z" fill="white"/>
<g clip-path="url(#clip0)">
<path d="M12 24C8.7947 24 5.7812 22.7518 3.51473 20.4853C1.24821 18.2188 0 15.2053 0 12C0 8.79469 1.24821 5.78123 3.51473 3.51473C5.7812 1.24821 8.7947 0 12 0C15.2054 0 18.2188 1.24821 20.4853 3.51473C22.7518 5.78123 24 8.79471 24 12C24 15.2053 22.7518 18.2188 20.4853 20.4853C18.2188 22.7518 15.2054 24 12 24ZM12 1.32162C6.11192 1.32162 1.32162 6.11192 1.32162 12C1.32162 17.8881 6.11192 22.6784 12 22.6784C17.8881 22.6784 22.6784 17.8881 22.6784 12C22.6784 6.11192 17.8881 1.32162 12 1.32162Z" fill="white"/>
<path d="M14.294 18.7779H9.70605C7.23354 18.7779 5.22205 16.7664 5.22205 14.2939V9.70598C5.22205 7.23347 7.23354 5.22192 9.70605 5.22192H14.294C16.7665 5.22192 18.778 7.23347 18.778 9.70598V14.2939C18.778 16.7664 16.7665 18.7779 14.294 18.7779ZM9.70605 6.54355C7.96228 6.54355 6.54366 7.96219 6.54366 9.70598V14.2939C6.54366 16.0376 7.96229 17.4563 9.70605 17.4563H14.294C16.0377 17.4563 17.4564 16.0377 17.4564 14.2939V9.70598C17.4564 7.9622 16.0377 6.54355 14.294 6.54355H9.70605Z" fill="white"/>
<path d="M12.0001 15.7196C9.94918 15.7196 8.28064 14.0511 8.28064 12.0002C8.28064 9.94928 9.94918 8.28076 12.0001 8.28076C14.0509 8.28076 15.7194 9.94928 15.7194 12.0002C15.7194 14.0511 14.0509 15.7196 12.0001 15.7196ZM12.0001 9.60238C10.6779 9.60238 9.60226 10.678 9.60226 12.0002C9.60226 13.3223 10.6779 14.3979 12.0001 14.3979C13.3222 14.3979 14.3978 13.3223 14.3978 12.0002C14.3978 10.678 13.3222 9.60238 12.0001 9.60238Z" fill="white"/>
<path d="M15.4827 9.11967C15.8154 9.11967 16.0851 8.85 16.0851 8.51735C16.0851 8.1847 15.8154 7.91504 15.4827 7.91504C15.1501 7.91504 14.8804 8.1847 14.8804 8.51735C14.8804 8.85 15.1501 9.11967 15.4827 9.11967Z" fill="white"/>
</g>
<defs>
<clipPath id="clip0">
<rect width="24" height="24" fill="white"/>
</clipPath>
</defs>
</svg>
