<svg width="381" height="53" viewBox="0 0 381 53" fill="none" xmlns="http://www.w3.org/2000/svg">
<path d="M29.376 24.432L24.096 24.72C21.84 24.864 19.824 25.008 18.144 25.152C17.904 22.56 17.76 20.592 17.664 19.296C23.568 18.768 27.6 18.48 29.808 18.432L29.376 24.432ZM16.368 32.736C16.704 31.584 16.704 30.96 16.368 30.816C16.128 30.768 15.888 30.912 15.648 31.296C15.408 31.728 15.12 32.112 14.88 32.496C14.064 33.696 13.104 34.704 12.048 35.76C11.712 36.096 11.232 36.432 10.416 36.864C9.6 37.296 9.072 37.68 8.832 37.968C8.592 38.352 8.448 38.832 8.448 39.408C8.448 40.128 8.64 40.608 9.072 40.896C9.312 41.04 9.6 41.136 9.888 41.136C10.32 41.136 10.896 40.896 11.616 40.416C12.768 39.6 13.728 38.496 14.544 37.104C15.264 35.904 15.84 34.416 16.368 32.736ZM34.608 17.712C34.56 17.472 34.224 17.088 33.504 16.608C32.688 16.08 31.824 15.504 31.008 14.928L29.28 16.992L18 17.664C17.232 17.328 16.608 17.04 16.128 16.8C15.408 16.464 14.784 16.224 14.256 16.08C14.496 17.568 14.64 18.672 14.736 19.392C14.976 21.168 15.168 23.568 15.312 26.544C15.312 27.12 15.264 27.696 15.264 28.272C15.216 28.992 15.408 29.424 15.648 29.472C15.984 29.568 16.416 29.328 16.992 28.704C17.568 28.128 17.952 27.456 18.144 26.688C19.824 26.544 20.976 26.448 21.648 26.4C22.08 26.352 22.368 26.304 22.608 26.256V28.944C22.608 29.952 22.608 30.912 22.608 31.776V37.872C22.608 38.88 22.512 39.504 22.368 39.648C22.272 39.744 21.408 39.648 19.824 39.408C19.776 39.408 19.536 39.36 19.2 39.264C18.816 39.168 18.528 39.12 18.384 39.12C18.192 39.12 18.096 39.168 18.048 39.216C17.952 39.456 18.384 39.888 19.296 40.416C20.016 40.848 20.592 41.568 20.976 42.624C21.312 43.632 21.648 44.256 21.888 44.4C22.176 44.544 22.656 44.448 23.28 44.112C24.768 43.248 25.584 42.096 25.584 40.656C25.632 38.304 25.536 36.432 25.488 35.04C25.44 33.744 25.392 32.064 25.392 29.904C26.208 29.088 26.592 28.56 26.592 28.224C26.592 27.792 25.392 27.12 23.04 26.304C26.736 26.064 29.376 25.92 30.912 25.92C31.152 25.92 31.68 25.92 32.4 25.968C32.928 26.016 33.312 26.016 33.552 25.968C33.888 25.92 34.08 25.872 34.128 25.728C34.32 25.392 34.224 25.008 33.792 24.576L32.88 23.664C33.024 21.696 33.12 20.352 33.168 19.536L34.176 18.672C34.464 18.384 34.608 18.048 34.608 17.712ZM39.648 36.288C39.504 35.184 38.928 34.272 37.872 33.552C36.48 32.64 34.512 31.776 32.064 31.056C30.912 30.72 30.24 30.72 30 31.152C29.904 31.344 30.048 31.584 30.48 31.92C30.768 32.112 31.056 32.304 31.392 32.544C32.496 33.456 33.36 34.272 33.888 34.992C34.224 35.472 34.656 36.24 35.184 37.248C35.616 38.064 35.952 38.64 36.288 38.928C36.624 39.216 37.008 39.36 37.44 39.36C37.92 39.36 38.4 39.216 38.832 38.928C39.552 38.4 39.792 37.536 39.648 36.288ZM42.672 11.712C42.864 11.28 42.432 10.656 41.424 9.936C39.84 8.784 38.688 7.968 37.872 7.44L35.76 10.56C31.632 10.752 28.32 10.896 25.824 10.992V7.296C26.112 7.008 26.4 6.672 26.688 6.336C26.976 6 27.072 5.664 27.024 5.328C26.976 4.992 26.304 4.608 25.056 4.368C23.76 4.08 22.8 3.888 22.128 3.744C22.272 5.424 22.368 6.672 22.368 7.44V11.088L10.752 11.664C9.648 11.712 7.584 11.712 4.512 11.664C5.04 12.768 5.424 13.632 5.664 14.208C7.44 13.872 9.408 13.584 11.568 13.392C14.736 13.152 19.008 12.864 24.336 12.576C29.568 12.336 35.184 12.192 41.088 12.096C42.048 12.096 42.576 11.952 42.672 11.712ZM73.536 32.88C73.536 33.6 73.536 35.088 73.488 37.296C71.952 37.392 70.8 37.44 70.08 37.488C68.64 37.584 67.584 37.632 66.864 37.632C66.912 36.72 66.864 35.136 66.816 32.784L69.216 32.544C70.08 32.448 70.704 32.4 71.088 32.352C72.24 32.256 72.816 32.16 72.864 32.112C72.912 32.016 72.816 31.728 72.528 31.296C72.288 30.96 72.144 30.768 72 30.624C70.608 31.008 69.648 31.248 69.12 31.296C68.4 31.344 67.632 31.44 66.768 31.488C66.72 28.512 66.72 26.976 66.72 26.832C69.552 26.64 71.808 26.496 73.488 26.448C73.488 26.976 73.536 27.936 73.536 29.376V32.88ZM74.736 13.2C73.728 15.216 72.72 17.04 71.664 18.624L69.456 18.72V13.632C70.896 13.488 72.192 13.44 73.344 13.392C73.872 13.344 74.352 13.296 74.736 13.2ZM81.264 19.104C81.36 18.816 81.024 18.336 80.208 17.616C79.296 16.896 78.624 16.368 78.096 16.032L76.416 18.336C75.504 18.384 74.88 18.384 74.544 18.432C75.072 17.664 75.648 16.704 76.272 15.6C77.328 13.824 78.288 12.048 79.152 10.224C80.256 9.792 80.832 9.408 80.832 9.024C80.832 8.448 79.68 7.344 77.424 5.76C77.088 7.056 76.752 8.256 76.368 9.264C75.84 10.56 75.408 11.664 75.024 12.528C74.64 12.096 74.304 11.808 74.064 11.664C72.912 10.8 72.24 10.272 72 10.08C71.328 11.04 70.848 11.76 70.608 12.24L69.456 12.336C69.504 10.608 69.504 9.072 69.552 7.68C70.272 7.056 70.656 6.576 70.656 6.336C70.608 6.096 70.032 5.712 68.832 5.376C68.736 5.328 68.016 5.136 66.624 4.752C66.672 6.816 66.72 8.112 66.72 8.544V12.528C65.232 12.624 64.224 12.672 63.696 12.672C62.592 12.72 61.632 12.768 60.864 12.768L61.536 14.4C62.544 14.256 63.36 14.112 63.936 14.064C65.376 13.872 66.336 13.872 66.768 13.824V18.864C63.408 19.056 61.536 19.152 61.2 19.152C60.48 19.2 59.28 19.248 57.648 19.248C58.08 20.256 58.368 20.832 58.512 21.024C59.328 20.88 60.384 20.688 61.68 20.592L68.592 20.016C69.264 19.968 69.984 19.968 70.752 19.92C70.272 20.544 69.696 21.264 68.976 22.176C68.16 23.28 67.296 24.336 66.432 25.344C65.52 24.96 64.848 24.672 64.32 24.432C64.368 25.056 64.464 26.064 64.512 27.504C63.984 28.128 63.552 28.608 63.12 28.944C61.152 30.864 59.856 32.112 59.28 32.736C57.84 34.224 57.024 34.896 57.264 35.184C57.312 35.28 57.456 35.328 57.6 35.328C58.128 35.328 58.992 34.848 60.144 33.936C61.152 33.12 62.64 31.728 64.608 29.856C64.656 31.2 64.656 32.256 64.656 33.072C64.608 35.52 64.56 37.248 64.512 38.304C64.416 39.504 64.272 40.416 64.224 41.04C64.128 41.712 64.224 42.096 64.368 42.144C64.704 42.288 65.136 42.048 65.76 41.424C66.336 40.848 66.672 40.176 66.816 39.456C66.864 39.36 66.864 39.216 66.864 38.976C68.352 38.88 69.648 38.784 70.752 38.736C71.856 38.688 72.768 38.64 73.44 38.592V41.28C73.44 42.048 73.536 42.48 73.632 42.528C73.968 42.768 74.496 42.624 75.216 42.192C75.84 41.76 76.224 41.328 76.416 40.896C76.56 40.608 76.56 39.84 76.512 38.544C76.464 36 76.416 34.176 76.416 33.12C76.368 30.672 76.32 28.8 76.32 27.408C77.232 26.688 77.664 26.112 77.616 25.776C77.616 25.536 77.232 25.152 76.464 24.624L74.88 23.472C74.208 24.24 73.728 24.816 73.44 25.152C71.376 25.296 69.84 25.44 68.928 25.488C69.696 24.624 70.512 23.712 71.328 22.704C72.144 21.696 72.912 20.736 73.632 19.776C74.736 19.728 75.744 19.68 76.656 19.632C77.568 19.584 78.624 19.584 79.872 19.536C80.736 19.536 81.216 19.344 81.264 19.104ZM95.376 30.192C95.376 28.224 94.992 26.544 93.888 24.672C93.408 23.856 92.352 22.416 90.768 20.496C89.664 19.152 88.992 17.904 88.992 17.232C88.992 15.936 89.904 14.256 92.064 12.096C92.64 11.952 93.216 11.856 93.792 11.76C94.56 11.616 94.944 11.232 94.944 10.752C94.944 10.272 93.696 8.88 91.2 6.672C90.336 7.776 89.712 8.64 89.328 9.168C87.264 9.36 85.68 9.456 85.152 9.504C83.472 8.496 82.464 7.824 81.648 7.392C81.936 10.464 82.08 13.056 82.08 15.216L82.032 25.056C82.032 25.968 82.032 27.168 81.984 28.752C81.936 30.432 81.936 31.68 81.936 32.4C81.84 36.48 81.744 39.504 81.6 41.568C81.504 43.056 81.408 44.208 81.36 44.976C81.36 45.456 81.552 45.696 81.984 45.696C82.32 45.696 82.608 45.552 83.088 45.264C84.048 44.64 84.528 43.92 84.72 43.008C84.816 42.672 84.864 41.712 84.864 40.08C84.864 37.968 84.816 34.8 84.768 30.624C84.72 26.448 84.624 23.328 84.624 21.168V11.136L89.232 10.608C88.368 13.632 87.792 15.648 87.792 16.56C87.792 17.904 88.656 20.016 90.24 22.848C91.44 25.008 92.016 27.456 92.016 29.328C92.016 29.856 91.824 30.144 91.392 30.288C91.152 30.336 90.672 30.384 89.904 30.432C87.984 30.48 87.072 30.48 87.024 30.672C86.976 30.96 87.408 31.008 88.608 31.584C90.384 32.448 90.864 32.832 90.864 33.552C90.864 33.792 90.864 34.032 90.816 34.32C90.768 34.608 90.768 34.848 90.768 35.04C90.768 35.568 90.912 35.76 91.344 35.76C91.872 35.76 92.4 35.568 93.12 34.944C93.744 34.416 94.176 33.888 94.56 33.312C95.088 32.496 95.376 31.488 95.376 30.192ZM139.632 19.728C139.632 18.48 139.44 17.904 139.056 17.856C138.768 17.808 138.528 18.048 138.432 18.528C138.336 18.912 138.288 19.296 138.192 19.68C137.568 21.696 136.8 23.52 135.744 25.344C135.504 25.776 135.024 26.4 134.352 27.264C133.728 28.08 133.248 28.8 132.96 29.28C132.768 29.664 132.672 30.144 132.672 30.672C132.672 31.2 132.816 31.728 133.104 32.256C133.392 32.736 133.776 32.976 134.208 32.976C134.64 32.976 135.216 32.592 135.936 31.92C137.088 30.768 138 29.04 138.672 26.976C139.392 24.816 139.68 22.464 139.632 19.728ZM152.736 7.776C152.736 7.152 151.968 6.672 150.48 6.336C149.472 6.096 148.56 5.904 147.6 5.712C147.888 8.784 148.032 10.8 148.032 11.76C147.984 12.96 148.032 14.736 148.08 17.04C148.128 19.68 148.128 21.216 148.128 21.696L148.272 29.856C148.32 33.168 148.128 34.896 147.936 35.328C147.648 36 147.36 36.336 146.88 36.336C146.784 36.336 146.64 36.288 145.104 36.24C143.952 36.192 143.328 36.288 143.28 36.528C143.184 36.864 143.424 36.96 143.76 37.104C144.096 37.296 144.336 37.44 144.672 37.632C145.488 38.064 146.208 39.264 146.784 40.944C147.024 41.712 147.216 42.24 147.36 42.432C147.6 42.816 147.792 43.008 148.224 42.912C148.704 42.816 149.136 42.48 149.52 41.952C149.76 41.664 150.048 41.232 150.384 40.512C151.152 38.976 151.392 37.056 151.392 34.704C151.392 33.648 151.344 31.488 151.248 28.416C151.152 25.152 151.104 22.896 151.104 21.6V9.552C151.152 9.456 151.488 9.216 152.16 8.688C152.592 8.352 152.736 8.064 152.736 7.776ZM166.032 30.816C166.944 30.816 167.472 29.952 167.808 29.184C168 28.8 168.096 28.272 168.096 27.648C168.096 26.4 167.52 25.104 166.32 24C164.976 22.752 163.344 21.696 161.28 20.736C158.688 19.584 157.008 18.816 156.048 18.576C154.704 18.24 154.032 18.192 153.888 18.432C153.84 18.528 153.84 18.624 153.84 18.72C153.84 18.96 154.224 19.392 155.136 19.92C156.864 20.88 158.352 21.984 159.696 23.136C160.896 24.096 162.096 25.488 163.248 27.168C163.344 27.36 163.68 27.984 164.16 28.992C164.544 29.76 165.12 30.816 166.032 30.816ZM201.408 26.352C201.264 24.384 201.168 22.848 201.12 21.84C201.168 21.792 202.416 21.744 204.864 21.648C204.96 23.616 205.008 25.104 205.056 26.112L201.408 26.352ZM210.72 21.312C210.672 23.952 210.672 25.392 210.672 25.728C209.28 25.776 208.272 25.824 207.552 25.872C207.456 23.904 207.36 22.464 207.312 21.504C208.704 21.456 209.856 21.36 210.72 21.312ZM217.728 20.832C217.68 22.8 217.632 24.288 217.488 25.392C216.144 25.44 214.752 25.536 213.264 25.584C213.264 24.384 213.312 22.896 213.36 21.12C214.656 21.024 216.096 20.928 217.728 20.832ZM204.912 15.696L204.816 12.864C206.064 12.72 207.264 12.624 208.464 12.528C210.432 12.384 211.632 12.24 212.064 12.192C213.024 12.048 213.504 11.952 213.552 11.904C213.648 11.664 213.36 11.04 212.736 10.128C212.016 10.464 211.104 10.656 210.096 10.8C208.032 11.088 206.208 11.328 204.72 11.472C204.672 10.272 204.672 9.216 204.624 8.352C206.688 8.208 208.272 8.064 209.28 8.016C211.824 7.872 213.6 7.728 214.656 7.68L214.704 14.976L204.912 15.696ZM188.736 16.656C188.736 15.36 188.592 14.688 188.304 14.688C188.112 14.688 187.872 15.12 187.536 15.984C187.296 16.656 186.912 17.376 186.336 18.192C186.048 18.624 185.616 19.104 185.28 19.584C184.896 20.064 184.704 20.544 184.704 21.072C184.704 21.648 184.848 22.176 185.04 22.704C185.328 23.376 185.664 23.712 186.192 23.712C187.104 23.712 187.776 22.704 188.256 20.736C188.592 19.344 188.736 18 188.736 16.656ZM194.784 7.008C194.736 6.528 194.208 6.096 193.2 5.76C192.528 5.52 191.616 5.184 190.464 4.848C190.608 7.008 190.656 8.688 190.704 9.792C190.752 11.856 190.848 14.64 190.848 18.048C190.848 18.768 190.752 24.24 190.512 36.48C190.512 36.912 190.464 37.584 190.416 38.544C190.368 39.552 190.32 40.272 190.32 40.8C190.32 41.904 190.56 42.48 190.992 42.48C191.52 42.48 192.096 42.096 192.72 41.232C193.344 40.416 193.68 39.408 193.728 38.208C193.776 36.816 193.68 34.704 193.584 31.776C193.488 28.32 193.488 25.728 193.44 24C193.392 22.992 193.392 20.64 193.392 16.848C193.392 12.384 193.392 9.792 193.44 8.976C193.776 8.64 194.064 8.256 194.4 7.92C194.688 7.584 194.832 7.296 194.784 7.008ZM226.368 40.704C226.368 40.368 225.648 40.224 224.256 40.224C221.52 40.224 218.976 39.936 216.672 39.312C215.328 38.976 214.032 38.544 212.784 37.968C212.112 37.68 211.584 37.344 211.248 37.104C212.352 36.096 213.6 34.56 214.944 32.448C216.672 32.16 217.536 31.728 217.536 31.2C217.536 30.624 216.432 29.568 214.272 28.032C213.456 28.608 212.88 29.088 212.496 29.424C208.992 29.712 206.88 29.856 206.16 29.904C205.68 29.952 205.056 29.904 204.336 29.856C203.424 29.808 202.8 29.808 202.512 29.808C202.944 30.624 203.232 31.296 203.424 31.824C204.72 31.68 205.68 31.536 206.4 31.392C209.232 31.152 211.296 31.008 212.592 30.864C211.776 32.784 210.576 34.416 209.088 35.808C208.032 35.088 206.736 33.888 205.2 32.304C204.096 33.36 203.28 34.032 202.848 34.368C201.936 34.944 201.216 35.376 200.688 35.664C201.408 36.336 201.984 36.864 202.32 37.296C203.328 36.48 204.24 35.472 205.104 34.32C205.92 35.184 206.784 36.048 207.696 36.96C205.776 38.448 203.568 39.648 201.12 40.512C199.584 41.088 198.384 41.376 197.568 41.568C196.08 41.952 195.408 42.288 195.504 42.624C195.648 43.008 196.416 43.104 197.808 42.912C199.296 42.672 200.688 42.384 202.032 42C203.808 41.472 205.296 40.896 206.496 40.272C207.648 39.648 208.656 39.072 209.472 38.496C211.056 39.744 212.88 40.992 214.992 42.24C215.712 42.672 216.72 43.104 218.016 43.632C218.688 43.872 219.312 43.968 219.84 43.872C220.848 43.392 221.664 42.96 222.192 42.528C223.68 41.904 224.496 41.568 224.736 41.52C225.84 41.28 226.368 40.992 226.368 40.704ZM199.44 16.416C199.488 15.84 199.296 15.12 198.768 14.304C198.24 13.488 197.136 12.864 195.456 12.384C194.736 12.144 194.64 12.192 194.4 12.192C194.208 12.192 194.064 12.336 194.064 12.48C194.064 12.624 194.208 12.816 194.448 13.104C194.784 13.536 194.928 13.728 195.024 13.872C195.6 14.88 196.224 15.936 196.704 17.04C196.992 17.664 197.376 17.952 197.904 17.952C198.816 17.952 199.296 17.424 199.44 16.416ZM222.336 20.832C222.432 20.448 222 19.92 220.992 19.2C220.176 18.576 219.552 18.144 219.12 17.856L217.584 19.536C209.28 19.968 204.144 20.256 202.128 20.352C200.544 19.632 199.2 19.104 198.192 18.816C198.336 20.112 198.528 21.12 198.576 21.744C198.864 24.864 198.912 27.312 198.912 28.992C198.912 29.76 199.008 30.144 199.152 30.144C199.872 30.144 200.544 29.76 201.12 29.04C201.36 28.752 201.456 28.32 201.504 27.696C203.76 27.504 206.304 27.36 209.136 27.216C212.544 27.024 215.232 26.88 217.296 26.736C217.248 28.128 217.344 28.896 217.632 29.04C217.92 29.184 218.496 28.992 219.36 28.368C219.984 27.936 220.368 27.504 220.512 27.12L220.656 21.84C221.76 21.408 222.288 21.072 222.336 20.832ZM218.88 7.344C218.88 7.056 217.968 6.24 216.096 4.896L214.656 6.288C212.16 6.48 210.432 6.672 209.424 6.72C207.456 6.864 206.064 6.912 205.152 6.96C203.808 6.24 202.752 5.712 201.984 5.376C202.224 7.008 202.368 8.496 202.416 9.792C202.512 11.568 202.56 12.576 202.56 12.912V15.408C202.56 16.416 202.608 17.136 202.608 17.664C202.56 19.152 202.608 19.92 202.752 19.968C202.992 20.064 203.376 19.92 203.952 19.584C204.288 19.44 204.528 19.2 204.72 18.864C204.912 18.576 205.008 18 204.96 17.136C207.216 16.944 210.48 16.704 214.656 16.464V17.664C214.656 18.288 214.752 18.624 214.992 18.624C215.424 18.624 215.904 18.48 216.384 18.192C217.248 17.664 217.68 16.944 217.632 16.032C217.584 15.6 217.536 14.784 217.488 13.488C217.44 12.384 217.44 11.568 217.44 10.944C217.44 10.752 217.44 10.416 217.392 9.936C217.344 9.456 217.296 9.12 217.296 8.88C218.352 8.16 218.88 7.632 218.88 7.344Z" fill="white"/>
<path d="M282.073 23.684C282.073 23.495 281.989 23.327 281.842 23.201C281.401 22.802 280.876 22.613 280.288 22.613C280.141 22.613 279.826 22.739 279.343 22.97C278.986 23.159 278.587 23.306 278.104 23.453C277.243 23.684 276.613 23.852 276.172 23.957C275.857 22.928 275.626 22.172 275.479 21.647C275.983 21.521 276.592 21.395 277.285 21.248C277.978 21.101 278.503 21.017 278.839 20.954C279.322 20.849 279.574 20.618 279.574 20.282C279.574 19.988 279.406 19.778 279.091 19.652C278.881 19.589 278.587 19.547 278.23 19.547C277.957 19.547 277.747 19.589 277.558 19.694C276.634 20.177 275.836 20.513 275.185 20.681C275.038 19.862 274.954 19.379 274.954 19.274C274.954 19.127 274.975 18.896 275.038 18.623C275.101 18.35 275.122 18.182 275.122 18.098C275.122 17.657 274.681 17.447 273.799 17.447C272.98 17.447 272.35 17.657 271.867 18.056C271.678 18.203 271.594 18.329 271.594 18.455C271.594 18.581 271.699 18.644 271.909 18.644C272.413 18.644 272.749 18.707 272.917 18.854C273.19 19.043 273.484 19.778 273.799 21.059C272.539 21.416 271.657 21.605 271.174 21.647C270.796 21.689 270.544 21.71 270.439 21.71C269.998 21.71 269.83 21.689 269.788 21.689C269.704 21.689 269.62 21.773 269.62 21.878C269.62 21.962 269.767 22.109 270.061 22.34C270.502 22.676 270.88 22.844 271.153 22.844C271.237 22.844 271.342 22.823 271.468 22.781C272.623 22.424 273.505 22.172 274.072 22.004C274.408 23.159 274.639 23.915 274.765 24.314C274.072 24.503 273.379 24.671 272.686 24.839C271.867 25.028 271.153 25.133 270.565 25.133C270.292 25.133 269.956 24.986 269.557 24.692C269.41 24.587 269.305 24.524 269.221 24.545C269.116 24.545 269.053 24.671 269.053 24.902C269.053 25.28 269.326 25.763 269.872 26.351C270.082 26.582 270.292 26.687 270.502 26.687C270.586 26.687 270.922 26.582 271.531 26.351C272.602 25.952 273.778 25.595 275.059 25.259C275.458 26.603 275.836 28.031 276.193 29.564C276.445 30.635 276.844 31.181 277.411 31.181C277.726 31.181 277.978 31.076 278.188 30.887C278.398 30.698 278.503 30.446 278.503 30.131C278.503 29.879 278.398 29.501 278.146 29.018C277.516 27.779 276.928 26.435 276.445 24.986C278.125 24.587 278.125 24.629 278.797 24.503C279.196 24.419 279.826 24.377 280.624 24.377C280.813 24.377 280.96 24.356 281.065 24.356C281.737 24.356 282.073 24.125 282.073 23.684ZM281.485 18.623C281.506 18.035 281.191 17.573 280.54 17.258C280.057 17.027 279.616 16.859 279.196 16.796C278.797 16.733 278.545 16.754 278.482 16.859C278.419 16.922 278.608 17.195 279.07 17.657C279.616 18.245 280.099 18.644 280.435 18.98C280.645 19.19 280.855 19.274 281.128 19.253C281.359 19.211 281.464 19.001 281.485 18.623ZM283.48 17.258C283.501 16.67 283.186 16.208 282.535 15.893C282.052 15.662 281.611 15.494 281.191 15.431C280.792 15.368 280.54 15.368 280.477 15.473C280.435 15.536 280.624 15.809 281.065 16.271C281.632 16.838 282.094 17.279 282.43 17.615C282.64 17.825 282.85 17.909 283.123 17.867C283.354 17.846 283.48 17.636 283.48 17.258ZM301.204 23.054C301.309 23.054 301.372 23.096 301.372 23.201C301.372 23.306 301.309 23.474 301.162 23.684C300.805 24.188 300.532 24.545 300.343 24.755C299.986 25.154 299.65 25.49 299.356 25.721C299.083 24.776 298.894 24.188 298.831 23.915C300.238 23.348 301.015 23.054 301.204 23.054ZM299.482 26.099C300.259 25.784 300.784 25.553 301.057 25.385C301.813 24.881 302.338 24.482 302.716 24.23L303.346 23.789C303.619 23.642 303.766 23.495 303.766 23.306C303.766 23.075 303.556 22.781 303.157 22.403C302.842 22.109 302.548 21.899 302.296 21.752C302.023 21.605 301.855 21.542 301.75 21.542C301.561 21.647 301.435 21.752 301.351 21.857C301.246 21.962 301.12 22.067 300.952 22.172C299.986 22.55 299.209 22.823 298.621 22.991C298.495 22.466 298.432 22.025 298.432 21.668C298.432 21.605 298.432 21.521 298.453 21.416C298.474 21.311 298.474 21.227 298.474 21.164C298.474 21.017 298.39 20.891 298.222 20.807C297.781 20.576 297.277 20.45 296.731 20.45C296.542 20.45 296.311 20.513 296.059 20.618C295.744 20.723 295.576 20.87 295.576 21.038C295.576 21.143 295.744 21.206 296.101 21.332C296.374 21.416 296.584 21.584 296.689 21.794C296.731 21.857 296.815 22.109 296.92 22.508C297.025 22.907 297.109 23.222 297.151 23.411C295.912 23.852 295.093 24.062 294.694 24.062C294.547 24.062 294.421 23.999 294.295 23.852C294.169 23.726 294.064 23.663 294.001 23.663C293.917 23.663 293.854 23.747 293.791 23.936C293.728 24.125 293.686 24.293 293.686 24.398C293.686 24.629 293.77 24.902 293.917 25.217C294.106 25.574 294.295 25.763 294.505 25.763C294.526 25.763 294.715 25.658 295.093 25.448C295.723 25.091 296.5 24.734 297.403 24.419C297.928 26.288 298.201 27.485 298.243 28.031C298.285 28.598 298.306 29.018 298.327 29.291C298.39 29.585 298.558 29.879 298.831 30.173C299.104 30.467 299.377 30.614 299.65 30.614C300.133 30.614 300.385 30.299 300.385 29.669C300.385 29.375 300.238 28.745 299.965 27.779L299.482 26.099ZM315.757 31.265C315.988 31.265 316.471 31.181 317.248 30.992C317.983 30.824 318.487 30.677 318.76 30.572C320.272 30.026 321.532 29.333 322.54 28.493C323.506 27.674 324.409 26.582 325.249 25.196C325.942 24.083 326.299 23.474 326.362 23.39C326.425 23.306 326.593 23.138 326.887 22.907C327.118 22.718 327.244 22.571 327.244 22.445C327.244 22.256 327.139 22.046 326.929 21.794C326.698 21.563 326.425 21.311 326.11 21.08C325.711 20.765 325.396 20.618 325.165 20.618C324.997 20.681 324.892 20.765 324.829 20.828C324.64 20.996 324.493 21.101 324.43 21.122C324.115 21.29 323.485 21.437 322.582 21.563L320.65 21.815C319.789 21.92 319.054 21.962 318.466 21.962C318.109 21.962 317.731 21.878 317.332 21.731C317.122 21.647 316.996 21.605 316.975 21.605C316.87 21.626 316.807 21.689 316.807 21.794C316.807 21.941 316.849 22.088 316.912 22.235C317.101 22.634 317.332 22.949 317.605 23.222C317.815 23.432 318.046 23.537 318.277 23.537C318.718 23.432 319.096 23.306 319.39 23.222C320.545 22.886 321.553 22.676 322.456 22.529C323.275 22.382 323.758 22.319 323.905 22.319C324.136 22.319 324.241 22.403 324.241 22.592C324.241 22.865 324.052 23.39 323.674 24.167C323.023 25.49 322.288 26.603 321.448 27.485C320.608 28.367 319.537 29.144 318.256 29.837C317.227 30.278 316.45 30.593 315.904 30.761C315.568 30.866 315.4 30.992 315.421 31.097C315.442 31.202 315.547 31.265 315.757 31.265ZM325.963 18.56C325.963 18.266 325.711 17.993 325.228 17.741C324.787 17.51 324.409 17.405 324.094 17.405C323.968 17.405 323.8 17.447 323.611 17.552C323.317 17.699 323.17 17.783 323.149 17.804C321.826 18.308 320.209 18.56 318.298 18.56C317.941 18.56 317.752 18.602 317.752 18.707C317.794 18.833 317.836 18.917 317.878 18.98C318.067 19.19 318.193 19.337 318.277 19.442C318.655 19.799 318.97 19.988 319.201 19.988C319.306 19.988 319.516 19.967 319.873 19.925C320.671 19.82 321.469 19.694 322.267 19.589C323.233 19.463 324.031 19.379 324.682 19.358C325.123 19.337 325.459 19.253 325.669 19.148C325.858 19.043 325.963 18.833 325.963 18.56ZM348.118 18.287C348.118 18.098 347.971 17.909 347.656 17.678C346.963 17.174 346.354 16.922 345.829 16.922C345.64 16.922 345.409 16.964 345.178 17.048C344.863 17.153 344.716 17.3 344.716 17.468C344.716 17.489 344.842 17.594 345.115 17.741C345.388 17.888 345.535 17.993 345.598 18.056C345.913 18.371 346.06 19.715 346.06 22.046C346.06 23.117 345.997 24.041 345.871 24.776C345.598 26.477 344.821 28.01 343.54 29.375C343.162 29.774 342.616 30.236 341.881 30.761C341.629 30.95 341.482 31.055 341.419 31.118C341.356 31.181 341.335 31.223 341.335 31.244C341.335 31.328 341.377 31.37 341.482 31.37C341.923 31.37 342.868 30.887 344.317 29.921C345.976 28.829 347.047 27.296 347.53 25.301C347.803 24.188 347.929 22.235 347.929 19.463C347.929 19.337 347.971 19.148 348.034 18.875C348.097 18.602 348.118 18.413 348.118 18.287ZM344.086 19.547C344.086 19.358 343.918 19.127 343.603 18.896C342.994 18.455 342.469 18.224 341.986 18.224C341.818 18.224 341.587 18.287 341.314 18.371C340.957 18.497 340.789 18.602 340.789 18.728C340.789 18.791 340.894 18.875 341.083 18.98C341.44 19.169 341.671 19.337 341.776 19.526C341.986 19.883 342.091 20.849 342.091 22.403V23.201C342.091 23.558 342.07 23.81 342.07 23.978C342.07 24.629 342.364 24.944 342.973 24.944C343.582 24.944 343.897 24.503 343.897 23.621C343.897 23.411 343.876 23.096 343.855 22.676C343.813 22.256 343.792 21.941 343.792 21.731C343.792 20.891 343.834 20.366 343.939 20.135C344.044 19.904 344.086 19.715 344.086 19.547ZM374.83 23.81C374.788 23.327 374.032 23.033 372.772 23.033H365.107C363.7 23.033 362.902 22.991 362.692 22.907C362.566 22.865 362.482 22.76 362.44 22.613L362.314 22.193C362.23 21.878 362.062 21.71 361.831 21.71C361.684 21.71 361.537 21.857 361.348 22.13C361.159 22.424 361.075 22.76 361.075 23.138C361.054 23.558 361.159 23.999 361.39 24.44C361.684 25.007 361.999 25.301 362.356 25.343C362.545 25.364 362.881 25.301 363.343 25.133C363.805 24.986 364.162 24.902 364.393 24.902C365.191 24.902 366.451 24.902 368.194 24.944C370.399 24.986 371.932 24.965 372.814 24.839C373.528 24.734 374.053 24.587 374.41 24.377C374.704 24.209 374.851 24.02 374.83 23.81Z" fill="white"/>
<path d="M248.5 49V2" stroke="white"/>
</svg>
