<svg width="269" height="208" viewBox="0 0 269 208" fill="none" xmlns="http://www.w3.org/2000/svg">
<path d="M128.718 125.036C128.97 125.036 128.988 125.018 128.988 124.766C128.988 124.532 128.97 124.496 128.682 124.442C128.088 124.316 127.962 124.172 125.136 120.176L124.326 119.042C124.272 118.934 124.2 118.844 124.128 118.754C127.314 115.154 128.178 114.29 128.628 114.218C128.916 114.11 128.952 114.074 128.952 113.894C128.952 113.606 128.916 113.57 128.718 113.57H128.664C128.052 113.588 127.296 113.606 126.864 113.606L125.244 113.588C124.974 113.588 124.956 113.606 124.956 113.84C124.956 114.128 124.974 114.128 125.244 114.164C125.928 114.2 126.198 114.344 126.198 114.668C126.198 115.046 125.352 116.216 123.66 118.142C121.518 115.046 121.464 114.956 121.464 114.614C121.464 114.344 121.734 114.182 122.274 114.146C122.67 114.11 122.67 114.11 122.67 113.84C122.67 113.606 122.634 113.57 122.454 113.57H122.364C121.644 113.588 121.212 113.588 120.15 113.588L118.746 113.57C118.134 113.552 118.134 113.552 118.062 113.552C117.846 113.552 117.828 113.57 117.828 113.768C117.828 114.074 117.828 114.074 118.152 114.146C118.674 114.236 118.872 114.47 122.364 119.42C118.566 123.776 118.044 124.316 117.54 124.388C117.216 124.46 117.216 124.46 117.216 124.694C117.216 125.018 117.216 125.018 117.522 125.018C117.54 125.018 117.792 125.018 118.098 125L119.322 124.982C119.682 124.982 120.978 125 121.302 125.018H121.392C121.626 125.018 121.644 125 121.644 124.676C121.644 124.514 121.608 124.46 121.482 124.46C120.582 124.388 120.258 124.226 120.258 123.812C120.258 123.416 120.402 123.146 121.248 122.048C122.364 120.626 122.364 120.626 122.832 120.05C125.082 123.344 125.28 123.668 125.28 124.01C125.28 124.298 124.992 124.442 124.308 124.496C124.056 124.514 124.02 124.55 124.02 124.766C124.02 125.036 124.038 125.054 124.416 125.054C124.578 125.054 124.794 125.054 125.1 125.036C126.234 125.018 126.234 125.018 127.026 125.018C127.548 125.018 127.944 125.018 128.358 125.036H128.718ZM135.317 125C135.893 125.036 135.893 125.036 135.911 125.036C136.109 125.036 136.145 124.982 136.145 124.712C136.145 124.496 136.109 124.478 135.857 124.46C135.011 124.388 134.849 124.316 134.741 123.956C134.669 123.722 134.651 122.948 134.651 121.148C134.651 119.276 134.687 118.034 134.759 117.458C134.777 117.386 134.777 117.314 134.777 117.278C134.777 117.17 134.705 117.116 134.597 117.116C134.327 117.116 133.787 117.314 132.221 117.98L131.915 118.106C131.771 118.16 131.735 118.214 131.735 118.358C131.735 118.628 131.753 118.646 132.005 118.664C132.887 118.79 132.923 118.88 132.923 120.914C132.923 124.064 132.851 124.298 131.861 124.46C131.555 124.496 131.537 124.514 131.537 124.748C131.537 125 131.555 125.018 131.735 125.018H131.843C132.653 125 133.211 124.982 133.751 124.982L135.317 125ZM133.985 112.868C133.463 112.868 132.905 113.426 132.905 113.948C132.905 114.434 133.427 114.956 133.931 114.956C134.453 114.956 134.993 114.416 134.993 113.894C134.993 113.408 134.453 112.868 133.985 112.868ZM147.105 123.596L147.033 123.56C146.619 123.812 146.097 123.974 145.773 123.974C145.323 123.974 145.161 123.722 145.161 122.984C145.161 122.804 145.161 122.534 145.179 122.264C145.251 119.762 145.251 119.654 145.251 119.276C145.251 117.962 144.531 117.242 143.199 117.242C142.083 117.242 141.021 117.602 140.175 118.268C139.653 118.682 139.275 119.204 139.275 119.51C139.275 119.654 139.383 119.762 139.545 119.762C139.743 119.762 140.355 119.636 140.679 119.546C140.931 119.456 141.021 119.384 141.021 119.204C141.021 119.132 141.021 119.06 141.003 118.988C140.985 118.898 140.985 118.826 140.985 118.79C140.985 118.538 141.489 118.376 142.209 118.376C142.965 118.376 143.379 118.664 143.451 119.258C143.505 119.582 143.505 120.05 143.505 121.058C142.407 121.166 141.363 121.364 140.589 121.598C139.239 122.012 138.969 122.3 138.969 123.344C138.969 124.55 139.563 125.18 140.643 125.18C141.399 125.18 142.227 124.946 143.469 124.388C143.577 124.928 143.919 125.198 144.459 125.198C145.053 125.198 146.007 124.892 146.907 124.406C147.087 124.316 147.105 124.262 147.105 124.01V123.596ZM142.929 121.688C143.343 121.688 143.469 121.832 143.469 122.3C143.469 123.398 143.433 123.632 143.271 123.758C142.983 123.938 142.335 124.1 141.813 124.1C141.057 124.1 140.769 123.758 140.769 122.912C140.769 122.498 140.859 122.372 141.291 122.156C141.795 121.886 142.515 121.688 142.929 121.688ZM153.989 117.242C151.253 117.242 149.435 118.88 149.435 121.328C149.435 123.632 151.055 125.198 153.395 125.198C156.005 125.198 157.931 123.452 157.931 121.094C157.931 118.862 156.275 117.242 153.989 117.242ZM153.341 118.016C154.853 118.016 156.005 119.636 156.005 121.778C156.005 123.398 155.213 124.424 153.971 124.424C152.477 124.424 151.361 122.822 151.361 120.716C151.361 119.078 152.135 118.016 153.341 118.016ZM161.327 125.018C162.317 125 162.947 124.982 163.217 124.982C163.613 124.982 164.099 124.982 164.369 125C164.675 125.018 164.945 125.018 165.017 125.018C165.305 125.018 165.323 124.982 165.323 124.676C165.323 124.478 165.287 124.46 164.981 124.442C164.297 124.388 164.135 124.28 164.081 123.83C164.027 123.56 164.027 123.398 164.027 120.986C164.009 119.258 164.009 119.258 164.117 119.168C164.405 118.898 165.467 118.556 166.007 118.556C166.619 118.556 167.069 118.79 167.267 119.204C167.465 119.636 167.519 120.23 167.519 121.724C167.519 124.046 167.429 124.298 166.637 124.442C166.367 124.496 166.349 124.514 166.349 124.748C166.349 124.964 166.385 125.018 166.529 125.018H166.601C167.033 125 167.735 124.982 168.419 124.982C168.905 124.982 169.175 124.982 169.787 125C170.309 125.018 170.309 125.018 170.363 125.018C170.525 125.018 170.561 124.964 170.561 124.73C170.561 124.496 170.543 124.46 170.201 124.46C169.535 124.424 169.373 124.298 169.301 123.776C169.265 123.578 169.247 121.958 169.247 119.744C169.247 119.06 169.247 119.06 169.409 118.97C169.949 118.664 170.471 118.52 171.029 118.52C171.749 118.52 172.253 118.808 172.505 119.384C172.685 119.78 172.739 120.266 172.739 121.742C172.739 124.046 172.649 124.298 171.785 124.478C171.623 124.514 171.587 124.568 171.587 124.748C171.587 125 171.623 125.036 171.785 125.036H171.875C172.703 125 173.297 124.982 173.639 124.982L175.637 125C175.853 125 175.871 124.982 175.871 124.73C175.871 124.46 175.853 124.442 175.583 124.442C174.521 124.424 174.485 124.352 174.485 122.588V121.67C174.503 121.256 174.503 120.41 174.503 120.14C174.503 118.952 174.359 118.412 173.927 117.944C173.531 117.53 172.919 117.278 172.271 117.278C171.443 117.278 170.453 117.638 169.067 118.484C168.743 117.692 168.113 117.278 167.195 117.278C166.349 117.278 165.701 117.548 164.027 118.574C164.045 118.106 164.063 117.71 164.099 117.458C164.117 117.404 164.117 117.35 164.117 117.296C164.117 117.17 164.027 117.134 163.775 117.134C163.595 117.134 162.371 117.674 161.309 118.232C161.111 118.34 161.093 118.358 161.093 118.592C161.093 118.772 161.129 118.826 161.291 118.826C162.191 118.826 162.263 118.934 162.263 120.266C162.263 124.28 162.263 124.28 161.417 124.424C161.093 124.478 161.093 124.478 161.093 124.73C161.093 124.982 161.111 125.018 161.273 125.018H161.327ZM186.8 123.596L186.728 123.56C186.314 123.812 185.792 123.974 185.468 123.974C185.018 123.974 184.856 123.722 184.856 122.984C184.856 122.804 184.856 122.534 184.874 122.264C184.946 119.762 184.946 119.654 184.946 119.276C184.946 117.962 184.226 117.242 182.894 117.242C181.778 117.242 180.716 117.602 179.87 118.268C179.348 118.682 178.97 119.204 178.97 119.51C178.97 119.654 179.078 119.762 179.24 119.762C179.438 119.762 180.05 119.636 180.374 119.546C180.626 119.456 180.716 119.384 180.716 119.204C180.716 119.132 180.716 119.06 180.698 118.988C180.68 118.898 180.68 118.826 180.68 118.79C180.68 118.538 181.184 118.376 181.904 118.376C182.66 118.376 183.074 118.664 183.146 119.258C183.2 119.582 183.2 120.05 183.2 121.058C182.102 121.166 181.058 121.364 180.284 121.598C178.934 122.012 178.664 122.3 178.664 123.344C178.664 124.55 179.258 125.18 180.338 125.18C181.094 125.18 181.922 124.946 183.164 124.388C183.272 124.928 183.614 125.198 184.154 125.198C184.748 125.198 185.702 124.892 186.602 124.406C186.782 124.316 186.8 124.262 186.8 124.01V123.596ZM182.624 121.688C183.038 121.688 183.164 121.832 183.164 122.3C183.164 123.398 183.128 123.632 182.966 123.758C182.678 123.938 182.03 124.1 181.508 124.1C180.752 124.1 180.464 123.758 180.464 122.912C180.464 122.498 180.554 122.372 180.986 122.156C181.49 121.886 182.21 121.688 182.624 121.688ZM192.01 117.296C192.01 117.206 191.974 117.17 191.848 117.17C191.614 117.17 191.578 117.188 191.146 117.368L189.184 118.196C188.986 118.286 188.968 118.304 188.968 118.484C188.968 118.754 188.968 118.754 189.274 118.754C189.778 118.772 190.03 118.898 190.102 119.15C190.174 119.348 190.192 119.744 190.192 120.86C190.192 121.922 190.156 123.11 190.12 123.506C190.066 124.064 189.796 124.352 189.256 124.442C188.95 124.496 188.932 124.514 188.932 124.784C188.932 124.982 188.968 125.018 189.184 125.018C189.274 125.018 189.436 125.018 189.652 125L191.11 124.982C192.496 124.982 192.496 124.982 192.802 125H193.054C193.252 125 193.27 124.982 193.27 124.73C193.27 124.478 193.234 124.442 193 124.442C192.442 124.442 192.118 124.298 192.01 124.01C191.902 123.758 191.884 123.344 191.884 121.814C191.884 121.202 191.884 120.932 191.902 119.654C191.902 119.096 191.92 119.078 192.064 119.006C192.604 118.736 193.468 118.538 194.044 118.538C194.692 118.538 195.268 118.844 195.484 119.33C195.664 119.726 195.7 120.104 195.7 121.22C195.7 124.154 195.664 124.316 194.782 124.478C194.512 124.532 194.494 124.532 194.494 124.784C194.494 124.982 194.53 125.036 194.674 125.036C194.746 125.036 194.962 125.036 195.196 125.018L196.456 125H198.004C198.292 125.018 198.562 125.018 198.598 125.018C198.814 125.018 198.868 124.964 198.868 124.748C198.868 124.478 198.85 124.46 198.49 124.46C197.554 124.424 197.428 124.19 197.428 122.516C197.428 122.336 197.428 121.868 197.446 120.95V120.356C197.446 119.402 197.392 118.898 197.248 118.484C196.96 117.71 196.294 117.278 195.376 117.278C194.602 117.278 193.612 117.62 191.92 118.466C191.92 118.268 191.974 117.656 192.01 117.404V117.296ZM120.96 150.018C121.302 150 122.454 149.982 122.868 149.982C123.39 149.982 124.488 150 124.758 150.018L125.46 150.036H125.622C125.73 150.036 125.766 149.964 125.766 149.73C125.766 149.478 125.766 149.478 125.37 149.46C124.29 149.442 123.93 149.172 123.858 148.362C123.804 147.588 123.786 146.886 123.786 143.52C123.786 142.476 123.804 140.748 123.822 139.596C127.332 139.578 127.422 139.614 127.44 140.73C127.44 141.288 127.44 141.288 127.458 141.342C127.494 141.414 127.548 141.432 127.818 141.432C128.034 141.432 128.034 141.432 128.214 140.748C128.358 140.154 128.682 138.642 128.682 138.534C128.682 138.444 128.628 138.408 128.502 138.408C128.412 138.408 128.394 138.408 128.304 138.444C127.872 138.624 126.342 138.678 122.346 138.678C119.646 138.678 118.314 138.606 118.044 138.48C117.882 138.39 117.882 138.39 117.774 138.39C117.612 138.39 117.594 138.408 117.54 138.732C117.378 139.506 117.108 141.054 117.108 141.234C117.108 141.378 117.198 141.432 117.468 141.432C117.684 141.432 117.72 141.396 117.774 141.198C118.134 139.74 118.476 139.596 121.842 139.596C121.86 140.766 121.878 142.026 121.878 143.16C121.878 144.168 121.86 145.968 121.824 147.084C121.806 148.524 121.734 148.812 121.446 149.064C121.176 149.316 120.924 149.37 120.078 149.46C119.934 149.478 119.898 149.514 119.898 149.73C119.898 150 119.916 150.036 120.114 150.036L120.96 150.018ZM136.249 148.308H136.123C135.493 148.776 134.755 149.028 133.963 149.028C132.559 149.028 131.731 148.056 131.551 146.238C132.577 146.022 134.179 145.734 136.213 145.392C136.537 145.338 136.555 145.32 136.555 145.068C136.555 144.726 136.537 144.672 136.429 144.636C136.321 144.6 136.321 144.6 136.285 144.438C136.105 143.808 136.033 143.628 135.745 143.268C135.205 142.62 134.377 142.242 133.477 142.242C131.371 142.242 129.733 144.132 129.733 146.598C129.733 148.848 130.921 150.198 132.901 150.198C134.035 150.198 135.241 149.766 136.159 149.01C136.285 148.92 136.357 148.83 136.357 148.758C136.357 148.722 136.357 148.722 136.303 148.578L136.249 148.308ZM131.515 145.608C131.515 144.024 132.091 142.998 133.009 142.998C133.729 142.998 134.467 143.808 134.467 144.618C134.467 144.852 134.305 144.978 133.837 145.104C133.063 145.302 132.145 145.5 131.515 145.608ZM147.667 148.596L147.595 148.56C147.181 148.812 146.659 148.974 146.335 148.974C145.885 148.974 145.723 148.722 145.723 147.984C145.723 147.804 145.723 147.534 145.741 147.264C145.813 144.762 145.813 144.654 145.813 144.276C145.813 142.962 145.093 142.242 143.761 142.242C142.645 142.242 141.583 142.602 140.737 143.268C140.215 143.682 139.837 144.204 139.837 144.51C139.837 144.654 139.945 144.762 140.107 144.762C140.305 144.762 140.917 144.636 141.241 144.546C141.493 144.456 141.583 144.384 141.583 144.204C141.583 144.132 141.583 144.06 141.565 143.988C141.547 143.898 141.547 143.826 141.547 143.79C141.547 143.538 142.051 143.376 142.771 143.376C143.527 143.376 143.941 143.664 144.013 144.258C144.067 144.582 144.067 145.05 144.067 146.058C142.969 146.166 141.925 146.364 141.151 146.598C139.801 147.012 139.531 147.3 139.531 148.344C139.531 149.55 140.125 150.18 141.205 150.18C141.961 150.18 142.789 149.946 144.031 149.388C144.139 149.928 144.481 150.198 145.021 150.198C145.615 150.198 146.569 149.892 147.469 149.406C147.649 149.316 147.667 149.262 147.667 149.01V148.596ZM143.491 146.688C143.905 146.688 144.031 146.832 144.031 147.3C144.031 148.398 143.995 148.632 143.833 148.758C143.545 148.938 142.897 149.1 142.375 149.1C141.619 149.1 141.331 148.758 141.331 147.912C141.331 147.498 141.421 147.372 141.853 147.156C142.357 146.886 143.077 146.688 143.491 146.688ZM159.506 141.378C159.506 139.506 159.506 139.506 159.794 139.452C160.01 139.398 160.784 139.362 161.468 139.362C162.764 139.362 163.556 139.488 163.898 139.722C164.186 139.938 164.312 140.316 164.384 141.234C164.402 141.414 164.438 141.45 164.672 141.45C164.87 141.45 164.942 141.432 164.978 141.396C165.014 141.36 165.014 141.342 165.032 140.928C165.032 140.388 165.14 139.398 165.212 138.93C165.23 138.858 165.23 138.786 165.23 138.714C165.23 138.624 165.176 138.57 165.05 138.57H164.744C164.15 138.588 160.856 138.624 159.128 138.624C158.372 138.624 156.878 138.588 156.536 138.57H156.392C156.212 138.57 156.176 138.624 156.176 138.858C156.176 139.11 156.194 139.128 156.464 139.128C157.238 139.164 157.49 139.344 157.526 139.938C157.58 140.424 157.598 141.864 157.598 144.024C157.598 146.58 157.562 148.038 157.49 148.524C157.382 149.28 157.22 149.406 156.212 149.496C156.068 149.496 156.032 149.55 156.032 149.748C156.032 150.036 156.032 150.036 156.302 150.036H156.59C158.318 149.982 158.318 149.982 159.002 149.982C161.306 149.982 163.61 150 164.51 150.036H164.654C164.906 150.036 164.924 150.018 165.122 149.244C165.356 148.38 165.59 147.264 165.59 147.066C165.59 146.94 165.392 146.832 165.14 146.832C165.05 146.832 165.014 146.868 164.924 147.156C164.294 148.848 163.682 149.19 161.162 149.19C159.758 149.19 159.56 149.064 159.542 148.146C159.506 147.336 159.506 146.076 159.506 144.42C163.16 144.42 163.394 144.492 163.538 145.698C163.574 146.022 163.574 146.022 163.862 146.022C164.078 146.022 164.114 145.986 164.114 145.824C164.114 145.752 164.114 145.608 164.096 145.5C164.06 144.708 164.06 144.708 164.06 144.348C164.06 143.844 164.078 143.214 164.114 142.746C164.132 142.566 164.132 142.494 164.132 142.404C164.132 142.242 164.078 142.206 163.862 142.206C163.592 142.206 163.574 142.224 163.538 142.566C163.412 143.61 163.214 143.682 160.172 143.682C160.064 143.682 159.812 143.682 159.506 143.664V141.378ZM174.19 149.982H174.406L175.81 150H176.08C176.314 150 176.332 149.982 176.332 149.748C176.332 149.514 176.314 149.478 176.152 149.46C175.396 149.424 175.342 149.37 172.948 145.842C175.036 143.718 175.504 143.286 175.972 143.034C176.26 142.89 176.26 142.89 176.26 142.71C176.26 142.476 176.224 142.44 176.062 142.44H175.972C175.378 142.476 175.162 142.476 174.856 142.476H174.388C173.524 142.44 173.488 142.44 173.452 142.44C173.29 142.44 173.254 142.494 173.254 142.692C173.254 142.962 173.272 142.98 173.542 142.98C173.956 142.98 174.172 143.088 174.172 143.286C174.172 143.538 173.668 144.168 172.588 145.302C171.364 143.466 171.364 143.466 171.364 143.268C171.364 143.088 171.526 142.998 171.85 142.962C172.084 142.944 172.102 142.926 172.102 142.692C172.102 142.476 172.066 142.422 171.922 142.422H171.832C171.472 142.44 170.842 142.458 170.338 142.458C169.78 142.458 169.456 142.458 169.096 142.44C168.7 142.422 168.628 142.422 168.556 142.422C168.34 142.422 168.322 142.458 168.322 142.71C168.322 142.854 168.34 142.89 168.43 142.908C169.114 143.07 169.132 143.088 171.382 146.382C168.718 149.19 168.538 149.334 168.016 149.46C167.872 149.514 167.854 149.55 167.854 149.82C167.854 149.982 167.89 150.018 168.088 150.018H168.214C168.592 150 169.078 150 169.438 150L170.716 150.018H170.842C171.04 150.018 171.076 149.982 171.076 149.748C171.076 149.496 171.058 149.478 170.788 149.478C170.284 149.46 170.086 149.37 170.086 149.136C170.086 148.83 170.158 148.74 171.742 146.94C172.642 148.272 173.11 149.046 173.11 149.208C173.11 149.406 172.948 149.478 172.552 149.496C172.228 149.496 172.228 149.496 172.228 149.784C172.228 150 172.246 150.018 172.462 150.018C172.57 150.018 172.786 150.018 173.056 150L174.19 149.982ZM179.094 154.86C180.102 154.806 180.354 154.806 181.164 154.806C181.614 154.806 181.758 154.806 182.406 154.824C182.712 154.842 183.036 154.842 183.09 154.842C183.288 154.842 183.324 154.806 183.324 154.572C183.324 154.302 183.306 154.284 183.036 154.266C182.154 154.23 181.938 154.086 181.848 153.546C181.794 153.276 181.758 152.106 181.758 149.928C182.406 150.072 182.766 150.126 183.27 150.126C185.898 150.126 187.896 148.29 187.896 145.86C187.896 143.808 186.51 142.242 184.71 142.242C183.9 142.242 183.162 142.44 181.83 142.998C181.83 142.71 181.848 142.53 181.884 142.242C181.902 142.188 181.902 142.152 181.902 142.098C181.902 142.026 181.848 141.99 181.686 141.99C181.452 141.99 181.326 142.044 180.732 142.386C180.552 142.494 180.372 142.584 180.174 142.692C179.814 142.89 179.256 143.214 178.95 143.394C178.842 143.448 178.842 143.466 178.842 143.664C178.842 143.88 178.842 143.88 179.148 143.88C179.652 143.898 179.832 143.97 179.94 144.222C180.048 144.51 180.066 144.816 180.066 147.12C180.066 149.928 180.048 152.052 179.994 153.114C179.958 153.888 179.742 154.194 179.112 154.284C178.788 154.356 178.788 154.356 178.788 154.554C178.788 154.824 178.806 154.86 178.986 154.86H179.094ZM181.758 148.488C181.74 148.056 181.74 147.66 181.74 147.498C181.74 145.86 181.758 144.33 181.794 143.61C182.37 143.412 182.838 143.322 183.378 143.322C185.016 143.322 186.168 144.672 186.168 146.58C186.168 148.146 185.376 149.046 183.99 149.046C183.126 149.046 182.46 148.884 181.758 148.488ZM197.674 148.308H197.548C196.918 148.776 196.18 149.028 195.388 149.028C193.984 149.028 193.156 148.056 192.976 146.238C194.002 146.022 195.604 145.734 197.638 145.392C197.962 145.338 197.98 145.32 197.98 145.068C197.98 144.726 197.962 144.672 197.854 144.636C197.746 144.6 197.746 144.6 197.71 144.438C197.53 143.808 197.458 143.628 197.17 143.268C196.63 142.62 195.802 142.242 194.902 142.242C192.796 142.242 191.158 144.132 191.158 146.598C191.158 148.848 192.346 150.198 194.326 150.198C195.46 150.198 196.666 149.766 197.584 149.01C197.71 148.92 197.782 148.83 197.782 148.758C197.782 148.722 197.782 148.722 197.728 148.578L197.674 148.308ZM192.94 145.608C192.94 144.024 193.516 142.998 194.434 142.998C195.154 142.998 195.892 143.808 195.892 144.618C195.892 144.852 195.73 144.978 195.262 145.104C194.488 145.302 193.57 145.5 192.94 145.608ZM205.294 150.036C205.474 150.036 205.528 149.982 205.528 149.73C205.528 149.478 205.492 149.46 205.222 149.424C204.502 149.388 204.502 149.388 204.322 149.334C204.052 149.262 203.872 149.082 203.818 148.794C203.746 148.344 203.71 147.606 203.71 145.896C203.71 144.546 203.728 144.42 203.872 144.312C204.322 143.97 204.862 143.754 205.258 143.754C205.618 143.754 205.744 143.862 206.14 144.456C206.194 144.546 206.248 144.582 206.302 144.582C206.392 144.582 206.572 144.456 206.824 144.204C207.112 143.934 207.292 143.574 207.292 143.304C207.292 142.818 206.77 142.206 206.374 142.206C206.014 142.206 205.492 142.53 203.728 143.79C203.728 143.628 203.764 142.926 203.782 142.62C203.818 142.26 203.818 142.26 203.818 142.206C203.818 142.08 203.782 142.044 203.584 142.044C203.404 142.044 203.35 142.044 203.278 142.098C202.54 142.53 201.856 142.89 201.082 143.25C200.974 143.286 200.956 143.322 200.956 143.484C200.956 143.754 200.956 143.754 201.208 143.79C201.982 143.862 202.018 143.952 202.018 146.238C202.018 147.408 201.982 148.2 201.91 148.668C201.838 149.136 201.676 149.298 201.208 149.424C200.902 149.496 200.902 149.496 200.902 149.766C200.902 149.982 200.938 150.018 201.136 150.018C201.19 150.018 201.298 150.018 201.442 150C201.82 149.982 202.306 149.982 202.828 149.982C203.458 149.982 204.718 150 205.168 150.036H205.294ZM213.683 150C214.259 150.036 214.259 150.036 214.277 150.036C214.475 150.036 214.511 149.982 214.511 149.712C214.511 149.496 214.475 149.478 214.223 149.46C213.377 149.388 213.215 149.316 213.107 148.956C213.035 148.722 213.017 147.948 213.017 146.148C213.017 144.276 213.053 143.034 213.125 142.458C213.143 142.386 213.143 142.314 213.143 142.278C213.143 142.17 213.071 142.116 212.963 142.116C212.693 142.116 212.153 142.314 210.587 142.98L210.281 143.106C210.137 143.16 210.101 143.214 210.101 143.358C210.101 143.628 210.119 143.646 210.371 143.664C211.253 143.79 211.289 143.88 211.289 145.914C211.289 149.064 211.217 149.298 210.227 149.46C209.921 149.496 209.903 149.514 209.903 149.748C209.903 150 209.921 150.018 210.101 150.018H210.209C211.019 150 211.577 149.982 212.117 149.982L213.683 150ZM212.351 137.868C211.829 137.868 211.271 138.426 211.271 138.948C211.271 139.434 211.793 139.956 212.297 139.956C212.819 139.956 213.359 139.416 213.359 138.894C213.359 138.408 212.819 137.868 212.351 137.868ZM223.852 148.308H223.726C223.096 148.776 222.358 149.028 221.566 149.028C220.162 149.028 219.334 148.056 219.154 146.238C220.18 146.022 221.782 145.734 223.816 145.392C224.14 145.338 224.158 145.32 224.158 145.068C224.158 144.726 224.14 144.672 224.032 144.636C223.924 144.6 223.924 144.6 223.888 144.438C223.708 143.808 223.636 143.628 223.348 143.268C222.808 142.62 221.98 142.242 221.08 142.242C218.974 142.242 217.336 144.132 217.336 146.598C217.336 148.848 218.524 150.198 220.504 150.198C221.638 150.198 222.844 149.766 223.762 149.01C223.888 148.92 223.96 148.83 223.96 148.758C223.96 148.722 223.96 148.722 223.906 148.578L223.852 148.308ZM219.118 145.608C219.118 144.024 219.694 142.998 220.612 142.998C221.332 142.998 222.07 143.808 222.07 144.618C222.07 144.852 221.908 144.978 221.44 145.104C220.666 145.302 219.748 145.5 219.118 145.608ZM230.014 142.296C230.014 142.206 229.978 142.17 229.852 142.17C229.618 142.17 229.582 142.188 229.15 142.368L227.188 143.196C226.99 143.286 226.972 143.304 226.972 143.484C226.972 143.754 226.972 143.754 227.278 143.754C227.782 143.772 228.034 143.898 228.106 144.15C228.178 144.348 228.196 144.744 228.196 145.86C228.196 146.922 228.16 148.11 228.124 148.506C228.07 149.064 227.8 149.352 227.26 149.442C226.954 149.496 226.936 149.514 226.936 149.784C226.936 149.982 226.972 150.018 227.188 150.018C227.278 150.018 227.44 150.018 227.656 150L229.114 149.982C230.5 149.982 230.5 149.982 230.806 150H231.058C231.256 150 231.274 149.982 231.274 149.73C231.274 149.478 231.238 149.442 231.004 149.442C230.446 149.442 230.122 149.298 230.014 149.01C229.906 148.758 229.888 148.344 229.888 146.814C229.888 146.202 229.888 145.932 229.906 144.654C229.906 144.096 229.924 144.078 230.068 144.006C230.608 143.736 231.472 143.538 232.048 143.538C232.696 143.538 233.272 143.844 233.488 144.33C233.668 144.726 233.704 145.104 233.704 146.22C233.704 149.154 233.668 149.316 232.786 149.478C232.516 149.532 232.498 149.532 232.498 149.784C232.498 149.982 232.534 150.036 232.678 150.036C232.75 150.036 232.966 150.036 233.2 150.018L234.46 150H236.008C236.296 150.018 236.566 150.018 236.602 150.018C236.818 150.018 236.872 149.964 236.872 149.748C236.872 149.478 236.854 149.46 236.494 149.46C235.558 149.424 235.432 149.19 235.432 147.516C235.432 147.336 235.432 146.868 235.45 145.95V145.356C235.45 144.402 235.396 143.898 235.252 143.484C234.964 142.71 234.298 142.278 233.38 142.278C232.606 142.278 231.616 142.62 229.924 143.466C229.924 143.268 229.978 142.656 230.014 142.404V142.296ZM245.832 148.272C245.274 148.722 244.554 148.974 243.798 148.974C242.34 148.974 241.422 147.768 241.422 145.86C241.422 144.258 241.998 143.394 243.042 143.394C243.708 143.394 244.356 143.592 244.824 143.952C245.058 144.114 245.13 144.15 245.256 144.15C245.634 144.15 246.21 143.592 246.21 143.232C246.21 142.674 245.292 142.242 244.086 142.242C241.548 142.242 239.586 144.204 239.586 146.706C239.586 148.794 240.9 150.198 242.862 150.198C243.69 150.198 244.5 149.946 245.346 149.442C245.868 149.136 246.156 148.884 246.156 148.758C246.156 148.74 246.156 148.74 246.084 148.614L245.94 148.272H245.832ZM255.9 148.308H255.774C255.144 148.776 254.406 149.028 253.614 149.028C252.21 149.028 251.382 148.056 251.202 146.238C252.228 146.022 253.83 145.734 255.864 145.392C256.188 145.338 256.206 145.32 256.206 145.068C256.206 144.726 256.188 144.672 256.08 144.636C255.972 144.6 255.972 144.6 255.936 144.438C255.756 143.808 255.684 143.628 255.396 143.268C254.856 142.62 254.028 142.242 253.128 142.242C251.022 142.242 249.384 144.132 249.384 146.598C249.384 148.848 250.572 150.198 252.552 150.198C253.686 150.198 254.892 149.766 255.81 149.01C255.936 148.92 256.008 148.83 256.008 148.758C256.008 148.722 256.008 148.722 255.954 148.578L255.9 148.308ZM251.166 145.608C251.166 144.024 251.742 142.998 252.66 142.998C253.38 142.998 254.118 143.808 254.118 144.618C254.118 144.852 253.956 144.978 253.488 145.104C252.714 145.302 251.796 145.5 251.166 145.608ZM120.96 199.018C121.302 199 122.454 198.982 122.868 198.982C123.39 198.982 124.488 199 124.758 199.018L125.46 199.036H125.622C125.73 199.036 125.766 198.964 125.766 198.73C125.766 198.478 125.766 198.478 125.37 198.46C124.29 198.442 123.93 198.172 123.858 197.362C123.804 196.588 123.786 195.886 123.786 192.52C123.786 191.476 123.804 189.748 123.822 188.596C127.332 188.578 127.422 188.614 127.44 189.73C127.44 190.288 127.44 190.288 127.458 190.342C127.494 190.414 127.548 190.432 127.818 190.432C128.034 190.432 128.034 190.432 128.214 189.748C128.358 189.154 128.682 187.642 128.682 187.534C128.682 187.444 128.628 187.408 128.502 187.408C128.412 187.408 128.394 187.408 128.304 187.444C127.872 187.624 126.342 187.678 122.346 187.678C119.646 187.678 118.314 187.606 118.044 187.48C117.882 187.39 117.882 187.39 117.774 187.39C117.612 187.39 117.594 187.408 117.54 187.732C117.378 188.506 117.108 190.054 117.108 190.234C117.108 190.378 117.198 190.432 117.468 190.432C117.684 190.432 117.72 190.396 117.774 190.198C118.134 188.74 118.476 188.596 121.842 188.596C121.86 189.766 121.878 191.026 121.878 192.16C121.878 193.168 121.86 194.968 121.824 196.084C121.806 197.524 121.734 197.812 121.446 198.064C121.176 198.316 120.924 198.37 120.078 198.46C119.934 198.478 119.898 198.514 119.898 198.73C119.898 199 119.916 199.036 120.114 199.036L120.96 199.018ZM138.045 197.596L137.973 197.56C137.559 197.812 137.037 197.974 136.713 197.974C136.263 197.974 136.101 197.722 136.101 196.984C136.101 196.804 136.101 196.534 136.119 196.264C136.191 193.762 136.191 193.654 136.191 193.276C136.191 191.962 135.471 191.242 134.139 191.242C133.023 191.242 131.961 191.602 131.115 192.268C130.593 192.682 130.215 193.204 130.215 193.51C130.215 193.654 130.323 193.762 130.485 193.762C130.683 193.762 131.295 193.636 131.619 193.546C131.871 193.456 131.961 193.384 131.961 193.204C131.961 193.132 131.961 193.06 131.943 192.988C131.925 192.898 131.925 192.826 131.925 192.79C131.925 192.538 132.429 192.376 133.149 192.376C133.905 192.376 134.319 192.664 134.391 193.258C134.445 193.582 134.445 194.05 134.445 195.058C133.347 195.166 132.303 195.364 131.529 195.598C130.179 196.012 129.909 196.3 129.909 197.344C129.909 198.55 130.503 199.18 131.583 199.18C132.339 199.18 133.167 198.946 134.409 198.388C134.517 198.928 134.859 199.198 135.399 199.198C135.993 199.198 136.947 198.892 137.847 198.406C138.027 198.316 138.045 198.262 138.045 198.01V197.596ZM133.869 195.688C134.283 195.688 134.409 195.832 134.409 196.3C134.409 197.398 134.373 197.632 134.211 197.758C133.923 197.938 133.275 198.1 132.753 198.1C131.997 198.1 131.709 197.758 131.709 196.912C131.709 196.498 131.799 196.372 132.231 196.156C132.735 195.886 133.455 195.688 133.869 195.688ZM143.849 199C144.425 199.036 144.425 199.036 144.443 199.036C144.641 199.036 144.677 198.982 144.677 198.712C144.677 198.496 144.641 198.478 144.389 198.46C143.543 198.388 143.381 198.316 143.273 197.956C143.201 197.722 143.183 196.948 143.183 195.148C143.183 193.276 143.219 192.034 143.291 191.458C143.309 191.386 143.309 191.314 143.309 191.278C143.309 191.17 143.237 191.116 143.129 191.116C142.859 191.116 142.319 191.314 140.753 191.98L140.447 192.106C140.303 192.16 140.267 192.214 140.267 192.358C140.267 192.628 140.285 192.646 140.537 192.664C141.419 192.79 141.455 192.88 141.455 194.914C141.455 198.064 141.383 198.298 140.393 198.46C140.087 198.496 140.069 198.514 140.069 198.748C140.069 199 140.087 199.018 140.267 199.018H140.375C141.185 199 141.743 198.982 142.283 198.982L143.849 199ZM142.517 186.868C141.995 186.868 141.437 187.426 141.437 187.948C141.437 188.434 141.959 188.956 142.463 188.956C142.985 188.956 143.525 188.416 143.525 187.894C143.525 187.408 142.985 186.868 142.517 186.868ZM147.555 203.86C148.563 203.806 148.815 203.806 149.625 203.806C150.075 203.806 150.219 203.806 150.867 203.824C151.173 203.842 151.497 203.842 151.551 203.842C151.749 203.842 151.785 203.806 151.785 203.572C151.785 203.302 151.767 203.284 151.497 203.266C150.615 203.23 150.399 203.086 150.309 202.546C150.255 202.276 150.219 201.106 150.219 198.928C150.867 199.072 151.227 199.126 151.731 199.126C154.359 199.126 156.357 197.29 156.357 194.86C156.357 192.808 154.971 191.242 153.171 191.242C152.361 191.242 151.623 191.44 150.291 191.998C150.291 191.71 150.309 191.53 150.345 191.242C150.363 191.188 150.363 191.152 150.363 191.098C150.363 191.026 150.309 190.99 150.147 190.99C149.913 190.99 149.787 191.044 149.193 191.386C149.013 191.494 148.833 191.584 148.635 191.692C148.275 191.89 147.717 192.214 147.411 192.394C147.303 192.448 147.303 192.466 147.303 192.664C147.303 192.88 147.303 192.88 147.609 192.88C148.113 192.898 148.293 192.97 148.401 193.222C148.509 193.51 148.527 193.816 148.527 196.12C148.527 198.928 148.509 201.052 148.455 202.114C148.419 202.888 148.203 203.194 147.573 203.284C147.249 203.356 147.249 203.356 147.249 203.554C147.249 203.824 147.267 203.86 147.447 203.86H147.555ZM150.219 197.488C150.201 197.056 150.201 196.66 150.201 196.498C150.201 194.86 150.219 193.33 150.255 192.61C150.831 192.412 151.299 192.322 151.839 192.322C153.477 192.322 154.629 193.672 154.629 195.58C154.629 197.146 153.837 198.046 152.451 198.046C151.587 198.046 150.921 197.884 150.219 197.488ZM166.136 197.308H166.01C165.38 197.776 164.642 198.028 163.85 198.028C162.446 198.028 161.618 197.056 161.438 195.238C162.464 195.022 164.066 194.734 166.1 194.392C166.424 194.338 166.442 194.32 166.442 194.068C166.442 193.726 166.424 193.672 166.316 193.636C166.208 193.6 166.208 193.6 166.172 193.438C165.992 192.808 165.92 192.628 165.632 192.268C165.092 191.62 164.264 191.242 163.364 191.242C161.258 191.242 159.62 193.132 159.62 195.598C159.62 197.848 160.808 199.198 162.788 199.198C163.922 199.198 165.128 198.766 166.046 198.01C166.172 197.92 166.244 197.83 166.244 197.758C166.244 197.722 166.244 197.722 166.19 197.578L166.136 197.308ZM161.402 194.608C161.402 193.024 161.978 191.998 162.896 191.998C163.616 191.998 164.354 192.808 164.354 193.618C164.354 193.852 164.192 193.978 163.724 194.104C162.95 194.302 162.032 194.5 161.402 194.608ZM172.892 199C173.468 199.036 173.468 199.036 173.486 199.036C173.684 199.036 173.72 198.982 173.72 198.712C173.72 198.496 173.684 198.478 173.432 198.46C172.586 198.388 172.424 198.316 172.316 197.956C172.244 197.722 172.226 196.948 172.226 195.148C172.226 193.276 172.262 192.034 172.334 191.458C172.352 191.386 172.352 191.314 172.352 191.278C172.352 191.17 172.28 191.116 172.172 191.116C171.902 191.116 171.362 191.314 169.796 191.98L169.49 192.106C169.346 192.16 169.31 192.214 169.31 192.358C169.31 192.628 169.328 192.646 169.58 192.664C170.462 192.79 170.498 192.88 170.498 194.914C170.498 198.064 170.426 198.298 169.436 198.46C169.13 198.496 169.112 198.514 169.112 198.748C169.112 199 169.13 199.018 169.31 199.018H169.418C170.228 199 170.786 198.982 171.326 198.982L172.892 199ZM171.56 186.868C171.038 186.868 170.48 187.426 170.48 187.948C170.48 188.434 171.002 188.956 171.506 188.956C172.028 188.956 172.568 188.416 172.568 187.894C172.568 187.408 172.028 186.868 171.56 186.868ZM182.686 203.176C183.172 201.34 187.366 189.55 188.698 186.256H187.492C187.168 187.48 186.628 189.064 184.738 194.374C182.29 201.124 181.858 202.276 181.48 203.176H182.686ZM202.026 193.366C205.716 197.578 205.95 197.848 205.95 198.1C205.95 198.316 205.698 198.442 205.212 198.46C204.906 198.478 204.87 198.496 204.87 198.694C204.87 198.982 204.888 199.018 205.05 199.018H205.194C205.392 199 206.616 198.982 206.994 198.982C207.3 198.982 208.92 199 209.316 199.018H209.514C209.748 199.018 209.784 198.982 209.784 198.748C209.784 198.55 209.748 198.514 209.622 198.478C209.082 198.424 208.866 198.244 207.408 196.642C204.384 193.294 204.204 193.06 203.466 192.196C203.556 192.124 203.646 192.052 203.754 191.98C207.624 188.686 207.93 188.452 208.848 188.164C209.208 188.074 209.208 188.074 209.208 187.84C209.208 187.624 209.172 187.57 209.01 187.57H208.866C207.678 187.624 207.516 187.624 206.328 187.624H205.734C204.78 187.588 204.78 187.588 204.762 187.588C204.564 187.588 204.528 187.642 204.528 187.876C204.528 188.11 204.564 188.146 204.798 188.146C205.554 188.164 205.824 188.29 205.824 188.578C205.824 188.884 205.23 189.55 203.826 190.846C202.926 191.656 202.08 192.412 201.288 193.132C201.288 191.908 201.324 190.036 201.36 189.532C201.414 188.434 201.558 188.272 202.458 188.146C202.782 188.092 202.8 188.092 202.8 187.822V187.732C202.8 187.606 202.764 187.57 202.62 187.57H202.494C201.666 187.606 200.874 187.624 200.46 187.624C200.136 187.624 198.714 187.588 198.318 187.57H198.156C198.012 187.57 197.976 187.624 197.976 187.84C197.976 188.074 197.976 188.074 198.318 188.11C199.362 188.236 199.398 188.362 199.398 191.692C199.398 194.428 199.362 196.354 199.308 197.182C199.218 198.136 199.074 198.316 198.102 198.496C197.958 198.514 197.922 198.55 197.922 198.73C197.922 199.018 197.94 199.036 198.12 199.036H198.246C199.398 199.018 200.136 199 200.496 199C200.946 199 201.738 199 201.972 199.018H202.548C202.872 199.018 202.872 199.018 202.872 198.712C202.872 198.478 202.872 198.478 202.512 198.46C201.558 198.37 201.432 198.244 201.36 197.272C201.306 196.732 201.306 196.39 201.288 193.978L202.026 193.366ZM214.094 191.422C213.428 191.458 213.14 191.458 212.438 191.458C211.988 191.458 211.592 191.458 211.25 191.44L210.962 191.422H210.8C210.62 191.422 210.584 191.458 210.584 191.692C210.584 191.908 210.584 191.926 210.854 192.016C211.268 192.16 211.448 192.538 212.492 195.274C213.554 198.064 213.968 199.18 213.968 199.306C213.968 199.414 213.338 200.548 212.996 201.07C212.366 202.024 211.934 202.492 211.466 202.744C210.926 203.032 210.89 203.086 210.89 203.446C210.89 203.77 211.052 203.878 211.538 203.878C212.528 203.878 212.726 203.716 213.32 202.384C214.994 198.73 215.102 198.496 216.668 195.562C218.324 192.52 218.522 192.232 218.99 191.98C219.116 191.908 219.134 191.854 219.134 191.71C219.134 191.476 219.098 191.422 218.954 191.422H218.774C218.522 191.44 217.91 191.44 217.658 191.44C217.388 191.44 216.686 191.44 216.578 191.422H216.326C216.164 191.422 216.128 191.476 216.128 191.71C216.128 191.944 216.146 191.962 216.434 191.98C216.992 192.034 217.154 192.124 217.154 192.43C217.154 192.826 216.884 193.438 215.048 197.29C214.256 195.292 213.428 192.844 213.428 192.43C213.428 192.178 213.644 192.034 214.022 191.998C214.4 191.962 214.4 191.962 214.4 191.674C214.4 191.458 214.364 191.422 214.184 191.422H214.094ZM225.43 191.242C222.694 191.242 220.876 192.88 220.876 195.328C220.876 197.632 222.496 199.198 224.836 199.198C227.446 199.198 229.372 197.452 229.372 195.094C229.372 192.862 227.716 191.242 225.43 191.242ZM224.782 192.016C226.294 192.016 227.446 193.636 227.446 195.778C227.446 197.398 226.654 198.424 225.412 198.424C223.918 198.424 222.802 196.822 222.802 194.716C222.802 193.078 223.576 192.016 224.782 192.016ZM235.058 192.43C235.994 192.448 237.902 192.43 237.974 192.412C238.082 192.394 238.082 192.358 238.082 191.89C238.082 191.422 238.082 191.422 237.812 191.422H237.254L236.3 191.44H235.094C235.112 191.044 235.148 190.45 235.202 190.126V190.018C235.202 189.928 235.148 189.892 234.986 189.892C234.752 189.892 234.752 189.892 234.572 190.09C234.086 190.666 233.312 191.332 232.52 191.89C232.43 191.962 232.412 191.998 232.412 192.142C232.412 192.394 232.43 192.412 232.574 192.412H233.348C233.258 195.292 233.222 196.822 233.222 197.02C233.222 197.848 233.348 198.316 233.69 198.676C233.978 198.982 234.5 199.18 235.022 199.18C235.778 199.18 236.84 198.874 237.722 198.388C237.974 198.244 237.974 198.244 237.974 198.01V197.668H237.812C237.254 197.92 236.858 198.028 236.372 198.028C235.886 198.028 235.472 197.866 235.256 197.614C235.058 197.344 235.004 197.002 235.004 196.066V195.328C235.004 194.932 235.022 194.32 235.04 193.582L235.058 192.754V192.43ZM245.167 191.242C242.431 191.242 240.613 192.88 240.613 195.328C240.613 197.632 242.233 199.198 244.573 199.198C247.183 199.198 249.109 197.452 249.109 195.094C249.109 192.862 247.453 191.242 245.167 191.242ZM244.519 192.016C246.031 192.016 247.183 193.636 247.183 195.778C247.183 197.398 246.391 198.424 245.149 198.424C243.655 198.424 242.539 196.822 242.539 194.716C242.539 193.078 243.313 192.016 244.519 192.016Z" fill="white"/>
<g clip-path="url(#clip0)">
<path d="M47.7616 116.804C47.759 116.82 47.7365 116.961 47.7139 117.102C47.0428 117.593 46.6281 118.346 45.9797 118.856C45.8244 118.978 45.6269 119.045 45.3996 119.162C45.3504 119.498 45.2516 119.864 44.7425 119.899C44.6291 119.906 44.5274 120.063 44.4163 120.145C44.276 120.249 44.1427 120.372 43.9868 120.442C43.5564 120.635 43.5175 120.978 43.619 121.467C43.8992 121.385 44.1947 121.344 44.4455 121.214C44.7604 121.05 45.0956 120.863 45.3194 120.597C45.6526 120.2 46.0732 120.032 46.5234 119.864C46.6874 119.803 46.8065 119.621 46.9515 119.501C47.0478 119.421 47.1478 119.342 47.2569 119.283C47.4615 119.173 47.6738 119.077 47.8584 118.906C48.2576 118.75 48.6555 118.589 49.0568 118.438C49.2437 118.368 49.4374 118.316 49.6278 118.255C49.8016 118.2 49.9719 118.122 50.1499 118.094C50.3131 118.069 50.487 118.08 50.651 118.107C50.7434 118.122 50.8388 118.261 50.9101 118.244C51.4556 118.115 52.0314 118.134 52.537 117.788C52.7039 117.674 53.1085 117.727 53.2829 117.865C53.5176 118.049 53.6466 118.095 53.8526 117.88C54.1283 117.592 54.406 117.553 54.6654 117.908C54.6859 117.936 54.7153 117.989 54.73 117.985C55.2653 117.853 55.5511 118.361 55.9823 118.505C56.212 118.582 56.3579 118.888 56.5765 119.037C56.992 119.32 57.1078 119.765 57.2537 120.2C57.2592 120.216 57.2482 120.246 57.2574 120.253C57.6978 120.62 57.8648 121.099 57.8648 121.67C57.8648 121.866 58.0175 122.06 58.0214 122.257C58.0392 123.176 57.9882 124.098 58.0481 125.014C58.0746 125.419 58.3051 125.81 58.4674 126.278C58.2598 126.626 57.9784 127.098 57.6649 127.623C57.0123 127.759 56.5113 128.431 56.4633 129.197C56.4074 130.089 56.2767 130.976 56.1777 131.871C55.5213 132.043 54.9208 132.66 54.836 133.274C54.6763 133.323 54.4246 133.325 54.3629 133.435C54.1588 133.803 53.9717 134.198 53.8883 134.607C53.8578 134.756 54.1042 135.014 54.2799 135.146C54.5295 135.333 54.8312 135.448 55.1088 135.596C55.1684 135.628 55.2304 135.718 55.2747 135.708C55.9753 135.544 56.5445 135.972 57.0605 136.272C57.7532 136.676 58.5381 136.686 59.2175 137.033C59.9711 137.419 60.7849 137.592 61.5792 137.843C62.2077 138.042 62.7996 138.359 63.4139 138.608C63.5409 138.66 63.6956 138.637 63.8364 138.657C64.1421 138.7 64.5157 138.505 64.7173 138.939C64.7446 138.998 64.9523 138.971 65.0767 138.981C66.0037 139.06 66.9354 139.103 67.8557 139.232C68.2598 139.289 68.6405 139.52 69.0689 139.686C69.2229 139.516 69.4021 139.16 69.728 139.686C69.8332 139.856 70.1297 139.96 70.3513 139.987C71.2245 140.094 72.1029 140.156 72.9789 140.24C73.2255 140.264 73.5177 140.129 73.674 140.493C73.7066 140.569 73.9725 140.541 74.1309 140.561C74.8528 140.654 75.5725 140.784 76.2973 140.829C77.0525 140.875 77.8324 140.738 78.562 140.885C78.9207 140.957 79.4549 140.876 79.7037 141.348C79.7169 141.373 79.7706 141.394 79.8 141.389C80.5261 141.25 81.0768 141.765 81.8183 141.955C81.7191 142.218 81.6673 142.51 81.514 142.729C81.1596 143.235 81.2377 143.995 80.5564 144.322C80.3801 144.407 80.2917 144.739 80.2182 144.975C80.0995 145.357 80.0266 145.754 79.9343 146.144C79.8966 146.118 79.859 146.091 79.8213 146.065C79.6758 146.241 79.5537 146.448 79.3795 146.588C79.0696 146.837 78.7526 147.104 78.3943 147.255C77.8482 147.485 77.2792 147.637 76.7585 147.954C76.4947 148.115 76.1063 148.063 75.7438 148.111C75.6432 148.396 75.576 148.733 75.4099 149.007C75.2911 149.203 75.0408 149.318 74.8465 149.465C74.8204 149.484 74.7673 149.47 74.7453 149.491C73.8228 150.385 72.6983 149.813 71.675 149.884C71.0936 149.924 70.4219 149.728 69.9149 149.424C69.4879 149.168 69.0847 149.159 68.6494 149.127C68.5197 148.783 68.4329 148.439 68.2615 148.145C68.1724 147.993 67.9407 147.916 67.7608 147.833C67.5666 147.743 67.3577 147.687 67.0713 147.587C66.9336 147.768 66.7718 148.027 66.3972 147.561C66.2011 147.318 65.6668 147.309 65.2798 147.285C64.8191 147.257 64.4568 147.138 64.0962 146.809C63.7826 146.523 63.3151 146.42 62.9455 146.187C62.6908 146.027 62.4891 145.78 62.2593 145.577C62.1859 145.512 62.1047 145.448 62.016 145.411C61.6672 145.266 61.2769 145.189 60.9702 144.982C60.392 144.591 59.8217 144.2 59.3586 143.629C59.0853 143.292 58.5016 143.237 58.1044 142.98C57.5022 142.59 56.817 142.39 56.2467 141.877C55.8441 141.514 55.3745 141.044 54.634 141.026C54.1014 141.014 53.4349 140.849 53.0007 140.339C52.9361 140.263 52.7717 140.233 52.6614 140.247C52.1974 140.305 51.8353 140.086 51.4612 139.858C50.8552 139.487 50.1927 139.805 50.0866 140.416C49.5321 140.732 49.0385 141.047 48.5155 141.299C48.1805 141.461 47.8035 141.533 47.4429 141.637C47.1681 141.716 46.8848 141.855 46.6138 141.836C46.1533 141.805 45.9001 142.081 45.5979 142.337C45.4931 142.425 45.2947 142.421 45.1388 142.422C44.0561 142.429 42.9729 142.443 41.8907 142.417C41.4526 142.406 41.035 142.258 40.7565 141.868C40.6985 141.787 40.6799 141.678 40.6391 141.583C40.4337 141.107 39.2359 140.851 38.8369 141.184C38.7152 141.286 38.5499 141.39 38.4024 141.393C37.5186 141.412 36.6339 141.414 35.7501 141.393C35.5759 141.389 35.4044 141.263 35.1694 141.168C35.0558 141.231 34.854 141.343 34.6406 141.461C34.5148 141.134 34.4295 140.912 34.3315 140.657C34.4977 140.308 34.799 140.182 35.2108 140.23C35.3545 140.246 35.5812 140.209 35.6468 140.111C35.8918 139.744 36.2533 139.69 36.5889 139.787C37.0664 139.925 37.3171 139.531 37.6379 139.376C38.2326 139.09 38.7308 138.603 39.3013 138.255C39.857 137.915 40.4672 137.668 41.0253 137.332C41.314 137.158 41.5418 136.879 41.8377 136.61C42.3531 137.206 42.9062 136.392 43.534 136.556C43.534 136.281 43.534 136.052 43.534 135.792C43.3832 135.757 43.23 135.722 43.0767 135.687C43.063 135.676 43.0386 135.666 43.0371 135.654C42.9337 134.808 42.1487 134.629 41.6267 134.226C41.132 133.843 40.4857 133.668 39.9729 133.304C39.6358 133.065 39.4171 132.652 39.2287 132.243C38.9302 132.118 38.6315 131.993 38.3005 131.855C38.3005 131.584 38.3005 131.281 38.3005 130.847C38.7297 131.027 39.0891 131.178 39.3943 131.306C39.9345 131.175 40.4582 131.053 40.9794 130.921C41.4126 130.811 41.9528 131.199 42.2869 130.63C43.2934 130.634 44.3003 130.627 45.3062 130.656C45.4595 130.66 45.5987 130.855 45.7611 130.917C46.1553 131.065 46.454 130.802 46.6452 130.544C46.9054 130.192 47.0552 129.756 47.2724 129.315C47.3852 129.301 47.539 129.281 47.7366 129.256C47.7366 129.012 47.7355 128.795 47.7371 128.578C47.7377 128.486 47.7097 128.338 47.7526 128.311C48.4064 127.899 48.3005 127.079 48.6905 126.529C48.7104 126.501 48.7541 126.484 48.7611 126.455C48.8806 125.962 48.9967 125.468 49.1119 124.974C49.1283 124.904 49.1108 124.797 49.1522 124.765C49.9402 124.154 49.386 123.32 49.6148 122.55C49.0423 122.607 48.5905 122.385 48.13 122.819C47.8252 123.107 47.3134 123.233 46.8761 123.293C46.259 123.377 46.1264 124.018 45.6508 124.244C45.416 124.356 45.2107 124.534 44.9973 124.69C44.8717 124.782 44.7286 124.868 44.6411 124.991C44.0314 125.853 43.2382 126.404 42.1909 126.545C41.8788 127.166 41.1606 126.63 40.7575 127.064C40.6603 127.169 40.3733 127.074 40.1799 127.108C39.967 127.145 39.7643 127.242 39.5515 127.282C39.4024 127.31 39.2081 127.342 39.0961 127.271C38.7758 127.068 38.4963 126.799 38.1812 126.586C38.073 126.513 37.9069 126.529 37.715 126.495C37.9846 126.205 38.192 125.899 38.4733 125.702C38.8288 125.452 38.8592 125.136 38.8227 124.767C38.7892 124.429 38.8275 124.123 39.127 123.904C39.1901 123.857 39.2689 123.771 39.2675 123.705C39.2496 122.834 39.7115 122.231 40.2901 121.664C40.4702 121.487 40.5323 121.185 40.6441 120.938C40.6799 120.859 40.6844 120.76 40.7332 120.693C41.003 120.322 41.2819 119.958 41.5587 119.592C41.5689 119.579 41.6035 119.572 41.603 119.564C41.5403 118.713 42.5533 118.299 42.4429 117.424C42.4344 117.357 42.5084 117.266 42.5633 117.204C42.8433 116.889 42.8301 116.791 42.4584 116.536C42.8651 116.185 42.8606 116.031 42.442 115.73C42.0407 115.441 41.6421 115.192 41.1037 115.259C40.9134 115.283 40.6918 115.13 40.4991 115.028C40.3083 114.928 40.1359 114.791 39.8874 114.624C39.7102 114.24 39.4884 113.76 39.2783 113.305C39.5776 113.143 39.8346 112.952 40.122 112.862C40.5031 112.743 40.66 112.502 40.666 112.132C41.1542 112.006 41.6467 111.439 41.6147 111.014C41.4621 111.005 41.3041 110.997 41.1463 110.986C40.0034 110.909 38.8603 110.836 37.7179 110.752C37.3573 110.726 37.0475 110.075 37.3029 109.647C37.3713 109.532 37.4743 109.362 37.4366 109.27C37.1689 108.623 37.5468 107.986 37.4357 107.354C37.3966 107.132 37.2669 106.835 37.0951 106.753C36.9292 106.673 36.6576 106.838 36.4292 106.873C35.8098 106.969 35.5642 107.58 35.0866 107.867C34.9432 107.953 34.779 108.003 34.5783 108.09C33.6104 109.89 33.8912 111.636 35.0667 113.277C34.8941 113.591 34.4023 113.655 34.5267 114.128C34.5534 114.229 34.5536 114.352 34.6119 114.428C34.9435 114.864 34.8818 115.187 34.6155 115.651C34.3812 116.058 34.1974 116.467 33.7732 116.712C33.5582 116.836 33.3778 117.022 33.1648 117.151C33.0837 117.2 32.8956 117.215 32.857 117.165C32.3311 116.483 32.0542 117.229 31.6668 117.356C31.5131 117.407 31.3247 117.359 31.1538 117.341C30.9077 117.314 30.655 117.215 30.4199 117.25C30.0776 117.302 29.7485 117.444 29.373 117.56C29.3275 117.259 29.3036 117.101 29.2812 116.953C28.8627 116.829 28.4499 116.706 27.9999 116.573C28.0628 116.063 27.8628 115.687 27.3214 115.469C27.4802 115.342 27.5798 115.263 27.6324 115.221C27.529 114.976 27.4468 114.744 27.3361 114.526C27.0395 113.943 27.1219 113.316 27.5622 112.847C27.6271 112.778 27.6864 112.684 27.7055 112.593C27.805 112.115 27.9271 111.638 27.9713 111.155C28.0179 110.644 27.9852 110.126 27.989 109.612C27.9893 109.576 28.0045 109.541 28.0229 109.464C28.1669 109.422 28.3308 109.376 28.5346 109.317C28.5346 108.409 28.5061 107.509 28.5473 106.613C28.5661 106.205 28.7185 105.801 28.8181 105.398C28.8664 105.202 28.9881 105.008 28.9796 104.818C28.9613 104.41 29.0688 104.108 29.3188 103.766C29.5183 103.493 29.4615 103.032 29.5421 102.66C29.5883 102.447 29.6344 102.199 29.7699 102.053C29.8685 101.947 30.1439 101.905 30.2872 101.966C30.853 102.204 30.8452 102.223 30.9512 101.621C31.0645 101.608 31.1857 101.586 31.3074 101.583C31.4131 101.58 31.5194 101.597 31.7119 101.613C31.4462 102.344 32.003 102.822 32.2427 103.429C32.5343 103.54 32.8693 103.666 33.2125 103.796C33.4123 104.58 34.0908 104.785 34.7348 104.282C35.0337 104.048 35.3986 103.902 35.7303 103.711C35.8028 103.669 35.8699 103.61 35.9249 103.545C36.2982 103.109 36.7955 102.906 37.2913 102.648C37.7461 102.412 38.1533 102.154 38.6747 102.117C38.7726 102.11 38.9039 101.985 38.947 101.883C39.1876 101.31 39.6412 101.249 40.1668 101.298C40.4169 101.322 41.1524 101.01 41.5003 100.784C41.5429 100.756 41.6018 100.754 41.6538 100.742C42.0043 100.663 42.3856 100.649 42.6993 100.493C43.3978 100.146 44.126 100.342 44.8371 100.267C45.0304 100.246 45.2081 100.099 45.3999 100.03C45.7032 99.9204 46.0084 99.8125 46.3198 99.7319C46.7003 99.6334 47.1025 99.6052 47.4691 99.472C48.0312 99.2679 48.5715 99.001 49.1197 98.7578C49.1799 98.7311 49.2273 98.6726 49.2883 98.6499C49.7841 98.4653 50.2817 98.2857 50.7789 98.105C50.7957 98.0989 50.814 98.0962 50.8319 98.094C51.4869 98.0135 52.1426 97.9382 52.7966 97.8506C53.0855 97.812 53.4619 98.0182 53.618 97.5643C53.6272 97.5376 53.7164 97.5363 53.7691 97.5285C54.2975 97.4502 54.8271 97.3787 55.354 97.2909C55.4637 97.2727 55.6025 97.2238 55.6618 97.1402C55.9477 96.7376 56.3462 96.753 56.776 96.7227C57.3996 96.6789 58.0562 96.955 58.6523 96.5543C58.6886 96.5299 58.7915 96.623 58.8681 96.6431C58.9986 96.6773 59.138 96.7341 59.2645 96.7158C59.6361 96.6619 60.0058 96.5866 60.3716 96.4999C61.0334 96.3429 61.6841 96.1443 62.3818 96.1991C62.5195 96.2099 62.7135 95.898 62.8114 95.9338C63.1004 96.0395 63.3817 96.2131 63.6141 96.4205C63.8365 96.6189 64.0429 96.7266 64.3485 96.7602C64.6209 96.7901 64.8807 96.9871 65.1348 97.131C65.5329 97.3564 65.8996 97.7243 66.3201 97.8006C66.7701 97.8823 67.1067 98.0784 67.4712 98.3078C67.9968 98.6386 68.4827 98.9999 68.9616 99.4067C69.6923 100.027 70.106 100.879 70.7373 101.566C71.1214 101.983 71.246 102.648 71.4908 103.199C71.6084 103.465 71.6782 103.782 71.8671 103.979C72.4425 104.578 72.9108 105.195 72.8503 106.101C72.8378 106.288 72.9675 106.5 73.0686 106.678C73.4119 107.283 73.252 107.944 73.3018 108.583C73.3197 108.813 73.4153 109.038 73.4872 109.309C72.7275 109.594 72.4197 110.424 72.0871 111.162C71.8784 111.626 71.6435 111.786 71.204 111.785C71.0621 111.785 70.9201 111.801 70.7465 111.811C70.7151 111.981 70.6864 112.137 70.6461 112.356C70.362 112.371 70.0653 112.386 69.828 112.398C69.6622 112.788 69.5215 113.14 69.3629 113.484C69.2204 113.792 68.544 113.916 68.2757 113.741C68.1604 113.665 67.9422 113.683 67.8012 113.739C67.6473 113.8 67.5287 113.954 67.3854 114.075C67.7114 114.708 67.4969 115.327 66.7783 115.593C66.4443 115.716 66.0787 115.748 65.7308 115.836C65.3897 115.921 65.0529 116.025 64.7166 116.12C64.5793 115.693 64.5793 115.693 63.4237 115.564C63.2616 115.23 63.1015 114.899 62.9072 114.498C62.1733 114.742 62.0194 114.065 61.8383 113.577C61.6216 112.993 61.2777 112.826 60.7139 112.836C60.4577 112.841 60.1948 112.69 59.9413 112.592C59.0915 112.264 58.2628 112.163 57.4657 112.75C57.3721 112.819 57.1713 112.859 57.0904 112.804C56.6595 112.512 56.2742 112.547 55.8304 112.805C55.5574 112.964 55.1337 112.75 54.9045 113.159C54.8755 113.21 54.5236 113.216 54.2739 112.994C54.0385 112.784 53.394 112.748 53.1384 112.934C52.7089 113.246 52.2929 113.352 51.8012 113.433C51.4683 113.488 51.1152 113.703 50.868 113.948C50.4205 114.391 49.6655 114.484 49.4787 115.239C49.4438 115.38 49.1873 115.479 49.0179 115.568C48.7359 115.716 48.6101 115.923 48.5137 116.246C48.4494 116.461 48.0804 116.581 47.7616 116.804ZM54.3496 109.281C54.6151 109.415 54.8408 109.636 55.0342 109.61C56.0669 109.47 57.3137 110.197 58.0702 108.877C58.0859 108.849 58.127 108.833 58.1597 108.821C58.8188 108.586 59.3885 108.217 59.8482 107.674C59.9866 107.511 60.148 107.365 60.3118 107.227C60.6225 106.966 60.9407 106.713 61.2591 106.461C61.5503 106.231 61.8459 106.006 62.2224 105.715C62.2255 105.693 62.2477 105.536 62.2681 105.392C62.4565 105.356 62.6093 105.327 62.6467 105.32C63.1857 104.681 62.7495 104.115 62.7422 103.668C62.4761 103.456 62.1648 103.336 62.126 103.155C61.9576 102.37 60.9565 102.204 60.8979 101.367C60.4026 101.227 60.3857 100.435 59.7364 100.485C59.6532 100.491 59.5348 100.351 59.4726 100.253C59.2136 99.8432 58.7874 99.7319 58.3822 99.7382C57.7816 99.7475 57.1819 99.9405 56.5832 99.9337C55.7833 99.9245 55.2059 100.188 54.8785 100.918C55.0723 101.148 55.3633 101.336 55.3993 101.566C55.5362 102.439 55.398 103.267 54.7983 103.972C54.6102 104.193 54.4009 104.453 54.3488 104.724C54.2357 105.314 53.8467 105.515 53.4952 105.606C53.2569 105.924 53.1032 106.164 52.9165 106.373C52.3704 106.984 51.8272 107.59 51.9679 108.48C52.7792 108.57 53.5375 108.654 54.2838 108.737C54.3193 109.03 54.3385 109.189 54.3496 109.281ZM47.3976 104.007C47.4202 103.997 47.6136 103.964 47.7168 103.848C47.9026 103.64 48.0591 103.393 48.1777 103.138C48.2311 103.023 48.2171 102.808 48.1424 102.711C47.8435 102.324 47.5084 102.101 47.1277 102.646C47.0852 102.707 46.9255 102.676 46.824 102.703C46.6819 102.741 46.5404 102.785 46.404 102.84C45.7356 103.11 45.2176 103.565 44.8655 104.108C45.0463 104.358 45.2915 104.557 45.3469 104.801C45.5246 105.582 45.5664 105.639 46.3032 105.542C46.6502 105.055 46.976 104.598 47.3976 104.007ZM31.0435 104.543C31.1572 104.401 31.2706 104.26 31.3811 104.122C31.2508 103.983 31.1457 103.871 31.0325 103.75C30.88 103.88 30.7318 104.006 30.5719 104.142C30.7427 104.288 30.8838 104.408 31.0435 104.543Z" fill="white"/>
<path d="M29.0637 25.6302C29.3036 25.4436 29.5823 25.2233 29.0666 24.9248C29.006 24.8898 29.0064 24.7317 28.9934 24.6286C28.9796 24.5198 29.0285 24.3534 28.9732 24.3068C28.1894 23.6466 28.663 22.7503 28.5368 21.97C28.5168 21.8465 28.5229 21.7187 28.5154 21.5622C28.3424 21.5337 28.1908 21.5089 28.012 21.4795C28.012 18.7513 28.012 16.0381 28.012 13.288C28.1545 13.2531 28.3044 13.2164 28.4546 13.1798C28.4747 13.15 28.508 13.1221 28.512 13.0903C28.5988 12.4051 28.5624 11.6726 28.7985 11.0466C29.0638 10.343 28.8962 9.65733 29.0019 8.97599C29.0594 8.60547 29.2202 8.25011 29.3472 7.89262C29.4784 7.52293 29.7166 7.16478 29.7397 6.79079C29.7637 6.40041 30.0079 6.23143 30.171 5.96015C30.4778 5.44997 30.7448 4.88698 30.8839 4.30982C30.9781 3.91898 30.9272 3.50446 31.2626 3.19741C31.3276 3.13786 31.3536 3.01501 31.3652 2.91735C31.4012 2.61532 31.283 2.30822 31.6433 2.05671C31.7871 1.95634 31.6933 1.50266 31.7092 1.17822C32.4861 1.10576 31.9952 0.45017 32.2351 0C32.5658 0 32.9542 0 33.3426 0C33.718 0 34.0935 0 34.5206 0C34.4016 0.585518 34.7478 0.902973 35.0734 1.22356C35.4928 1.63667 35.9257 2.03565 36.349 2.44478C36.3941 2.48837 36.4113 2.56083 36.4456 2.6172C36.543 2.77686 36.6425 2.93515 36.8088 3.20288C37.2759 4.02115 37.8047 4.94748 38.3203 5.85079C39.0142 6.18137 39.5683 6.63981 39.8353 7.40154C39.8529 7.45165 39.8703 7.5071 39.9039 7.54533C40.2912 7.9861 40.7208 8.39524 41.0587 8.87198C41.3187 9.23879 41.4658 9.689 41.6606 10.1033C41.8064 10.4133 41.9491 10.7248 42.0915 11.0365C42.1331 11.1276 42.1967 11.2197 42.203 11.3146C42.2432 11.9227 42.3004 12.5176 42.725 13.0083C42.7905 13.084 42.7451 13.2565 42.7573 13.3837C42.8098 13.9291 42.7279 14.4609 42.944 15.0254C43.1561 15.5794 42.8363 16.1721 42.5325 16.7141C42.3357 17.0653 42.2655 17.5113 42.2205 17.9242C42.1691 18.3963 42.1179 18.9016 42.2277 19.3517C42.4489 20.2587 42.4294 21.1681 42.4547 22.0835C42.4589 22.234 42.6899 22.365 42.7452 22.5297C42.8642 22.8845 42.9786 23.1932 42.7996 23.6379C42.6157 24.0944 42.7661 24.6872 42.753 25.2199C42.7472 25.4539 42.8656 25.7518 42.5011 25.8569C42.4603 25.8687 42.458 26.0211 42.4389 26.1085C42.3616 26.4626 42.3622 26.8632 42.1907 27.161C41.8736 27.7118 42.0055 28.282 41.9879 28.8444C41.9634 29.6265 41.973 29.639 41.3964 29.8321C41.1704 30.2514 40.9686 30.5437 40.8504 30.8677C40.726 31.2085 40.7516 31.6203 40.5813 31.9256C40.4275 32.2011 40.0139 32.2772 40.0409 32.7447C40.0565 33.0146 39.8767 33.298 39.7749 33.5716C39.759 33.6143 39.6619 33.6286 39.6506 33.6698C39.5225 34.138 39.4119 34.6114 39.2799 35.0785C39.1635 35.4902 39.0245 35.8953 38.8987 36.3043C38.8677 36.4054 38.8202 36.5131 38.8292 36.6133C38.8958 37.356 38.6392 37.9548 38.1113 38.4632C38.0236 38.5476 37.9774 38.826 38.0412 38.9012C38.6111 39.5743 38.1047 40.0794 37.8254 40.6295C37.7562 40.7657 37.7196 40.9338 37.7174 41.088C37.7064 41.8414 37.6745 42.5978 37.7267 43.3476C37.7559 43.766 37.8337 44.2547 38.0731 44.5644C38.3434 44.9139 38.2991 45.073 37.9385 45.2772C38.2367 45.5252 38.3994 45.7016 38.0694 46.036C37.9192 46.1882 38.061 46.6064 37.9894 46.8821C37.9296 47.1124 37.7979 47.4276 37.6177 47.5012C37.113 47.7075 36.5668 47.8083 35.9534 47.9731C35.8609 48.2749 35.7356 48.5348 35.2353 48.1723C34.9773 47.9853 34.5053 48.105 34.1642 48.0878C33.9132 47.4474 33.4636 47.0564 32.9074 46.7561C32.4836 46.5272 32.078 46.2635 31.6617 46.0198C31.5891 45.9773 31.5058 45.9375 31.4243 45.9293C30.8209 45.8681 30.2167 45.8152 29.6479 45.7629C29.3558 44.7907 28.8846 44.1001 28.2421 43.8194C27.9237 43.3367 27.7087 43.0102 27.493 42.6842C27.4647 42.6415 27.412 42.6039 27.4062 42.5592C27.3209 41.9074 27.176 41.2542 27.1824 40.6027C27.1873 40.1048 27.3857 39.6088 27.5097 39.0602C27.5906 39.044 27.7453 39.0131 27.9271 38.9767C27.9589 38.8196 27.9906 38.6631 28.0279 38.4792C28.1749 38.4464 28.3278 38.4122 28.5346 38.366C28.5346 38.0231 28.4959 37.672 28.5443 37.3339C28.6058 36.9049 28.6521 36.4345 28.861 36.0765C29.1312 35.6135 28.991 35.4673 28.5819 35.3948C28.4621 34.982 28.5542 34.6797 28.857 34.4077C28.9602 34.3151 28.9847 34.0913 28.9857 33.927C28.9949 32.4016 28.9882 30.876 28.9942 29.3505C28.9951 29.1177 28.8902 28.8307 29.2438 28.7204C29.292 28.7053 29.308 28.5237 29.3088 28.419C29.3142 27.6655 29.3265 26.9113 29.301 26.1587C29.295 25.9851 29.1511 25.8162 29.0637 25.6302Z" fill="white"/>
<path d="M16.7924 100.841C16.622 101.177 16.464 101.465 16.3283 101.764C16.2374 101.964 16.1527 102.174 16.1098 102.389C16.0141 102.868 16.0428 103.401 15.8377 103.82C15.6596 104.183 15.2295 104.417 14.9108 104.708C14.8636 104.679 14.8163 104.649 14.7691 104.619C14.7691 104.835 14.7981 105.057 14.7616 105.266C14.719 105.511 14.5861 105.74 14.552 105.985C14.4993 106.362 14.3388 106.777 14.7673 107.097C14.5129 107.37 14.2615 107.64 14.0468 107.871C14.2718 108.219 14.5325 108.583 14.7456 108.974C14.8143 109.1 14.827 109.366 14.7465 109.451C14.3478 109.87 14.6204 110.394 14.4914 110.836C14.0422 112.377 14.4225 113.951 14.2491 115.495C14.2029 115.906 14.0464 116.361 13.8919 116.735C13.6204 117.391 13.4502 118.025 13.5039 118.756C13.3252 118.79 13.1742 118.819 12.9746 118.858C12.9746 119.152 12.9746 119.456 12.9746 119.783C12.7713 119.842 12.607 119.889 12.3862 119.953C12.2987 120.576 12.3427 121.28 12.0843 121.839C11.7745 122.509 12.0315 123.166 11.8462 123.854C11.6464 123.873 11.422 123.894 11.1563 123.919C11.1454 124.072 11.1346 124.225 11.1215 124.411C11.3807 124.434 11.6063 124.453 11.8678 124.476C11.8776 124.671 11.8782 124.851 11.8971 125.028C11.9723 125.735 11.9335 126.487 12.1726 127.131C12.3437 127.592 12.3709 128.017 12.4016 128.472C12.4071 128.554 12.4374 128.685 12.4901 128.706C12.9375 128.887 13.0138 129.249 12.9356 129.702C13.1224 129.741 13.2737 129.772 13.4313 129.805C13.4536 129.858 13.4891 129.905 13.4924 129.955C13.5724 131.156 13.6534 132.357 13.7238 133.559C13.7468 133.952 13.567 134.342 13.7236 134.742C14.1187 135.752 13.6934 136.881 13.9999 137.835C14.5367 139.505 14.0848 141.167 14.2808 142.816C14.3172 143.122 14.3592 143.506 14.5502 143.697C14.8428 143.99 14.7627 144.295 14.7647 144.603C14.7746 146.184 14.7698 147.765 14.7677 149.346C14.7674 149.523 14.752 149.7 14.6263 149.95C14.2799 149.563 13.9335 149.176 13.5138 148.708C13.5064 148.599 13.4903 148.367 13.4725 148.108C13.3023 148.079 13.1492 148.053 12.9682 148.022C12.9558 147.793 12.9441 147.578 12.9302 147.32C11.6806 147.37 11.567 146.244 10.9754 145.448C10.729 145.326 10.368 145.166 10.0289 144.967C9.90949 144.897 9.77987 144.74 9.76478 144.609C9.70181 144.065 9.69911 143.529 9.57101 142.975C9.45886 142.489 9.80891 141.894 9.95293 141.346C9.98012 141.243 10.003 141.138 10.02 141.032C10.0839 140.635 9.91458 140.235 10.2829 139.832C10.4426 139.657 10.5413 139.021 10.1209 138.61C9.95539 138.448 9.93201 137.889 10.0781 137.685C10.7151 136.796 10.5438 135.801 10.5616 134.827C10.5632 134.744 10.4768 134.626 10.3993 134.579C10.0302 134.351 10.1022 133.967 9.9946 133.626C9.70017 132.692 9.87302 131.73 9.69583 130.817C9.6286 130.47 9.72146 129.902 9.23203 129.654C9.17456 129.625 9.18597 129.41 9.20045 129.286C9.26103 128.765 9.03953 128.335 8.81032 127.9C8.75503 127.795 8.74715 127.657 8.74289 127.533C8.73337 127.258 8.72012 126.98 8.74367 126.706C8.81672 125.857 8.90626 125.009 8.98629 124.192C9.22596 124.282 9.54156 124.479 9.61071 124.412C9.80235 124.227 9.91437 123.94 10.0137 123.676C10.0961 123.457 10.1158 123.213 10.2205 122.989C10.0631 122.575 9.69263 122.515 9.25439 122.521C9.08687 122.524 8.9166 122.322 8.87275 122.294C8.90926 121.811 8.96455 121.437 8.95852 121.065C8.95171 120.643 9.01463 120.291 9.43146 120.087C9.89202 119.863 9.90658 118.491 9.42133 118.274C9.0246 118.096 9.14831 117.744 9.25393 117.542C9.57486 116.93 9.54599 116.799 8.86939 116.612C8.8376 116.603 8.80917 116.582 8.70195 116.527C8.7871 116.145 8.88292 115.747 8.96377 115.345C9.0465 114.934 8.96201 114.535 9.13806 114.09C9.49984 113.173 9.95141 112.245 9.77647 111.17C9.72897 110.878 9.97877 110.533 10.1014 110.217C10.1703 110.039 10.3078 109.874 10.3291 109.693C10.4276 108.861 10.4841 108.024 10.5808 107.191C10.6228 106.83 10.6599 106.441 10.8195 106.128C10.9624 105.847 11.2704 105.654 11.5457 105.383C11.3311 105.369 11.1116 105.354 10.8918 105.339C10.716 104.737 10.8148 104.666 12.0387 104.518C12.1197 104.213 12.2016 103.904 12.2836 103.596C12.311 103.602 12.3385 103.608 12.366 103.614C12.3618 103.596 12.3611 103.576 12.3528 103.561C12.0935 103.067 11.8027 102.588 11.592 102.074C11.5285 101.919 11.6874 101.669 11.7752 101.352C11.6215 101.221 11.288 100.995 11.8339 100.674C11.9435 100.61 11.8929 100.263 11.9201 100.009C12.0529 99.974 12.2007 99.9353 12.3953 99.8844C12.3953 99.12 12.3953 98.354 12.3953 97.5821C12.6028 97.536 12.7646 97.5001 12.9264 97.4642C12.9289 97.433 12.9315 97.4019 12.934 97.3708C12.7765 97.3334 12.619 97.296 12.3985 97.2436C12.3985 96.5482 12.3955 95.8358 12.4028 95.1237C12.4037 95.0458 12.4459 94.9209 12.5008 94.8984C12.9931 94.6971 12.9563 94.2767 12.9509 93.855C12.9419 93.1576 12.9485 92.4599 12.9485 91.7291C13.1269 91.6864 13.2906 91.6472 13.4851 91.6007C13.4851 91.0218 13.4851 90.4565 13.4851 89.8912C13.5421 89.9083 13.5991 89.9254 13.6561 89.9425C13.7539 89.7315 13.9018 89.5288 13.9372 89.3074C13.9859 89.003 13.9587 88.6841 13.9466 88.372C13.9363 88.1057 13.9654 87.9049 14.2399 87.7482C14.3806 87.6678 14.4047 87.3904 14.5024 87.2141C14.7784 86.7156 14.7961 86.1752 14.7819 85.6251C14.7804 85.5646 14.8295 85.47 14.8801 85.446C15.3019 85.246 15.3763 84.8774 15.3318 84.433C15.5118 84.4077 15.6656 84.386 15.7876 84.3689C16.0994 83.5661 16.3981 82.797 16.7108 81.9917C17.1359 81.9967 17.5849 81.9787 17.7684 81.3564C18.0553 81.8342 18.7511 81.9644 18.427 82.7037C18.6501 82.7459 18.8016 82.7746 18.9493 82.8026C19.0173 82.9871 19.0347 83.2153 19.1557 83.3318C19.7199 83.8748 20.0218 84.5648 20.3248 85.2691C20.4294 85.5122 20.6537 85.7246 20.8681 85.8913C21.3233 86.245 21.5409 86.673 21.3721 87.2974C21.8741 87.3134 21.8943 87.6279 21.8661 87.9983C21.8424 88.3089 21.7328 88.7693 21.8856 88.9092C22.4401 89.4169 21.9443 90.1601 22.3576 90.684C22.4299 90.7757 22.3007 91.1785 22.1598 91.2698C21.8112 91.4954 21.8705 91.8045 21.8598 92.1192C21.8495 92.4178 21.9943 92.8267 21.4024 92.6879C21.4024 93.0894 21.4024 93.4158 21.4024 93.7583C21.2129 93.793 21.0592 93.8213 20.8822 93.8537C20.8737 94.2996 20.8628 94.715 20.3698 94.9363C20.221 95.003 20.2028 95.3352 20.0846 95.519C19.9613 95.7107 19.7894 95.8699 19.6388 96.0432C19.5964 96.018 19.5539 95.9927 19.5114 95.9674C19.5025 96.1451 19.4958 96.323 19.4839 96.5004C19.4669 96.7534 19.5908 97.0954 19.1391 97.0812C18.9951 97.6412 18.0413 97.6291 18.2187 98.4504C18.2444 98.5695 17.9503 98.7709 17.7906 98.9189C17.3579 99.3198 16.975 99.7247 17.0878 100.411C17.1099 100.546 16.8768 100.725 16.7924 100.841ZM13.5749 103.964C13.2493 103.513 13.2493 103.513 12.984 103.562C12.9349 104.03 12.8861 104.496 12.8372 104.962C12.8283 105.289 12.2007 105.336 12.4307 105.781C12.6181 106.143 13.0265 106.247 13.4619 106.086C13.4963 105.44 13.5308 104.792 13.5749 103.964ZM12.3896 107.237C12.3884 107.297 12.3871 107.358 12.3858 107.418C12.7643 107.552 12.8901 108.156 13.472 107.96C13.472 107.653 13.472 107.35 13.472 106.903C13.0696 107.027 12.7296 107.132 12.3896 107.237Z" fill="white"/>
<path d="M51.9493 90.0761C51.4722 90.5186 51.1181 90.9297 50.9248 91.4842C50.8064 91.8238 50.6236 92.1403 50.4685 92.4666C50.4323 92.5426 50.3715 92.6122 50.3558 92.6916C50.268 93.1383 50.1905 93.5871 50.1088 94.0387C49.9215 94.0686 49.7822 94.0908 49.7702 94.0928C49.5242 94.4274 49.2812 94.6571 49.1605 94.9408C48.7932 95.8046 48.2394 96.3472 47.0831 96.2315C47.2653 96.5422 47.3812 96.7399 47.5189 96.9747C46.8228 97.0688 46.1359 97.1616 45.5577 97.2398C45.3047 96.9467 45.0872 96.6995 44.8752 96.4474C44.774 96.327 44.6454 96.2117 44.5942 96.0698C44.3477 95.386 43.8867 95.2297 43.2295 95.5688C42.9139 95.7316 42.4992 95.7225 42.219 95.922C41.8685 96.1716 41.5294 96.2559 41.1228 96.2409C41.018 96.2371 40.9114 96.3934 40.7992 96.4659C40.6007 96.594 40.3974 96.7144 40.0874 96.9047C40.0815 96.9309 40.044 97.1003 40.0101 97.2533C39.7757 97.1611 39.5573 97.0752 39.3029 96.9751C39.2554 96.7449 39.3548 96.3377 38.7911 96.5156C38.9537 95.7871 38.6236 95.3038 38.3202 94.805C38.2608 94.7073 38.2734 94.5571 38.2723 94.4309C38.2675 93.8794 38.3016 93.3256 38.2627 92.7769C38.1974 91.8552 38.1006 90.9349 37.9859 90.0181C37.9606 89.816 37.8419 89.5958 37.7029 89.4444C37.3064 89.0126 37.5042 88.4933 37.4411 88.0121C37.4201 87.8522 37.3586 87.6304 37.2442 87.5633C36.89 87.3556 36.9001 87.0481 36.8875 86.7042C36.8806 86.5151 36.7969 86.2874 36.6704 86.1522C36.3027 85.7588 35.896 85.4034 35.5045 85.0331C35.4261 85.0504 35.3477 85.0676 35.2693 85.0849C35.3739 84.8424 35.486 84.6029 35.5798 84.3562C35.6236 84.241 35.666 84.1076 35.6515 83.9898C35.529 82.9948 36.8076 82.1475 37.7876 82.68C38.3243 82.9715 38.8684 83.4306 39.5872 83.3496C39.791 83.3267 40.0134 83.5332 40.2356 83.6087C40.5911 83.7297 40.9536 83.8291 41.3987 83.9635C41.4064 84.0039 41.4356 84.1576 41.4571 84.2712C41.6768 84.3954 41.9335 84.4632 42.0673 84.6321C42.3563 84.9967 42.5633 85.1384 42.8684 84.6457C42.9564 84.5037 43.2172 84.4149 43.4041 84.405C43.98 84.3744 44.56 84.3686 45.1351 84.4058C45.3778 84.4215 45.7165 84.4989 45.8279 84.6714C46.0339 84.9905 46.2872 84.9261 46.5599 84.9564C47.0909 85.0154 47.6172 85.1204 48.1484 85.1768C48.516 85.2158 48.6055 84.8757 48.8207 84.6701C49.3663 84.1491 48.8788 83.4238 49.2954 82.8892C49.4022 82.7522 49.1487 82.3236 49.0775 82.0855C48.6104 81.9648 48.0948 81.9671 47.7646 81.7162C47.2006 81.2876 46.6074 81.3957 46.0311 81.4371C45.576 81.4698 45.1347 81.7039 44.625 81.8687C44.4882 81.6054 43.933 81.4635 44.0472 80.9098C44.0878 80.713 44.2788 80.5532 44.3509 80.3572C44.521 79.8949 44.655 79.4189 44.8185 78.9539C44.8471 78.8724 44.9608 78.8262 45.0135 78.7484C45.1366 78.5664 45.2319 78.3635 45.3646 78.1898C45.7165 77.7292 46.0281 77.213 46.6913 77.0518C46.6267 76.542 47.1 76.5212 47.4193 76.3426C47.4619 76.3187 47.5544 76.3566 47.5756 76.3284C47.8913 75.9079 48.3812 75.8061 48.8201 75.6128C49.0965 75.4911 49.3768 75.3782 49.6564 75.2638C49.7214 75.2371 49.8363 75.2372 49.8507 75.1966C50.088 74.5248 50.6485 74.7171 51.1201 74.7079C51.6559 74.6975 52.1356 74.6464 52.566 74.2199C52.7813 74.0065 53.1998 73.9873 53.5343 73.922C53.9221 73.8463 54.1375 74.0412 54.3751 74.38C54.5503 74.6299 54.9958 74.683 55.1962 74.7698C55.5749 75.2987 55.8732 75.7927 56.2494 76.2146C56.5216 76.5199 56.569 76.7412 56.2457 77.0137C56.4813 77.245 56.5838 77.4431 56.3179 77.7506C56.194 77.8939 56.2022 78.2132 56.2428 78.4351C56.3416 78.9744 56.1096 79.4205 55.7945 79.7535C55.4533 80.1141 55.4087 80.4884 55.4202 80.9267C55.4303 81.3125 55.4454 81.7006 55.4165 82.0844C55.3798 82.5736 55.6039 82.9601 55.8143 83.3627C55.8767 83.4823 55.9124 83.6313 55.913 83.767C55.916 84.5141 56.041 85.2824 55.6123 85.833C55.1986 86.1122 54.8529 86.3362 54.517 86.5747C54.1679 86.8224 53.7701 87.033 53.4999 87.3531C53.1836 87.7279 52.9275 88.1819 52.7532 88.6439C52.6616 88.8867 52.5937 88.9621 52.3567 89.0361C51.7828 89.2153 51.9995 89.7647 51.9493 90.0761ZM43.0655 87.9138C42.7171 88.1753 42.3301 88.4658 42.1009 88.6377C42.1627 89.3859 42.2101 89.9596 42.2593 90.5551C42.493 90.5551 42.7183 90.5551 42.9385 90.5551C42.9779 90.3695 43.0112 90.2133 43.0428 90.0644C43.2223 90.035 43.3769 90.0097 43.4924 89.9908C43.6729 89.2148 44.1937 88.4047 43.0655 87.9138Z" fill="white"/>
<path d="M73.1499 27.7654C73.3192 27.6796 73.4622 27.578 73.6205 27.5338C73.8453 27.4713 74.123 27.3537 74.3035 27.4339C74.6324 27.5801 74.9073 27.8533 75.2024 28.0767C75.2288 28.0966 75.2334 28.1441 75.2568 28.1708C75.4747 28.4192 75.5578 29.8736 75.5243 30.1843C75.4851 30.5478 75.236 30.8563 75.3634 31.2905C75.4389 31.5481 75.1413 31.9123 75.03 32.2352C74.8966 32.6221 74.7911 33.0189 74.6584 33.406C74.5634 33.6831 74.4435 33.9514 74.3103 34.2848C74.0284 34.0227 74.2242 33.4447 73.6591 33.682C73.6333 33.8133 73.6027 33.9688 73.573 34.1195C73.039 34.3964 73.0162 33.755 72.6662 33.6308C72.4595 33.8163 72.2322 34.0153 71.9448 33.6696C71.8729 33.5832 71.5973 33.5721 71.4806 33.6411C70.7756 34.0577 70.0152 33.7851 69.2858 33.8632C69.1964 33.8728 69.0588 33.8353 69.023 33.8823C68.5044 34.5648 68.2798 33.9396 68.1067 33.7526C67.7956 33.7063 67.6246 33.6729 67.452 33.6573C67.2738 33.6412 67.0338 33.5636 66.9257 33.6497C66.4891 33.997 65.9995 33.8102 65.5363 33.8643C65.2939 33.8926 65.0793 33.8342 64.8392 34.0926C64.6916 34.2515 64.0893 34.1836 63.8609 33.9992C63.5798 33.7723 63.3568 33.5913 62.9892 33.6226C62.5764 33.6577 62.2383 33.6199 61.9616 33.1717C61.8045 32.9173 61.3397 32.8601 60.978 32.6982C61.0467 32.6165 61.1263 32.5219 61.2706 32.3502C61.1167 32.2561 60.956 32.1578 60.7539 32.0343C60.7278 32.0558 60.6374 32.1304 60.5273 32.2211C60.4222 32.1227 60.3128 32.0202 60.226 31.9389C60.6717 30.9605 60.1441 30.1824 59.7845 29.3593C59.5648 29.3489 59.3532 29.3389 59.1599 29.3298C59.1269 29.2667 59.0913 29.2308 59.0974 29.2053C59.3063 28.3395 58.6053 27.958 58.2112 27.399C58.0788 27.2113 58.0413 26.7167 58.1525 26.6356C58.4135 26.4452 58.5583 25.8948 59.1318 26.2653C59.439 26.4638 59.7302 26.6424 60.0025 26.9019C60.5725 27.445 61.2576 27.0977 61.2659 26.3628C61.7456 26.3628 62.2281 26.3816 62.7083 26.3572C63.1385 26.3354 63.5888 26.4877 63.9944 26.154C64.1051 26.0628 64.4082 26.1022 64.5577 26.1932C64.9782 26.4489 65.3347 26.4089 65.7722 26.1998C66.0569 26.0637 66.4412 26.1401 66.7811 26.1288C67.0268 26.1206 67.2235 26.1337 67.3941 25.8393C67.6302 25.4317 68.935 25.4123 69.224 25.8024C69.699 26.4435 70.2849 26.71 71.064 26.6048C71.2 26.5865 71.3511 26.745 71.5044 26.786C71.734 26.8475 71.971 26.9087 72.2062 26.9146C72.9056 26.9323 72.9825 26.9833 73.1499 27.7654Z" fill="white"/>
<path d="M5.39008 36.3032C5.4797 36.2871 5.63262 36.2596 5.79985 36.2296C5.42346 35.6688 5.47178 34.9908 6.29404 34.9269C6.39302 34.2203 6.39298 33.4832 6.61985 32.8275C6.81112 32.2747 6.76169 31.7406 6.84127 31.2018C6.87982 30.9406 7.10005 30.7072 7.26761 30.4084C7.76853 30.3005 8.12818 29.9514 8.2331 29.4357C9.0942 29.2132 9.90091 28.8668 10.7214 28.8287C11.6912 28.7838 12.7065 28.5209 13.6582 29.0063C13.7297 29.0428 13.8261 29.0285 14.0058 29.0482C13.8593 29.7113 13.6699 30.3256 13.6064 30.953C13.5724 31.2889 13.7542 31.6478 13.8408 31.9958C13.8735 32.1275 13.9853 32.3109 13.9367 32.3799C13.5362 32.9487 13.9436 33.2837 14.2222 33.7028C14.3939 33.961 14.4566 34.3195 14.4923 34.6417C14.6038 35.6499 14.6663 36.6638 14.7787 37.6719C14.8031 37.8902 14.9464 38.099 15.0541 38.3016C15.1262 38.4375 15.3091 38.5536 15.3111 38.6806C15.3309 39.9262 15.323 41.1723 15.323 42.4331C15.1178 42.464 14.9627 42.4873 14.8134 42.5099C14.7173 43.1161 14.2435 43.471 13.5393 43.5094C13.3152 43.5216 13.0583 43.4003 12.8911 43.7391C12.8389 43.8451 12.324 43.8816 12.2604 43.7855C11.9709 43.348 11.541 43.5845 11.1528 43.4594C11.1339 43.2436 11.1138 43.0136 11.0909 42.7509C10.9328 42.724 10.7805 42.6981 10.5938 42.6663C10.5861 42.54 10.5732 42.4163 10.572 42.2925C10.568 41.8994 10.3506 41.7628 9.99345 41.6738C9.54955 41.5631 9.13198 41.3464 8.69751 41.1917C8.4578 41.1062 8.15287 41.1203 7.97415 40.97C7.74207 40.7749 7.61418 40.4548 7.42639 40.2C7.29501 40.0217 7.13844 39.8627 7.06211 39.7746C6.79713 39.5427 6.56004 39.4256 6.4778 39.238C6.39302 39.0447 6.45897 38.7827 6.56976 38.5405C6.46406 38.4268 6.3584 38.3132 6.2538 38.2007C5.81068 38.4687 5.20549 38.2399 5.05114 37.7471C5.03034 37.6807 5.03285 37.5974 5.05089 37.5292C5.15229 37.1455 5.26161 36.764 5.39008 36.3032Z" fill="white"/>
<path d="M1.26359 105.469C1.58899 105.269 1.82144 105.096 1.43185 104.784C1.35211 104.72 1.30338 104.583 1.2891 104.473C1.15846 103.467 1.52557 102.708 2.3258 102.095C2.75412 101.767 3.07053 101.288 3.4438 100.883C3.57022 100.746 3.73052 100.64 3.84935 100.498C3.98545 100.334 4.0914 100.145 4.21277 99.9689C4.29784 99.8453 4.38796 99.7253 4.47373 99.6022C4.66693 99.3248 4.83568 99.0255 5.05673 98.7736C5.37548 98.4105 5.63788 97.9786 6.15889 97.8393C6.35689 97.7864 6.52182 97.6051 6.82368 97.3993C6.82368 97.8233 6.82294 98.0586 6.82384 98.2939C6.82532 98.6778 6.85165 99.0033 7.12221 99.3639C7.41906 99.7597 7.49896 100.333 7.64134 100.838C7.75024 101.224 7.42337 101.723 7.9345 102.01C7.95509 102.022 7.95443 102.078 7.9587 102.114C8.03799 102.781 8.14078 103.448 8.18709 104.118C8.22097 104.608 8.25522 105.066 8.68538 105.395C8.75503 105.448 8.73895 105.636 8.73993 105.761C8.74494 106.386 8.71319 107.012 8.75134 107.635C8.78452 108.175 8.92587 108.709 8.96094 109.25C9.0002 109.856 8.44632 110.104 8.08446 110.371C7.83499 110.555 7.3209 110.569 7.01962 110.203C6.89583 110.052 6.81646 109.863 6.72855 109.712C6.54914 109.816 6.33843 109.938 6.12772 110.06C6.07973 110.041 6.03173 110.022 5.98378 110.002C5.92763 110.517 5.97722 111.078 5.78767 111.536C5.56675 112.069 5.7942 112.707 5.54603 113.086C5.17092 113.659 5.48012 114.334 5.08519 114.848C5.01965 114.934 5.03925 115.095 5.03786 115.222C5.03294 115.681 4.96743 116.154 5.05193 116.596C5.17625 117.247 4.77817 117.595 4.40396 117.944C4.28246 118.058 3.94537 118.076 3.80152 117.984C3.62732 117.873 3.45303 117.597 3.45549 117.395C3.46226 116.837 3.19921 116.611 2.70842 116.588C2.55161 115.663 1.4501 114.251 0.920264 114.245C0.840114 114.43 0.763861 114.606 0.706312 114.739C0.475132 114.302 0.224797 113.948 0.0985418 113.553C0.00276383 113.253 -0.0565898 112.829 0.0808629 112.585C0.427058 111.971 0.210317 111.34 0.282017 110.724C0.298876 110.579 0.24949 110.339 0.316432 110.301C1.14275 109.839 0.615538 108.745 1.27015 108.213C1.28955 108.198 1.28635 108.141 1.28032 108.106C1.18012 107.522 1.47541 107.089 1.78469 106.646C1.95044 106.409 1.63382 105.705 1.26359 105.469Z" fill="white"/>
<path d="M21.8402 108.304C21.8547 108.606 21.8651 108.821 21.8722 108.968C22.2561 109.142 22.6145 109.263 22.9253 109.462C23.0751 109.558 23.1361 109.799 23.2354 109.975C23.277 110.049 23.2953 110.167 23.3553 110.195C23.9023 110.446 23.7811 110.939 23.7827 111.386C23.7852 112.117 23.7834 112.847 23.7834 113.452C23.3748 113.671 23.0626 113.852 22.7387 114.008C22.5587 114.094 22.3554 114.202 22.1694 114.19C21.6402 114.156 21.2317 114.382 20.815 114.67C20.6615 114.777 20.3496 114.825 20.2089 114.737C19.7703 114.461 19.3504 114.181 18.8103 114.186C18.7812 114.186 18.7489 114.152 18.723 114.129C18.2804 113.726 17.8519 113.305 17.3904 112.926C17.187 112.759 16.9043 112.696 16.6798 112.551C16.2544 112.275 15.845 111.973 15.3571 111.631C15.3571 111.588 15.3571 111.433 15.3571 111.314C15.5577 111.22 15.7826 111.189 15.8801 111.058C16.34 110.443 16.9899 110.285 17.6827 110.191C17.774 110.179 17.8619 110.103 17.9414 110.043C18.318 109.759 18.6852 109.462 19.0699 109.19C19.1602 109.126 19.311 109.11 19.4248 109.129C20.2043 109.258 20.8227 108.926 21.4066 108.458C21.508 108.377 21.6627 108.364 21.8402 108.304Z" fill="white"/>
</g>
<defs>
<clipPath id="clip0">
<rect width="81.8182" height="150" fill="white"/>
</clipPath>
</defs>
</svg>
