<?xml version="1.0" encoding="utf-8"?>
<!-- Generator: Adobe Illustrator 22.1.0, SVG Export Plug-In . SVG Version: 6.00 Build 0)  -->
<svg version="1.1" id="レイヤー_1" xmlns="http://www.w3.org/2000/svg" xmlns:xlink="http://www.w3.org/1999/xlink" x="0px"
	 y="0px" width="269px" height="208px" viewBox="0 0 269 208" enable-background="new 0 0 269 208" xml:space="preserve">
<path fill="#FFFFFF" d="M128.7,125c0.3,0,0.3,0,0.3-0.3c0-0.2,0-0.3-0.3-0.3c-0.6-0.1-0.7-0.3-3.5-4.3l-0.8-1.1
	c-0.1-0.1-0.1-0.2-0.2-0.3c3.2-3.6,4-4.5,4.5-4.5c0.3-0.1,0.3-0.1,0.3-0.3c0-0.3,0-0.3-0.2-0.3h-0.1c-0.6,0-1.4,0-1.8,0h-1.6
	c-0.3,0-0.3,0-0.3,0.3s0,0.3,0.3,0.3c0.7,0,1,0.2,1,0.5c0,0.4-0.8,1.5-2.5,3.5c-2.1-3.1-2.2-3.2-2.2-3.5s0.3-0.4,0.8-0.5
	c0.4,0,0.4,0,0.4-0.3c0-0.2,0-0.3-0.2-0.3h-0.1c-0.7,0-1.2,0-2.2,0h-1.4c-0.6,0-0.6,0-0.7,0c-0.2,0-0.2,0-0.2,0.2
	c0,0.3,0,0.3,0.3,0.4c0.5,0.1,0.7,0.3,4.2,5.3c-3.8,4.4-4.3,4.9-4.8,5c-0.3,0.1-0.3,0.1-0.3,0.3c0,0.3,0,0.3,0.3,0.3
	c0,0,0.3,0,0.6,0h1.2c0.4,0,1.7,0,2,0h0.1c0.2,0,0.3,0,0.3-0.3c0-0.2,0-0.2-0.2-0.2c-0.9-0.1-1.2-0.2-1.2-0.6s0.1-0.7,1-1.8
	c1.1-1.4,1.1-1.4,1.6-2c2.2,3.3,2.4,3.6,2.4,4c0,0.3-0.3,0.4-1,0.5c-0.3,0-0.3,0.1-0.3,0.3c0,0.3,0,0.3,0.4,0.3c0.2,0,0.4,0,0.7,0
	c1.1,0,1.1,0,1.9,0c0.5,0,0.9,0,1.3,0h0.2V125z M135.3,125c0.6,0,0.6,0,0.6,0c0.2,0,0.2-0.1,0.2-0.3c0-0.2,0-0.2-0.3-0.3
	c-0.8-0.1-1-0.1-1.1-0.5c-0.1-0.2-0.1-1-0.1-2.8c0-1.9,0-3.1,0.1-3.7c0-0.1,0-0.1,0-0.2s-0.1-0.2-0.2-0.2c-0.3,0-0.8,0.2-2.4,0.9
	l-0.3,0.1c-0.1,0.1-0.2,0.1-0.2,0.3c0,0.3,0,0.3,0.3,0.3c0.9,0.1,0.9,0.2,0.9,2.2c0,3.2-0.1,3.4-1.1,3.5c-0.3,0-0.3,0.1-0.3,0.3
	c0,0.3,0,0.3,0.2,0.3h0.1c0.8,0,1.4,0,1.9,0L135.3,125z M134,112.9c-0.5,0-1.1,0.6-1.1,1.1s0.5,1,1,1s1.1-0.5,1.1-1.1
	C135,113.4,134.5,112.9,134,112.9z M147.1,123.6L147.1,123.6c-0.5,0.2-1,0.4-1.3,0.4c-0.4,0-0.6-0.3-0.6-1c0-0.2,0-0.5,0-0.7
	c0.1-2.5,0.1-2.6,0.1-3c0-1.3-0.7-2-2.1-2c-1.1,0-2.2,0.4-3,1c-0.5,0.4-0.9,0.9-0.9,1.2c0,0.1,0.1,0.3,0.3,0.3s0.8-0.1,1.1-0.2
	s0.3-0.2,0.3-0.3c0-0.1,0-0.1,0-0.2s0-0.2,0-0.2c0-0.3,0.5-0.4,1.2-0.4c0.8,0,1.2,0.3,1.2,0.9c0.1,0.3,0.1,0.8,0.1,1.8
	c-1.1,0.1-2.1,0.3-2.9,0.5c-1.4,0.4-1.6,0.7-1.6,1.7c0,1.2,0.6,1.8,1.7,1.8c0.8,0,1.6-0.2,2.8-0.8c0.1,0.5,0.5,0.8,1,0.8
	c0.6,0,1.5-0.3,2.4-0.8c0.2-0.1,0.2-0.1,0.2-0.4V123.6z M142.9,121.7c0.4,0,0.5,0.1,0.5,0.6c0,1.1,0,1.3-0.2,1.5
	c-0.3,0.2-0.9,0.3-1.5,0.3c-0.8,0-1-0.3-1-1.2c0-0.4,0.1-0.5,0.5-0.8C141.8,121.9,142.5,121.7,142.9,121.7z M154,117.2
	c-2.7,0-4.6,1.6-4.6,4.1c0,2.3,1.6,3.9,4,3.9c2.6,0,4.5-1.7,4.5-4.1C157.9,118.9,156.3,117.2,154,117.2z M153.3,118
	c1.5,0,2.7,1.6,2.7,3.8c0,1.6-0.8,2.6-2,2.6c-1.5,0-2.6-1.6-2.6-3.7C151.4,119.1,152.1,118,153.3,118z M161.3,125c1,0,1.6,0,1.9,0
	c0.4,0,0.9,0,1.2,0s0.6,0,0.6,0c0.3,0,0.3,0,0.3-0.3c0-0.2,0-0.2-0.3-0.2c-0.7-0.1-0.8-0.2-0.9-0.6c-0.1-0.3-0.1-0.4-0.1-2.8
	c0-1.7,0-1.7,0.1-1.8c0.3-0.3,1.3-0.6,1.9-0.6c0.6,0,1.1,0.2,1.3,0.6s0.3,1,0.3,2.5c0,2.3-0.1,2.6-0.9,2.7c-0.3,0.1-0.3,0.1-0.3,0.3
	c0,0.2,0,0.3,0.2,0.3h0.1c0.4,0,1.1,0,1.8,0c0.5,0,0.8,0,1.4,0c0.5,0,0.5,0,0.6,0c0.2,0,0.2-0.1,0.2-0.3c0-0.2,0-0.3-0.4-0.3
	c-0.7,0-0.8-0.2-0.9-0.7c0-0.2-0.1-1.8-0.1-4c0-0.7,0-0.7,0.2-0.8c0.5-0.3,1.1-0.5,1.6-0.5c0.7,0,1.2,0.3,1.5,0.9
	c0.2,0.4,0.2,0.9,0.2,2.4c0,2.3-0.1,2.6-1,2.7c-0.2,0-0.2,0.1-0.2,0.3c0,0.3,0,0.3,0.2,0.3h0.1c0.8,0,1.4-0.1,1.8-0.1h2
	c0.2,0,0.2,0,0.2-0.3s0-0.3-0.3-0.3c-1.1,0-1.1-0.1-1.1-1.9v-0.9c0-0.4,0-1.3,0-1.5c0-1.2-0.1-1.7-0.6-2.2c-0.4-0.4-1-0.7-1.7-0.7
	c-0.8,0-1.8,0.4-3.2,1.2c-0.3-0.8-1-1.2-1.9-1.2c-0.8,0-1.5,0.3-3.2,1.3c0-0.5,0-0.9,0.1-1.1c0-0.1,0-0.1,0-0.2s-0.1-0.2-0.3-0.2
	s-1.4,0.5-2.5,1.1c-0.2,0.1-0.2,0.1-0.2,0.4c0,0.2,0,0.2,0.2,0.2c0.9,0,1,0.1,1,1.4c0,4,0,4-0.8,4.2c-0.3,0.1-0.3,0.1-0.3,0.3
	C161.1,125,161.1,125,161.3,125L161.3,125z M186.8,123.6L186.8,123.6c-0.5,0.2-1,0.4-1.3,0.4c-0.4,0-0.6-0.3-0.6-1
	c0-0.2,0-0.5,0-0.7c0.1-2.5,0.1-2.6,0.1-3c0-1.3-0.7-2-2.1-2c-1.1,0-2.2,0.4-3,1c-0.5,0.4-0.9,0.9-0.9,1.2c0,0.1,0.1,0.3,0.3,0.3
	s0.8-0.1,1.1-0.2s0.3-0.2,0.3-0.3c0-0.1,0-0.1,0-0.2s0-0.2,0-0.2c0-0.3,0.5-0.4,1.2-0.4c0.8,0,1.2,0.3,1.2,0.9
	c0.1,0.3,0.1,0.8,0.1,1.8c-1.1,0.1-2.1,0.3-2.9,0.5c-1.3,0.4-1.6,0.7-1.6,1.7c0,1.2,0.6,1.8,1.7,1.8c0.8,0,1.6-0.2,2.8-0.8
	c0.1,0.5,0.4,0.8,1,0.8s1.5-0.3,2.4-0.8c0.2-0.1,0.2-0.1,0.2-0.4V123.6z M182.6,121.7c0.4,0,0.5,0.1,0.5,0.6c0,1.1,0,1.3-0.2,1.5
	c-0.3,0.2-0.9,0.3-1.5,0.3c-0.8,0-1-0.3-1-1.2c0-0.4,0.1-0.5,0.5-0.8C181.5,121.9,182.2,121.7,182.6,121.7z M192,117.3
	c0-0.1,0-0.1-0.2-0.1s-0.3,0-0.7,0.2l-2,0.8c-0.2,0.1-0.2,0.1-0.2,0.3c0,0.3,0,0.3,0.3,0.3c0.5,0,0.8,0.1,0.8,0.4
	c0.1,0.2,0.1,0.6,0.1,1.7s0,2.2-0.1,2.6c-0.1,0.6-0.3,0.8-0.9,0.9c-0.3,0.1-0.3,0.1-0.3,0.3c0,0.2,0,0.2,0.3,0.2c0.1,0,0.3,0,0.5,0
	h1.5c1.4,0,1.4,0,1.7,0h0.3c0.2,0,0.2,0,0.2-0.3s0-0.3-0.3-0.3c-0.6,0-0.9-0.1-1-0.4s-0.1-0.7-0.1-2.2c0-0.6,0-0.9,0-2.2
	c0-0.6,0-0.6,0.2-0.6c0.5-0.3,1.4-0.5,2-0.5s1.2,0.3,1.4,0.8c0.2,0.4,0.2,0.8,0.2,1.9c0,2.9,0,3.1-0.9,3.3c-0.3,0.1-0.3,0.1-0.3,0.3
	c0,0.2,0,0.3,0.2,0.3c0.1,0,0.3,0,0.5,0h1.3h1.5c0.3,0,0.6,0,0.6,0c0.2,0,0.3-0.1,0.3-0.3c0-0.3,0-0.3-0.4-0.3
	c-0.9,0-1.1-0.3-1.1-1.9c0-0.2,0-0.6,0-1.6v-0.6c0-1-0.1-1.5-0.2-1.9c-0.3-0.8-1-1.2-1.9-1.2c-0.8,0-1.8,0.3-3.5,1.2
	c0-0.2,0.1-0.8,0.1-1.1v0H192z M121,150c0.3,0,1.5,0,1.9,0c0.5,0,1.6,0,1.9,0h0.7h0.2c0.1,0,0.1-0.1,0.1-0.3c0-0.3,0-0.3-0.4-0.3
	c-1.1,0-1.4-0.3-1.5-1.1s-0.1-1.5-0.1-4.8c0-1,0-2.8,0-3.9c3.5,0,3.6,0,3.6,1.1c0,0.6,0,0.6,0,0.6c0,0.1,0.1,0.1,0.4,0.1
	c0.2,0,0.2,0,0.4-0.7c0.1-0.6,0.5-2.1,0.5-2.2c0-0.1-0.1-0.1-0.2-0.1c-0.1,0-0.1,0-0.2,0c-0.4,0.2-2,0.2-6,0.2c-2.7,0-4-0.1-4.3-0.2
	c-0.2-0.1-0.2-0.1-0.3-0.1c-0.2,0-0.2,0-0.2,0.3c-0.2,0.8-0.4,2.3-0.4,2.5c0,0.1,0.1,0.2,0.4,0.2c0.2,0,0.3,0,0.3-0.2
	c0.4-1.5,0.7-1.6,4.1-1.6c0,1.2,0,2.4,0,3.6c0,1,0,2.8-0.1,3.9c0,1.4-0.1,1.7-0.4,2s-0.5,0.3-1.4,0.4c-0.1,0-0.2,0.1-0.2,0.3
	c0,0.3,0,0.3,0.2,0.3H121z M136.2,148.3h-0.1c-0.6,0.5-1.4,0.7-2.2,0.7c-1.4,0-2.2-1-2.4-2.8c1-0.2,2.6-0.5,4.7-0.8
	c0.3-0.1,0.3-0.1,0.3-0.3c0-0.3,0-0.4-0.1-0.4s-0.1,0-0.1-0.2c-0.2-0.6-0.3-0.8-0.5-1.2c-0.5-0.6-1.4-1-2.3-1
	c-2.1,0-3.7,1.9-3.7,4.4c0,2.2,1.2,3.6,3.2,3.6c1.1,0,2.3-0.4,3.3-1.2c0.1-0.1,0.2-0.2,0.2-0.3c0,0,0,0-0.1-0.2L136.2,148.3z
	 M131.5,145.6c0-1.6,0.6-2.6,1.5-2.6c0.7,0,1.5,0.8,1.5,1.6c0,0.2-0.2,0.4-0.6,0.5C133.1,145.3,132.1,145.5,131.5,145.6z
	 M147.7,148.6L147.7,148.6c-0.5,0.2-1,0.4-1.3,0.4c-0.5,0-0.6-0.3-0.6-1c0-0.2,0-0.4,0-0.7c0.1-2.5,0.1-2.6,0.1-3c0-1.3-0.7-2-2.1-2
	c-1.1,0-2.2,0.4-3,1c-0.5,0.4-0.9,0.9-0.9,1.2c0,0.1,0.1,0.3,0.3,0.3s0.8-0.1,1.1-0.2c0.3-0.1,0.3-0.2,0.3-0.3s0-0.1,0-0.2
	c0-0.1,0-0.2,0-0.2c0-0.3,0.5-0.4,1.2-0.4c0.8,0,1.2,0.3,1.2,0.9c0.1,0.3,0.1,0.8,0.1,1.8c-1.1,0.1-2.1,0.3-2.9,0.5
	c-1.4,0.4-1.6,0.7-1.6,1.7c0,1.2,0.6,1.8,1.7,1.8c0.8,0,1.6-0.2,2.8-0.8c0.1,0.5,0.4,0.8,1,0.8s1.5-0.3,2.4-0.8
	c0.2-0.1,0.2-0.1,0.2-0.4V148.6z M143.5,146.7c0.4,0,0.5,0.1,0.5,0.6c0,1.1,0,1.3-0.2,1.5c-0.3,0.2-0.9,0.3-1.5,0.3
	c-0.8,0-1-0.3-1-1.2c0-0.4,0.1-0.5,0.5-0.8C142.4,146.9,143.1,146.7,143.5,146.7z M159.5,141.4c0-1.9,0-1.9,0.3-1.9
	c0.2-0.1,1-0.1,1.7-0.1c1.3,0,2.1,0.1,2.4,0.4c0.3,0.2,0.4,0.6,0.5,1.5c0,0.2,0.1,0.2,0.3,0.2s0.3,0,0.3-0.1c0,0,0-0.1,0.1-0.5
	c0-0.5,0.1-1.5,0.2-2c0-0.1,0-0.1,0-0.2c0-0.1-0.1-0.1-0.2-0.1h-0.3c-0.6,0-3.9,0.1-5.6,0.1c-0.8,0-2.2,0-2.6-0.1h-0.1
	c-0.2,0-0.2,0.1-0.2,0.3c0,0.3,0,0.3,0.3,0.3c0.8,0,1,0.2,1.1,0.8c0.1,0.5,0.1,1.9,0.1,4.1c0,2.6,0,4-0.1,4.5
	c-0.1,0.8-0.3,0.9-1.3,1c-0.1,0-0.2,0.1-0.2,0.3c0,0.3,0,0.3,0.3,0.3h0.3c1.7-0.1,1.7-0.1,2.4-0.1c2.3,0,4.6,0,5.5,0.1h0.1
	c0.3,0,0.3,0,0.5-0.8c0.2-0.9,0.5-2,0.5-2.2c0-0.1-0.2-0.2-0.4-0.2c-0.1,0-0.1,0-0.2,0.3c-0.6,1.7-1.2,2-3.8,2c-1.4,0-1.6-0.1-1.6-1
	c0-0.8,0-2.1,0-3.7c3.7,0,3.9,0.1,4,1.3c0,0.3,0,0.3,0.3,0.3c0.2,0,0.3,0,0.3-0.2c0-0.1,0-0.2,0-0.3c0-0.8,0-0.8,0-1.2
	c0-0.5,0-1.1,0.1-1.6c0-0.2,0-0.3,0-0.3c0-0.2-0.1-0.2-0.3-0.2c-0.3,0-0.3,0-0.3,0.4c-0.1,1-0.3,1.1-3.4,1.1c-0.1,0-0.4,0-0.7,0
	v-2.5H159.5z M174.2,150h0.2h1.4h0.3c0.2,0,0.3,0,0.3-0.3s0-0.3-0.2-0.3c-0.8,0-0.8-0.1-3.2-3.6c2.1-2.1,2.6-2.6,3-2.8
	c0.3-0.1,0.3-0.1,0.3-0.3s0-0.3-0.2-0.3H176c-0.6,0-0.8,0-1.1,0h-0.5c-0.9,0-0.9,0-0.9,0c-0.2,0-0.2,0.1-0.2,0.3
	c0,0.3,0,0.3,0.3,0.3c0.4,0,0.6,0.1,0.6,0.3c0,0.3-0.5,0.9-1.6,2c-1.2-1.8-1.2-1.8-1.2-2s0.2-0.3,0.5-0.3c0.2,0,0.3,0,0.3-0.3
	c0-0.2,0-0.3-0.2-0.3h-0.1c-0.4,0-1,0-1.5,0c-0.6,0-0.9,0-1.2,0c-0.4,0-0.5,0-0.5,0c-0.2,0-0.2,0-0.2,0.3c0,0.1,0,0.2,0.1,0.2
	c0.7,0.2,0.7,0.2,3,3.5c-2.7,2.8-2.8,3-3.4,3.1c-0.1,0.1-0.2,0.1-0.2,0.4c0,0.2,0,0.2,0.2,0.2h0.1c0.4,0,0.9,0,1.2,0h1.3h0.1
	c0.2,0,0.2,0,0.2-0.3s0-0.3-0.3-0.3c-0.5,0-0.7-0.1-0.7-0.3c0-0.3,0.1-0.4,1.7-2.2c0.9,1.3,1.4,2.1,1.4,2.3s-0.2,0.3-0.6,0.3
	c-0.3,0-0.3,0-0.3,0.3c0,0.2,0,0.2,0.2,0.2c0.1,0,0.3,0,0.6,0L174.2,150z M179.1,154.9c1-0.1,1.3-0.1,2.1-0.1c0.4,0,0.6,0,1.2,0
	c0.3,0,0.6,0,0.7,0c0.2,0,0.2,0,0.2-0.3s0-0.3-0.3-0.3c-0.9,0-1.1-0.2-1.2-0.7c-0.1-0.3-0.1-1.4-0.1-3.6c0.6,0.1,1,0.2,1.5,0.2
	c2.6,0,4.6-1.8,4.6-4.3c0-2.1-1.4-3.6-3.2-3.6c-0.8,0-1.5,0.2-2.9,0.8c0-0.3,0-0.5,0.1-0.8c0-0.1,0-0.1,0-0.1c0-0.1-0.1-0.1-0.2-0.1
	c-0.2,0-0.4,0.1-1,0.4c-0.2,0.1-0.4,0.2-0.6,0.3c-0.4,0.2-0.9,0.5-1.2,0.7c-0.1,0.1-0.1,0.1-0.1,0.3s0,0.2,0.3,0.2
	c0.5,0,0.7,0.1,0.8,0.3c0.1,0.3,0.1,0.6,0.1,2.9c0,2.8,0,4.9-0.1,6c0,0.8-0.3,1.1-0.9,1.2c-0.3,0.1-0.3,0.1-0.3,0.3
	c0,0.3,0,0.3,0.2,0.3L179.1,154.9L179.1,154.9z M181.8,148.5c0-0.4,0-0.8,0-1c0-1.6,0-3.2,0.1-3.9c0.6-0.2,1-0.3,1.6-0.3
	c1.6,0,2.8,1.3,2.8,3.3c0,1.6-0.8,2.5-2.2,2.5C183.1,149,182.5,148.9,181.8,148.5z M197.7,148.3h-0.1c-0.6,0.5-1.4,0.7-2.2,0.7
	c-1.4,0-2.2-1-2.4-2.8c1-0.2,2.6-0.5,4.7-0.8c0.3-0.1,0.3-0.1,0.3-0.3c0-0.3,0-0.4-0.1-0.4s-0.1,0-0.1-0.2c-0.2-0.6-0.3-0.8-0.5-1.2
	c-0.5-0.6-1.4-1-2.3-1c-2.1,0-3.7,1.9-3.7,4.4c0,2.2,1.2,3.6,3.2,3.6c1.1,0,2.3-0.4,3.3-1.2c0.1-0.1,0.2-0.2,0.2-0.3
	c0,0,0,0-0.1-0.2L197.7,148.3z M192.9,145.6c0-1.6,0.6-2.6,1.5-2.6c0.7,0,1.5,0.8,1.5,1.6c0,0.2-0.2,0.4-0.6,0.5
	C194.5,145.3,193.6,145.5,192.9,145.6z M205.3,150c0.2,0,0.2-0.1,0.2-0.3s0-0.3-0.3-0.3c-0.7,0-0.7,0-0.9-0.1
	c-0.3-0.1-0.5-0.3-0.5-0.5c-0.1-0.5-0.1-1.2-0.1-2.9c0-1.3,0-1.5,0.2-1.6c0.5-0.3,1-0.6,1.4-0.6s0.5,0.1,0.9,0.7
	c0.1,0.1,0.1,0.1,0.2,0.1c0.1,0,0.3-0.1,0.5-0.4c0.3-0.3,0.5-0.6,0.5-0.9c0-0.5-0.5-1.1-0.9-1.1s-0.9,0.3-2.6,1.6
	c0-0.2,0-0.9,0.1-1.2c0-0.4,0-0.4,0-0.4c0-0.1,0-0.2-0.2-0.2s-0.2,0-0.3,0.1c-0.7,0.4-1.4,0.8-2.2,1.2c-0.1,0-0.1,0.1-0.1,0.2
	c0,0.3,0,0.3,0.3,0.3c0.8,0.1,0.8,0.2,0.8,2.4c0,1.2,0,2-0.1,2.4c-0.1,0.5-0.2,0.6-0.7,0.8c-0.3,0.1-0.3,0.1-0.3,0.3s0,0.3,0.2,0.3
	c0.1,0,0.2,0,0.3,0c0.4,0,0.9,0,1.4,0c0.6,0,1.9,0,2.3,0.1L205.3,150L205.3,150z M213.7,150c0.6,0,0.6,0,0.6,0
	c0.2,0,0.2-0.1,0.2-0.3s0-0.2-0.3-0.3c-0.8-0.1-1-0.1-1.1-0.5c-0.1-0.2-0.1-1-0.1-2.8c0-1.9,0-3.1,0.1-3.7c0-0.1,0-0.1,0-0.2
	c0-0.1-0.1-0.2-0.2-0.2c-0.3,0-0.8,0.2-2.4,0.9l-0.3,0.1c-0.1,0.1-0.2,0.1-0.2,0.3c0,0.3,0,0.3,0.3,0.3c0.9,0.1,0.9,0.2,0.9,2.2
	c0,3.1-0.1,3.4-1.1,3.5c-0.3,0-0.3,0.1-0.3,0.3c0,0.3,0,0.3,0.2,0.3h0.1c0.8,0,1.4,0,1.9,0L213.7,150z M212.4,137.9
	c-0.5,0-1.1,0.6-1.1,1.1s0.5,1,1,1s1.1-0.5,1.1-1.1C213.4,138.4,212.8,137.9,212.4,137.9z M223.9,148.3h-0.1
	c-0.6,0.5-1.4,0.7-2.2,0.7c-1.4,0-2.2-1-2.4-2.8c1-0.2,2.6-0.5,4.7-0.8c0.3-0.1,0.3-0.1,0.3-0.3c0-0.3,0-0.4-0.1-0.4s-0.1,0-0.1-0.2
	c-0.2-0.6-0.3-0.8-0.5-1.2c-0.5-0.6-1.4-1-2.3-1c-2.1,0-3.7,1.9-3.7,4.4c0,2.2,1.2,3.6,3.2,3.6c1.1,0,2.3-0.4,3.3-1.2
	c0.1-0.1,0.2-0.2,0.2-0.3c0,0,0,0-0.1-0.2L223.9,148.3z M219.1,145.6c0-1.6,0.6-2.6,1.5-2.6c0.7,0,1.5,0.8,1.5,1.6
	c0,0.2-0.2,0.4-0.6,0.5C220.7,145.3,219.7,145.5,219.1,145.6z M230,142.3c0-0.1,0-0.1-0.2-0.1s-0.3,0-0.7,0.2l-2,0.8
	c-0.2,0.1-0.2,0.1-0.2,0.3c0,0.3,0,0.3,0.3,0.3c0.5,0,0.8,0.1,0.8,0.4c0.1,0.2,0.1,0.6,0.1,1.7c0,1.1,0,2.2-0.1,2.6
	c-0.1,0.6-0.3,0.8-0.9,0.9c-0.3,0.1-0.3,0.1-0.3,0.3s0,0.2,0.3,0.2c0.1,0,0.3,0,0.5,0h1.5c1.4,0,1.4,0,1.7,0h0.3
	c0.2,0,0.2,0,0.2-0.3s0-0.3-0.3-0.3c-0.6,0-0.9-0.1-1-0.4c-0.1-0.3-0.1-0.7-0.1-2.2c0-0.6,0-0.9,0-2.2c0-0.6,0-0.6,0.2-0.6
	c0.5-0.3,1.4-0.5,2-0.5s1.2,0.3,1.4,0.8c0.2,0.4,0.2,0.8,0.2,1.9c0,2.9,0,3.1-0.9,3.3c-0.3,0.1-0.3,0.1-0.3,0.3s0,0.3,0.2,0.3
	c0.1,0,0.3,0,0.5,0h1.3h1.5c0.3,0,0.6,0,0.6,0c0.2,0,0.3-0.1,0.3-0.3c0-0.3,0-0.3-0.4-0.3c-0.9,0-1.1-0.3-1.1-1.9c0-0.2,0-0.6,0-1.6
	v-0.6c0-1-0.1-1.5-0.2-1.9c-0.3-0.8-1-1.2-1.9-1.2c-0.8,0-1.8,0.3-3.5,1.2c0-0.2,0.1-0.8,0.1-1.1v0H230z M245.8,148.3
	c-0.6,0.4-1.3,0.7-2,0.7c-1.5,0-2.4-1.2-2.4-3.1c0-1.6,0.6-2.5,1.6-2.5c0.7,0,1.3,0.2,1.8,0.6c0.2,0.2,0.3,0.2,0.4,0.2
	c0.4,0,1-0.6,1-0.9c0-0.6-0.9-1-2.1-1c-2.5,0-4.5,2-4.5,4.5c0,2.1,1.3,3.5,3.3,3.5c0.8,0,1.6-0.3,2.5-0.8c0.5-0.3,0.8-0.6,0.8-0.7
	c0,0,0,0-0.1-0.1l-0.1-0.3h-0.2V148.3z M255.9,148.3h-0.1c-0.6,0.5-1.4,0.7-2.2,0.7c-1.4,0-2.2-1-2.4-2.8c1-0.2,2.6-0.5,4.7-0.8
	c0.3-0.1,0.3-0.1,0.3-0.3c0-0.3,0-0.4-0.1-0.4s-0.1,0-0.1-0.2c-0.2-0.6-0.3-0.8-0.5-1.2c-0.5-0.6-1.4-1-2.3-1
	c-2.1,0-3.7,1.9-3.7,4.4c0,2.2,1.2,3.6,3.2,3.6c1.1,0,2.3-0.4,3.3-1.2c0.1-0.1,0.2-0.2,0.2-0.3c0,0,0,0-0.1-0.2L255.9,148.3z
	 M251.2,145.6c0-1.6,0.6-2.6,1.5-2.6c0.7,0,1.5,0.8,1.5,1.6c0,0.2-0.2,0.4-0.6,0.5C252.7,145.3,251.8,145.5,251.2,145.6z M121,199
	c0.3,0,1.5,0,1.9,0c0.5,0,1.6,0,1.9,0h0.7h0.2c0.1,0,0.1-0.1,0.1-0.3c0-0.3,0-0.3-0.4-0.3c-1.1,0-1.4-0.3-1.5-1.1s-0.1-1.5-0.1-4.8
	c0-1,0-2.8,0-3.9c3.5,0,3.6,0,3.6,1.1c0,0.6,0,0.6,0,0.6c0,0.1,0.1,0.1,0.4,0.1c0.2,0,0.2,0,0.4-0.7c0.1-0.6,0.5-2.1,0.5-2.2
	c0-0.1-0.1-0.1-0.2-0.1c-0.1,0-0.1,0-0.2,0c-0.4,0.2-2,0.2-6,0.2c-2.7,0-4-0.1-4.3-0.2c-0.2-0.1-0.2-0.1-0.3-0.1
	c-0.2,0-0.2,0-0.2,0.3c-0.2,0.8-0.4,2.3-0.4,2.5c0,0.1,0.1,0.2,0.4,0.2c0.2,0,0.3,0,0.3-0.2c0.4-1.5,0.7-1.6,4.1-1.6
	c0,1.2,0,2.4,0,3.6c0,1,0,2.8-0.1,3.9c0,1.4-0.1,1.7-0.4,2s-0.5,0.3-1.4,0.4c-0.1,0-0.2,0.1-0.2,0.3c0,0.3,0,0.3,0.2,0.3H121z
	 M138,197.6L138,197.6c-0.5,0.2-1,0.4-1.3,0.4c-0.4,0-0.6-0.3-0.6-1c0-0.2,0-0.4,0-0.7c0.1-2.5,0.1-2.6,0.1-3c0-1.3-0.7-2-2.1-2
	c-1.1,0-2.2,0.4-3,1c-0.5,0.4-0.9,0.9-0.9,1.2c0,0.1,0.1,0.3,0.3,0.3s0.8-0.1,1.1-0.2c0.3-0.1,0.3-0.2,0.3-0.3s0-0.1,0-0.2
	c0-0.1,0-0.2,0-0.2c0-0.3,0.5-0.4,1.2-0.4c0.8,0,1.2,0.3,1.2,0.9c0.1,0.3,0.1,0.8,0.1,1.8c-1.1,0.1-2.1,0.3-2.9,0.5
	c-1.4,0.4-1.6,0.7-1.6,1.7c0,1.2,0.6,1.8,1.7,1.8c0.8,0,1.6-0.2,2.8-0.8c0.1,0.5,0.4,0.8,1,0.8s1.5-0.3,2.4-0.8
	c0.2-0.1,0.2-0.1,0.2-0.4V197.6z M133.9,195.7c0.4,0,0.5,0.1,0.5,0.6c0,1.1,0,1.3-0.2,1.5c-0.3,0.2-0.9,0.3-1.5,0.3
	c-0.8,0-1-0.3-1-1.2c0-0.4,0.1-0.5,0.5-0.8C132.7,195.9,133.5,195.7,133.9,195.7z M143.8,199c0.6,0,0.6,0,0.6,0
	c0.2,0,0.2-0.1,0.2-0.3s0-0.2-0.3-0.3c-0.8-0.1-1-0.1-1.1-0.5c-0.1-0.2-0.1-1-0.1-2.8c0-1.9,0-3.1,0.1-3.7c0-0.1,0-0.1,0-0.2
	c0-0.1-0.1-0.2-0.2-0.2c-0.3,0-0.8,0.2-2.4,0.9l-0.3,0.1c-0.1,0.1-0.2,0.1-0.2,0.3c0,0.3,0,0.3,0.3,0.3c0.9,0.1,0.9,0.2,0.9,2.2
	c0,3.1-0.1,3.4-1.1,3.5c-0.3,0-0.3,0.1-0.3,0.3c0,0.3,0,0.3,0.2,0.3h0.1c0.8,0,1.4,0,1.9,0L143.8,199z M142.5,186.9
	c-0.5,0-1.1,0.6-1.1,1.1s0.5,1,1,1s1.1-0.5,1.1-1.1C143.5,187.4,143,186.9,142.5,186.9z M147.6,203.9c1-0.1,1.3-0.1,2.1-0.1
	c0.4,0,0.6,0,1.2,0c0.3,0,0.6,0,0.7,0c0.2,0,0.2,0,0.2-0.3s0-0.3-0.3-0.3c-0.9,0-1.1-0.2-1.2-0.7c-0.1-0.3-0.1-1.4-0.1-3.6
	c0.6,0.1,1,0.2,1.5,0.2c2.6,0,4.6-1.8,4.6-4.3c0-2.1-1.4-3.6-3.2-3.6c-0.8,0-1.5,0.2-2.9,0.8c0-0.3,0-0.5,0.1-0.8c0-0.1,0-0.1,0-0.1
	c0-0.1-0.1-0.1-0.2-0.1c-0.2,0-0.4,0.1-1,0.4c-0.2,0.1-0.4,0.2-0.6,0.3c-0.4,0.2-0.9,0.5-1.2,0.7c-0.1,0.1-0.1,0.1-0.1,0.3
	s0,0.2,0.3,0.2c0.5,0,0.7,0.1,0.8,0.3c0.1,0.3,0.1,0.6,0.1,2.9c0,2.8,0,4.9-0.1,6c0,0.8-0.3,1.1-0.9,1.2c-0.3,0.1-0.3,0.1-0.3,0.3
	c0,0.3,0,0.3,0.2,0.3L147.6,203.9L147.6,203.9z M150.2,197.5c0-0.4,0-0.8,0-1c0-1.6,0-3.2,0.1-3.9c0.6-0.2,1-0.3,1.6-0.3
	c1.6,0,2.8,1.3,2.8,3.3c0,1.6-0.8,2.5-2.2,2.5C151.6,198,150.9,197.9,150.2,197.5z M166.1,197.3H166c-0.6,0.5-1.4,0.7-2.2,0.7
	c-1.4,0-2.2-1-2.4-2.8c1-0.2,2.6-0.5,4.7-0.8c0.3-0.1,0.3-0.1,0.3-0.3c0-0.3,0-0.4-0.1-0.4s-0.1,0-0.1-0.2c-0.2-0.6-0.3-0.8-0.5-1.2
	c-0.5-0.6-1.4-1-2.3-1c-2.1,0-3.7,1.9-3.7,4.4c0,2.2,1.2,3.6,3.2,3.6c1.1,0,2.3-0.4,3.3-1.2c0.1-0.1,0.2-0.2,0.2-0.3
	c0,0,0,0-0.1-0.2L166.1,197.3z M161.4,194.6c0-1.6,0.6-2.6,1.5-2.6c0.7,0,1.5,0.8,1.5,1.6c0,0.2-0.2,0.4-0.6,0.5
	C162.9,194.3,162,194.5,161.4,194.6z M172.9,199c0.6,0,0.6,0,0.6,0c0.2,0,0.2-0.1,0.2-0.3s0-0.2-0.3-0.3c-0.8-0.1-1-0.1-1.1-0.5
	c-0.1-0.2-0.1-1-0.1-2.8c0-1.9,0-3.1,0.1-3.7c0-0.1,0-0.1,0-0.2c0-0.1-0.1-0.2-0.2-0.2c-0.3,0-0.8,0.2-2.4,0.9l-0.3,0.1
	c-0.1,0.1-0.2,0.1-0.2,0.3c0,0.3,0,0.3,0.3,0.3c0.9,0.1,0.9,0.2,0.9,2.2c0,3.1-0.1,3.4-1.1,3.5c-0.3,0-0.3,0.1-0.3,0.3
	c0,0.3,0,0.3,0.2,0.3h0.1c0.8,0,1.4,0,1.9,0L172.9,199z M171.6,186.9c-0.5,0-1.1,0.6-1.1,1.1s0.5,1,1,1s1.1-0.5,1.1-1.1
	C172.6,187.4,172,186.9,171.6,186.9z M182.7,203.2c0.5-1.8,4.7-13.6,6-16.9h-1.2c-0.3,1.2-0.9,2.8-2.8,8.1c-2.4,6.8-2.9,7.9-3.3,8.8
	L182.7,203.2L182.7,203.2z M202,193.4c3.7,4.2,3.9,4.5,3.9,4.7s-0.3,0.3-0.7,0.4c-0.3,0-0.3,0-0.3,0.2c0,0.3,0,0.3,0.2,0.3h0.1
	c0.2,0,1.4,0,1.8,0c0.3,0,1.9,0,2.3,0h0.2c0.2,0,0.3,0,0.3-0.3c0-0.2,0-0.2-0.2-0.3c-0.5-0.1-0.8-0.2-2.2-1.8
	c-3-3.3-3.2-3.6-3.9-4.4c0.1-0.1,0.2-0.1,0.3-0.2c3.9-3.3,4.2-3.5,5.1-3.8c0.4-0.1,0.4-0.1,0.4-0.3s0-0.3-0.2-0.3H209
	c-1.2,0.1-1.3,0.1-2.5,0.1h-0.6c-1,0-1,0-1,0c-0.2,0-0.2,0.1-0.2,0.3s0,0.3,0.3,0.3c0.8,0,1,0.1,1,0.4c0,0.3-0.6,1-2,2.3
	c-0.9,0.8-1.7,1.6-2.5,2.3c0-1.2,0-3.1,0.1-3.6c0.1-1.1,0.2-1.3,1.1-1.4c0.3-0.1,0.3-0.1,0.3-0.3v-0.1c0-0.1,0-0.2-0.2-0.2h-0.1
	c-0.8,0-1.6,0.1-2,0.1c-0.3,0-1.7,0-2.1-0.1h-0.2c-0.1,0-0.2,0.1-0.2,0.3s0,0.2,0.3,0.3c1,0.1,1.1,0.3,1.1,3.6c0,2.7,0,4.7-0.1,5.5
	c-0.1,1-0.2,1.1-1.2,1.3c-0.1,0-0.2,0.1-0.2,0.2c0,0.3,0,0.3,0.2,0.3h0.1c1.2,0,1.9,0,2.2,0c0.4,0,1.2,0,1.5,0h0.6
	c0.3,0,0.3,0,0.3-0.3c0-0.2,0-0.2-0.4-0.3c-1-0.1-1.1-0.2-1.2-1.2c-0.1-0.5-0.1-0.9-0.1-3.3L202,193.4z M214.1,191.4
	c-0.7,0-1,0-1.7,0c-0.4,0-0.8,0-1.2,0h-0.3h-0.2c-0.2,0-0.2,0-0.2,0.3c0,0.2,0,0.2,0.3,0.3c0.4,0.1,0.6,0.5,1.6,3.3
	c1.1,2.8,1.5,3.9,1.5,4s-0.6,1.2-1,1.8c-0.6,1-1.1,1.4-1.5,1.7c-0.5,0.3-0.6,0.3-0.6,0.7c0,0.3,0.2,0.4,0.6,0.4c1,0,1.2-0.2,1.8-1.5
	c1.7-3.7,1.8-3.9,3.3-6.8c1.7-3,1.9-3.3,2.3-3.6c0.1-0.1,0.1-0.1,0.1-0.3s0-0.3-0.2-0.3h-0.2c-0.3,0-0.9,0-1.1,0c-0.3,0-1,0-1.1,0
	H216c-0.2,0-0.2,0.1-0.2,0.3s0,0.3,0.3,0.3c0.6,0.1,0.7,0.1,0.7,0.4c0,0.4-0.3,1-2.1,4.9c-0.8-2-1.6-4.4-1.6-4.9
	c0-0.3,0.2-0.4,0.6-0.4c0.4,0,0.4,0,0.4-0.3C214.4,191.5,214.4,191.4,214.1,191.4L214.1,191.4z M225.4,191.2c-2.7,0-4.6,1.6-4.6,4.1
	c0,2.3,1.6,3.9,4,3.9c2.6,0,4.5-1.7,4.5-4.1C229.4,192.9,227.7,191.2,225.4,191.2z M224.8,192c1.5,0,2.7,1.6,2.7,3.8
	c0,1.6-0.8,2.6-2,2.6c-1.5,0-2.6-1.6-2.6-3.7C222.8,193.1,223.6,192,224.8,192z M235.1,192.4c0.9,0,2.8,0,2.9,0
	c0.1,0,0.1-0.1,0.1-0.5s0-0.5-0.3-0.5h-0.6h-1H235c0-0.4,0.1-1,0.1-1.3V190c0-0.1-0.1-0.1-0.2-0.1c-0.2,0-0.2,0-0.4,0.2
	c-0.5,0.6-1.3,1.2-2.1,1.8c-0.1,0.1-0.1,0.1-0.1,0.3c0,0.3,0,0.3,0.2,0.3h0.8c-0.1,2.9-0.1,4.4-0.1,4.6c0,0.8,0.1,1.3,0.5,1.7
	c0.3,0.3,0.8,0.5,1.3,0.5c0.8,0,1.8-0.3,2.7-0.8c0.3-0.1,0.3-0.1,0.3-0.4v-0.3h-0.2c-0.6,0.3-1,0.4-1.4,0.4c-0.5,0-0.9-0.2-1.1-0.4
	c-0.2-0.3-0.3-0.6-0.3-1.5v-0.7c0-0.4,0-1,0-1.7v-0.8v-0.7H235.1z M245.2,191.2c-2.7,0-4.6,1.6-4.6,4.1c0,2.3,1.6,3.9,4,3.9
	c2.6,0,4.5-1.7,4.5-4.1C249.1,192.9,247.5,191.2,245.2,191.2z M244.5,192c1.5,0,2.7,1.6,2.7,3.8c0,1.6-0.8,2.6-2,2.6
	c-1.5,0-2.6-1.6-2.6-3.7C242.5,193.1,243.3,192,244.5,192z"/>
<g>
	<path fill="#FFFFFF" d="M47.8,116.8c0,0,0,0.2,0,0.3c-0.7,0.5-1.1,1.2-1.7,1.8c-0.2,0.1-0.4,0.2-0.6,0.3c0,0.3-0.1,0.7-0.7,0.7
		c-0.1,0-0.2,0.2-0.3,0.2c-0.1,0.1-0.3,0.2-0.4,0.3c-0.4,0.2-0.5,0.5-0.4,1c0.3-0.1,0.6-0.1,0.8-0.3c0.3-0.2,0.7-0.4,0.9-0.6
		c0.3-0.4,0.8-0.6,1.2-0.7c0.2-0.1,0.3-0.2,0.4-0.4c0.1-0.1,0.2-0.2,0.3-0.2c0.2-0.1,0.4-0.2,0.6-0.4c0.4-0.2,0.8-0.3,1.2-0.5
		c0.2-0.1,0.4-0.1,0.6-0.2c0.2-0.1,0.3-0.1,0.5-0.2c0.2,0,0.3,0,0.5,0c0.1,0,0.2,0.2,0.3,0.1c0.5-0.1,1.1-0.1,1.6-0.5
		c0.2-0.1,0.6-0.1,0.7,0.1c0.2,0.2,0.4,0.2,0.6,0c0.3-0.3,0.6-0.3,0.8,0c0,0,0,0.1,0.1,0.1c0.5-0.1,0.8,0.4,1.3,0.5
		c0.2,0.1,0.4,0.4,0.6,0.5c0.4,0.3,0.5,0.7,0.7,1.2c0,0,0,0,0,0.1c0.4,0.4,0.6,0.8,0.6,1.4c0,0.2,0.2,0.4,0.2,0.6c0,0.9,0,1.8,0,2.8
		c0,0.4,0.3,0.8,0.4,1.3c-0.2,0.3-0.5,0.8-0.8,1.3c-0.7,0.1-1.2,0.8-1.2,1.6c-0.1,0.9-0.2,1.8-0.3,2.7c-0.7,0.2-1.3,0.8-1.3,1.4
		c-0.2,0-0.4,0.1-0.5,0.2c-0.2,0.4-0.4,0.8-0.5,1.2c0,0.1,0.2,0.4,0.4,0.5c0.2,0.2,0.6,0.3,0.8,0.4c0.1,0,0.1,0.1,0.2,0.1
		c0.7-0.2,1.3,0.3,1.8,0.6c0.7,0.4,1.5,0.4,2.2,0.8c0.8,0.4,1.6,0.6,2.4,0.8c0.6,0.2,1.2,0.5,1.8,0.8c0.1,0.1,0.3,0,0.4,0
		c0.3,0,0.7-0.2,0.9,0.3c0,0.1,0.2,0,0.4,0c0.9,0.1,1.9,0.1,2.8,0.3c0.4,0.1,0.8,0.3,1.2,0.5c0.2-0.2,0.3-0.5,0.7,0
		c0.1,0.2,0.4,0.3,0.6,0.3c0.9,0.1,1.8,0.2,2.6,0.3c0.2,0,0.5-0.1,0.7,0.3c0,0.1,0.3,0,0.5,0.1c0.7,0.1,1.4,0.2,2.2,0.3
		c0.8,0,1.5-0.1,2.3,0.1c0.4,0.1,0.9,0,1.1,0.5h0.1c0.7-0.1,1.3,0.4,2,0.6c-0.1,0.3-0.2,0.6-0.3,0.8c-0.4,0.5-0.3,1.3-1,1.6
		c-0.2,0.1-0.3,0.4-0.3,0.7c-0.1,0.4-0.2,0.8-0.3,1.2l-0.1-0.1c-0.1,0.2-0.3,0.4-0.4,0.5c-0.3,0.2-0.6,0.5-1,0.7
		c-0.5,0.2-1.1,0.4-1.6,0.7c-0.3,0.2-0.7,0.1-1,0.2c-0.1,0.3-0.2,0.6-0.3,0.9c-0.1,0.2-0.4,0.3-0.6,0.5h-0.1c-0.9,0.9-2,0.3-3.1,0.4
		c-0.6,0-1.3-0.2-1.8-0.5c-0.4-0.3-0.8-0.3-1.3-0.3c-0.1-0.3-0.2-0.7-0.4-1c-0.1-0.2-0.3-0.2-0.5-0.3s-0.4-0.1-0.7-0.2
		c-0.1,0.2-0.3,0.4-0.7,0c-0.2-0.2-0.7-0.3-1.1-0.3c-0.5,0-0.8-0.1-1.2-0.5c-0.3-0.3-0.8-0.4-1.2-0.6c-0.3-0.2-0.5-0.4-0.7-0.6
		c-0.1-0.1-0.2-0.1-0.2-0.2c-0.3-0.1-0.7-0.2-1-0.4c-0.6-0.4-1.1-0.8-1.6-1.4c-0.3-0.3-0.9-0.4-1.3-0.6c-0.6-0.4-1.3-0.6-1.9-1.1
		c-0.4-0.4-0.9-0.8-1.6-0.9c-0.5,0-1.2-0.2-1.6-0.7c-0.1-0.1-0.2-0.1-0.3-0.1c-0.5,0.1-0.8-0.2-1.2-0.4c-0.6-0.4-1.3-0.1-1.4,0.6
		c-0.6,0.3-1,0.6-1.6,0.9c-0.3,0.2-0.7,0.2-1.1,0.3c-0.3,0.1-0.6,0.2-0.8,0.2c-0.5,0-0.7,0.2-1,0.5c-0.1,0.1-0.3,0.1-0.5,0.1
		c-1.1,0-2.2,0-3.2,0c-0.4,0-0.9-0.2-1.1-0.5c-0.1-0.1-0.1-0.2-0.1-0.3c-0.2-0.5-1.4-0.7-1.8-0.4c-0.1,0.1-0.3,0.2-0.4,0.2
		c-0.9,0-1.8,0-2.7,0c-0.2,0-0.3-0.1-0.6-0.2c-0.1,0.1-0.3,0.2-0.5,0.3c-0.1-0.3-0.2-0.5-0.3-0.8c0.2-0.3,0.5-0.5,0.9-0.4
		c0.1,0,0.4,0,0.4-0.1c0.2-0.4,0.6-0.4,0.9-0.3c0.5,0.1,0.7-0.3,1-0.4c0.6-0.3,1.1-0.8,1.7-1.1c0.6-0.3,1.2-0.6,1.7-0.9
		c0.3-0.2,0.5-0.5,0.8-0.7c0.5,0.6,1.1-0.2,1.7-0.1c0-0.3,0-0.5,0-0.8c-0.2,0-0.3-0.1-0.5-0.1l0,0c-0.1-0.8-0.9-1-1.4-1.4
		s-1.1-0.6-1.7-0.9c-0.3-0.2-0.6-0.7-0.7-1.1c-0.3-0.1-0.6-0.2-0.9-0.4c0-0.3,0-0.6,0-1c0.4,0.2,0.8,0.3,1.1,0.5
		c0.5-0.1,1.1-0.3,1.6-0.4c0.4-0.1,1,0.3,1.3-0.3c1,0,2,0,3,0c0.2,0,0.3,0.2,0.5,0.3c0.4,0.1,0.7-0.1,0.9-0.4
		c0.3-0.4,0.4-0.8,0.6-1.2c0.1,0,0.3,0,0.5-0.1c0-0.2,0-0.5,0-0.7c0-0.1,0-0.2,0-0.3c0.7-0.4,0.5-1.2,0.9-1.8c0,0,0.1,0,0.1-0.1
		c0.1-0.5,0.2-1,0.4-1.5c0-0.1,0-0.2,0-0.2c0.8-0.6,0.2-1.4,0.5-2.2c-0.6,0.1-1-0.2-1.5,0.3c-0.3,0.3-0.8,0.4-1.3,0.5
		c-0.6,0.1-0.7,0.7-1.2,1c-0.2,0.1-0.4,0.3-0.7,0.4c-0.1,0.1-0.3,0.2-0.4,0.3c-0.6,0.9-1.4,1.4-2.5,1.6c-0.3,0.6-1,0.1-1.4,0.5
		c-0.1,0.1-0.4,0-0.6,0c-0.2,0-0.4,0.1-0.6,0.2c-0.1,0-0.3,0.1-0.5,0c-0.3-0.2-0.6-0.5-0.9-0.7c-0.1-0.1-0.3-0.1-0.5-0.1
		c0.3-0.3,0.5-0.6,0.8-0.8c0.4-0.2,0.4-0.6,0.3-0.9c0-0.3,0-0.6,0.3-0.9c0.1,0,0.1-0.1,0.1-0.2c0-0.9,0.4-1.5,1-2
		c0.2-0.2,0.2-0.5,0.4-0.7c0-0.1,0-0.2,0.1-0.2c0.3-0.4,0.5-0.7,0.8-1.1l0,0c-0.1-0.9,1-1.3,0.8-2.1c0-0.1,0.1-0.2,0.1-0.2
		c0.3-0.3,0.3-0.4-0.1-0.7c0.4-0.4,0.4-0.5,0-0.8s-0.8-0.5-1.3-0.5c-0.2,0-0.4-0.1-0.6-0.2c-0.2-0.1-0.4-0.2-0.6-0.4
		c-0.2-0.4-0.4-0.9-0.6-1.3c0.3-0.2,0.6-0.4,0.8-0.4c0.4-0.1,0.5-0.4,0.5-0.7c0.5-0.1,1-0.7,0.9-1.1c-0.2,0-0.3,0-0.5,0
		c-1.1-0.1-2.3-0.2-3.4-0.2c-0.4,0-0.7-0.7-0.4-1.1c0.1-0.1,0.2-0.3,0.1-0.4c-0.3-0.6,0.1-1.3,0-1.9c0-0.2-0.2-0.5-0.3-0.6
		c-0.2-0.1-0.4,0.1-0.7,0.1c-0.6,0.1-0.9,0.7-1.3,1c-0.1,0.1-0.3,0.1-0.5,0.2c-1,1.8-0.7,3.5,0.5,5.2c-0.2,0.3-0.7,0.4-0.5,0.9
		c0,0.1,0,0.2,0.1,0.3c0.3,0.4,0.3,0.8,0,1.2c-0.2,0.4-0.4,0.8-0.8,1.1c-0.2,0.1-0.4,0.3-0.6,0.4c-0.1,0-0.3,0.1-0.3,0
		c-0.5-0.7-0.8,0.1-1.2,0.2c-0.2,0.1-0.3,0-0.5,0s-0.5-0.1-0.7-0.1c-0.3,0.1-0.7,0.2-1,0.3c0-0.3-0.1-0.5-0.1-0.6
		c-0.4-0.1-0.8-0.2-1.3-0.4c0.1-0.5-0.1-0.9-0.7-1.1c0.2-0.1,0.3-0.2,0.3-0.2c-0.1-0.2-0.2-0.5-0.3-0.7c-0.3-0.6-0.2-1.2,0.2-1.7
		c0.1-0.1,0.1-0.2,0.1-0.3c0.1-0.5,0.2-1,0.3-1.4c0-0.5,0-1,0-1.5v-0.1c0.1,0,0.3-0.1,0.5-0.1c0-0.9,0-1.8,0-2.7
		c0-0.4,0.2-0.8,0.3-1.2c0-0.2,0.2-0.4,0.2-0.6c0-0.4,0.1-0.7,0.3-1.1c0.2-0.3,0.1-0.7,0.2-1.1c0-0.2,0.1-0.5,0.2-0.6
		s0.4-0.1,0.5-0.1c0.6,0.2,0.6,0.3,0.7-0.3c0.1,0,0.2,0,0.4,0c0.1,0,0.2,0,0.4,0c-0.3,0.7,0.3,1.2,0.5,1.8c0.3,0.1,0.6,0.2,1,0.4
		c0.2,0.8,0.9,1,1.5,0.5c0.3-0.2,0.7-0.4,1-0.6c0.1,0,0.1-0.1,0.2-0.2c0.4-0.4,0.9-0.6,1.4-0.9c0.5-0.2,0.9-0.5,1.4-0.5
		c0.1,0,0.2-0.1,0.3-0.2c0.2-0.6,0.7-0.6,1.2-0.6c0.3,0,1-0.3,1.3-0.5c0,0,0.1,0,0.2,0c0.4-0.1,0.7-0.1,1-0.2
		c0.7-0.3,1.4-0.2,2.1-0.2c0.2,0,0.4-0.2,0.6-0.2c0.3-0.1,0.6-0.2,0.9-0.3c0.4-0.1,0.8-0.1,1.1-0.3c0.6-0.2,1.1-0.5,1.7-0.7
		c0.1,0,0.1-0.1,0.2-0.1c0.5-0.2,1-0.4,1.5-0.5c0,0,0,0,0.1,0c0.7-0.1,1.3-0.2,2-0.2c0.3,0,0.7,0.2,0.8-0.3c0,0,0.1,0,0.2,0
		c0.5-0.1,1.1-0.1,1.6-0.2c0.1,0,0.2-0.1,0.3-0.2c0.3-0.4,0.7-0.4,1.1-0.4c0.6,0,1.3,0.2,1.9-0.2c0,0,0.1,0.1,0.2,0.1
		c0.1,0,0.3,0.1,0.4,0.1c0.4-0.1,0.7-0.1,1.1-0.2c0.7-0.2,1.3-0.4,2-0.3c0.1,0,0.3-0.3,0.4-0.3c0.3,0.1,0.6,0.3,0.8,0.5
		s0.4,0.3,0.7,0.3c0.3,0,0.5,0.2,0.8,0.4c0.4,0.2,0.8,0.6,1.2,0.7c0.5,0.1,0.8,0.3,1.2,0.5c0.5,0.3,1,0.7,1.5,1.1
		c0.7,0.6,1.1,1.5,1.8,2.2c0.4,0.4,0.5,1.1,0.8,1.6c0.1,0.3,0.2,0.6,0.4,0.8c0.6,0.6,1,1.2,1,2.1c0,0.2,0.1,0.4,0.2,0.6
		c0.3,0.6,0.2,1.3,0.2,1.9c0,0.2,0.1,0.5,0.2,0.7c-0.8,0.3-1.1,1.1-1.4,1.9c-0.2,0.5-0.4,0.6-0.9,0.6c-0.1,0-0.3,0-0.5,0
		c0,0.2-0.1,0.3-0.1,0.5c-0.3,0-0.6,0-0.8,0c-0.2,0.4-0.3,0.7-0.5,1.1c-0.1,0.3-0.8,0.4-1.1,0.3c-0.1-0.1-0.3-0.1-0.5,0
		s-0.3,0.2-0.4,0.3c0.3,0.6,0.1,1.3-0.6,1.5c-0.3,0.1-0.7,0.2-1,0.2c-0.3,0.1-0.7,0.2-1,0.3c-0.1-0.4-0.1-0.4-1.3-0.6
		c-0.2-0.3-0.3-0.7-0.5-1.1c-0.7,0.2-0.9-0.4-1.1-0.9c-0.2-0.6-0.6-0.8-1.1-0.7c-0.3,0-0.5-0.1-0.8-0.2c-0.8-0.3-1.7-0.4-2.5,0.2
		c-0.1,0.1-0.3,0.1-0.4,0.1c-0.4-0.3-0.8-0.3-1.3,0c-0.3,0.2-0.7-0.1-0.9,0.4c0,0.1-0.4,0.1-0.6-0.2c-0.2-0.2-0.9-0.2-1.1-0.1
		c-0.4,0.3-0.8,0.4-1.3,0.5c-0.3,0.1-0.7,0.3-0.9,0.5c-0.4,0.4-1.2,0.5-1.4,1.3c0,0.1-0.3,0.2-0.5,0.3c-0.3,0.1-0.4,0.4-0.5,0.7
		C48.4,116.5,48.1,116.6,47.8,116.8z M54.3,109.3c0.3,0.1,0.5,0.4,0.7,0.3c1-0.1,2.3,0.6,3-0.7c0,0,0.1,0,0.1-0.1
		c0.7-0.2,1.2-0.6,1.7-1.1c0.1-0.2,0.3-0.3,0.5-0.4c0.3-0.3,0.6-0.5,0.9-0.8c0.3-0.2,0.6-0.5,1-0.7c0,0,0-0.2,0-0.3
		c0.2,0,0.3-0.1,0.4-0.1c0.5-0.6,0.1-1.2,0.1-1.7c-0.3-0.2-0.6-0.3-0.6-0.5c-0.2-0.8-1.2-1-1.2-1.8c-0.5-0.1-0.5-0.9-1.2-0.9
		c-0.1,0-0.2-0.1-0.3-0.2c-0.3-0.4-0.7-0.5-1.1-0.5c-0.6,0-1.2,0.2-1.8,0.2c-0.8,0-1.4,0.3-1.7,1c0.2,0.2,0.5,0.4,0.5,0.6
		c0.1,0.9,0,1.7-0.6,2.4c-0.2,0.2-0.4,0.5-0.4,0.8c-0.1,0.6-0.5,0.8-0.9,0.9c-0.2,0.3-0.4,0.6-0.6,0.8c-0.5,0.6-1.1,1.2-0.9,2.1
		c0.8,0.1,1.6,0.2,2.3,0.3C54.3,109,54.3,109.2,54.3,109.3z M47.4,104c0,0,0.2,0,0.3-0.2c0.2-0.2,0.3-0.5,0.5-0.7
		c0.1-0.1,0-0.3,0-0.4c-0.3-0.4-0.6-0.6-1-0.1c0,0.1-0.2,0-0.3,0.1c-0.1,0-0.3,0.1-0.4,0.1c-0.7,0.3-1.2,0.7-1.5,1.3
		c0.2,0.2,0.4,0.4,0.5,0.7c0.2,0.8,0.2,0.8,1,0.7C46.7,105.1,47,104.6,47.4,104z M31,104.5c0.1-0.1,0.2-0.3,0.3-0.4
		c-0.1-0.1-0.2-0.3-0.3-0.4c-0.2,0.1-0.3,0.3-0.5,0.4C30.7,104.3,30.9,104.4,31,104.5z"/>
	<path fill="#FFFFFF" d="M29.1,25.6c0.2-0.2,0.5-0.4,0-0.7c-0.1,0-0.1-0.2-0.1-0.3c0-0.1,0-0.3,0-0.3c-0.8-0.7-0.3-1.6-0.4-2.3
		c0-0.1,0-0.3,0-0.4c-0.2,0-0.3-0.1-0.5-0.1c0-2.7,0-5.4,0-8.2c0.1,0,0.3-0.1,0.4-0.1l0.1-0.1c0.1-0.7,0.1-1.4,0.3-2
		c0.3-0.7,0.1-1.4,0.2-2.1c0.1-0.4,0.2-0.7,0.3-1.1c0.1-0.4,0.4-0.7,0.4-1.1s0.3-0.6,0.4-0.8c0.3-0.5,0.6-1.1,0.7-1.7
		c0.1-0.4,0-0.8,0.4-1.1c0.1-0.1,0.1-0.2,0.1-0.3c0-0.3-0.1-0.6,0.3-0.9c0.1-0.1,0.1-0.6,0.1-0.9c0.7,0,0.2-0.6,0.4-1.1
		c0.3,0,0.7,0,1.1,0c0.4,0,0.8,0,1.2,0c-0.1,0.6,0.2,0.9,0.6,1.2C35.5,1.6,36,2,36.4,2.4c0,0,0.1,0.1,0.1,0.2
		c0.1,0.2,0.2,0.3,0.4,0.6c0.5,0.8,1,1.7,1.5,2.6c0.7,0.3,1.2,0.8,1.5,1.6c0,0.1,0,0.1,0.1,0.1c0.4,0.4,0.8,0.8,1.2,1.3
		c0.3,0.4,0.4,0.8,0.6,1.2c0.1,0.3,0.3,0.6,0.4,0.9c0,0.1,0.1,0.2,0.1,0.3c0,0.6,0.1,1.2,0.5,1.7c0.1,0.1,0,0.2,0,0.4
		c0.1,0.5,0,1.1,0.2,1.6c0.2,0.6-0.1,1.1-0.4,1.7c-0.2,0.4-0.3,0.8-0.3,1.2c-0.1,0.5-0.1,1,0,1.4c0.2,0.9,0.2,1.8,0.2,2.7
		c0,0.2,0.2,0.3,0.3,0.4c0.1,0.4,0.2,0.7,0.1,1.1c-0.2,0.5,0,1,0,1.6c0,0.2,0.1,0.5-0.3,0.6c0,0,0,0.2-0.1,0.3
		c-0.1,0.4-0.1,0.8-0.2,1.1c-0.3,0.6-0.2,1.1-0.2,1.7c0,0.8,0,0.8-0.6,1c-0.2,0.4-0.4,0.7-0.5,1s-0.1,0.8-0.3,1.1
		c-0.2,0.3-0.6,0.4-0.5,0.8c0,0.3-0.2,0.6-0.3,0.8l-0.1,0.1c-0.1,0.5-0.2,0.9-0.4,1.4c-0.1,0.4-0.3,0.8-0.4,1.2
		c0,0.1-0.1,0.2-0.1,0.3c0.1,0.7-0.2,1.3-0.7,1.8C38,38.5,38,38.8,38,38.9c0.6,0.7,0.1,1.2-0.2,1.7c-0.1,0.1-0.1,0.3-0.1,0.5
		c0,0.8,0,1.5,0,2.3c0,0.4,0.1,0.9,0.3,1.2c0.3,0.3,0.2,0.5-0.1,0.7c0.3,0.2,0.5,0.4,0.1,0.8c-0.2,0.2,0,0.6-0.1,0.8
		s-0.2,0.5-0.4,0.6c-0.5,0.2-1.1,0.3-1.7,0.5c-0.1,0.3-0.2,0.6-0.7,0.2c-0.3-0.2-0.7-0.1-1.1-0.1c-0.3-0.6-0.7-1-1.3-1.3
		c-0.4-0.2-0.8-0.5-1.2-0.7c-0.1,0-0.2-0.1-0.2-0.1c-0.6-0.1-1.2-0.1-1.8-0.2c-0.3-1-0.8-1.7-1.4-1.9c-0.3-0.5-0.5-0.8-0.7-1.1
		l-0.1-0.1c-0.1-0.7-0.2-1.3-0.2-2c0-0.5,0.2-1,0.3-1.5c0.1,0,0.2,0,0.4-0.1c0-0.2,0.1-0.3,0.1-0.5c0.1,0,0.3-0.1,0.5-0.1
		c0-0.3,0-0.7,0-1c0.1-0.4,0.1-0.9,0.3-1.3c0.3-0.5,0.1-0.6-0.3-0.7c-0.1-0.4,0-0.7,0.3-1c0.1-0.1,0.1-0.3,0.1-0.5
		c0-1.5,0-3.1,0-4.6c0-0.2-0.1-0.5,0.2-0.6c0,0,0.1-0.2,0.1-0.3c0-0.8,0-1.5,0-2.3C29.3,26,29.2,25.8,29.1,25.6z"/>
	<path fill="#FFFFFF" d="M16.8,100.8c-0.2,0.3-0.3,0.6-0.5,0.9c-0.1,0.2-0.2,0.4-0.2,0.6c-0.1,0.5-0.1,1-0.3,1.4s-0.6,0.6-0.9,0.9
		l-0.1-0.1c0,0.2,0,0.4,0,0.6s-0.2,0.5-0.2,0.7c-0.1,0.4-0.2,0.8,0.2,1.1c-0.3,0.3-0.5,0.5-0.7,0.8c0.2,0.3,0.5,0.7,0.7,1.1
		c0.1,0.1,0.1,0.4,0,0.5c-0.4,0.4-0.1,0.9-0.3,1.4c-0.4,1.5-0.1,3.1-0.2,4.7c0,0.4-0.2,0.9-0.4,1.2c-0.3,0.7-0.4,1.3-0.4,2
		c-0.2,0-0.3,0.1-0.5,0.1c0,0.3,0,0.6,0,0.9c-0.2,0.1-0.4,0.1-0.6,0.2c-0.1,0.6,0,1.3-0.3,1.9c-0.3,0.7-0.1,1.3-0.2,2
		c-0.2,0-0.4,0-0.7,0.1c0,0.2,0,0.3,0,0.5c0.3,0,0.5,0,0.7,0.1c0,0.2,0,0.4,0,0.6c0.1,0.7,0,1.5,0.3,2.1c0.2,0.5,0.2,0.9,0.2,1.3
		c0,0.1,0,0.2,0.1,0.2c0.4,0.2,0.5,0.5,0.4,1c0.2,0,0.3,0.1,0.5,0.1c0,0.1,0.1,0.1,0.1,0.2c0.1,1.2,0.2,2.4,0.2,3.6
		c0,0.4-0.2,0.8,0,1.2c0.4,1,0,2.1,0.3,3.1c0.5,1.7,0.1,3.3,0.3,5c0,0.3,0.1,0.7,0.3,0.9c0.3,0.3,0.2,0.6,0.2,0.9c0,1.6,0,3.2,0,4.7
		c0,0.2,0,0.4-0.1,0.6c-0.3-0.4-0.7-0.8-1.1-1.2c0-0.1,0-0.3,0-0.6c-0.2,0-0.3-0.1-0.5-0.1c0-0.2,0-0.4,0-0.7c-1.2,0-1.4-1.1-2-1.9
		c-0.2-0.1-0.6-0.3-0.9-0.5c-0.1-0.1-0.2-0.2-0.3-0.4c-0.1-0.5-0.1-1.1-0.2-1.6c-0.1-0.5,0.2-1.1,0.4-1.6c0-0.1,0.1-0.2,0.1-0.3
		c0.1-0.4-0.1-0.8,0.3-1.2c0.2-0.2,0.3-0.8-0.2-1.2c-0.2-0.2-0.2-0.7,0-0.9c0.6-0.9,0.5-1.9,0.5-2.9c0-0.1-0.1-0.2-0.2-0.2
		c-0.4-0.2-0.3-0.6-0.4-1c-0.3-0.9-0.1-1.9-0.3-2.8c-0.1-0.3,0-0.9-0.5-1.2c-0.1,0,0-0.2,0-0.4c0.1-0.5-0.2-1-0.4-1.4
		c-0.1-0.1-0.1-0.2-0.1-0.4c0-0.3,0-0.6,0-0.8c0.1-0.8,0.2-1.7,0.2-2.5c0.2,0.1,0.6,0.3,0.6,0.2c0.2-0.2,0.3-0.5,0.4-0.7
		c0.1-0.2,0.1-0.5,0.2-0.7c-0.2-0.4-0.5-0.5-1-0.5c-0.2,0-0.3-0.2-0.4-0.2c0-0.5,0.1-0.9,0.1-1.2c0-0.4,0.1-0.8,0.5-1
		c0.5-0.2,0.5-1.6,0-1.8c-0.4-0.2-0.3-0.5-0.2-0.7c0.3-0.6,0.3-0.7-0.4-0.9c0,0-0.1,0-0.2-0.1c0.1-0.4,0.2-0.8,0.3-1.2
		c0.1-0.4,0-0.8,0.2-1.3c0.4-0.9,0.8-1.8,0.6-2.9c0-0.3,0.2-0.6,0.3-1c0.1-0.2,0.2-0.3,0.2-0.5c0.1-0.8,0.2-1.7,0.3-2.5
		c0-0.4,0.1-0.8,0.2-1.1c0.1-0.3,0.5-0.5,0.7-0.7c-0.2,0-0.4,0-0.7,0c-0.2-0.6-0.1-0.7,1.1-0.8c0.1-0.3,0.2-0.6,0.2-0.9h0.1
		c0,0,0,0,0-0.1c-0.3-0.5-0.6-1-0.8-1.5c-0.1-0.2,0.1-0.4,0.2-0.7c-0.2-0.1-0.5-0.4,0.1-0.7c0.1-0.1,0.1-0.4,0.1-0.7
		c0.1,0,0.3-0.1,0.5-0.1c0-0.8,0-1.5,0-2.3c0.2,0,0.4-0.1,0.5-0.1v-0.1c-0.2,0-0.3-0.1-0.5-0.1c0-0.7,0-1.4,0-2.1
		c0-0.1,0-0.2,0.1-0.2c0.5-0.2,0.5-0.6,0.5-1c0-0.7,0-1.4,0-2.1c0.2,0,0.3-0.1,0.5-0.1c0-0.6,0-1.1,0-1.7c0.1,0,0.1,0,0.2,0.1
		c0.1-0.2,0.2-0.4,0.3-0.6c0-0.3,0-0.6,0-0.9s0-0.5,0.3-0.6c0.1-0.1,0.2-0.4,0.3-0.5c0.3-0.5,0.3-1,0.3-1.6c0-0.1,0-0.2,0.1-0.2
		c0.4-0.2,0.5-0.6,0.5-1c0.2,0,0.3,0,0.5-0.1c0.3-0.8,0.6-1.6,0.9-2.4c0.4,0,0.9,0,1.1-0.6c0.3,0.5,1,0.6,0.7,1.3
		c0.2,0,0.4,0.1,0.5,0.1c0.1,0.2,0.1,0.4,0.2,0.5c0.6,0.5,0.9,1.2,1.2,1.9c0.1,0.2,0.3,0.5,0.5,0.6c0.5,0.4,0.7,0.8,0.5,1.4
		c0.5,0,0.5,0.3,0.5,0.7c0,0.3-0.1,0.8,0,0.9c0.6,0.5,0.1,1.3,0.5,1.8c0.1,0.1-0.1,0.5-0.2,0.6C22,91.6,22,91.9,22,92.2
		s0.1,0.7-0.5,0.6c0,0.4,0,0.7,0,1.1c-0.2,0-0.3,0.1-0.5,0.1c0,0.4,0,0.9-0.5,1.1c-0.1,0.1-0.2,0.4-0.3,0.6
		c-0.1,0.2-0.3,0.4-0.4,0.5l-0.1-0.1c0,0.2,0,0.4,0,0.5c0,0.3,0.1,0.6-0.3,0.6c-0.1,0.6-1.1,0.5-0.9,1.4c0,0.1-0.3,0.3-0.4,0.5
		c-0.4,0.4-0.8,0.8-0.7,1.5C17.1,100.5,16.9,100.7,16.8,100.8z M13.6,104c-0.3-0.5-0.3-0.5-0.6-0.4c0,0.5-0.1,0.9-0.1,1.4
		c0,0.3-0.6,0.4-0.4,0.8c0.2,0.4,0.6,0.5,1,0.3C13.5,105.4,13.5,104.8,13.6,104z M12.4,107.2c0,0.1,0,0.1,0,0.2
		c0.4,0.1,0.5,0.7,1.1,0.5c0-0.3,0-0.6,0-1.1C13.1,107,12.7,107.1,12.4,107.2z"/>
	<path fill="#FFFFFF" d="M51.9,90.1c-0.5,0.4-0.8,0.9-1,1.4c-0.1,0.3-0.3,0.7-0.5,1c0,0.1-0.1,0.1-0.1,0.2c-0.1,0.4-0.2,0.9-0.2,1.3
		c-0.2,0-0.3,0.1-0.3,0.1c-0.2,0.3-0.5,0.6-0.6,0.8c-0.4,0.9-0.9,1.4-2.1,1.3c0.2,0.3,0.3,0.5,0.4,0.7c-0.7,0.1-1.4,0.2-2,0.3
		c-0.3-0.3-0.5-0.5-0.7-0.8c-0.1-0.1-0.2-0.2-0.3-0.4c-0.2-0.7-0.7-0.8-1.4-0.5c-0.3,0.2-0.7,0.2-1,0.4c-0.4,0.2-0.7,0.3-1.1,0.3
		c-0.1,0-0.2,0.2-0.3,0.2c-0.2,0.1-0.4,0.2-0.7,0.4c0,0,0,0.2-0.1,0.3c-0.2-0.1-0.5-0.2-0.7-0.3c0-0.2,0.1-0.6-0.5-0.5
		c0.2-0.7-0.2-1.2-0.5-1.7c-0.1-0.1,0-0.2,0-0.4c0-0.6,0-1.1,0-1.7c-0.1-0.9-0.2-1.8-0.3-2.8c0-0.2-0.1-0.4-0.3-0.6
		c-0.4-0.4-0.2-1-0.3-1.4c0-0.2-0.1-0.4-0.2-0.4c-0.4-0.2-0.3-0.5-0.4-0.9c0-0.2-0.1-0.4-0.2-0.6c-0.4-0.4-0.8-0.7-1.2-1.1
		c-0.1,0-0.2,0-0.2,0.1c0.1-0.2,0.2-0.5,0.3-0.7c0-0.1,0.1-0.2,0.1-0.4c-0.1-1,1.2-1.8,2.1-1.3c0.5,0.3,1.1,0.8,1.8,0.7
		c0.2,0,0.4,0.2,0.6,0.3c0.4,0.1,0.7,0.2,1.2,0.4c0,0,0,0.2,0.1,0.3c0.2,0.1,0.5,0.2,0.6,0.4c0.3,0.4,0.5,0.5,0.8,0
		c0.1-0.1,0.3-0.2,0.5-0.2c0.6,0,1.2,0,1.7,0c0.2,0,0.6,0.1,0.7,0.3c0.2,0.3,0.5,0.3,0.7,0.3c0.5,0.1,1.1,0.2,1.6,0.2
		c0.4,0,0.5-0.3,0.7-0.5c0.5-0.5,0.1-1.2,0.5-1.8c0.1-0.1-0.1-0.6-0.2-0.8c-0.5-0.1-1-0.1-1.3-0.4c-0.6-0.4-1.2-0.3-1.7-0.3
		s-0.9,0.3-1.4,0.4c-0.1-0.3-0.7-0.4-0.6-1c0-0.2,0.2-0.4,0.3-0.6c0.2-0.5,0.3-0.9,0.5-1.4c0-0.1,0.1-0.1,0.2-0.2
		c0.1-0.2,0.2-0.4,0.4-0.6c0.4-0.5,0.7-1,1.3-1.1c-0.1-0.5,0.4-0.5,0.7-0.7c0,0,0.1,0,0.2,0c0.3-0.4,0.8-0.5,1.2-0.7
		c0.3-0.1,0.6-0.2,0.8-0.3c0.1,0,0.2,0,0.2-0.1c0.2-0.7,0.8-0.5,1.3-0.5s1-0.1,1.4-0.5c0.2-0.2,0.6-0.2,1-0.3
		c0.4-0.1,0.6,0.1,0.8,0.5c0.2,0.2,0.6,0.3,0.8,0.4c0.4,0.5,0.7,1,1.1,1.4c0.3,0.3,0.3,0.5,0,0.8c0.2,0.2,0.3,0.4,0.1,0.7
		c-0.1,0.1-0.1,0.5-0.1,0.7c0.1,0.5-0.1,1-0.4,1.3c-0.3,0.4-0.4,0.7-0.4,1.2c0,0.4,0,0.8,0,1.2c0,0.5,0.2,0.9,0.4,1.3
		c0.1,0.1,0.1,0.3,0.1,0.4c0,0.7,0.1,1.5-0.3,2.1c-0.4,0.3-0.8,0.5-1.1,0.7s-0.7,0.5-1,0.8c-0.3,0.4-0.6,0.8-0.7,1.3
		c-0.1,0.2-0.2,0.3-0.4,0.4C51.8,89.2,52,89.8,51.9,90.1z M43.1,87.9c-0.3,0.3-0.7,0.6-1,0.7c0.1,0.7,0.1,1.3,0.2,1.9
		c0.2,0,0.5,0,0.7,0c0-0.2,0.1-0.3,0.1-0.5c0.2,0,0.3-0.1,0.4-0.1C43.7,89.2,44.2,88.4,43.1,87.9z"/>
	<path fill="#FFFFFF" d="M73.1,27.8c0.2-0.1,0.3-0.2,0.5-0.2c0.2-0.1,0.5-0.2,0.7-0.1c0.3,0.1,0.6,0.4,0.9,0.6c0,0,0,0.1,0.1,0.1
		c0.2,0.2,0.3,1.7,0.3,2c0,0.4-0.3,0.7-0.2,1.1c0.1,0.3-0.2,0.6-0.3,0.9c-0.1,0.4-0.2,0.8-0.4,1.2c-0.1,0.3-0.2,0.5-0.3,0.9
		c-0.3-0.3-0.1-0.8-0.7-0.6c0,0.1-0.1,0.3-0.1,0.4c-0.5,0.3-0.6-0.4-0.9-0.5c-0.2,0.2-0.4,0.4-0.7,0c-0.1-0.1-0.3-0.1-0.5,0
		c-0.7,0.4-1.5,0.1-2.2,0.2c-0.1,0-0.2,0-0.3,0c-0.5,0.7-0.7,0.1-0.9-0.1c-0.3,0-0.5-0.1-0.7-0.1s-0.4-0.1-0.5,0
		c-0.4,0.3-0.9,0.2-1.4,0.2c-0.2,0-0.5,0-0.7,0.2c-0.1,0.2-0.7,0.1-1-0.1c-0.3-0.2-0.5-0.4-0.9-0.4s-0.8,0-1-0.5
		c-0.2-0.3-0.6-0.3-1-0.5c0.1-0.1,0.1-0.2,0.3-0.3c-0.2-0.1-0.3-0.2-0.5-0.3c0,0-0.1,0.1-0.2,0.2c-0.1-0.1-0.2-0.2-0.3-0.3
		c0.4-1-0.1-1.8-0.4-2.6c-0.2,0-0.4,0-0.6,0c0-0.1-0.1-0.1-0.1-0.1c0.2-0.9-0.5-1.2-0.9-1.8c-0.1-0.2-0.2-0.7-0.1-0.8
		c0.3-0.2,0.4-0.7,1-0.4c0.3,0.2,0.6,0.4,0.9,0.6c0.6,0.5,1.3,0.2,1.3-0.5c0.5,0,1,0,1.4,0s0.9,0.1,1.3-0.2c0.1-0.1,0.4-0.1,0.6,0
		c0.4,0.3,0.8,0.2,1.2,0c0.3-0.1,0.7-0.1,1-0.1c0.2,0,0.4,0,0.6-0.3c0.2-0.4,1.5-0.4,1.8,0c0.5,0.6,1.1,0.9,1.8,0.8
		c0.1,0,0.3,0.1,0.4,0.2c0.2,0.1,0.5,0.1,0.7,0.1C72.9,26.9,73,27,73.1,27.8z"/>
	<path fill="#FFFFFF" d="M5.4,36.3c0.1,0,0.2,0,0.4-0.1c-0.4-0.6-0.3-1.2,0.5-1.3c0.1-0.7,0.1-1.4,0.3-2.1c0.2-0.6,0.1-1.1,0.2-1.6
		c0-0.3,0.3-0.5,0.4-0.8c0.5-0.1,0.9-0.5,1-1c0.9-0.2,1.7-0.6,2.5-0.6c1,0,2-0.3,2.9,0.2c0.1,0,0.2,0,0.3,0
		c-0.1,0.7-0.3,1.3-0.4,1.9c0,0.3,0.1,0.7,0.2,1c0,0.1,0.1,0.3,0.1,0.4c-0.4,0.6,0,0.9,0.3,1.3c0.2,0.3,0.2,0.6,0.3,0.9
		c0.1,1,0.2,2,0.3,3c0,0.2,0.2,0.4,0.3,0.6c0.1,0.1,0.3,0.3,0.3,0.4c0,1.2,0,2.5,0,3.8c-0.2,0-0.4,0.1-0.5,0.1c-0.1,0.6-0.6,1-1.3,1
		c-0.2,0-0.5-0.1-0.6,0.2c-0.1,0.1-0.6,0.1-0.6,0c-0.3-0.4-0.7-0.2-1.1-0.3c0-0.2,0-0.4-0.1-0.7c-0.2,0-0.3-0.1-0.5-0.1
		c0-0.1,0-0.2,0-0.4c0-0.4-0.2-0.5-0.6-0.6c-0.4-0.1-0.9-0.3-1.3-0.5c-0.2,0.1-0.5,0.1-0.7,0c-0.2-0.2-0.4-0.5-0.5-0.8
		c-0.1-0.2-0.3-0.3-0.4-0.4c-0.3-0.2-0.5-0.3-0.6-0.5s0-0.5,0.1-0.7c-0.1-0.1-0.2-0.2-0.3-0.3c-0.4,0.3-1,0-1.2-0.5
		c0-0.1,0-0.1,0-0.2C5.2,37.1,5.3,36.8,5.4,36.3z"/>
	<path fill="#FFFFFF" d="M1.3,105.5c0.3-0.2,0.6-0.4,0.2-0.7c-0.1-0.1-0.1-0.2-0.1-0.3c-0.1-1,0.2-1.8,1-2.4
		c0.4-0.3,0.7-0.8,1.1-1.2c0.1-0.1,0.3-0.2,0.4-0.4c0.1-0.2,0.2-0.4,0.4-0.5c0.1-0.1,0.2-0.2,0.3-0.4C4.8,99.3,5,99,5.2,98.8
		c0.3-0.4,0.6-0.8,1.1-0.9c0.2-0.1,0.4-0.2,0.7-0.4c0,0.4,0,0.7,0,0.9c0,0.4,0,0.7,0.3,1.1s0.4,1,0.5,1.5c0.1,0.4-0.2,0.9,0.3,1.2
		v0.1c0.1,0.7,0.2,1.3,0.2,2c0,0.5,0.1,0.9,0.5,1.3c0.1,0.1,0.1,0.2,0.1,0.4c0,0.6,0,1.3,0,1.9c0,0.5,0.2,1.1,0.2,1.6
		c0,0.6-0.5,0.9-0.9,1.1c-0.2,0.2-0.8,0.2-1.1-0.2c-0.1-0.2-0.2-0.3-0.3-0.5c-0.2,0.1-0.4,0.2-0.6,0.3c0,0-0.1,0-0.1-0.1
		c-0.1,0.5,0,1.1-0.2,1.5c-0.2,0.5,0,1.2-0.2,1.5c-0.4,0.6-0.1,1.2-0.5,1.8c-0.1,0.1,0,0.2,0,0.4c0,0.5-0.1,0.9,0,1.4
		c0.1,0.7-0.3,1-0.6,1.3c-0.1,0.1-0.5,0.1-0.6,0c-0.2-0.1-0.3-0.4-0.3-0.6c0-0.6-0.3-0.8-0.7-0.8c-0.2-0.9-1.3-2.3-1.8-2.3
		c-0.1,0.2-0.2,0.4-0.2,0.5c-0.2-0.4-0.5-0.8-0.6-1.2c-0.1-0.3-0.2-0.7,0-1c0.3-0.6,0.1-1.2,0.2-1.9c0-0.1,0-0.4,0-0.4
		c0.8-0.5,0.3-1.6,1-2.1v-0.1c-0.1-0.6,0.2-1,0.5-1.5C2,106.4,1.6,105.7,1.3,105.5z"/>
	<path fill="#FFFFFF" d="M21.8,108.3c0,0.3,0,0.5,0,0.7c0.4,0.2,0.7,0.3,1.1,0.5c0.1,0.1,0.2,0.3,0.3,0.5c0,0.1,0.1,0.2,0.1,0.2
		c0.5,0.3,0.4,0.7,0.4,1.2c0,0.7,0,1.5,0,2.1c-0.4,0.2-0.7,0.4-1,0.6c-0.2,0.1-0.4,0.2-0.6,0.2c-0.5,0-0.9,0.2-1.4,0.5
		c-0.2,0.1-0.5,0.2-0.6,0.1c-0.4-0.3-0.9-0.6-1.4-0.6c0,0-0.1,0-0.1-0.1c-0.4-0.4-0.9-0.8-1.3-1.2c-0.2-0.2-0.5-0.2-0.7-0.4
		c-0.4-0.3-0.8-0.6-1.3-0.9c0,0,0-0.2,0-0.3c0.2-0.1,0.4-0.1,0.5-0.3c0.5-0.6,1.1-0.8,1.8-0.9c0.1,0,0.2-0.1,0.3-0.1
		c0.4-0.3,0.7-0.6,1.1-0.9c0.1-0.1,0.2-0.1,0.4-0.1c0.8,0.1,1.4-0.2,2-0.7C21.5,108.4,21.7,108.4,21.8,108.3z"/>
</g>
</svg>
