<?xml version="1.0" encoding="utf-8"?>
<!-- Generator: Adobe Illustrator 22.1.0, SVG Export Plug-In . SVG Version: 6.00 Build 0)  -->
<svg version="1.1" id="レイヤー_1" xmlns="http://www.w3.org/2000/svg" xmlns:xlink="http://www.w3.org/1999/xlink" x="0px"
	 y="0px" viewBox="0 0 170 300" enable-background="new 0 0 170 300" xml:space="preserve">
<path fill="#FFFFFF" d="M20.6,209c0.3,0,0.3,0,0.3-0.3s0-0.3-0.3-0.4c-0.7-0.1-0.8-0.3-3.9-4.7l-0.9-1.3c-0.1-0.1-0.1-0.2-0.2-0.3
	c3.5-4,4.5-5,5-5c0.3-0.1,0.4-0.2,0.4-0.4c0-0.3,0-0.4-0.3-0.4h-0.1c-0.7,0-1.5,0-2,0h-1.8c-0.3,0-0.3,0-0.3,0.3s0,0.3,0.3,0.4
	c0.8,0,1.1,0.2,1.1,0.6c0,0.4-0.9,1.7-2.8,3.9c-2.4-3.4-2.4-3.5-2.4-3.9c0-0.3,0.3-0.5,0.9-0.5c0.4,0,0.4,0,0.4-0.3s0-0.3-0.2-0.3
	h-0.1c-0.8,0-1.3,0-2.5,0H9.6c-0.7,0-0.7,0-0.8,0c-0.2,0-0.3,0-0.3,0.2c0,0.3,0,0.3,0.4,0.4c0.6,0.1,0.8,0.4,4.7,5.8
	c-4.2,4.8-4.8,5.4-5.3,5.5c-0.4,0.1-0.4,0.1-0.4,0.3c0,0.4,0,0.4,0.3,0.4c0,0,0.3,0,0.6,0h1.4c0.4,0,1.8,0,2.2,0h0.1
	c0.3,0,0.3,0,0.3-0.4c0-0.2,0-0.2-0.2-0.2c-1-0.1-1.4-0.3-1.4-0.7s0.2-0.7,1.1-2c1.2-1.6,1.2-1.6,1.8-2.2c2.5,3.7,2.7,4,2.7,4.4
	c0,0.3-0.3,0.5-1.1,0.5c-0.3,0-0.3,0.1-0.3,0.3c0,0.3,0,0.3,0.4,0.3c0.2,0,0.4,0,0.8,0c1.3,0,1.3,0,2.1,0c0.6,0,1,0,1.5,0L20.6,209
	L20.6,209z M27.9,209c0.6,0,0.6,0,0.7,0c0.2,0,0.3-0.1,0.3-0.4c0-0.2,0-0.3-0.3-0.3c-0.9-0.1-1.1-0.2-1.2-0.6
	c-0.1-0.3-0.1-1.1-0.1-3.1c0-2.1,0-3.5,0.1-4.1c0-0.1,0-0.2,0-0.2c0-0.1-0.1-0.2-0.2-0.2c-0.3,0-0.9,0.2-2.6,1l-0.3,0.1
	c-0.2,0.1-0.2,0.1-0.2,0.3c0,0.3,0,0.3,0.3,0.3c1,0.1,1,0.2,1,2.5c0,3.5-0.1,3.8-1.2,3.9c-0.3,0-0.4,0.1-0.4,0.3
	c0,0.3,0,0.3,0.2,0.3h0.1c0.9,0,1.5,0,2.1,0L27.9,209z M26.4,195.5c-0.6,0-1.2,0.6-1.2,1.2c0,0.5,0.6,1.1,1.1,1.1
	c0.6,0,1.2-0.6,1.2-1.2C27.5,196.1,26.9,195.5,26.4,195.5z M41,207.4L41,207.4c-0.5,0.2-1.1,0.4-1.5,0.4c-0.5,0-0.7-0.3-0.7-1.1
	c0-0.2,0-0.5,0-0.8c0.1-2.8,0.1-2.9,0.1-3.3c0-1.5-0.8-2.3-2.3-2.3c-1.2,0-2.4,0.4-3.4,1.1c-0.6,0.5-1,1-1,1.4
	c0,0.2,0.1,0.3,0.3,0.3s0.9-0.1,1.3-0.2c0.3-0.1,0.4-0.2,0.4-0.4c0-0.1,0-0.2,0-0.2c0-0.1,0-0.2,0-0.2c0-0.3,0.6-0.5,1.4-0.5
	c0.8,0,1.3,0.3,1.4,1c0.1,0.4,0.1,0.9,0.1,2c-1.2,0.1-2.4,0.3-3.2,0.6c-1.5,0.5-1.8,0.8-1.8,1.9c0,1.3,0.7,2,1.9,2
	c0.8,0,1.8-0.3,3.1-0.9c0.1,0.6,0.5,0.9,1.1,0.9c0.7,0,1.7-0.3,2.7-0.9c0.2-0.1,0.2-0.2,0.2-0.4v-0.4H41z M36.3,205.3
	c0.5,0,0.6,0.2,0.6,0.7c0,1.2,0,1.5-0.2,1.6c-0.3,0.2-1,0.4-1.6,0.4c-0.8,0-1.2-0.4-1.2-1.3c0-0.5,0.1-0.6,0.6-0.8
	C35.1,205.5,35.9,205.3,36.3,205.3z M48.6,200.4c-3,0-5,1.8-5,4.5c0,2.6,1.8,4.3,4.4,4.3c2.9,0,5-1.9,5-4.6
	C53,202.2,51.1,200.4,48.6,200.4z M47.9,201.2c1.7,0,3,1.8,3,4.2c0,1.8-0.9,2.9-2.3,2.9c-1.7,0-2.9-1.8-2.9-4.1
	C45.7,202.4,46.6,201.2,47.9,201.2z M56.7,209c1.1,0,1.8,0,2.1,0c0.4,0,1,0,1.3,0s0.6,0,0.7,0c0.3,0,0.3,0,0.3-0.4
	c0-0.2,0-0.2-0.4-0.3c-0.8-0.1-0.9-0.2-1-0.7c-0.1-0.3-0.1-0.5-0.1-3.2c0-1.9,0-1.9,0.1-2c0.3-0.3,1.5-0.7,2.1-0.7
	c0.7,0,1.2,0.3,1.4,0.7c0.2,0.5,0.3,1.1,0.3,2.8c0,2.6-0.1,2.9-1,3c-0.3,0.1-0.3,0.1-0.3,0.3s0,0.3,0.2,0.3h0.1c0.5,0,1.3,0,2,0
	c0.5,0,0.8,0,1.5,0c0.6,0,0.6,0,0.6,0c0.2,0,0.2-0.1,0.2-0.3c0-0.3,0-0.3-0.4-0.3c-0.7,0-0.9-0.2-1-0.8c0-0.2-0.1-2-0.1-4.5
	c0-0.8,0-0.8,0.2-0.9c0.6-0.3,1.2-0.5,1.8-0.5c0.8,0,1.4,0.3,1.6,1c0.2,0.4,0.3,1,0.3,2.6c0,2.6-0.1,2.8-1.1,3
	c-0.2,0-0.2,0.1-0.2,0.3c0,0.3,0,0.3,0.2,0.3h0.1c0.9,0,1.6-0.1,2-0.1h2.2c0.2,0,0.3,0,0.3-0.3s0-0.3-0.3-0.3
	c-1.2,0-1.2-0.1-1.2-2.1v-1c0-0.5,0-1.4,0-1.7c0-1.3-0.2-1.9-0.6-2.4s-1.1-0.7-1.8-0.7c-0.9,0-2,0.4-3.6,1.3
	c-0.4-0.9-1.1-1.3-2.1-1.3c-0.9,0-1.7,0.3-3.5,1.4c0-0.5,0-1,0.1-1.2c0-0.1,0-0.1,0-0.2c0-0.1-0.1-0.2-0.4-0.2
	c-0.2,0-1.6,0.6-2.7,1.2c-0.2,0.1-0.2,0.1-0.2,0.4c0,0.2,0,0.3,0.2,0.3c1,0,1.1,0.1,1.1,1.6c0,4.5,0,4.5-0.9,4.6
	c-0.4,0.1-0.4,0.1-0.4,0.3C56.5,208.9,56.5,209,56.7,209L56.7,209z M85,207.4L85,207.4c-0.5,0.2-1.1,0.4-1.5,0.4
	c-0.5,0-0.7-0.3-0.7-1.1c0-0.2,0-0.5,0-0.8c0.1-2.8,0.1-2.9,0.1-3.3c0-1.5-0.8-2.3-2.3-2.3c-1.2,0-2.4,0.4-3.4,1.1
	c-0.6,0.5-1,1-1,1.4c0,0.2,0.1,0.3,0.3,0.3c0.2,0,0.9-0.1,1.3-0.2c0.3-0.1,0.4-0.2,0.4-0.4c0-0.1,0-0.2,0-0.2c0-0.1,0-0.2,0-0.2
	c0-0.3,0.6-0.5,1.4-0.5s1.3,0.3,1.4,1c0.1,0.4,0.1,0.9,0.1,2c-1.2,0.1-2.4,0.3-3.2,0.6c-1.5,0.5-1.8,0.8-1.8,1.9c0,1.3,0.7,2,1.9,2
	c0.8,0,1.8-0.3,3.1-0.9c0.1,0.6,0.5,0.9,1.1,0.9c0.7,0,1.7-0.3,2.7-0.9c0.2-0.1,0.2-0.2,0.2-0.4v-0.4H85z M80.4,205.3
	c0.5,0,0.6,0.2,0.6,0.7c0,1.2,0,1.5-0.2,1.6c-0.3,0.2-1,0.4-1.6,0.4c-0.8,0-1.2-0.4-1.2-1.3c0-0.5,0.1-0.6,0.6-0.8
	C79.1,205.5,79.9,205.3,80.4,205.3z M90.8,200.4c0-0.1,0-0.1-0.2-0.1c-0.3,0-0.3,0-0.8,0.2l-2.2,0.9c-0.2,0.1-0.2,0.1-0.2,0.3
	c0,0.3,0,0.3,0.3,0.3c0.6,0,0.8,0.2,0.9,0.4s0.1,0.7,0.1,1.9s0,2.5-0.1,2.9c-0.1,0.6-0.4,0.9-1,1c-0.3,0.1-0.4,0.1-0.4,0.4
	c0,0.2,0,0.3,0.3,0.3c0.1,0,0.3,0,0.5,0h1.6c1.5,0,1.5,0,1.9,0h0.3c0.2,0,0.2,0,0.2-0.3s0-0.3-0.3-0.3c-0.6,0-1-0.2-1.1-0.5
	s-0.1-0.7-0.1-2.4c0-0.7,0-1,0-2.4c0-0.6,0-0.6,0.2-0.7c0.6-0.3,1.6-0.5,2.2-0.5c0.7,0,1.4,0.3,1.6,0.9c0.2,0.4,0.2,0.9,0.2,2.1
	c0,3.3,0,3.4-1,3.6c-0.3,0.1-0.3,0.1-0.3,0.3s0,0.3,0.2,0.3c0.1,0,0.3,0,0.6,0h1.4h1.7c0.3,0,0.6,0,0.7,0c0.2,0,0.3-0.1,0.3-0.3
	c0-0.3,0-0.3-0.4-0.3c-1,0-1.2-0.3-1.2-2.2c0-0.2,0-0.7,0-1.7v-0.7c0-1.1-0.1-1.6-0.2-2.1c-0.3-0.9-1.1-1.3-2.1-1.3
	c-0.9,0-2,0.4-3.8,1.3c0-0.2,0.1-0.9,0.1-1.2v-0.1H90.8z M12,236.7c0.4,0,1.7,0,2.1,0c0.6,0,1.8,0,2.1,0H17h0.2
	c0.1,0,0.2-0.1,0.2-0.3c0-0.3,0-0.3-0.4-0.3c-1.2,0-1.6-0.3-1.7-1.2c-0.1-0.9-0.1-1.6-0.1-5.4c0-1.2,0-3.1,0-4.4c3.9,0,4,0,4,1.3
	c0,0.6,0,0.6,0,0.7c0,0.1,0.1,0.1,0.4,0.1c0.2,0,0.2,0,0.4-0.8c0.2-0.7,0.5-2.3,0.5-2.5c0-0.1-0.1-0.1-0.2-0.1s-0.1,0-0.2,0
	c-0.5,0.2-2.2,0.3-6.6,0.3c-3,0-4.5-0.1-4.8-0.2c-0.2-0.1-0.2-0.1-0.3-0.1c-0.2,0-0.2,0-0.3,0.4C8,225,7.7,226.8,7.7,227
	s0.1,0.2,0.4,0.2c0.2,0,0.3,0,0.3-0.3c0.4-1.6,0.8-1.8,4.5-1.8c0,1.3,0,2.7,0,4c0,1.1,0,3.1-0.1,4.4c0,1.6-0.1,1.9-0.4,2.2
	c-0.3,0.3-0.6,0.3-1.5,0.4c-0.2,0-0.2,0.1-0.2,0.3c0,0.3,0,0.3,0.2,0.3L12,236.7z M28.9,234.8h-0.1c-0.7,0.5-1.5,0.8-2.4,0.8
	c-1.6,0-2.5-1.1-2.7-3.1c1.1-0.2,2.9-0.6,5.2-0.9c0.4-0.1,0.4-0.1,0.4-0.4c0-0.4,0-0.4-0.1-0.5c-0.1,0-0.1,0-0.2-0.2
	c-0.2-0.7-0.3-0.9-0.6-1.3c-0.6-0.7-1.5-1.1-2.5-1.1c-2.3,0-4.2,2.1-4.2,4.8c0,2.5,1.3,4,3.5,4c1.3,0,2.6-0.5,3.6-1.3
	c0.1-0.1,0.2-0.2,0.2-0.3c0,0,0,0-0.1-0.2L28.9,234.8z M23.7,231.8c0-1.8,0.6-2.9,1.7-2.9c0.8,0,1.6,0.9,1.6,1.8
	c0,0.3-0.2,0.4-0.7,0.5C25.4,231.5,24.4,231.7,23.7,231.8z M41.6,235.1L41.6,235.1c-0.5,0.2-1.1,0.4-1.5,0.4c-0.5,0-0.7-0.3-0.7-1.1
	c0-0.2,0-0.5,0-0.8c0.1-2.8,0.1-2.9,0.1-3.3c0-1.5-0.8-2.3-2.3-2.3c-1.2,0-2.4,0.4-3.4,1.1c-0.6,0.5-1,1-1,1.4
	c0,0.2,0.1,0.3,0.3,0.3s0.9-0.1,1.3-0.2c0.3-0.1,0.4-0.2,0.4-0.4c0-0.1,0-0.2,0-0.2c0-0.1,0-0.2,0-0.2c0-0.3,0.6-0.5,1.4-0.5
	c0.8,0,1.3,0.3,1.4,1c0.1,0.4,0.1,0.9,0.1,2c-1.2,0.1-2.4,0.3-3.2,0.6c-1.5,0.5-1.8,0.8-1.8,1.9c0,1.3,0.7,2,1.9,2
	c0.8,0,1.8-0.3,3.1-0.9c0.1,0.6,0.5,0.9,1.1,0.9c0.7,0,1.7-0.3,2.7-0.9c0.2-0.1,0.2-0.2,0.2-0.4v-0.4H41.6z M37,233
	c0.5,0,0.6,0.2,0.6,0.7c0,1.2,0,1.5-0.2,1.6c-0.3,0.2-1,0.4-1.6,0.4c-0.8,0-1.2-0.4-1.2-1.3c0-0.5,0.1-0.6,0.6-0.8
	C35.7,233.2,36.5,233,37,233z M54.7,227.1c0-2.1,0-2.1,0.3-2.1c0.2-0.1,1.1-0.1,1.9-0.1c1.4,0,2.3,0.1,2.7,0.4
	c0.3,0.2,0.5,0.7,0.5,1.7c0,0.2,0.1,0.2,0.3,0.2s0.3,0,0.3-0.1c0,0,0-0.1,0.1-0.5c0-0.6,0.1-1.7,0.2-2.2c0-0.1,0-0.2,0-0.2
	c0-0.1-0.1-0.2-0.2-0.2h-0.3c-0.7,0-4.3,0.1-6.2,0.1c-0.8,0-2.5,0-2.9-0.1h-0.2c-0.2,0-0.2,0.1-0.2,0.3c0,0.3,0,0.3,0.3,0.3
	c0.9,0,1.1,0.2,1.2,0.9c0.1,0.5,0.1,2.1,0.1,4.5c0,2.8,0,4.5-0.1,5c-0.1,0.8-0.3,1-1.4,1.1c-0.2,0-0.2,0.1-0.2,0.3
	c0,0.3,0,0.3,0.3,0.3h0.3c1.9-0.1,1.9-0.1,2.7-0.1c2.6,0,5.1,0,6.1,0.1h0.2c0.3,0,0.3,0,0.5-0.9c0.3-1,0.5-2.2,0.5-2.4
	c0-0.1-0.2-0.3-0.5-0.3c-0.1,0-0.1,0-0.2,0.4c-0.7,1.9-1.4,2.3-4.2,2.3c-1.6,0-1.8-0.1-1.8-1.2c0-0.9,0-2.3,0-4.1
	c4.1,0,4.3,0.1,4.5,1.4c0,0.4,0,0.4,0.4,0.4c0.2,0,0.3,0,0.3-0.2c0-0.1,0-0.2,0-0.4c0-0.9,0-0.9,0-1.3c0-0.6,0-1.3,0.1-1.8
	c0-0.2,0-0.3,0-0.4c0-0.2-0.1-0.2-0.3-0.2c-0.3,0-0.3,0-0.4,0.4c-0.1,1.2-0.4,1.2-3.7,1.2c-0.1,0-0.4,0-0.7,0v-2.5H54.7z M71,236.7
	h0.2h1.6h0.3c0.3,0,0.3,0,0.3-0.3s0-0.3-0.2-0.3c-0.8,0-0.9-0.1-3.6-4c2.3-2.4,2.8-2.8,3.4-3.1c0.3-0.2,0.3-0.2,0.3-0.4
	c0-0.3,0-0.3-0.2-0.3H73c-0.7,0-0.9,0-1.2,0h-0.5c-1,0-1,0-1,0c-0.2,0-0.2,0.1-0.2,0.3c0,0.3,0,0.3,0.3,0.3c0.5,0,0.7,0.1,0.7,0.3
	c0,0.3-0.6,1-1.8,2.2c-1.4-2-1.4-2-1.4-2.3c0-0.2,0.2-0.3,0.5-0.3s0.3,0,0.3-0.3c0-0.2,0-0.3-0.2-0.3h-0.1c-0.4,0-1.1,0-1.7,0
	s-1,0-1.4,0s-0.5,0-0.6,0c-0.2,0-0.3,0-0.3,0.3c0,0.2,0,0.2,0.1,0.2c0.8,0.2,0.8,0.2,3.3,3.9c-3,3.1-3.2,3.3-3.7,3.4
	c-0.2,0.1-0.2,0.1-0.2,0.4c0,0.2,0,0.2,0.3,0.2h0.1c0.4,0,1,0,1.4,0h1.4h0.1c0.2,0,0.3,0,0.3-0.3s0-0.3-0.3-0.3
	c-0.6,0-0.8-0.1-0.8-0.4c0-0.3,0.1-0.4,1.8-2.4c1,1.5,1.5,2.3,1.5,2.5s-0.2,0.3-0.6,0.3s-0.4,0-0.4,0.3c0,0.2,0,0.3,0.3,0.3
	c0.1,0,0.4,0,0.7,0L71,236.7z M76.4,242.1c1.1-0.1,1.4-0.1,2.3-0.1c0.5,0,0.7,0,1.4,0c0.3,0,0.7,0,0.8,0c0.2,0,0.3,0,0.3-0.3
	s0-0.3-0.3-0.3c-1,0-1.2-0.2-1.3-0.8c-0.1-0.3-0.1-1.6-0.1-4c0.7,0.2,1.1,0.2,1.7,0.2c2.9,0,5.1-2,5.1-4.7c0-2.3-1.5-4-3.5-4
	c-0.9,0-1.7,0.2-3.2,0.8c0-0.3,0-0.5,0.1-0.8c0-0.1,0-0.1,0-0.2c0-0.1-0.1-0.1-0.2-0.1c-0.3,0-0.4,0.1-1.1,0.4
	c-0.2,0.1-0.4,0.2-0.6,0.3c-0.4,0.2-1,0.6-1.4,0.8c-0.1,0.1-0.1,0.1-0.1,0.3s0,0.2,0.3,0.2c0.6,0,0.8,0.1,0.9,0.4
	c0.1,0.3,0.1,0.7,0.1,3.2c0,3.1,0,5.5-0.1,6.6c0,0.9-0.3,1.2-1,1.3c-0.4,0.1-0.4,0.1-0.4,0.3c0,0.3,0,0.3,0.2,0.3h0.1V242.1z
	 M79.4,235c0-0.5,0-0.9,0-1.1c0-1.8,0-3.5,0.1-4.3c0.6-0.2,1.2-0.3,1.8-0.3c1.8,0,3.1,1.5,3.1,3.6c0,1.7-0.9,2.7-2.4,2.7
	C80.9,235.6,80.2,235.4,79.4,235z M97.1,234.8H97c-0.7,0.5-1.5,0.8-2.4,0.8c-1.6,0-2.5-1.1-2.7-3.1c1.1-0.2,2.9-0.6,5.2-0.9
	c0.4-0.1,0.4-0.1,0.4-0.4c0-0.4,0-0.4-0.1-0.5c-0.1,0-0.1,0-0.2-0.2c-0.2-0.7-0.3-0.9-0.6-1.3c-0.6-0.7-1.5-1.1-2.5-1.1
	c-2.3,0-4.2,2.1-4.2,4.8c0,2.5,1.3,4,3.5,4c1.3,0,2.6-0.5,3.6-1.3c0.1-0.1,0.2-0.2,0.2-0.3c0,0,0,0-0.1-0.2L97.1,234.8z M91.8,231.8
	c0-1.8,0.6-2.9,1.7-2.9c0.8,0,1.6,0.9,1.6,1.8c0,0.3-0.2,0.4-0.7,0.5C93.5,231.5,92.5,231.7,91.8,231.8z M105.5,236.7
	c0.2,0,0.3-0.1,0.3-0.3s0-0.3-0.3-0.3c-0.8,0-0.8,0-1-0.1c-0.3-0.1-0.5-0.3-0.6-0.6c-0.1-0.5-0.1-1.3-0.1-3.2c0-1.5,0-1.6,0.2-1.8
	c0.5-0.4,1.1-0.6,1.5-0.6s0.5,0.1,1,0.8c0.1,0.1,0.1,0.1,0.2,0.1s0.3-0.1,0.6-0.4c0.3-0.3,0.5-0.7,0.5-1c0-0.5-0.6-1.2-1-1.2
	s-1,0.4-2.9,1.8c0-0.2,0-1,0.1-1.3c0-0.4,0-0.4,0-0.5s0-0.2-0.3-0.2c-0.2,0-0.3,0-0.3,0.1c-0.8,0.5-1.6,0.9-2.4,1.3
	c-0.1,0-0.1,0.1-0.1,0.3c0,0.3,0,0.3,0.3,0.3c0.9,0.1,0.9,0.2,0.9,2.7c0,1.3,0,2.2-0.1,2.7s-0.3,0.7-0.8,0.8
	c-0.3,0.1-0.3,0.1-0.3,0.4c0,0.2,0,0.3,0.3,0.3c0.1,0,0.2,0,0.3,0c0.4,0,1,0,1.5,0c0.7,0,2.1,0,2.6,0.1h-0.1V236.7z M114.8,236.7
	c0.6,0,0.6,0,0.7,0c0.2,0,0.3-0.1,0.3-0.4c0-0.2,0-0.3-0.3-0.3c-0.9-0.1-1.1-0.2-1.2-0.6c-0.1-0.3-0.1-1.1-0.1-3.1
	c0-2.1,0-3.5,0.1-4.1c0-0.1,0-0.2,0-0.2c0-0.1-0.1-0.2-0.2-0.2c-0.3,0-0.9,0.2-2.6,1L111,229c-0.2,0.1-0.2,0.1-0.2,0.3
	c0,0.3,0,0.3,0.3,0.3c1,0.1,1,0.2,1,2.5c0,3.5-0.1,3.8-1.2,3.9c-0.3,0-0.4,0.1-0.4,0.3c0,0.3,0,0.3,0.2,0.3h0.1c0.9,0,1.5,0,2.1,0
	L114.8,236.7z M113.3,223.2c-0.6,0-1.2,0.6-1.2,1.2c0,0.5,0.6,1.1,1.1,1.1c0.6,0,1.2-0.6,1.2-1.2
	C114.4,223.8,113.8,223.2,113.3,223.2z M126.1,234.8H126c-0.7,0.5-1.5,0.8-2.4,0.8c-1.6,0-2.5-1.1-2.7-3.1c1.1-0.2,2.9-0.6,5.2-0.9
	c0.4-0.1,0.4-0.1,0.4-0.4c0-0.4,0-0.4-0.1-0.5c-0.1,0-0.1,0-0.2-0.2c-0.2-0.7-0.3-0.9-0.6-1.3c-0.6-0.7-1.5-1.1-2.5-1.1
	c-2.3,0-4.2,2.1-4.2,4.8c0,2.5,1.3,4,3.5,4c1.3,0,2.6-0.5,3.6-1.3c0.1-0.1,0.2-0.2,0.2-0.3c0,0,0,0-0.1-0.2L126.1,234.8z
	 M120.8,231.8c0-1.8,0.6-2.9,1.7-2.9c0.8,0,1.6,0.9,1.6,1.8c0,0.3-0.2,0.4-0.7,0.5C122.5,231.5,121.5,231.7,120.8,231.8z
	 M132.9,228.1c0-0.1,0-0.1-0.2-0.1c-0.3,0-0.3,0-0.8,0.2l-2.2,0.9c-0.2,0.1-0.2,0.1-0.2,0.3c0,0.3,0,0.3,0.3,0.3
	c0.6,0,0.8,0.2,0.9,0.4c0.1,0.2,0.1,0.7,0.1,1.9s0,2.5-0.1,2.9c-0.1,0.6-0.4,0.9-1,1c-0.3,0.1-0.4,0.1-0.4,0.4c0,0.2,0,0.3,0.3,0.3
	c0.1,0,0.3,0,0.5,0h1.6c1.5,0,1.5,0,1.9,0h0.3c0.2,0,0.2,0,0.2-0.3s0-0.3-0.3-0.3c-0.6,0-1-0.2-1.1-0.5s-0.1-0.7-0.1-2.4
	c0-0.7,0-1,0-2.4c0-0.6,0-0.6,0.2-0.7c0.6-0.3,1.6-0.5,2.2-0.5c0.7,0,1.4,0.3,1.6,0.9c0.2,0.4,0.2,0.9,0.2,2.1c0,3.3,0,3.4-1,3.6
	c-0.3,0.1-0.3,0.1-0.3,0.3s0,0.3,0.2,0.3c0.1,0,0.3,0,0.6,0h1.4h1.7c0.3,0,0.6,0,0.7,0c0.2,0,0.3-0.1,0.3-0.3c0-0.3,0-0.3-0.4-0.3
	c-1,0-1.2-0.3-1.2-2.2c0-0.2,0-0.7,0-1.7v-0.7c0-1.1-0.1-1.6-0.2-2.1c-0.3-0.9-1.1-1.3-2.1-1.3c-0.9,0-2,0.4-3.8,1.3
	c0-0.2,0.1-0.9,0.1-1.2v-0.1H132.9z M150.5,234.8c-0.6,0.5-1.4,0.8-2.3,0.8c-1.6,0-2.6-1.3-2.6-3.5c0-1.8,0.6-2.7,1.8-2.7
	c0.7,0,1.5,0.2,2,0.6c0.3,0.2,0.3,0.2,0.5,0.2c0.4,0,1.1-0.6,1.1-1c0-0.6-1-1.1-2.4-1.1c-2.8,0-5,2.2-5,4.9c0,2.3,1.5,3.9,3.6,3.9
	c0.9,0,1.8-0.3,2.8-0.8c0.6-0.3,0.9-0.6,0.9-0.8c0,0,0,0-0.1-0.2l-0.2-0.4h-0.1V234.8z M161.6,234.8h-0.1c-0.7,0.5-1.5,0.8-2.4,0.8
	c-1.6,0-2.5-1.1-2.7-3.1c1.1-0.2,2.9-0.6,5.2-0.9c0.4-0.1,0.4-0.1,0.4-0.4c0-0.4,0-0.4-0.1-0.5c-0.1,0-0.1,0-0.2-0.2
	c-0.2-0.7-0.3-0.9-0.6-1.3c-0.6-0.7-1.5-1.1-2.5-1.1c-2.3,0-4.2,2.1-4.2,4.8c0,2.5,1.3,4,3.5,4c1.3,0,2.6-0.5,3.6-1.3
	c0.1-0.1,0.2-0.2,0.2-0.3c0,0,0,0-0.1-0.2L161.6,234.8z M156.4,231.8c0-1.8,0.6-2.9,1.7-2.9c0.8,0,1.6,0.9,1.6,1.8
	c0,0.3-0.2,0.4-0.7,0.5C158.1,231.5,157.1,231.7,156.4,231.8z M12,291c0.4,0,1.7,0,2.1,0c0.6,0,1.8,0,2.1,0H17h0.2
	c0.1,0,0.2-0.1,0.2-0.3c0-0.3,0-0.3-0.4-0.3c-1.2,0-1.6-0.3-1.7-1.2c-0.1-0.9-0.1-1.6-0.1-5.4c0-1.2,0-3.1,0-4.4c3.9,0,4,0,4,1.3
	c0,0.6,0,0.6,0,0.7s0.1,0.1,0.4,0.1c0.2,0,0.2,0,0.4-0.8c0.2-0.7,0.5-2.3,0.5-2.5c0-0.1-0.1-0.1-0.2-0.1s-0.1,0-0.2,0
	c-0.5,0.2-2.2,0.3-6.6,0.3c-3,0-4.5-0.1-4.8-0.2c-0.2-0.1-0.2-0.1-0.3-0.1c-0.2,0-0.2,0-0.3,0.4c-0.2,0.9-0.5,2.6-0.5,2.8
	c0,0.2,0.1,0.2,0.4,0.2c0.2,0,0.3,0,0.3-0.3c0.4-1.6,0.8-1.8,4.5-1.8c0,1.3,0,2.7,0,4c0,1.1,0,3.1-0.1,4.4c0,1.6-0.1,1.9-0.4,2.2
	c-0.3,0.3-0.6,0.3-1.5,0.4c-0.2,0-0.2,0.1-0.2,0.3c0,0.3,0,0.3,0.2,0.3H12z M30.9,289.5L30.9,289.5c-0.5,0.2-1.1,0.4-1.5,0.4
	c-0.5,0-0.7-0.3-0.7-1.1c0-0.2,0-0.5,0-0.8c0.1-2.8,0.1-2.9,0.1-3.3c0-1.5-0.8-2.3-2.3-2.3c-1.2,0-2.4,0.4-3.4,1.1
	c-0.6,0.5-1,1-1,1.4c0,0.2,0.1,0.3,0.3,0.3c0.2,0,0.9-0.1,1.3-0.2c0.3-0.1,0.4-0.2,0.4-0.4c0-0.1,0-0.2,0-0.2c0-0.1,0-0.2,0-0.2
	c0-0.3,0.6-0.5,1.4-0.5s1.3,0.3,1.4,1c0.1,0.4,0.1,0.9,0.1,2c-1.2,0.1-2.4,0.3-3.2,0.6c-1.5,0.5-1.8,0.8-1.8,1.9c0,1.3,0.7,2,1.9,2
	c0.8,0,1.8-0.3,3.1-0.9c0.1,0.6,0.5,0.9,1.1,0.9c0.7,0,1.7-0.3,2.7-0.9c0.2-0.1,0.2-0.2,0.2-0.4v-0.4H30.9z M26.3,287.3
	c0.5,0,0.6,0.2,0.6,0.7c0,1.2,0,1.5-0.2,1.6c-0.3,0.2-1,0.4-1.6,0.4c-0.8,0-1.2-0.4-1.2-1.3c0-0.5,0.1-0.6,0.6-0.8
	C25,287.6,25.8,287.3,26.3,287.3z M37.4,291c0.6,0,0.6,0,0.7,0c0.2,0,0.3-0.1,0.3-0.4c0-0.2,0-0.3-0.3-0.3c-0.9-0.1-1.1-0.2-1.2-0.6
	c-0.1-0.3-0.1-1.1-0.1-3.1c0-2.1,0-3.5,0.1-4.1c0-0.1,0-0.2,0-0.2c0-0.1-0.1-0.2-0.2-0.2c-0.3,0-0.9,0.2-2.6,1l-0.3,0.1
	c-0.2,0.1-0.2,0.1-0.2,0.3c0,0.3,0,0.3,0.3,0.3c1,0.1,1,0.2,1,2.5c0,3.5-0.1,3.8-1.2,3.9c-0.3,0-0.4,0.1-0.4,0.3
	c0,0.3,0,0.3,0.2,0.3h0.1c0.9,0,1.5,0,2.1,0L37.4,291z M35.9,277.6c-0.6,0-1.2,0.6-1.2,1.2c0,0.5,0.6,1.1,1.1,1.1
	c0.6,0,1.2-0.6,1.2-1.2C37,278.2,36.4,277.6,35.9,277.6z M41.5,296.4c1.1-0.1,1.4-0.1,2.3-0.1c0.5,0,0.7,0,1.4,0c0.3,0,0.7,0,0.8,0
	c0.2,0,0.3,0,0.3-0.3s0-0.3-0.3-0.3c-1,0-1.2-0.2-1.3-0.8c-0.1-0.3-0.1-1.6-0.1-4c0.7,0.2,1.1,0.2,1.7,0.2c2.9,0,5.1-2,5.1-4.7
	c0-2.3-1.5-4-3.5-4c-0.9,0-1.7,0.2-3.2,0.8c0-0.3,0-0.5,0.1-0.8c0-0.1,0-0.1,0-0.2s-0.1-0.1-0.2-0.1c-0.3,0-0.4,0.1-1.1,0.4
	c-0.2,0.1-0.4,0.2-0.6,0.3c-0.4,0.2-1,0.6-1.4,0.8c-0.1,0.1-0.1,0.1-0.1,0.3c0,0.2,0,0.2,0.3,0.2c0.6,0,0.8,0.1,0.9,0.4
	c0.1,0.3,0.1,0.7,0.1,3.2c0,3.1,0,5.5-0.1,6.6c0,0.9-0.3,1.2-1,1.3c-0.4,0.1-0.4,0.1-0.4,0.3c0,0.3,0,0.3,0.2,0.3h0.1V296.4z
	 M44.4,289.3c0-0.5,0-0.9,0-1.1c0-1.8,0-3.5,0.1-4.3c0.6-0.2,1.2-0.3,1.8-0.3c1.8,0,3.1,1.5,3.1,3.6c0,1.7-0.9,2.7-2.4,2.7
	C45.9,290,45.2,289.8,44.4,289.3z M62.1,289.1H62c-0.7,0.5-1.5,0.8-2.4,0.8c-1.6,0-2.5-1.1-2.7-3.1c1.1-0.2,2.9-0.6,5.2-0.9
	c0.4-0.1,0.4-0.1,0.4-0.4c0-0.4,0-0.4-0.1-0.5c-0.1,0-0.1,0-0.2-0.2c-0.2-0.7-0.3-0.9-0.6-1.3c-0.6-0.7-1.5-1.1-2.5-1.1
	c-2.3,0-4.2,2.1-4.2,4.8c0,2.5,1.3,4,3.5,4c1.3,0,2.6-0.5,3.6-1.3c0.1-0.1,0.2-0.2,0.2-0.3c0,0,0,0-0.1-0.2L62.1,289.1z M56.8,286.1
	c0-1.8,0.6-2.9,1.7-2.9c0.8,0,1.6,0.9,1.6,1.8c0,0.3-0.2,0.4-0.7,0.5C58.5,285.8,57.5,286,56.8,286.1z M69.6,291c0.6,0,0.6,0,0.7,0
	c0.2,0,0.3-0.1,0.3-0.4c0-0.2,0-0.3-0.3-0.3c-0.9-0.1-1.1-0.2-1.2-0.6c-0.1-0.3-0.1-1.1-0.1-3.1c0-2.1,0-3.5,0.1-4.1
	c0-0.1,0-0.2,0-0.2c0-0.1-0.1-0.2-0.2-0.2c-0.3,0-0.9,0.2-2.6,1l-0.3,0.1c-0.2,0.1-0.2,0.1-0.2,0.3c0,0.3,0,0.3,0.3,0.3
	c1,0.1,1,0.2,1,2.5c0,3.5-0.1,3.8-1.2,3.9c-0.3,0-0.4,0.1-0.4,0.3c0,0.3,0,0.3,0.2,0.3h0.1c0.9,0,1.5,0,2.1,0L69.6,291z M68.1,277.6
	c-0.6,0-1.2,0.6-1.2,1.2c0,0.5,0.6,1.1,1.1,1.1c0.6,0,1.2-0.6,1.2-1.2C69.2,278.2,68.6,277.6,68.1,277.6z M80.4,295.6
	c0.5-2,5.2-15.1,6.7-18.8h-1.3c-0.4,1.4-1,3.1-3.1,9c-2.7,7.5-3.2,8.8-3.6,9.8H80.4z M101.9,284.8c4.1,4.7,4.4,5,4.4,5.2
	s-0.3,0.4-0.8,0.4c-0.3,0-0.4,0-0.4,0.3s0,0.4,0.2,0.4h0.2c0.2,0,1.6,0,2,0c0.3,0,2.1,0,2.6,0h0.2c0.3,0,0.3,0,0.3-0.3
	c0-0.2,0-0.3-0.2-0.3c-0.6-0.1-0.8-0.3-2.5-2c-3.4-3.7-3.6-4-4.4-4.9c0.1-0.1,0.2-0.2,0.3-0.2c4.3-3.7,4.6-3.9,5.6-4.2
	c0.4-0.1,0.4-0.1,0.4-0.4c0-0.2,0-0.3-0.2-0.3h-0.2c-1.3,0.1-1.5,0.1-2.8,0.1H106c-1.1,0-1.1,0-1.1,0c-0.2,0-0.3,0.1-0.3,0.3
	c0,0.3,0,0.3,0.3,0.3c0.8,0,1.1,0.2,1.1,0.5s-0.7,1.1-2.2,2.5c-1,0.9-1.9,1.7-2.8,2.5c0-1.4,0-3.4,0.1-4c0.1-1.2,0.2-1.4,1.2-1.5
	c0.4-0.1,0.4-0.1,0.4-0.4v-0.1c0-0.1,0-0.2-0.2-0.2h-0.1c-0.9,0-1.8,0.1-2.3,0.1c-0.4,0-1.9,0-2.4-0.1h-0.2c-0.2,0-0.2,0.1-0.2,0.3
	c0,0.3,0,0.3,0.4,0.3c1.2,0.1,1.2,0.3,1.2,4c0,3,0,5.2-0.1,6.1c-0.1,1.1-0.3,1.3-1.3,1.5c-0.2,0-0.2,0.1-0.2,0.3
	c0,0.3,0,0.3,0.2,0.3h0.1c1.3,0,2.1,0,2.5,0c0.5,0,1.4,0,1.6,0h0.6c0.4,0,0.4,0,0.4-0.3s0-0.3-0.4-0.3c-1.1-0.1-1.2-0.2-1.3-1.3
	c-0.1-0.6-0.1-1-0.1-3.7L101.9,284.8z M115.3,282.6c-0.7,0-1.1,0-1.8,0c-0.5,0-0.9,0-1.3,0h-0.3h-0.2c-0.2,0-0.2,0-0.2,0.3
	c0,0.2,0,0.3,0.3,0.4c0.5,0.2,0.7,0.6,1.8,3.6c1.2,3.1,1.6,4.3,1.6,4.5c0,0.1-0.7,1.4-1.1,2c-0.7,1.1-1.2,1.6-1.7,1.9
	c-0.6,0.3-0.6,0.4-0.6,0.8s0.2,0.5,0.7,0.5c1.1,0,1.3-0.2,2-1.7c1.9-4.1,2-4.3,3.7-7.6c1.8-3.4,2.1-3.7,2.6-4
	c0.1-0.1,0.2-0.1,0.2-0.3c0-0.3,0-0.3-0.2-0.3h-0.2c-0.3,0-1,0-1.2,0c-0.3,0-1.1,0-1.2,0h-0.3c-0.2,0-0.2,0.1-0.2,0.3
	c0,0.3,0,0.3,0.3,0.3c0.6,0.1,0.8,0.2,0.8,0.5c0,0.4-0.3,1.1-2.3,5.4c-0.9-2.2-1.8-4.9-1.8-5.4c0-0.3,0.2-0.4,0.7-0.5
	c0.4,0,0.4,0,0.4-0.4C115.6,282.7,115.6,282.6,115.3,282.6L115.3,282.6z M127.8,282.4c-3,0-5,1.8-5,4.5c0,2.6,1.8,4.3,4.4,4.3
	c2.9,0,5-1.9,5-4.6C132.2,284.2,130.4,282.4,127.8,282.4z M127.1,283.3c1.7,0,3,1.8,3,4.2c0,1.8-0.9,2.9-2.3,2.9
	c-1.7,0-2.9-1.8-2.9-4.1C124.9,284.5,125.8,283.3,127.1,283.3z M138.5,283.7c1,0,3.2,0,3.2,0c0.1,0,0.1-0.1,0.1-0.6s0-0.5-0.3-0.5
	h-0.6h-1.1h-1.3c0-0.4,0.1-1.1,0.1-1.5V281c0-0.1-0.1-0.1-0.2-0.1c-0.3,0-0.3,0-0.5,0.2c-0.5,0.6-1.4,1.4-2.3,2
	c-0.1,0.1-0.1,0.1-0.1,0.3c0,0.3,0,0.3,0.2,0.3h0.9c-0.1,3.2-0.1,4.9-0.1,5.1c0,0.9,0.1,1.4,0.5,1.8c0.3,0.3,0.9,0.6,1.5,0.6
	c0.8,0,2-0.3,3-0.9c0.3-0.2,0.3-0.2,0.3-0.4v-0.4h-0.2c-0.6,0.3-1.1,0.4-1.6,0.4s-1-0.2-1.2-0.5s-0.3-0.7-0.3-1.7v-0.8
	c0-0.4,0-1.1,0-1.9v-0.9L138.5,283.7L138.5,283.7z M149.7,282.4c-3,0-5,1.8-5,4.5c0,2.6,1.8,4.3,4.4,4.3c2.9,0,5-1.9,5-4.6
	C154.1,284.2,152.2,282.4,149.7,282.4z M149,283.3c1.7,0,3,1.8,3,4.2c0,1.8-0.9,2.9-2.3,2.9c-1.7,0-2.9-1.8-2.9-4.1
	C146.8,284.5,147.7,283.3,149,283.3z"/>
<g>
	<g>
		<defs>
			<rect id="SVGID_3_" x="1" y="2" width="81.8" height="150"/>
		</defs>
		<clipPath id="SVGID_1_">
			<use xlink:href="#SVGID_3_"  overflow="visible"/>
		</clipPath>
		<g clip-path="url(#SVGID_1_)">
			<path fill="#FFFFFF" d="M48.8,118.8c0,0,0,0.2,0,0.3c-0.7,0.5-1.1,1.2-1.7,1.8c-0.2,0.1-0.4,0.2-0.6,0.3c0,0.3-0.1,0.7-0.7,0.7
				c-0.1,0-0.2,0.2-0.3,0.2c-0.1,0.1-0.3,0.2-0.4,0.3c-0.4,0.2-0.5,0.5-0.4,1c0.3-0.1,0.6-0.1,0.8-0.3c0.3-0.2,0.7-0.4,0.9-0.6
				c0.3-0.4,0.8-0.6,1.2-0.7c0.2-0.1,0.3-0.2,0.4-0.4c0.1-0.1,0.2-0.2,0.3-0.2c0.2-0.1,0.4-0.2,0.6-0.4c0.4-0.2,0.8-0.3,1.2-0.5
				c0.2-0.1,0.4-0.1,0.6-0.2c0.2-0.1,0.3-0.1,0.5-0.2c0.2,0,0.3,0,0.5,0c0.1,0,0.2,0.2,0.3,0.1c0.5-0.1,1.1-0.1,1.6-0.5
				c0.2-0.1,0.6-0.1,0.7,0.1c0.2,0.2,0.4,0.2,0.6,0c0.3-0.3,0.6-0.3,0.8,0c0,0,0,0.1,0.1,0.1c0.5-0.1,0.8,0.4,1.3,0.5
				c0.2,0.1,0.4,0.4,0.6,0.5c0.4,0.3,0.5,0.7,0.7,1.2c0,0,0,0,0,0.1c0.4,0.4,0.6,0.8,0.6,1.4c0,0.2,0.2,0.4,0.2,0.6
				c0,0.9,0,1.8,0,2.8c0,0.4,0.3,0.8,0.4,1.3c-0.2,0.3-0.5,0.8-0.8,1.3c-0.7,0.1-1.2,0.8-1.2,1.6c-0.1,0.9-0.2,1.8-0.3,2.7
				c-0.7,0.2-1.3,0.8-1.3,1.4c-0.2,0-0.4,0.1-0.5,0.2c-0.2,0.4-0.4,0.8-0.5,1.2c0,0.1,0.2,0.4,0.4,0.5c0.2,0.2,0.6,0.3,0.8,0.4
				c0.1,0,0.1,0.1,0.2,0.1c0.7-0.2,1.3,0.3,1.8,0.6c0.7,0.4,1.5,0.4,2.2,0.8c0.8,0.4,1.6,0.6,2.4,0.8c0.6,0.2,1.2,0.5,1.8,0.8
				c0.1,0.1,0.3,0,0.4,0c0.3,0,0.7-0.2,0.9,0.3c0,0.1,0.2,0,0.4,0c0.9,0.1,1.9,0.1,2.8,0.3c0.4,0.1,0.8,0.3,1.2,0.5
				c0.2-0.2,0.3-0.5,0.7,0c0.1,0.2,0.4,0.3,0.6,0.3c0.9,0.1,1.8,0.2,2.6,0.3c0.2,0,0.5-0.1,0.7,0.3c0,0.1,0.3,0,0.5,0.1
				c0.7,0.1,1.4,0.2,2.2,0.3c0.8,0,1.5-0.1,2.3,0.1c0.4,0.1,0.9,0,1.1,0.5h0.1c0.7-0.1,1.3,0.4,2,0.6c-0.1,0.3-0.2,0.6-0.3,0.8
				c-0.4,0.5-0.3,1.3-1,1.6c-0.2,0.1-0.3,0.4-0.3,0.7c-0.1,0.4-0.2,0.8-0.3,1.2l-0.1-0.1c-0.1,0.2-0.3,0.4-0.4,0.5
				c-0.3,0.2-0.6,0.5-1,0.7c-0.5,0.2-1.1,0.4-1.6,0.7c-0.3,0.2-0.7,0.1-1,0.2c-0.1,0.3-0.2,0.6-0.3,0.9c-0.1,0.2-0.4,0.3-0.6,0.5
				h-0.1c-0.9,0.9-2,0.3-3.1,0.4c-0.6,0-1.3-0.2-1.8-0.5c-0.4-0.3-0.8-0.3-1.3-0.3c-0.1-0.3-0.2-0.7-0.4-1c-0.1-0.2-0.3-0.2-0.5-0.3
				s-0.4-0.1-0.7-0.2c-0.1,0.2-0.3,0.4-0.7,0c-0.2-0.2-0.7-0.3-1.1-0.3c-0.5,0-0.8-0.1-1.2-0.5c-0.3-0.3-0.8-0.4-1.2-0.6
				c-0.3-0.2-0.5-0.4-0.7-0.6c-0.1-0.1-0.2-0.1-0.2-0.2c-0.3-0.1-0.7-0.2-1-0.4c-0.6-0.4-1.1-0.8-1.6-1.4c-0.3-0.3-0.9-0.4-1.3-0.6
				c-0.6-0.4-1.3-0.6-1.9-1.1c-0.4-0.4-0.9-0.8-1.6-0.9c-0.5,0-1.2-0.2-1.6-0.7c-0.1-0.1-0.2-0.1-0.3-0.1c-0.5,0.1-0.8-0.2-1.2-0.4
				c-0.6-0.4-1.3-0.1-1.4,0.6c-0.6,0.3-1,0.6-1.6,0.9c-0.3,0.2-0.7,0.2-1.1,0.3c-0.3,0.1-0.6,0.2-0.8,0.2c-0.5,0-0.7,0.2-1,0.5
				c-0.1,0.1-0.3,0.1-0.5,0.1c-1.1,0-2.2,0-3.2,0c-0.4,0-0.9-0.2-1.1-0.5c-0.1-0.1-0.1-0.2-0.1-0.3c-0.2-0.5-1.4-0.7-1.8-0.4
				c-0.1,0.1-0.3,0.2-0.4,0.2c-0.9,0-1.8,0-2.7,0c-0.2,0-0.3-0.1-0.6-0.2c-0.1,0.1-0.3,0.2-0.5,0.3c-0.1-0.3-0.2-0.5-0.3-0.8
				c0.2-0.3,0.5-0.5,0.9-0.4c0.1,0,0.4,0,0.4-0.1c0.2-0.4,0.6-0.4,0.9-0.3c0.5,0.1,0.7-0.3,1-0.4c0.6-0.3,1.1-0.8,1.7-1.1
				c0.6-0.3,1.2-0.6,1.7-0.9c0.3-0.2,0.5-0.5,0.8-0.7c0.5,0.6,1.1-0.2,1.7-0.1c0-0.3,0-0.5,0-0.8c-0.2,0-0.3-0.1-0.5-0.1l0,0
				c-0.1-0.8-0.9-1-1.4-1.4s-1.1-0.6-1.7-0.9c-0.3-0.2-0.6-0.7-0.7-1.1c-0.3-0.1-0.6-0.2-0.9-0.4c0-0.3,0-0.6,0-1
				c0.4,0.2,0.8,0.3,1.1,0.5c0.5-0.1,1.1-0.3,1.6-0.4c0.4-0.1,1,0.3,1.3-0.3c1,0,2,0,3,0c0.2,0,0.3,0.2,0.5,0.3
				c0.4,0.1,0.7-0.1,0.9-0.4c0.3-0.4,0.4-0.8,0.6-1.2c0.1,0,0.3,0,0.5-0.1c0-0.2,0-0.5,0-0.7c0-0.1,0-0.2,0-0.3
				c0.7-0.4,0.5-1.2,0.9-1.8c0,0,0.1,0,0.1-0.1c0.1-0.5,0.2-1,0.4-1.5c0-0.1,0-0.2,0-0.2c0.8-0.6,0.2-1.4,0.5-2.2
				c-0.6,0.1-1-0.2-1.5,0.3c-0.3,0.3-0.8,0.4-1.3,0.5c-0.6,0.1-0.7,0.7-1.2,1c-0.2,0.1-0.4,0.3-0.7,0.4c-0.1,0.1-0.3,0.2-0.4,0.3
				c-0.6,0.9-1.4,1.4-2.5,1.6c-0.3,0.6-1,0.1-1.4,0.5c-0.1,0.1-0.4,0-0.6,0c-0.2,0-0.4,0.1-0.6,0.2c-0.1,0-0.3,0.1-0.5,0
				c-0.3-0.2-0.6-0.5-0.9-0.7c-0.1-0.1-0.3-0.1-0.5-0.1c0.3-0.3,0.5-0.6,0.8-0.8c0.4-0.2,0.4-0.6,0.3-0.9c0-0.3,0-0.6,0.3-0.9
				c0.1,0,0.1-0.1,0.1-0.2c0-0.9,0.4-1.5,1-2c0.2-0.2,0.2-0.5,0.4-0.7c0-0.1,0-0.2,0.1-0.2c0.3-0.4,0.5-0.7,0.8-1.1l0,0
				c-0.1-0.9,1-1.3,0.8-2.1c0-0.1,0.1-0.2,0.1-0.2c0.3-0.3,0.3-0.4-0.1-0.7c0.4-0.4,0.4-0.5,0-0.8s-0.8-0.5-1.3-0.5
				c-0.2,0-0.4-0.1-0.6-0.2c-0.2-0.1-0.4-0.2-0.6-0.4c-0.2-0.4-0.4-0.9-0.6-1.3c0.3-0.2,0.6-0.4,0.8-0.4c0.4-0.1,0.5-0.4,0.5-0.7
				c0.5-0.1,1-0.7,0.9-1.1c-0.2,0-0.3,0-0.5,0c-1.1-0.1-2.3-0.2-3.4-0.2c-0.4,0-0.7-0.7-0.4-1.1c0.1-0.1,0.2-0.3,0.1-0.4
				c-0.3-0.6,0.1-1.3,0-1.9c0-0.2-0.2-0.5-0.3-0.6c-0.2-0.1-0.4,0.1-0.7,0.1c-0.6,0.1-0.9,0.7-1.3,1c-0.1,0.1-0.3,0.1-0.5,0.2
				c-1,1.8-0.7,3.5,0.5,5.2c-0.2,0.3-0.7,0.4-0.5,0.9c0,0.1,0,0.2,0.1,0.3c0.3,0.4,0.3,0.8,0,1.2c-0.2,0.4-0.4,0.8-0.8,1.1
				c-0.2,0.1-0.4,0.3-0.6,0.4c-0.1,0-0.3,0.1-0.3,0c-0.5-0.7-0.8,0.1-1.2,0.2c-0.2,0.1-0.3,0-0.5,0s-0.5-0.1-0.7-0.1
				c-0.3,0.1-0.7,0.2-1,0.3c0-0.3-0.1-0.5-0.1-0.6c-0.4-0.1-0.8-0.2-1.3-0.4c0.1-0.5-0.1-0.9-0.7-1.1c0.2-0.1,0.3-0.2,0.3-0.2
				c-0.1-0.2-0.2-0.5-0.3-0.7c-0.3-0.6-0.2-1.2,0.2-1.7c0.1-0.1,0.1-0.2,0.1-0.3c0.1-0.5,0.2-1,0.3-1.4c0-0.5,0-1,0-1.5v-0.1
				c0.1,0,0.3-0.1,0.5-0.1c0-0.9,0-1.8,0-2.7c0-0.4,0.2-0.8,0.3-1.2c0-0.2,0.2-0.4,0.2-0.6c0-0.4,0.1-0.7,0.3-1.1
				c0.2-0.3,0.1-0.7,0.2-1.1c0-0.2,0.1-0.5,0.2-0.6s0.4-0.1,0.5-0.1c0.6,0.2,0.6,0.3,0.7-0.3c0.1,0,0.2,0,0.4,0c0.1,0,0.2,0,0.4,0
				c-0.3,0.7,0.3,1.2,0.5,1.8c0.3,0.1,0.6,0.2,1,0.4c0.2,0.8,0.9,1,1.5,0.5c0.3-0.2,0.7-0.4,1-0.6c0.1,0,0.1-0.1,0.2-0.2
				c0.4-0.4,0.9-0.6,1.4-0.9c0.5-0.2,0.9-0.5,1.4-0.5c0.1,0,0.2-0.1,0.3-0.2c0.2-0.6,0.7-0.6,1.2-0.6c0.3,0,1-0.3,1.3-0.5
				c0,0,0.1,0,0.2,0c0.4-0.1,0.7-0.1,1-0.2c0.7-0.3,1.4-0.2,2.1-0.2c0.2,0,0.4-0.2,0.6-0.2c0.3-0.1,0.6-0.2,0.9-0.3
				c0.4-0.1,0.8-0.1,1.1-0.3c0.6-0.2,1.1-0.5,1.7-0.7c0.1,0,0.1-0.1,0.2-0.1c0.5-0.2,1-0.4,1.5-0.5c0,0,0,0,0.1,0
				c0.7-0.1,1.3-0.2,2-0.2c0.3,0,0.7,0.2,0.8-0.3c0,0,0.1,0,0.2,0c0.5-0.1,1.1-0.1,1.6-0.2c0.1,0,0.2-0.1,0.3-0.2
				c0.3-0.4,0.7-0.4,1.1-0.4c0.6,0,1.3,0.2,1.9-0.2c0,0,0.1,0.1,0.2,0.1c0.1,0,0.3,0.1,0.4,0.1c0.4-0.1,0.7-0.1,1.1-0.2
				c0.7-0.2,1.3-0.4,2-0.3c0.1,0,0.3-0.3,0.4-0.3c0.3,0.1,0.6,0.3,0.8,0.5s0.4,0.3,0.7,0.3c0.3,0,0.5,0.2,0.8,0.4
				c0.4,0.2,0.8,0.6,1.2,0.7c0.5,0.1,0.8,0.3,1.2,0.5c0.5,0.3,1,0.7,1.5,1.1c0.7,0.6,1.1,1.5,1.8,2.2c0.4,0.4,0.5,1.1,0.8,1.6
				c0.1,0.3,0.2,0.6,0.4,0.8c0.6,0.6,1,1.2,1,2.1c0,0.2,0.1,0.4,0.2,0.6c0.3,0.6,0.2,1.3,0.2,1.9c0,0.2,0.1,0.5,0.2,0.7
				c-0.8,0.3-1.1,1.1-1.4,1.9c-0.2,0.5-0.4,0.6-0.9,0.6c-0.1,0-0.3,0-0.5,0c0,0.2-0.1,0.3-0.1,0.5c-0.3,0-0.6,0-0.8,0
				c-0.2,0.4-0.3,0.7-0.5,1.1c-0.1,0.3-0.8,0.4-1.1,0.3c-0.1-0.1-0.3-0.1-0.5,0s-0.3,0.2-0.4,0.3c0.3,0.6,0.1,1.3-0.6,1.5
				c-0.3,0.1-0.7,0.2-1,0.2c-0.3,0.1-0.7,0.2-1,0.3c-0.1-0.4-0.1-0.4-1.3-0.6c-0.2-0.3-0.3-0.7-0.5-1.1c-0.7,0.2-0.9-0.4-1.1-0.9
				c-0.2-0.6-0.6-0.8-1.1-0.7c-0.3,0-0.5-0.1-0.8-0.2c-0.8-0.3-1.7-0.4-2.5,0.2c-0.1,0.1-0.3,0.1-0.4,0.1c-0.4-0.3-0.8-0.3-1.3,0
				c-0.3,0.2-0.7-0.1-0.9,0.4c0,0.1-0.4,0.1-0.6-0.2c-0.2-0.2-0.9-0.2-1.1-0.1c-0.4,0.3-0.8,0.4-1.3,0.5c-0.3,0.1-0.7,0.3-0.9,0.5
				c-0.4,0.4-1.2,0.5-1.4,1.3c0,0.1-0.3,0.2-0.5,0.3c-0.3,0.1-0.4,0.4-0.5,0.7C49.4,118.5,49.1,118.6,48.8,118.8z M55.3,111.3
				c0.3,0.1,0.5,0.4,0.7,0.3c1-0.1,2.3,0.6,3-0.7c0,0,0.1,0,0.1-0.1c0.7-0.2,1.2-0.6,1.7-1.1c0.1-0.2,0.3-0.3,0.5-0.4
				c0.3-0.3,0.6-0.5,0.9-0.8c0.3-0.2,0.6-0.5,1-0.7c0,0,0-0.2,0-0.3c0.2,0,0.3-0.1,0.4-0.1c0.5-0.6,0.1-1.2,0.1-1.7
				c-0.3-0.2-0.6-0.3-0.6-0.5c-0.2-0.8-1.2-1-1.2-1.8c-0.5-0.1-0.5-0.9-1.2-0.9c-0.1,0-0.2-0.1-0.3-0.2c-0.3-0.4-0.7-0.5-1.1-0.5
				c-0.6,0-1.2,0.2-1.8,0.2c-0.8,0-1.4,0.3-1.7,1c0.2,0.2,0.5,0.4,0.5,0.6c0.1,0.9,0,1.7-0.6,2.4c-0.2,0.2-0.4,0.5-0.4,0.8
				c-0.1,0.6-0.5,0.8-0.9,0.9c-0.2,0.3-0.4,0.6-0.6,0.8c-0.5,0.6-1.1,1.2-0.9,2.1c0.8,0.1,1.6,0.2,2.3,0.3
				C55.3,111,55.3,111.2,55.3,111.3z M48.4,106c0,0,0.2,0,0.3-0.2c0.2-0.2,0.3-0.5,0.5-0.7c0.1-0.1,0-0.3,0-0.4
				c-0.3-0.4-0.6-0.6-1-0.1c0,0.1-0.2,0-0.3,0.1c-0.1,0-0.3,0.1-0.4,0.1c-0.7,0.3-1.2,0.7-1.5,1.3c0.2,0.2,0.4,0.4,0.5,0.7
				c0.2,0.8,0.2,0.8,1,0.7C47.7,107.1,48,106.6,48.4,106z M32,106.5c0.1-0.1,0.2-0.3,0.3-0.4c-0.1-0.1-0.2-0.3-0.3-0.4
				c-0.2,0.1-0.3,0.3-0.5,0.4C31.7,106.3,31.9,106.4,32,106.5z"/>
			<path fill="#FFFFFF" d="M30.1,27.6c0.2-0.2,0.5-0.4,0-0.7c-0.1,0-0.1-0.2-0.1-0.3c0-0.1,0-0.3,0-0.3c-0.8-0.7-0.3-1.6-0.4-2.3
				c0-0.1,0-0.3,0-0.4c-0.2,0-0.3-0.1-0.5-0.1c0-2.7,0-5.4,0-8.2c0.1,0,0.3-0.1,0.4-0.1l0.1-0.1c0.1-0.7,0.1-1.4,0.3-2
				c0.3-0.7,0.1-1.4,0.2-2.1c0.1-0.4,0.2-0.7,0.3-1.1c0.1-0.4,0.4-0.7,0.4-1.1s0.3-0.6,0.4-0.8c0.3-0.5,0.6-1.1,0.7-1.7
				c0.1-0.4,0-0.8,0.4-1.1c0.1-0.1,0.1-0.2,0.1-0.3c0-0.3-0.1-0.6,0.3-0.9c0.1-0.1,0.1-0.6,0.1-0.9c0.7,0,0.2-0.6,0.4-1.1
				c0.3,0,0.7,0,1.1,0c0.4,0,0.8,0,1.2,0c-0.1,0.6,0.2,0.9,0.6,1.2C36.5,3.6,37,4,37.4,4.4c0,0,0.1,0.1,0.1,0.2
				c0.1,0.2,0.2,0.3,0.4,0.6c0.5,0.8,1,1.7,1.5,2.6c0.7,0.3,1.2,0.8,1.5,1.6c0,0.1,0,0.1,0.1,0.1c0.4,0.4,0.8,0.8,1.2,1.3
				c0.3,0.4,0.4,0.8,0.6,1.2c0.1,0.3,0.3,0.6,0.4,0.9c0,0.1,0.1,0.2,0.1,0.3c0,0.6,0.1,1.2,0.5,1.7c0.1,0.1,0,0.2,0,0.4
				c0.1,0.5,0,1.1,0.2,1.6c0.2,0.6-0.1,1.1-0.4,1.7c-0.2,0.4-0.3,0.8-0.3,1.2c-0.1,0.5-0.1,1,0,1.4c0.2,0.9,0.2,1.8,0.2,2.7
				c0,0.2,0.2,0.3,0.3,0.4c0.1,0.4,0.2,0.7,0.1,1.1c-0.2,0.5,0,1,0,1.6c0,0.2,0.1,0.5-0.3,0.6c0,0,0,0.2-0.1,0.3
				c-0.1,0.4-0.1,0.8-0.2,1.1c-0.3,0.6-0.2,1.1-0.2,1.7c0,0.8,0,0.8-0.6,1c-0.2,0.4-0.4,0.7-0.5,1c-0.1,0.3-0.1,0.8-0.3,1.1
				c-0.2,0.3-0.6,0.4-0.5,0.8c0,0.3-0.2,0.6-0.3,0.8l-0.1,0.1c-0.1,0.5-0.2,0.9-0.4,1.4c-0.1,0.4-0.3,0.8-0.4,1.2
				c0,0.1-0.1,0.2-0.1,0.3c0.1,0.7-0.2,1.3-0.7,1.8C39,40.5,39,40.8,39,40.9c0.6,0.7,0.1,1.2-0.2,1.7c-0.1,0.1-0.1,0.3-0.1,0.5
				c0,0.8,0,1.5,0,2.3c0,0.4,0.1,0.9,0.3,1.2c0.3,0.3,0.2,0.5-0.1,0.7c0.3,0.2,0.5,0.4,0.1,0.8c-0.2,0.2,0,0.6-0.1,0.8
				s-0.2,0.5-0.4,0.6c-0.5,0.2-1.1,0.3-1.7,0.5c-0.1,0.3-0.2,0.6-0.7,0.2c-0.3-0.2-0.7-0.1-1.1-0.1c-0.3-0.6-0.7-1-1.3-1.3
				c-0.4-0.2-0.8-0.5-1.2-0.7c-0.1,0-0.2-0.1-0.2-0.1c-0.6-0.1-1.2-0.1-1.8-0.2c-0.3-1-0.8-1.7-1.4-1.9c-0.3-0.5-0.5-0.8-0.7-1.1
				l-0.1-0.1c-0.1-0.7-0.2-1.3-0.2-2c0-0.5,0.2-1,0.3-1.5c0.1,0,0.2,0,0.4-0.1c0-0.2,0.1-0.3,0.1-0.5c0.1,0,0.3-0.1,0.5-0.1
				c0-0.3,0-0.7,0-1c0.1-0.4,0.1-0.9,0.3-1.3c0.3-0.5,0.1-0.6-0.3-0.7c-0.1-0.4,0-0.7,0.3-1c0.1-0.1,0.1-0.3,0.1-0.5
				c0-1.5,0-3.1,0-4.6c0-0.2-0.1-0.5,0.2-0.6c0,0,0.1-0.2,0.1-0.3c0-0.8,0-1.5,0-2.3C30.3,28,30.2,27.8,30.1,27.6z"/>
			<path fill="#FFFFFF" d="M17.8,102.8c-0.2,0.3-0.3,0.6-0.5,0.9c-0.1,0.2-0.2,0.4-0.2,0.6c-0.1,0.5-0.1,1-0.3,1.4
				c-0.2,0.4-0.6,0.6-0.9,0.9l-0.1-0.1c0,0.2,0,0.4,0,0.6s-0.2,0.5-0.2,0.7c-0.1,0.4-0.2,0.8,0.2,1.1c-0.3,0.3-0.5,0.5-0.7,0.8
				c0.2,0.3,0.5,0.7,0.7,1.1c0.1,0.1,0.1,0.4,0,0.5c-0.4,0.4-0.1,0.9-0.3,1.4c-0.4,1.5-0.1,3.1-0.2,4.7c0,0.4-0.2,0.9-0.4,1.2
				c-0.3,0.7-0.4,1.3-0.4,2c-0.2,0-0.3,0.1-0.5,0.1c0,0.3,0,0.6,0,0.9c-0.2,0.1-0.4,0.1-0.6,0.2c-0.1,0.6,0,1.3-0.3,1.9
				c-0.3,0.7-0.1,1.3-0.2,2c-0.2,0-0.4,0-0.7,0.1c0,0.2,0,0.3,0,0.5c0.3,0,0.5,0,0.7,0.1c0,0.2,0,0.4,0,0.6c0.1,0.7,0,1.5,0.3,2.1
				c0.2,0.5,0.2,0.9,0.2,1.3c0,0.1,0,0.2,0.1,0.2c0.4,0.2,0.5,0.5,0.4,1c0.2,0,0.3,0.1,0.5,0.1c0,0.1,0.1,0.1,0.1,0.2
				c0.1,1.2,0.2,2.4,0.2,3.6c0,0.4-0.2,0.8,0,1.2c0.4,1,0,2.1,0.3,3.1c0.5,1.7,0.1,3.3,0.3,5c0,0.3,0.1,0.7,0.3,0.9
				c0.3,0.3,0.2,0.6,0.2,0.9c0,1.6,0,3.2,0,4.7c0,0.2,0,0.4-0.1,0.6c-0.3-0.4-0.7-0.8-1.1-1.2c0-0.1,0-0.3,0-0.6
				c-0.2,0-0.3-0.1-0.5-0.1c0-0.2,0-0.4,0-0.7c-1.2,0-1.4-1.1-2-1.9c-0.2-0.1-0.6-0.3-0.9-0.5c-0.1-0.1-0.2-0.2-0.3-0.4
				c-0.1-0.5-0.1-1.1-0.2-1.6c-0.1-0.5,0.2-1.1,0.4-1.6c0-0.1,0.1-0.2,0.1-0.3c0.1-0.4-0.1-0.8,0.3-1.2c0.2-0.2,0.3-0.8-0.2-1.2
				c-0.2-0.2-0.2-0.7,0-0.9c0.6-0.9,0.5-1.9,0.5-2.9c0-0.1-0.1-0.2-0.2-0.2c-0.4-0.2-0.3-0.6-0.4-1c-0.3-0.9-0.1-1.9-0.3-2.8
				c-0.1-0.3,0-0.9-0.5-1.2c-0.1,0,0-0.2,0-0.4c0.1-0.5-0.2-1-0.4-1.4c-0.1-0.1-0.1-0.2-0.1-0.4c0-0.3,0-0.6,0-0.8
				c0.1-0.8,0.2-1.7,0.2-2.5c0.2,0.1,0.6,0.3,0.6,0.2c0.2-0.2,0.3-0.5,0.4-0.7c0.1-0.2,0.1-0.5,0.2-0.7c-0.2-0.4-0.5-0.5-1-0.5
				c-0.2,0-0.3-0.2-0.4-0.2c0-0.5,0.1-0.9,0.1-1.2c0-0.4,0.1-0.8,0.5-1c0.5-0.2,0.5-1.6,0-1.8c-0.4-0.2-0.3-0.5-0.2-0.7
				c0.3-0.6,0.3-0.7-0.4-0.9c0,0-0.1,0-0.2-0.1c0.1-0.4,0.2-0.8,0.3-1.2c0.1-0.4,0-0.8,0.2-1.3c0.4-0.9,0.8-1.8,0.6-2.9
				c0-0.3,0.2-0.6,0.3-1c0.1-0.2,0.2-0.3,0.2-0.5c0.1-0.8,0.2-1.7,0.3-2.5c0-0.4,0.1-0.8,0.2-1.1c0.1-0.3,0.5-0.5,0.7-0.7
				c-0.2,0-0.4,0-0.7,0c-0.2-0.6-0.1-0.7,1.1-0.8c0.1-0.3,0.2-0.6,0.2-0.9h0.1c0,0,0,0,0-0.1c-0.3-0.5-0.6-1-0.8-1.5
				c-0.1-0.2,0.1-0.4,0.2-0.7c-0.2-0.1-0.5-0.4,0.1-0.7c0.1-0.1,0.1-0.4,0.1-0.7c0.1,0,0.3-0.1,0.5-0.1c0-0.8,0-1.5,0-2.3
				c0.2,0,0.4-0.1,0.5-0.1v-0.1c-0.2,0-0.3-0.1-0.5-0.1c0-0.7,0-1.4,0-2.1c0-0.1,0-0.2,0.1-0.2c0.5-0.2,0.5-0.6,0.5-1
				c0-0.7,0-1.4,0-2.1c0.2,0,0.3-0.1,0.5-0.1c0-0.6,0-1.1,0-1.7c0.1,0,0.1,0,0.2,0.1c0.1-0.2,0.2-0.4,0.3-0.6c0-0.3,0-0.6,0-0.9
				s0-0.5,0.3-0.6c0.1-0.1,0.2-0.4,0.3-0.5c0.3-0.5,0.3-1,0.3-1.6c0-0.1,0-0.2,0.1-0.2c0.4-0.2,0.5-0.6,0.5-1c0.2,0,0.3,0,0.5-0.1
				c0.3-0.8,0.6-1.6,0.9-2.4c0.4,0,0.9,0,1.1-0.6c0.3,0.5,1,0.6,0.7,1.3c0.2,0,0.4,0.1,0.5,0.1c0.1,0.2,0.1,0.4,0.2,0.5
				c0.6,0.5,0.9,1.2,1.2,1.9c0.1,0.2,0.3,0.5,0.5,0.6c0.5,0.4,0.7,0.8,0.5,1.4c0.5,0,0.5,0.3,0.5,0.7c0,0.3-0.1,0.8,0,0.9
				c0.6,0.5,0.1,1.3,0.5,1.8c0.1,0.1-0.1,0.5-0.2,0.6C23,93.6,23,93.9,23,94.2s0.1,0.7-0.5,0.6c0,0.4,0,0.7,0,1.1
				c-0.2,0-0.3,0.1-0.5,0.1c0,0.4,0,0.9-0.5,1.1c-0.1,0.1-0.2,0.4-0.3,0.6c-0.1,0.2-0.3,0.4-0.4,0.5l-0.1-0.1c0,0.2,0,0.4,0,0.5
				c0,0.3,0.1,0.6-0.3,0.6c-0.1,0.6-1.1,0.5-0.9,1.4c0,0.1-0.3,0.3-0.4,0.5c-0.4,0.4-0.8,0.8-0.7,1.5
				C18.1,102.5,17.9,102.7,17.8,102.8z M14.6,106c-0.3-0.5-0.3-0.5-0.6-0.4c0,0.5-0.1,0.9-0.1,1.4c0,0.3-0.6,0.4-0.4,0.8
				c0.2,0.4,0.6,0.5,1,0.3C14.5,107.4,14.5,106.8,14.6,106z M13.4,109.2c0,0.1,0,0.1,0,0.2c0.4,0.1,0.5,0.7,1.1,0.5
				c0-0.3,0-0.6,0-1.1C14.1,109,13.7,109.1,13.4,109.2z"/>
			<path fill="#FFFFFF" d="M52.9,92.1c-0.5,0.4-0.8,0.9-1,1.4c-0.1,0.3-0.3,0.7-0.5,1c0,0.1-0.1,0.1-0.1,0.2
				c-0.1,0.4-0.2,0.9-0.2,1.3c-0.2,0-0.3,0.1-0.3,0.1c-0.2,0.3-0.5,0.6-0.6,0.8c-0.4,0.9-0.9,1.4-2.1,1.3c0.2,0.3,0.3,0.5,0.4,0.7
				c-0.7,0.1-1.4,0.2-2,0.3c-0.3-0.3-0.5-0.5-0.7-0.8c-0.1-0.1-0.2-0.2-0.3-0.4c-0.2-0.7-0.7-0.8-1.4-0.5c-0.3,0.2-0.7,0.2-1,0.4
				c-0.4,0.2-0.7,0.3-1.1,0.3c-0.1,0-0.2,0.2-0.3,0.2c-0.2,0.1-0.4,0.2-0.7,0.4c0,0,0,0.2-0.1,0.3c-0.2-0.1-0.5-0.2-0.7-0.3
				c0-0.2,0.1-0.6-0.5-0.5c0.2-0.7-0.2-1.2-0.5-1.7c-0.1-0.1,0-0.2,0-0.4c0-0.6,0-1.1,0-1.7c-0.1-0.9-0.2-1.8-0.3-2.8
				c0-0.2-0.1-0.4-0.3-0.6c-0.4-0.4-0.2-1-0.3-1.4c0-0.2-0.1-0.4-0.2-0.4c-0.4-0.2-0.3-0.5-0.4-0.9c0-0.2-0.1-0.4-0.2-0.6
				c-0.4-0.4-0.8-0.7-1.2-1.1c-0.1,0-0.2,0-0.2,0.1c0.1-0.2,0.2-0.5,0.3-0.7c0-0.1,0.1-0.2,0.1-0.4c-0.1-1,1.2-1.8,2.1-1.3
				c0.5,0.3,1.1,0.8,1.8,0.7c0.2,0,0.4,0.2,0.6,0.3c0.4,0.1,0.7,0.2,1.2,0.4c0,0,0,0.2,0.1,0.3c0.2,0.1,0.5,0.2,0.6,0.4
				c0.3,0.4,0.5,0.5,0.8,0c0.1-0.1,0.3-0.2,0.5-0.2c0.6,0,1.2,0,1.7,0c0.2,0,0.6,0.1,0.7,0.3c0.2,0.3,0.5,0.3,0.7,0.3
				c0.5,0.1,1.1,0.2,1.6,0.2c0.4,0,0.5-0.3,0.7-0.5c0.5-0.5,0.1-1.2,0.5-1.8c0.1-0.1-0.1-0.6-0.2-0.8c-0.5-0.1-1-0.1-1.3-0.4
				c-0.6-0.4-1.2-0.3-1.7-0.3s-0.9,0.3-1.4,0.4c-0.1-0.3-0.7-0.4-0.6-1c0-0.2,0.2-0.4,0.3-0.6c0.2-0.5,0.3-0.9,0.5-1.4
				c0-0.1,0.1-0.1,0.2-0.2c0.1-0.2,0.2-0.4,0.4-0.6c0.4-0.5,0.7-1,1.3-1.1c-0.1-0.5,0.4-0.5,0.7-0.7c0,0,0.1,0,0.2,0
				c0.3-0.4,0.8-0.5,1.2-0.7c0.3-0.1,0.6-0.2,0.8-0.3c0.1,0,0.2,0,0.2-0.1c0.2-0.7,0.8-0.5,1.3-0.5s1-0.1,1.4-0.5
				c0.2-0.2,0.6-0.2,1-0.3c0.4-0.1,0.6,0.1,0.8,0.5c0.2,0.2,0.6,0.3,0.8,0.4c0.4,0.5,0.7,1,1.1,1.4c0.3,0.3,0.3,0.5,0,0.8
				c0.2,0.2,0.3,0.4,0.1,0.7c-0.1,0.1-0.1,0.5-0.1,0.7c0.1,0.5-0.1,1-0.4,1.3c-0.3,0.4-0.4,0.7-0.4,1.2c0,0.4,0,0.8,0,1.2
				c0,0.5,0.2,0.9,0.4,1.3c0.1,0.1,0.1,0.3,0.1,0.4c0,0.7,0.1,1.5-0.3,2.1c-0.4,0.3-0.8,0.5-1.1,0.7s-0.7,0.5-1,0.8
				c-0.3,0.4-0.6,0.8-0.7,1.3c-0.1,0.2-0.2,0.3-0.4,0.4C52.8,91.2,53,91.8,52.9,92.1z M44.1,89.9c-0.3,0.3-0.7,0.6-1,0.7
				c0.1,0.7,0.1,1.3,0.2,1.9c0.2,0,0.5,0,0.7,0c0-0.2,0.1-0.3,0.1-0.5c0.2,0,0.3-0.1,0.4-0.1C44.7,91.2,45.2,90.4,44.1,89.9z"/>
			<path fill="#FFFFFF" d="M74.1,29.8c0.2-0.1,0.3-0.2,0.5-0.2c0.2-0.1,0.5-0.2,0.7-0.1c0.3,0.1,0.6,0.4,0.9,0.6c0,0,0,0.1,0.1,0.1
				c0.2,0.2,0.3,1.7,0.3,2c0,0.4-0.3,0.7-0.2,1.1c0.1,0.3-0.2,0.6-0.3,0.9c-0.1,0.4-0.2,0.8-0.4,1.2c-0.1,0.3-0.2,0.5-0.3,0.9
				c-0.3-0.3-0.1-0.8-0.7-0.6c0,0.1-0.1,0.3-0.1,0.4c-0.5,0.3-0.6-0.4-0.9-0.5c-0.2,0.2-0.4,0.4-0.7,0c-0.1-0.1-0.3-0.1-0.5,0
				c-0.7,0.4-1.5,0.1-2.2,0.2c-0.1,0-0.2,0-0.3,0c-0.5,0.7-0.7,0.1-0.9-0.1c-0.3,0-0.5-0.1-0.7-0.1s-0.4-0.1-0.5,0
				c-0.4,0.3-0.9,0.2-1.4,0.2c-0.2,0-0.5,0-0.7,0.2c-0.1,0.2-0.7,0.1-1-0.1c-0.3-0.2-0.5-0.4-0.9-0.4s-0.8,0-1-0.5
				c-0.2-0.3-0.6-0.3-1-0.5c0.1-0.1,0.1-0.2,0.3-0.3c-0.2-0.1-0.3-0.2-0.5-0.3c0,0-0.1,0.1-0.2,0.2c-0.1-0.1-0.2-0.2-0.3-0.3
				c0.4-1-0.1-1.8-0.4-2.6c-0.2,0-0.4,0-0.6,0c0-0.1-0.1-0.1-0.1-0.1c0.2-0.9-0.5-1.2-0.9-1.8c-0.1-0.2-0.2-0.7-0.1-0.8
				c0.3-0.2,0.4-0.7,1-0.4c0.3,0.2,0.6,0.4,0.9,0.6c0.6,0.5,1.3,0.2,1.3-0.5c0.5,0,1,0,1.4,0s0.9,0.1,1.3-0.2c0.1-0.1,0.4-0.1,0.6,0
				c0.4,0.3,0.8,0.2,1.2,0c0.3-0.1,0.7-0.1,1-0.1c0.2,0,0.4,0,0.6-0.3c0.2-0.4,1.5-0.4,1.8,0c0.5,0.6,1.1,0.9,1.8,0.8
				c0.1,0,0.3,0.1,0.4,0.2c0.2,0.1,0.5,0.1,0.7,0.1C73.9,28.9,74,29,74.1,29.8z"/>
			<path fill="#FFFFFF" d="M6.4,38.3c0.1,0,0.2,0,0.4-0.1c-0.4-0.6-0.3-1.2,0.5-1.3c0.1-0.7,0.1-1.4,0.3-2.1
				c0.2-0.6,0.1-1.1,0.2-1.6c0-0.3,0.3-0.5,0.4-0.8c0.5-0.1,0.9-0.5,1-1c0.9-0.2,1.7-0.6,2.5-0.6c1,0,2-0.3,2.9,0.2
				c0.1,0,0.2,0,0.3,0c-0.1,0.7-0.3,1.3-0.4,1.9c0,0.3,0.1,0.7,0.2,1c0,0.1,0.1,0.3,0.1,0.4c-0.4,0.6,0,0.9,0.3,1.3
				c0.2,0.3,0.2,0.6,0.3,0.9c0.1,1,0.2,2,0.3,3c0,0.2,0.2,0.4,0.3,0.6c0.1,0.1,0.3,0.3,0.3,0.4c0,1.2,0,2.5,0,3.8
				c-0.2,0-0.4,0.1-0.5,0.1c-0.1,0.6-0.6,1-1.3,1c-0.2,0-0.5-0.1-0.6,0.2c-0.1,0.1-0.6,0.1-0.6,0c-0.3-0.4-0.7-0.2-1.1-0.3
				c0-0.2,0-0.4-0.1-0.7c-0.2,0-0.3-0.1-0.5-0.1c0-0.1,0-0.2,0-0.4c0-0.4-0.2-0.5-0.6-0.6c-0.4-0.1-0.9-0.3-1.3-0.5
				c-0.2,0.1-0.5,0.1-0.7,0c-0.2-0.2-0.4-0.5-0.5-0.8c-0.1-0.2-0.3-0.3-0.4-0.4c-0.3-0.2-0.5-0.3-0.6-0.5s0-0.5,0.1-0.7
				c-0.1-0.1-0.2-0.2-0.3-0.3c-0.4,0.3-1,0-1.2-0.5c0-0.1,0-0.1,0-0.2C6.2,39.1,6.3,38.8,6.4,38.3z"/>
			<path fill="#FFFFFF" d="M2.3,107.5c0.3-0.2,0.6-0.4,0.2-0.7c-0.1-0.1-0.1-0.2-0.1-0.3c-0.1-1,0.2-1.8,1-2.4
				c0.4-0.3,0.7-0.8,1.1-1.2c0.1-0.1,0.3-0.2,0.4-0.4c0.1-0.2,0.2-0.4,0.4-0.5c0.1-0.1,0.2-0.2,0.3-0.4c0.2-0.3,0.4-0.6,0.6-0.8
				c0.3-0.4,0.6-0.8,1.1-0.9c0.2-0.1,0.4-0.2,0.7-0.4c0,0.4,0,0.7,0,0.9c0,0.4,0,0.7,0.3,1.1s0.4,1,0.5,1.5c0.1,0.4-0.2,0.9,0.3,1.2
				v0.1c0.1,0.7,0.2,1.3,0.2,2c0,0.5,0.1,0.9,0.5,1.3c0.1,0.1,0.1,0.2,0.1,0.4c0,0.6,0,1.3,0,1.9c0,0.5,0.2,1.1,0.2,1.6
				c0,0.6-0.5,0.9-0.9,1.1c-0.2,0.2-0.8,0.2-1.1-0.2c-0.1-0.2-0.2-0.3-0.3-0.5c-0.2,0.1-0.4,0.2-0.6,0.3c0,0-0.1,0-0.1-0.1
				c-0.1,0.5,0,1.1-0.2,1.5c-0.2,0.5,0,1.2-0.2,1.5c-0.4,0.6-0.1,1.2-0.5,1.8c-0.1,0.1,0,0.2,0,0.4c0,0.5-0.1,0.9,0,1.4
				c0.1,0.7-0.3,1-0.6,1.3c-0.1,0.1-0.5,0.1-0.6,0c-0.2-0.1-0.3-0.4-0.3-0.6c0-0.6-0.3-0.8-0.7-0.8c-0.2-0.9-1.3-2.3-1.8-2.3
				c-0.1,0.2-0.2,0.4-0.2,0.5c-0.2-0.4-0.5-0.8-0.6-1.2c-0.1-0.3-0.2-0.7,0-1c0.3-0.6,0.1-1.2,0.2-1.9c0-0.1,0-0.4,0-0.4
				c0.8-0.5,0.3-1.6,1-2.1v-0.1c-0.1-0.6,0.2-1,0.5-1.5C3,108.4,2.6,107.7,2.3,107.5z"/>
			<path fill="#FFFFFF" d="M22.8,110.3c0,0.3,0,0.5,0,0.7c0.4,0.2,0.7,0.3,1.1,0.5c0.1,0.1,0.2,0.3,0.3,0.5c0,0.1,0.1,0.2,0.1,0.2
				c0.5,0.3,0.4,0.7,0.4,1.2c0,0.7,0,1.5,0,2.1c-0.4,0.2-0.7,0.4-1,0.6c-0.2,0.1-0.4,0.2-0.6,0.2c-0.5,0-0.9,0.2-1.4,0.5
				c-0.2,0.1-0.5,0.2-0.6,0.1c-0.4-0.3-0.9-0.6-1.4-0.6c0,0-0.1,0-0.1-0.1c-0.4-0.4-0.9-0.8-1.3-1.2c-0.2-0.2-0.5-0.2-0.7-0.4
				c-0.4-0.3-0.8-0.6-1.3-0.9c0,0,0-0.2,0-0.3c0.2-0.1,0.4-0.1,0.5-0.3c0.5-0.6,1.1-0.8,1.8-0.9c0.1,0,0.2-0.1,0.3-0.1
				c0.4-0.3,0.7-0.6,1.1-0.9c0.1-0.1,0.2-0.1,0.4-0.1c0.8,0.1,1.4-0.2,2-0.7C22.5,110.4,22.7,110.4,22.8,110.3z"/>
		</g>
	</g>
</g>
</svg>
