<?xml version="1.0" encoding="utf-8"?>
<!-- Generator: Adobe Illustrator 22.1.0, SVG Export Plug-In . SVG Version: 6.00 Build 0)  -->
<svg version="1.1" id="レイヤー_1" xmlns="http://www.w3.org/2000/svg" xmlns:xlink="http://www.w3.org/1999/xlink" x="0px"
	 y="0px" viewBox="0 0 14.903 24.451" enable-background="new 0 0 14.903 24.451" xml:space="preserve">
<g>
	<path fill="#E5E5CB" d="M7.176,22.404c-0.238-0.189-0.502-0.421-0.772-0.683c-1.088-1.039-2.388-2.658-2.388-4.462
		c0-2.087,1.349-3.436,3.436-3.436c2.087,0,3.436,1.349,3.436,3.436c0,1.804-1.3,3.423-2.39,4.464
		c-0.268,0.26-0.532,0.491-0.769,0.68l-0.276,0.22L7.176,22.404z"/>
	<path fill="#231815" d="M10.443,17.26c0-1.806-1.126-2.992-2.992-2.992S4.46,15.454,4.46,17.26c0,1.568,1.104,3.046,2.253,4.142
		c0.259,0.251,0.511,0.472,0.739,0.653c0.228-0.181,0.48-0.402,0.739-0.653C9.34,20.306,10.443,18.828,10.443,17.26z"/>
</g>
<g>
	<path fill="#D8D8C0" d="M7.67,18.693c0,0.001-0.001,0.005-0.002,0.009c-0.021,0.016-0.035,0.04-0.055,0.056
		c-0.005,0.004-0.011,0.006-0.018,0.01c-0.002,0.011-0.005,0.022-0.021,0.023c-0.004,0-0.007,0.005-0.01,0.008
		c-0.004,0.003-0.009,0.007-0.014,0.009c-0.014,0.006-0.015,0.017-0.012,0.033c0.009-0.003,0.018-0.004,0.026-0.008
		c0.01-0.005,0.021-0.011,0.028-0.02c0.011-0.013,0.024-0.018,0.038-0.023c0.005-0.002,0.009-0.008,0.014-0.012
		c0.003-0.003,0.006-0.005,0.01-0.007c0.007-0.004,0.013-0.007,0.019-0.012c0.013-0.005,0.025-0.01,0.038-0.015
		c0.006-0.002,0.012-0.004,0.018-0.006c0.006-0.002,0.011-0.004,0.017-0.005c0.005-0.001,0.011,0,0.016,0
		c0.003,0,0.006,0.005,0.008,0.004c0.017-0.004,0.036-0.004,0.052-0.015c0.005-0.004,0.018-0.002,0.024,0.002
		c0.007,0.006,0.012,0.007,0.018,0c0.009-0.009,0.018-0.01,0.026,0.001c0.001,0.001,0.002,0.003,0.002,0.002
		c0.017-0.004,0.026,0.012,0.04,0.017c0.007,0.002,0.012,0.012,0.019,0.017c0.013,0.009,0.017,0.023,0.022,0.037
		c0,0.001,0,0.001,0,0.002c0.014,0.012,0.019,0.027,0.019,0.045c0,0.006,0.005,0.012,0.005,0.019
		c0.001,0.029-0.001,0.059,0.001,0.088c0.001,0.013,0.008,0.025,0.013,0.04c-0.007,0.011-0.016,0.026-0.026,0.043
		c-0.021,0.004-0.037,0.026-0.038,0.05c-0.002,0.028-0.006,0.057-0.009,0.085c-0.021,0.005-0.04,0.025-0.043,0.045
		c-0.005,0.002-0.013,0.002-0.015,0.005c-0.006,0.012-0.012,0.024-0.015,0.037c-0.001,0.005,0.007,0.013,0.012,0.017
		c0.008,0.006,0.018,0.01,0.026,0.014c0.002,0.001,0.004,0.004,0.005,0.004c0.022-0.005,0.04,0.008,0.057,0.018
		c0.022,0.013,0.047,0.013,0.069,0.024c0.024,0.012,0.05,0.018,0.075,0.026c0.02,0.006,0.039,0.016,0.058,0.024
		c0.004,0.002,0.009,0.001,0.013,0.002c0.01,0.001,0.022-0.005,0.028,0.009c0.001,0.002,0.007,0.001,0.011,0.001
		c0.029,0.003,0.059,0.004,0.088,0.008c0.013,0.002,0.025,0.009,0.039,0.014c0.005-0.005,0.011-0.017,0.021,0
		c0.003,0.005,0.013,0.009,0.02,0.01c0.028,0.003,0.056,0.005,0.084,0.008c0.008,0.001,0.017-0.004,0.022,0.008
		c0.001,0.002,0.009,0.002,0.015,0.002c0.023,0.003,0.046,0.007,0.069,0.009c0.024,0.001,0.049-0.003,0.072,0.002
		c0.011,0.002,0.028,0,0.036,0.015c0,0.001,0.002,0.001,0.003,0.001c0.023-0.004,0.041,0.012,0.064,0.018
		c-0.003,0.008-0.005,0.018-0.01,0.025c-0.011,0.016-0.009,0.04-0.03,0.051c-0.006,0.003-0.008,0.013-0.011,0.021
		c-0.004,0.012-0.006,0.025-0.009,0.037c-0.001-0.001-0.002-0.002-0.004-0.003c-0.005,0.006-0.009,0.012-0.014,0.017
		c-0.01,0.008-0.02,0.016-0.031,0.021c-0.017,0.007-0.035,0.012-0.052,0.022c-0.008,0.005-0.021,0.003-0.032,0.005
		c-0.003,0.009-0.005,0.02-0.011,0.029c-0.004,0.006-0.012,0.01-0.018,0.015c-0.001,0.001-0.003,0-0.003,0.001
		c-0.029,0.028-0.065,0.01-0.098,0.012c-0.018,0.001-0.04-0.005-0.056-0.015c-0.014-0.008-0.026-0.008-0.04-0.009
		C8.33,19.711,8.327,19.7,8.322,19.691c-0.003-0.005-0.01-0.007-0.016-0.01c-0.006-0.003-0.013-0.005-0.022-0.008
		c-0.004,0.006-0.01,0.014-0.021-0.001c-0.006-0.008-0.023-0.008-0.036-0.009c-0.015-0.001-0.026-0.005-0.038-0.015
		c-0.01-0.009-0.025-0.012-0.037-0.02c-0.008-0.005-0.015-0.013-0.022-0.019c-0.002-0.002-0.005-0.004-0.008-0.005
		C8.112,19.599,8.1,19.597,8.09,19.59c-0.018-0.012-0.037-0.025-0.051-0.043c-0.009-0.011-0.027-0.012-0.04-0.021
		c-0.019-0.012-0.041-0.019-0.059-0.035c-0.013-0.012-0.028-0.027-0.051-0.027c-0.017,0-0.038-0.006-0.052-0.022
		c-0.002-0.002-0.007-0.003-0.011-0.003c-0.015,0.002-0.026-0.005-0.038-0.012c-0.019-0.012-0.04-0.002-0.044,0.018
		c-0.018,0.01-0.033,0.02-0.05,0.028c-0.011,0.005-0.023,0.007-0.034,0.011c-0.009,0.003-0.018,0.007-0.026,0.006
		c-0.015-0.001-0.023,0.008-0.032,0.016c-0.003,0.003-0.01,0.003-0.015,0.003c-0.034,0-0.069,0.001-0.103,0
		c-0.014,0-0.027-0.005-0.036-0.017c-0.002-0.003-0.002-0.006-0.004-0.009c-0.007-0.015-0.045-0.023-0.057-0.013
		c-0.004,0.003-0.009,0.007-0.014,0.007c-0.028,0.001-0.056,0.001-0.084,0c-0.006,0-0.011-0.004-0.018-0.007
		c-0.004,0.002-0.01,0.006-0.017,0.009c-0.004-0.01-0.007-0.017-0.01-0.026c0.005-0.011,0.015-0.015,0.028-0.014
		c0.005,0.001,0.012-0.001,0.014-0.004c0.008-0.012,0.019-0.013,0.03-0.01c0.015,0.004,0.023-0.008,0.033-0.013
		c0.019-0.009,0.035-0.025,0.053-0.036c0.018-0.011,0.037-0.019,0.055-0.029c0.009-0.006,0.016-0.014,0.026-0.023
		c0.016,0.019,0.034-0.007,0.054-0.002c0-0.009,0-0.016,0-0.024c-0.005-0.001-0.01-0.002-0.015-0.003c0,0-0.001-0.001-0.001-0.001
		c-0.003-0.027-0.028-0.033-0.045-0.045c-0.016-0.012-0.036-0.018-0.053-0.029c-0.011-0.008-0.018-0.021-0.024-0.034
		c-0.01-0.004-0.019-0.008-0.03-0.012c0-0.009,0-0.018,0-0.032c0.014,0.006,0.025,0.011,0.035,0.015
		c0.017-0.004,0.034-0.008,0.05-0.012c0.014-0.003,0.031,0.009,0.042-0.009c0.032,0,0.064,0,0.096,0.001
		c0.005,0,0.009,0.006,0.014,0.008c0.013,0.005,0.022-0.004,0.028-0.012c0.008-0.011,0.013-0.025,0.02-0.039
		c0.004,0,0.008-0.001,0.015-0.002c0-0.008,0-0.015,0-0.022c0-0.003-0.001-0.008,0-0.008c0.021-0.013,0.017-0.039,0.03-0.057
		c0.001-0.001,0.002-0.001,0.002-0.002c0.004-0.016,0.007-0.031,0.011-0.047c0.001-0.002,0-0.006,0.001-0.007
		c0.025-0.019,0.007-0.046,0.015-0.07c-0.018,0.002-0.033-0.005-0.047,0.009c-0.01,0.009-0.026,0.013-0.04,0.015
		c-0.02,0.003-0.024,0.023-0.039,0.03c-0.007,0.004-0.014,0.009-0.021,0.014c-0.004,0.003-0.009,0.006-0.011,0.01
		c-0.019,0.027-0.045,0.045-0.078,0.049c-0.01,0.02-0.033,0.003-0.046,0.017c-0.003,0.003-0.012,0-0.018,0.001
		c-0.007,0.001-0.013,0.004-0.02,0.006c-0.005,0.001-0.011,0.002-0.014,0c-0.01-0.006-0.019-0.015-0.029-0.022
		c-0.003-0.002-0.009-0.002-0.015-0.003c0.009-0.009,0.015-0.019,0.024-0.025c0.011-0.008,0.012-0.018,0.011-0.03
		c-0.001-0.011,0-0.021,0.01-0.027C7.397,18.918,7.4,18.915,7.4,18.913c-0.001-0.028,0.014-0.047,0.033-0.065
		c0.006-0.006,0.008-0.015,0.011-0.023c0.001-0.003,0.001-0.006,0.003-0.008c0.009-0.012,0.017-0.023,0.026-0.035
		c0,0,0.001-0.001,0.001-0.001c-0.002-0.027,0.03-0.04,0.027-0.068c0-0.002,0.002-0.005,0.004-0.007
		c0.009-0.01,0.008-0.013-0.003-0.021c0.013-0.011,0.013-0.016-0.001-0.026c-0.013-0.009-0.025-0.017-0.043-0.015
		c-0.006,0.001-0.013-0.004-0.019-0.007c-0.006-0.003-0.012-0.008-0.019-0.013c-0.006-0.012-0.013-0.028-0.019-0.042
		c0.01-0.005,0.018-0.011,0.027-0.014c0.012-0.004,0.017-0.011,0.017-0.023c0.016-0.004,0.031-0.022,0.03-0.036
		c-0.005,0-0.01-0.001-0.015-0.001c-0.036-0.002-0.073-0.005-0.109-0.007c-0.011-0.001-0.021-0.022-0.013-0.035
		c0.002-0.004,0.005-0.009,0.004-0.012c-0.009-0.021,0.004-0.041,0-0.061c-0.001-0.007-0.005-0.017-0.011-0.019
		c-0.005-0.003-0.014,0.003-0.021,0.004c-0.02,0.003-0.028,0.022-0.043,0.032c-0.005,0.003-0.01,0.004-0.016,0.007
		c-0.031,0.057-0.022,0.113,0.016,0.165c-0.005,0.01-0.021,0.012-0.017,0.027c0.001,0.003,0.001,0.007,0.003,0.01
		c0.011,0.014,0.009,0.024,0,0.039c-0.007,0.013-0.013,0.026-0.027,0.034c-0.007,0.004-0.013,0.01-0.019,0.014
		c-0.003,0.002-0.009,0.002-0.01,0c-0.017-0.022-0.026,0.002-0.038,0.006c-0.005,0.002-0.011,0-0.016,0
		c-0.008-0.001-0.016-0.004-0.023-0.003c-0.011,0.002-0.021,0.006-0.033,0.01c-0.001-0.01-0.002-0.015-0.003-0.019
		c-0.013-0.004-0.026-0.008-0.041-0.012c0.002-0.016-0.004-0.028-0.022-0.035c0.005-0.004,0.008-0.007,0.01-0.008
		c-0.003-0.008-0.006-0.015-0.009-0.022c-0.009-0.019-0.007-0.039,0.007-0.053c0.002-0.002,0.004-0.005,0.005-0.008
		c0.003-0.015,0.007-0.03,0.008-0.046c0.001-0.016,0-0.033,0.001-0.049c0-0.001,0-0.002,0.001-0.005
		c0.005-0.001,0.01-0.003,0.016-0.005c0-0.029-0.001-0.058,0-0.086c0.001-0.013,0.005-0.026,0.009-0.039
		c0.002-0.006,0.005-0.012,0.005-0.018c-0.001-0.013,0.003-0.023,0.011-0.033c0.006-0.009,0.005-0.023,0.007-0.035
		c0.001-0.007,0.003-0.015,0.007-0.019c0.003-0.003,0.012-0.005,0.016-0.003c0.018,0.008,0.018,0.008,0.021-0.011
		c0.004,0,0.007-0.001,0.011-0.001c0.003,0,0.007,0,0.013,0.001c-0.008,0.023,0.009,0.038,0.017,0.058
		c0.009,0.004,0.02,0.008,0.031,0.012c0.006,0.025,0.028,0.031,0.048,0.015c0.01-0.007,0.021-0.012,0.032-0.018
		c0.002-0.001,0.004-0.003,0.006-0.005c0.012-0.014,0.028-0.02,0.043-0.029c0.014-0.008,0.027-0.016,0.044-0.017
		c0.003,0,0.007-0.004,0.009-0.007c0.008-0.018,0.022-0.02,0.039-0.019c0.008,0.001,0.031-0.009,0.042-0.016
		c0.001-0.001,0.003-0.001,0.005-0.001c0.011-0.003,0.023-0.003,0.033-0.008c0.022-0.011,0.045-0.005,0.068-0.007
		c0.006-0.001,0.012-0.005,0.018-0.008c0.01-0.003,0.019-0.007,0.029-0.009c0.012-0.003,0.025-0.004,0.037-0.008
		c0.018-0.006,0.035-0.015,0.053-0.023c0.002-0.001,0.003-0.003,0.005-0.003c0.016-0.006,0.032-0.012,0.047-0.017
		c0.001,0,0.001,0,0.002,0c0.021-0.003,0.042-0.005,0.063-0.008c0.009-0.001,0.021,0.005,0.026-0.009
		c0-0.001,0.003-0.001,0.005-0.001c0.017-0.002,0.034-0.005,0.05-0.008c0.003-0.001,0.008-0.002,0.01-0.005
		c0.009-0.013,0.022-0.012,0.035-0.013c0.02-0.001,0.041,0.007,0.06-0.005c0.001-0.001,0.004,0.002,0.007,0.003
		c0.004,0.001,0.009,0.003,0.013,0.002c0.012-0.002,0.024-0.004,0.035-0.007c0.021-0.005,0.042-0.011,0.064-0.01
		c0.004,0,0.011-0.01,0.014-0.008c0.009,0.003,0.018,0.009,0.026,0.015c0.007,0.006,0.014,0.01,0.023,0.011
		c0.009,0.001,0.017,0.007,0.025,0.012c0.013,0.007,0.024,0.019,0.038,0.021c0.014,0.003,0.025,0.009,0.037,0.016
		c0.017,0.011,0.032,0.022,0.047,0.035c0.023,0.02,0.036,0.047,0.056,0.069c0.012,0.013,0.016,0.034,0.024,0.052
		c0.004,0.008,0.006,0.019,0.012,0.025c0.018,0.019,0.033,0.039,0.031,0.068c0,0.006,0.004,0.013,0.007,0.018
		c0.011,0.019,0.006,0.04,0.007,0.061c0.001,0.007,0.004,0.014,0.006,0.023c-0.024,0.009-0.034,0.035-0.045,0.059
		c-0.007,0.015-0.014,0.02-0.028,0.02c-0.005,0-0.009,0-0.015,0.001c-0.001,0.005-0.002,0.01-0.003,0.017
		c-0.009,0-0.018,0.001-0.026,0.001c-0.005,0.012-0.01,0.024-0.015,0.035c-0.005,0.01-0.026,0.014-0.035,0.008
		c-0.004-0.002-0.011-0.002-0.015,0c-0.005,0.002-0.009,0.007-0.013,0.011c0.01,0.02,0.004,0.04-0.019,0.048
		c-0.011,0.004-0.022,0.005-0.033,0.008c-0.011,0.003-0.022,0.006-0.032,0.009c-0.004-0.014-0.004-0.014-0.041-0.018
		c-0.005-0.011-0.01-0.021-0.016-0.034c-0.023,0.008-0.028-0.014-0.034-0.029c-0.007-0.019-0.018-0.024-0.036-0.024
		c-0.008,0-0.017-0.005-0.025-0.008c-0.027-0.01-0.053-0.014-0.079,0.005c-0.003,0.002-0.009,0.003-0.012,0.002
		c-0.014-0.009-0.026-0.008-0.04,0c-0.009,0.005-0.022-0.002-0.029,0.011c-0.001,0.002-0.012,0.002-0.02-0.005
		c-0.007-0.007-0.028-0.008-0.036-0.002c-0.014,0.01-0.027,0.013-0.043,0.016c-0.011,0.002-0.022,0.009-0.03,0.016
		c-0.014,0.014-0.038,0.017-0.044,0.041c-0.001,0.004-0.009,0.008-0.015,0.01c-0.009,0.005-0.013,0.011-0.016,0.022
		C7.692,18.683,7.68,18.686,7.67,18.693z M7.879,18.454c0.008,0.004,0.016,0.011,0.022,0.01c0.033-0.004,0.073,0.019,0.097-0.023
		C7.998,18.44,8,18.44,8.001,18.44c0.021-0.007,0.039-0.019,0.054-0.036c0.004-0.005,0.01-0.01,0.015-0.014
		c0.01-0.008,0.02-0.016,0.03-0.024c0.009-0.007,0.019-0.014,0.031-0.024c0-0.001,0.001-0.006,0.001-0.01
		c0.006-0.001,0.011-0.002,0.012-0.002c0.017-0.02,0.003-0.038,0.003-0.053c-0.008-0.007-0.018-0.011-0.02-0.016
		c-0.005-0.025-0.037-0.03-0.039-0.057c-0.016-0.004-0.016-0.03-0.037-0.028c-0.003,0-0.006-0.004-0.008-0.007
		c-0.008-0.013-0.022-0.017-0.035-0.016c-0.019,0-0.038,0.006-0.057,0.006c-0.025,0-0.044,0.008-0.054,0.031
		c0.006,0.007,0.015,0.013,0.017,0.021c0.004,0.028,0,0.054-0.019,0.077c-0.006,0.007-0.013,0.015-0.014,0.024
		c-0.004,0.019-0.016,0.025-0.027,0.028c-0.008,0.01-0.012,0.018-0.018,0.024c-0.017,0.019-0.035,0.039-0.03,0.067
		c0.026,0.003,0.05,0.006,0.074,0.008C7.878,18.446,7.879,18.451,7.879,18.454z M7.658,18.286c0.001,0,0.007-0.001,0.01-0.005
		c0.006-0.007,0.011-0.014,0.015-0.023c0.002-0.004,0.001-0.011-0.001-0.014c-0.01-0.012-0.02-0.019-0.032-0.002
		c-0.001,0.002-0.006,0.001-0.01,0.002c-0.005,0.001-0.009,0.003-0.013,0.004c-0.021,0.009-0.038,0.023-0.049,0.04
		c0.006,0.008,0.014,0.014,0.015,0.022c0.006,0.025,0.007,0.027,0.03,0.024C7.634,18.32,7.645,18.305,7.658,18.286z M7.138,18.303
		c0.004-0.005,0.007-0.009,0.011-0.013c-0.004-0.004-0.007-0.008-0.011-0.012c-0.005,0.004-0.01,0.008-0.015,0.012
		C7.128,18.295,7.133,18.299,7.138,18.303z"/>
	<path fill="#D8D8C0" d="M7.075,15.793c0.008-0.006,0.016-0.013,0-0.022c-0.002-0.001-0.002-0.006-0.002-0.009
		c0-0.003,0.001-0.009-0.001-0.01c-0.025-0.021-0.01-0.05-0.014-0.074c-0.001-0.004,0-0.008-0.001-0.013
		c-0.006-0.001-0.01-0.002-0.016-0.003c0-0.087,0-0.173,0-0.261c0.005-0.001,0.009-0.002,0.014-0.003
		c0.001-0.001,0.002-0.002,0.002-0.003c0.003-0.022,0.002-0.045,0.009-0.065c0.008-0.022,0.003-0.044,0.006-0.066
		c0.002-0.012,0.007-0.023,0.011-0.034c0.004-0.012,0.012-0.023,0.012-0.035c0.001-0.012,0.009-0.018,0.014-0.026
		c0.01-0.016,0.018-0.034,0.023-0.053c0.003-0.012,0.001-0.026,0.012-0.035c0.002-0.002,0.003-0.006,0.003-0.009
		c0.001-0.01-0.003-0.019,0.009-0.027c0.005-0.003,0.002-0.018,0.002-0.028c0.025-0.002,0.009-0.023,0.017-0.037
		c0.011,0,0.023,0,0.035,0c0.012,0,0.024,0,0.037,0c-0.004,0.019,0.007,0.029,0.018,0.039c0.013,0.013,0.027,0.026,0.041,0.039
		c0.001,0.001,0.002,0.004,0.003,0.005c0.003,0.005,0.006,0.01,0.012,0.019c0.015,0.026,0.032,0.056,0.048,0.084
		c0.022,0.011,0.04,0.025,0.048,0.049c0.001,0.002,0.001,0.003,0.002,0.005c0.012,0.014,0.026,0.027,0.037,0.042
		c0.008,0.012,0.013,0.026,0.019,0.039c0.005,0.01,0.009,0.02,0.014,0.03c0.001,0.003,0.003,0.006,0.004,0.009
		c0.001,0.019,0.003,0.038,0.017,0.054c0.002,0.002,0.001,0.008,0.001,0.012c0.002,0.017-0.001,0.034,0.006,0.052
		c0.007,0.018-0.003,0.036-0.013,0.054c-0.006,0.011-0.008,0.025-0.01,0.038c-0.002,0.015-0.003,0.031,0,0.045
		c0.007,0.029,0.006,0.058,0.007,0.087c0,0.005,0.007,0.009,0.009,0.014c0.004,0.011,0.007,0.021,0.002,0.035
		c-0.006,0.015-0.001,0.033-0.001,0.05c0,0.007,0.004,0.017-0.008,0.02c-0.001,0-0.001,0.005-0.002,0.008
		c-0.002,0.011-0.002,0.024-0.008,0.033c-0.01,0.018-0.006,0.036-0.006,0.054c-0.001,0.025,0,0.025-0.019,0.031
		C7.46,15.94,7.454,15.949,7.45,15.96c-0.004,0.011-0.003,0.024-0.009,0.034c-0.005,0.009-0.018,0.011-0.017,0.026
		c0,0.009-0.005,0.018-0.008,0.026c-0.001,0.001-0.004,0.002-0.004,0.003c-0.004,0.015-0.008,0.03-0.012,0.045
		c-0.004,0.013-0.008,0.026-0.012,0.039c-0.001,0.003-0.002,0.007-0.002,0.01c0.002,0.024-0.006,0.043-0.023,0.059
		c-0.003,0.003-0.004,0.012-0.002,0.014c0.018,0.021,0.002,0.037-0.007,0.055c-0.002,0.004-0.003,0.01-0.003,0.015
		c0,0.024-0.001,0.048,0,0.072c0.001,0.013,0.003,0.029,0.011,0.039c0.009,0.011,0.007,0.016-0.004,0.023
		c0.009,0.008,0.015,0.013,0.004,0.024c-0.005,0.005,0,0.018-0.003,0.027c-0.002,0.007-0.006,0.017-0.012,0.02
		c-0.016,0.007-0.033,0.01-0.053,0.015c-0.003,0.01-0.007,0.018-0.023,0.006c-0.008-0.006-0.023-0.002-0.034-0.003
		c-0.008-0.02-0.022-0.033-0.04-0.042c-0.013-0.007-0.026-0.016-0.04-0.023c-0.002-0.001-0.005-0.003-0.008-0.003
		c-0.019-0.002-0.038-0.004-0.057-0.005c-0.009-0.031-0.024-0.053-0.045-0.062c-0.01-0.015-0.017-0.026-0.024-0.036
		c-0.001-0.001-0.003-0.003-0.003-0.004c-0.003-0.021-0.007-0.042-0.007-0.062c0-0.016,0.006-0.032,0.01-0.049
		c0.003-0.001,0.007-0.001,0.013-0.003c0.001-0.005,0.002-0.01,0.003-0.016c0.005-0.001,0.01-0.002,0.016-0.004
		c0-0.011-0.001-0.022,0-0.033c0.002-0.014,0.003-0.029,0.01-0.04c0.009-0.015,0.004-0.019-0.009-0.022
		c-0.004-0.013-0.001-0.023,0.009-0.031c0.003-0.003,0.004-0.01,0.004-0.015c0-0.049,0-0.097,0-0.146
		c0-0.007-0.003-0.017,0.008-0.02c0.002,0,0.002-0.006,0.002-0.01c0-0.024,0.001-0.048,0-0.072
		C7.082,15.804,7.078,15.799,7.075,15.793z"/>
	<path fill="#D8D8C0" d="M6.685,18.186c-0.005,0.011-0.01,0.02-0.015,0.029c-0.003,0.006-0.006,0.013-0.007,0.02
		C6.66,18.25,6.661,18.267,6.654,18.28c-0.006,0.012-0.019,0.019-0.029,0.028c-0.002-0.001-0.003-0.002-0.005-0.003
		c0,0.007,0.001,0.014,0,0.021c-0.001,0.008-0.006,0.015-0.007,0.023c-0.002,0.012-0.007,0.025,0.007,0.035
		c-0.008,0.009-0.016,0.017-0.023,0.025c0.007,0.011,0.015,0.023,0.022,0.035c0.002,0.004,0.003,0.012,0,0.015
		c-0.013,0.013-0.004,0.03-0.008,0.044c-0.014,0.049-0.002,0.099-0.008,0.148c-0.001,0.013-0.006,0.028-0.011,0.039
		c-0.009,0.021-0.014,0.041-0.012,0.064c-0.006,0.001-0.01,0.002-0.017,0.003c0,0.009,0,0.019,0,0.029
		c-0.006,0.002-0.012,0.003-0.019,0.005c-0.003,0.02-0.001,0.042-0.01,0.06c-0.01,0.021-0.002,0.042-0.008,0.064
		c-0.006,0.001-0.013,0.001-0.022,0.002c0,0.005-0.001,0.01-0.001,0.016c0.008,0.001,0.015,0.001,0.024,0.002
		c0,0.006,0,0.012,0.001,0.018c0.002,0.022,0.001,0.046,0.009,0.067c0.005,0.015,0.006,0.028,0.007,0.043
		c0,0.003,0.001,0.007,0.003,0.007c0.014,0.006,0.017,0.017,0.014,0.032c0.006,0.001,0.011,0.002,0.016,0.003
		c0.001,0.002,0.002,0.003,0.002,0.005c0.003,0.038,0.005,0.076,0.007,0.115c0.001,0.013-0.005,0.025,0,0.038
		c0.013,0.032-0.001,0.068,0.009,0.098c0.017,0.053,0.003,0.106,0.009,0.158c0.001,0.01,0.002,0.022,0.009,0.028
		c0.009,0.009,0.007,0.019,0.007,0.029c0,0.05,0,0.101,0,0.151c0,0.006,0,0.011-0.004,0.019c-0.011-0.012-0.022-0.025-0.035-0.04
		c0-0.003-0.001-0.011-0.001-0.019c-0.005-0.001-0.01-0.002-0.016-0.003c0-0.007-0.001-0.014-0.001-0.022
		c-0.04,0.002-0.043-0.034-0.062-0.06c-0.008-0.004-0.019-0.009-0.03-0.015c-0.004-0.002-0.008-0.007-0.008-0.011
		c-0.002-0.017-0.002-0.034-0.006-0.052c-0.004-0.015,0.008-0.034,0.012-0.052c0.001-0.003,0.002-0.007,0.002-0.01
		c0.002-0.013-0.003-0.025,0.008-0.038c0.005-0.006,0.008-0.026-0.005-0.039c-0.005-0.005-0.006-0.023-0.001-0.029
		c0.02-0.028,0.015-0.06,0.015-0.091c0-0.003-0.003-0.006-0.005-0.008c-0.012-0.007-0.009-0.019-0.013-0.03
		c-0.009-0.03-0.004-0.06-0.01-0.089c-0.002-0.011,0.001-0.029-0.015-0.037c-0.002-0.001-0.001-0.008-0.001-0.012
		c0.002-0.017-0.005-0.03-0.012-0.044c-0.002-0.003-0.002-0.008-0.002-0.012c0-0.009-0.001-0.018,0-0.026
		c0.002-0.027,0.005-0.054,0.008-0.08c0.008,0.003,0.018,0.009,0.02,0.007c0.006-0.006,0.01-0.015,0.013-0.023
		c0.003-0.007,0.003-0.015,0.007-0.022c-0.005-0.013-0.017-0.015-0.031-0.015c-0.005,0-0.011-0.006-0.012-0.007
		c0.001-0.015,0.003-0.027,0.003-0.039c0-0.013,0.002-0.025,0.015-0.031c0.015-0.007,0.015-0.051,0-0.058
		c-0.013-0.006-0.009-0.017-0.005-0.023c0.01-0.019,0.009-0.024-0.012-0.03c-0.001,0-0.002-0.001-0.005-0.003
		c0.003-0.012,0.006-0.025,0.008-0.038c0.003-0.013,0-0.026,0.006-0.04c0.012-0.029,0.026-0.059,0.02-0.093
		c-0.002-0.009,0.006-0.02,0.01-0.03c0.002-0.006,0.007-0.011,0.007-0.017c0.003-0.026,0.005-0.053,0.008-0.08
		c0.001-0.012,0.003-0.024,0.008-0.034c0.005-0.009,0.014-0.015,0.023-0.024c-0.007,0-0.014-0.001-0.021-0.001
		c-0.006-0.019-0.002-0.021,0.036-0.026c0.003-0.01,0.005-0.02,0.008-0.029c0.001,0,0.002,0,0.003,0.001c0-0.001,0-0.001,0-0.002
		c-0.008-0.016-0.018-0.031-0.024-0.047c-0.002-0.005,0.003-0.013,0.006-0.023c-0.005-0.004-0.016-0.011,0.002-0.022
		c0.003-0.002,0.002-0.013,0.003-0.021c0.004-0.001,0.009-0.002,0.015-0.004c0-0.024,0-0.049,0-0.073
		c0.007-0.001,0.012-0.003,0.017-0.004c0-0.001,0-0.002,0-0.003c-0.005-0.001-0.01-0.002-0.017-0.004c0-0.022,0-0.045,0-0.067
		c0-0.002,0.001-0.006,0.003-0.007c0.016-0.006,0.014-0.02,0.014-0.033c0-0.022,0-0.044,0-0.068
		c0.006-0.001,0.011-0.003,0.017-0.004c0-0.018,0-0.036,0-0.054c0.002,0.001,0.004,0.001,0.005,0.002
		c0.003-0.007,0.008-0.013,0.009-0.02c0.002-0.01,0.001-0.02,0-0.03c0-0.008,0.001-0.015,0.009-0.02
		c0.004-0.003,0.005-0.011,0.008-0.017c0.009-0.016,0.009-0.033,0.009-0.051c0-0.002,0.002-0.005,0.003-0.006
		c0.013-0.006,0.016-0.018,0.014-0.032c0.006-0.001,0.011-0.001,0.014-0.002c0.01-0.026,0.019-0.05,0.029-0.076
		c0.014,0,0.028,0,0.034-0.02c0.009,0.015,0.031,0.019,0.021,0.043c0.007,0.001,0.012,0.002,0.017,0.003
		c0.002,0.006,0.003,0.013,0.007,0.017c0.018,0.017,0.028,0.039,0.037,0.062c0.003,0.008,0.01,0.014,0.017,0.02
		c0.014,0.011,0.021,0.025,0.016,0.045c0.016,0.001,0.017,0.011,0.016,0.022c-0.001,0.01-0.004,0.025,0.001,0.029
		c0.018,0.016,0.002,0.04,0.015,0.056c0.002,0.003-0.002,0.016-0.006,0.019c-0.011,0.007-0.009,0.017-0.01,0.027
		c0,0.01,0.004,0.023-0.015,0.018c0,0.013,0,0.023,0,0.034c-0.006,0.001-0.011,0.002-0.017,0.003c0,0.014-0.001,0.027-0.016,0.034
		C6.794,18,6.793,18.01,6.789,18.016c-0.004,0.006-0.009,0.011-0.014,0.017c-0.001-0.001-0.003-0.002-0.004-0.002
		c0,0.006-0.001,0.011-0.001,0.017c-0.001,0.008,0.003,0.019-0.011,0.018c-0.005,0.018-0.035,0.017-0.029,0.044
		c0.001,0.004-0.009,0.01-0.014,0.015c-0.014,0.013-0.026,0.026-0.022,0.047C6.695,18.176,6.687,18.182,6.685,18.186z M6.582,18.285
		c-0.01-0.014-0.01-0.014-0.019-0.013c-0.002,0.015-0.003,0.03-0.005,0.045c0,0.01-0.02,0.012-0.013,0.026
		c0.006,0.012,0.019,0.015,0.033,0.01C6.58,18.332,6.581,18.311,6.582,18.285z M6.544,18.389c0,0.002,0,0.004,0,0.006
		c0.012,0.004,0.016,0.023,0.035,0.017c0-0.01,0-0.019,0-0.034C6.566,18.382,6.555,18.386,6.544,18.389z"/>
	<path fill="#D8D8C0" d="M7.803,17.843c-0.015,0.014-0.026,0.027-0.033,0.045c-0.004,0.011-0.01,0.021-0.015,0.031
		c-0.001,0.002-0.003,0.005-0.004,0.007c-0.003,0.014-0.005,0.028-0.008,0.043c-0.006,0.001-0.01,0.002-0.011,0.002
		c-0.008,0.011-0.016,0.018-0.019,0.027c-0.012,0.027-0.029,0.045-0.066,0.041c0.006,0.01,0.009,0.016,0.014,0.024
		C7.64,18.066,7.618,18.069,7.6,18.071c-0.008-0.009-0.015-0.017-0.022-0.025c-0.003-0.004-0.007-0.007-0.009-0.012
		c-0.008-0.022-0.023-0.027-0.043-0.016c-0.01,0.005-0.023,0.005-0.032,0.011c-0.011,0.008-0.022,0.011-0.035,0.01
		c-0.003,0-0.007,0.005-0.01,0.007c-0.006,0.004-0.013,0.008-0.023,0.014c0,0.001-0.001,0.006-0.002,0.011
		c-0.007-0.003-0.014-0.006-0.023-0.009c-0.002-0.007,0.002-0.02-0.016-0.015c0.005-0.023-0.005-0.039-0.015-0.054
		c-0.002-0.003-0.001-0.008-0.002-0.012c0-0.018,0.001-0.035,0-0.053c-0.002-0.029-0.005-0.059-0.009-0.088
		c-0.001-0.006-0.005-0.013-0.009-0.018c-0.013-0.014-0.006-0.03-0.008-0.046c-0.001-0.005-0.003-0.012-0.006-0.014
		c-0.011-0.007-0.011-0.016-0.011-0.027c0-0.006-0.003-0.013-0.007-0.018c-0.012-0.013-0.025-0.024-0.037-0.036
		c-0.002,0.001-0.005,0.001-0.007,0.002c0.003-0.008,0.007-0.015,0.01-0.023c0.001-0.004,0.003-0.008,0.002-0.012
		c-0.004-0.032,0.037-0.059,0.068-0.042c0.017,0.009,0.034,0.024,0.057,0.021c0.006-0.001,0.014,0.006,0.021,0.008
		c0.011,0.004,0.023,0.007,0.037,0.011c0,0.001,0.001,0.006,0.002,0.01c0.007,0.004,0.015,0.006,0.019,0.011
		c0.009,0.012,0.016,0.016,0.025,0c0.003-0.005,0.011-0.007,0.017-0.008c0.018-0.001,0.037-0.001,0.055,0
		c0.008,0,0.018,0.003,0.022,0.008c0.007,0.01,0.015,0.008,0.023,0.009c0.017,0.002,0.034,0.005,0.051,0.007
		c0.012,0.001,0.015-0.01,0.021-0.016c0.017-0.017,0.002-0.04,0.015-0.057c0.003-0.004-0.005-0.018-0.007-0.026
		c-0.015-0.004-0.031-0.004-0.042-0.012c-0.018-0.014-0.037-0.01-0.055-0.009C7.6,17.569,7.586,17.577,7.57,17.582
		c-0.004-0.008-0.022-0.013-0.018-0.031c0.001-0.006,0.007-0.011,0.01-0.018c0.005-0.015,0.01-0.03,0.015-0.045
		c0.001-0.003,0.005-0.004,0.006-0.007c0.004-0.006,0.007-0.012,0.011-0.018c0.011-0.015,0.021-0.031,0.042-0.036
		c-0.002-0.016,0.013-0.017,0.023-0.023c0.001-0.001,0.004,0,0.005,0c0.01-0.013,0.026-0.017,0.04-0.023
		c0.009-0.004,0.018-0.007,0.027-0.011c0.002-0.001,0.006-0.001,0.006-0.002c0.008-0.021,0.025-0.015,0.04-0.016
		c0.017,0,0.032-0.002,0.046-0.016c0.007-0.007,0.02-0.007,0.031-0.009c0.012-0.002,0.019,0.004,0.027,0.015
		c0.006,0.008,0.02,0.01,0.026,0.012c0.012,0.017,0.022,0.033,0.034,0.046c0.009,0.01,0.01,0.017,0,0.025
		c0.007,0.007,0.011,0.014,0.002,0.023c-0.004,0.005-0.004,0.015-0.002,0.022c0.003,0.017-0.004,0.031-0.014,0.042
		c-0.011,0.011-0.012,0.023-0.012,0.037c0,0.012,0.001,0.025,0,0.037c-0.001,0.016,0.006,0.028,0.013,0.041
		c0.002,0.004,0.003,0.009,0.003,0.013c0,0.024,0.004,0.048-0.01,0.066c-0.013,0.009-0.024,0.016-0.035,0.024
		c-0.011,0.008-0.024,0.015-0.032,0.025c-0.01,0.012-0.018,0.026-0.024,0.041c-0.003,0.008-0.005,0.01-0.013,0.012
		C7.798,17.816,7.805,17.833,7.803,17.843z M7.52,17.774c-0.011,0.008-0.023,0.018-0.031,0.023c0.002,0.024,0.003,0.042,0.005,0.061
		c0.007,0,0.015,0,0.022,0c0.001-0.006,0.002-0.011,0.003-0.016c0.006-0.001,0.011-0.002,0.014-0.002
		C7.54,17.816,7.556,17.79,7.52,17.774z"/>
	<path fill="#D8D8C0" d="M8.477,15.861c0.005-0.003,0.01-0.006,0.015-0.007c0.007-0.002,0.016-0.006,0.022-0.003
		c0.01,0.005,0.019,0.013,0.029,0.02c0.001,0.001,0.001,0.002,0.002,0.003c0.007,0.008,0.01,0.054,0.009,0.064
		c-0.001,0.012-0.009,0.021-0.005,0.035c0.002,0.008-0.007,0.02-0.011,0.03c-0.004,0.012-0.008,0.025-0.012,0.037
		c-0.003,0.009-0.007,0.017-0.011,0.028c-0.009-0.008-0.003-0.027-0.021-0.019c-0.001,0.004-0.002,0.009-0.003,0.014
		c-0.017,0.009-0.018-0.012-0.029-0.016c-0.007,0.006-0.014,0.012-0.023,0.001c-0.002-0.003-0.011-0.003-0.015-0.001
		c-0.022,0.013-0.047,0.005-0.07,0.007c-0.003,0-0.007-0.001-0.008,0.001c-0.016,0.022-0.024,0.002-0.029-0.004
		c-0.01-0.001-0.015-0.003-0.021-0.003c-0.006-0.001-0.013-0.003-0.017,0c-0.014,0.011-0.029,0.005-0.044,0.007
		c-0.008,0.001-0.015-0.001-0.022,0.007c-0.005,0.005-0.024,0.003-0.031-0.003c-0.009-0.007-0.016-0.013-0.028-0.012
		c-0.013,0.001-0.024,0-0.033-0.014c-0.005-0.008-0.02-0.01-0.031-0.015c0.002-0.003,0.005-0.006,0.009-0.011
		c-0.005-0.003-0.01-0.006-0.016-0.01C8.082,15.997,8.079,16,8.076,16.003c-0.003-0.003-0.007-0.006-0.01-0.009
		c0.014-0.031-0.003-0.056-0.014-0.082c-0.007,0-0.014-0.001-0.02-0.001c-0.001-0.002-0.002-0.003-0.002-0.004
		c0.007-0.028-0.016-0.04-0.028-0.057C7.998,15.843,7.997,15.827,8,15.825c0.008-0.006,0.013-0.024,0.031-0.012
		c0.01,0.006,0.019,0.012,0.028,0.02c0.018,0.017,0.04,0.006,0.04-0.017c0.015,0,0.031,0.001,0.046,0
		c0.014-0.001,0.028,0.004,0.041-0.006c0.004-0.003,0.013-0.002,0.018,0.001c0.013,0.008,0.025,0.007,0.039,0
		c0.009-0.004,0.021-0.002,0.032-0.002c0.008,0,0.014,0,0.02-0.009c0.008-0.013,0.049-0.014,0.058-0.001
		c0.015,0.02,0.034,0.029,0.059,0.026c0.004-0.001,0.009,0.004,0.014,0.006c0.007,0.002,0.015,0.004,0.022,0.004
		C8.47,15.834,8.472,15.836,8.477,15.861z"/>
	<path fill="#D8D8C0" d="M6.322,16.132c0.003-0.001,0.008-0.001,0.013-0.002c-0.012-0.018-0.01-0.039,0.016-0.041
		c0.003-0.022,0.003-0.046,0.01-0.067c0.006-0.018,0.005-0.035,0.007-0.052c0.001-0.008,0.008-0.016,0.014-0.025
		c0.016-0.003,0.027-0.015,0.031-0.031c0.027-0.007,0.053-0.018,0.079-0.019c0.031-0.001,0.063-0.01,0.093,0.006
		c0.002,0.001,0.005,0.001,0.011,0.001c-0.005,0.021-0.011,0.041-0.013,0.061c-0.001,0.011,0.005,0.022,0.007,0.033
		c0.001,0.004,0.005,0.01,0.003,0.012c-0.013,0.018,0,0.029,0.009,0.042c0.005,0.008,0.007,0.02,0.009,0.03
		c0.004,0.032,0.006,0.064,0.009,0.096c0.001,0.007,0.005,0.014,0.009,0.02c0.002,0.004,0.008,0.008,0.008,0.012
		c0.001,0.04,0,0.079,0,0.119c-0.007,0.001-0.011,0.002-0.016,0.002c-0.003,0.019-0.018,0.031-0.041,0.032
		c-0.007,0-0.015-0.003-0.021,0.007c-0.002,0.003-0.018,0.005-0.02,0.001c-0.009-0.014-0.023-0.006-0.035-0.01
		c-0.001-0.007-0.001-0.014-0.002-0.023c-0.005-0.001-0.01-0.002-0.016-0.003c0-0.004-0.001-0.008-0.001-0.012
		c0-0.013-0.007-0.017-0.018-0.02c-0.014-0.004-0.027-0.01-0.041-0.015c-0.008-0.003-0.017-0.002-0.023-0.007
		c-0.007-0.006-0.011-0.016-0.017-0.024c-0.004-0.006-0.009-0.011-0.012-0.014c-0.008-0.007-0.016-0.011-0.019-0.017
		c-0.003-0.006-0.001-0.014,0.003-0.022c-0.003-0.004-0.007-0.007-0.01-0.011c-0.014,0.009-0.033,0.001-0.038-0.014
		c-0.001-0.002-0.001-0.005,0-0.007C6.314,16.159,6.318,16.147,6.322,16.132z"/>
	<path fill="#D8D8C0" d="M6.19,18.333c0.01-0.006,0.018-0.012,0.005-0.022c-0.003-0.002-0.004-0.006-0.005-0.01
		c-0.004-0.032,0.008-0.056,0.033-0.076c0.014-0.01,0.024-0.026,0.036-0.039c0.004-0.004,0.009-0.008,0.013-0.012
		c0.004-0.005,0.008-0.011,0.012-0.017c0.003-0.004,0.006-0.008,0.008-0.012c0.006-0.009,0.012-0.018,0.019-0.026
		c0.01-0.012,0.018-0.025,0.035-0.03c0.006-0.002,0.012-0.007,0.021-0.014c0,0.013,0,0.021,0,0.028c0,0.012,0.001,0.023,0.009,0.034
		c0.009,0.013,0.012,0.031,0.017,0.047c0.003,0.012-0.007,0.028,0.009,0.037c0.001,0,0.001,0.002,0.001,0.003
		c0.003,0.021,0.006,0.042,0.007,0.064c0.001,0.016,0.002,0.03,0.016,0.041c0.002,0.002,0.002,0.008,0.002,0.012
		c0,0.02-0.001,0.04,0,0.06c0.001,0.017,0.006,0.034,0.007,0.051c0.001,0.019-0.016,0.027-0.028,0.036
		c-0.008,0.006-0.024,0.006-0.034-0.005c-0.004-0.005-0.006-0.011-0.009-0.016c-0.006,0.003-0.012,0.007-0.019,0.011
		c-0.002-0.001-0.003-0.001-0.005-0.002c-0.002,0.016,0,0.034-0.006,0.049c-0.007,0.017,0,0.037-0.008,0.049
		c-0.012,0.018-0.002,0.04-0.015,0.056c-0.002,0.003-0.001,0.008-0.002,0.012c0,0.015-0.002,0.03,0,0.044
		c0.004,0.021-0.009,0.032-0.021,0.043c-0.004,0.004-0.015,0.004-0.019,0.001c-0.006-0.004-0.011-0.012-0.011-0.019
		c0-0.018-0.008-0.025-0.024-0.026c-0.005-0.029-0.04-0.074-0.057-0.075c-0.003,0.006-0.005,0.011-0.007,0.016
		c-0.007-0.014-0.015-0.025-0.019-0.038c-0.003-0.01-0.005-0.023-0.001-0.031c0.011-0.02,0.004-0.04,0.006-0.059
		c0.001-0.005-0.001-0.012,0.001-0.013c0.026-0.015,0.01-0.05,0.03-0.066c0.001-0.001,0.001-0.002,0-0.003
		c-0.003-0.019,0.006-0.032,0.016-0.046C6.212,18.363,6.202,18.34,6.19,18.333z"/>
	<path fill="#D8D8C0" d="M6.845,18.423c0,0.01,0.001,0.016,0.001,0.021C6.858,18.45,6.87,18.454,6.88,18.46
		c0.005,0.003,0.007,0.011,0.01,0.016c0.001,0.002,0.002,0.006,0.004,0.007c0.017,0.008,0.014,0.024,0.014,0.038
		c0,0.023,0,0.047,0,0.066c-0.013,0.007-0.023,0.013-0.033,0.018c-0.006,0.003-0.012,0.006-0.018,0.006
		c-0.017-0.001-0.03,0.006-0.043,0.015c-0.005,0.003-0.015,0.005-0.019,0.002c-0.014-0.009-0.027-0.018-0.044-0.018
		c-0.001,0-0.002-0.001-0.003-0.002c-0.014-0.013-0.028-0.026-0.042-0.038c-0.006-0.005-0.015-0.007-0.023-0.012
		c-0.014-0.009-0.027-0.018-0.042-0.029c0-0.001,0-0.006,0-0.01c0.006-0.003,0.014-0.004,0.017-0.008
		c0.015-0.02,0.035-0.025,0.057-0.028c0.003,0,0.006-0.003,0.008-0.005c0.012-0.009,0.024-0.019,0.036-0.027
		c0.003-0.002,0.008-0.003,0.011-0.002c0.025,0.004,0.044-0.006,0.063-0.021C6.835,18.425,6.839,18.425,6.845,18.423z"/>
</g>
</svg>
