<svg width="335" height="54" viewBox="0 0 335 54" fill="none" xmlns="http://www.w3.org/2000/svg">
<path d="M30 29.472C29.952 30.576 29.856 32.16 29.808 34.176C29.76 36.48 29.76 38.064 29.712 38.928C26.88 39.072 24.864 39.12 23.664 39.168C21.072 39.264 19.248 39.312 18.192 39.36C18.144 38.112 18.096 36.384 17.952 34.176C17.808 32.16 17.712 30.72 17.664 29.808C21.696 29.664 23.712 29.616 23.712 29.616C26.544 29.52 28.656 29.472 30 29.472ZM34.944 39.888C34.944 39.648 34.368 39.024 33.168 38.112L33.504 30.528C34.416 30 34.896 29.52 34.896 29.088C34.896 28.656 33.84 27.648 31.68 26.16L29.952 27.936C27.072 27.984 25.008 27.984 23.712 28.032C20.88 28.128 18.912 28.224 17.808 28.272C15.888 27.12 14.736 26.448 14.352 26.256C14.496 27.648 14.592 28.944 14.736 30.144C14.88 31.488 14.928 32.736 14.976 33.84C15.072 36.96 15.12 39.6 15.12 41.856C15.12 41.952 15.12 42.24 15.072 42.576C15.072 43.008 15.072 43.296 15.12 43.536C15.168 43.872 15.264 44.016 15.408 44.064C15.744 44.112 16.176 43.968 16.8 43.632C17.424 43.248 17.808 42.864 17.952 42.528C18.096 42.144 18.192 41.568 18.192 40.848C20.736 40.704 22.56 40.656 23.664 40.608C25.728 40.56 27.072 40.464 27.696 40.464H32.928C34.272 40.464 34.944 40.272 34.944 39.888ZM39.36 22.512C39.072 21.072 38.064 19.536 36.24 17.952C34.608 16.512 32.688 15.408 30.432 14.592C28.992 14.064 27.984 13.824 27.36 13.824C27.072 13.824 26.88 13.872 26.784 14.016C26.688 14.208 26.88 14.448 27.408 14.784C27.936 15.12 28.464 15.36 29.04 15.744C30.432 16.656 31.776 17.904 32.976 19.344C27.888 19.872 24.048 20.112 21.504 20.304C20.016 20.4 18.384 20.544 16.608 20.64C18 18.672 19.296 16.656 20.544 14.592C21.504 13.056 22.752 10.848 24.336 7.92C26.208 7.44 27.168 7.008 27.216 6.672C27.312 6.144 26.784 5.568 25.584 4.944C23.904 4.128 22.608 3.552 21.696 3.12C21.312 4.704 20.88 6.192 20.448 7.632C19.92 9.456 19.008 11.712 17.712 14.448C15.936 18.24 14.88 20.352 14.64 20.784C12.528 20.832 9.888 20.928 6.768 21.024C7.296 21.936 7.824 22.896 8.4 23.856C9.072 24.96 9.696 25.536 10.08 25.488C10.32 25.44 10.704 25.248 11.184 24.816C11.616 24.432 12 24.192 12.336 24.144C18.432 23.04 22.704 22.272 25.056 21.936C28.608 21.408 31.536 20.928 33.792 20.4C34.512 21.456 35.184 22.56 35.712 23.76C36.096 24.672 36.672 25.2 37.44 25.248C38.064 25.296 38.592 25.008 38.976 24.384C39.36 23.76 39.456 23.136 39.36 22.512ZM75.072 8.112C75.024 7.776 74.736 7.488 74.256 7.248C73.776 7.008 73.296 6.768 72.864 6.528C71.808 6.096 71.04 5.76 70.512 5.568C70.56 8.208 70.608 10.032 70.608 11.04C70.608 11.376 70.608 12.432 70.656 14.16C70.704 16.032 70.752 17.52 70.752 18.576C67.92 18.72 66.096 18.768 65.232 18.768C64.032 18.816 62.64 18.816 61.056 18.768C61.248 19.632 61.632 20.496 62.16 21.36C63.936 21.12 65.184 20.928 65.904 20.784C67.488 20.544 69.072 20.352 70.752 20.208V28.128C69.744 28.464 68.976 28.8 68.448 28.992C65.424 30.144 62.832 31.008 60.672 31.632C59.184 32.064 57.504 32.544 55.632 33.024C57.36 35.184 58.464 36.24 58.992 36.144C60.096 35.424 61.008 34.752 61.728 34.128C62.736 33.552 63.984 32.928 65.376 32.256C67.152 31.392 68.304 30.816 68.832 30.528C69.6 30.096 70.224 29.808 70.752 29.568C70.704 32.544 70.608 34.704 70.56 36.048C70.464 38.112 70.464 39.792 70.368 41.088L70.272 42.624C70.272 42.672 70.368 43.392 70.8 43.44C71.424 43.584 72.048 43.248 72.576 42.432C73.296 41.328 73.68 40.272 73.728 39.312C73.776 38.64 73.728 36.192 73.68 31.968C73.584 26.304 73.488 21.792 73.44 18.48C73.44 15.456 73.488 12.672 73.536 10.128C73.872 9.84 74.16 9.552 74.496 9.264C74.928 8.832 75.12 8.448 75.072 8.112ZM97.872 37.44C97.872 37.152 97.776 36.816 97.536 36.384C97.296 35.952 97.104 35.664 97.056 35.424C96.912 34.416 96.864 33.36 96.864 32.208C96.864 31.104 96.864 30.24 96.912 29.616C97.008 28.416 96.912 27.84 96.672 27.84C96.336 27.792 96 28.368 95.76 29.568C95.472 30.768 95.088 32.064 94.608 33.504C93.984 35.472 93.264 36.768 92.4 37.296C91.008 38.16 88.224 38.496 84 38.256C82.608 38.208 81.792 37.824 81.6 37.2C81.456 37.008 81.36 35.424 81.36 35.04C81.36 34.704 81.36 34.32 81.408 24.816C82.8 24.048 83.808 23.472 84.48 23.088C87.6 20.832 89.664 19.344 90.576 18.624L92.208 18.48C92.736 18.432 93.072 18.24 93.216 17.952C93.36 17.664 93.072 16.944 92.256 15.84C91.632 14.976 90.96 14.112 90.336 13.248C89.52 14.448 88.704 15.6 87.84 16.752C86.928 18 85.68 19.392 84.192 20.88C83.088 21.936 82.176 22.8 81.408 23.424C81.456 16.752 81.456 12.192 81.504 9.744C81.744 9.552 82.032 9.216 82.464 8.784C82.896 8.352 83.04 7.968 82.992 7.584C82.944 7.248 82.416 6.816 81.408 6.432C80.016 5.856 78.96 5.52 78.336 5.328C78.48 9.6 78.528 14.448 78.528 19.776V34.08C78.528 36.768 78.72 38.496 78.96 39.216C79.296 40.128 80.064 40.752 81.312 41.088C82.032 41.28 83.088 41.376 84.48 41.424C86.352 41.472 88.032 41.424 89.424 41.328C92.688 41.136 95.04 40.56 96.48 39.552C97.392 38.928 97.872 38.256 97.872 37.44ZM139.632 19.728C139.632 18.48 139.44 17.904 139.056 17.856C138.768 17.808 138.528 18.048 138.432 18.528C138.336 18.912 138.288 19.296 138.192 19.68C137.568 21.696 136.8 23.52 135.744 25.344C135.504 25.776 135.024 26.4 134.352 27.264C133.728 28.08 133.248 28.8 132.96 29.28C132.768 29.664 132.672 30.144 132.672 30.672C132.672 31.2 132.816 31.728 133.104 32.256C133.392 32.736 133.776 32.976 134.208 32.976C134.64 32.976 135.216 32.592 135.936 31.92C137.088 30.768 138 29.04 138.672 26.976C139.392 24.816 139.68 22.464 139.632 19.728ZM152.736 7.776C152.736 7.152 151.968 6.672 150.48 6.336C149.472 6.096 148.56 5.904 147.6 5.712C147.888 8.784 148.032 10.8 148.032 11.76C147.984 12.96 148.032 14.736 148.08 17.04C148.128 19.68 148.128 21.216 148.128 21.696L148.272 29.856C148.32 33.168 148.128 34.896 147.936 35.328C147.648 36 147.36 36.336 146.88 36.336C146.784 36.336 146.64 36.288 145.104 36.24C143.952 36.192 143.328 36.288 143.28 36.528C143.184 36.864 143.424 36.96 143.76 37.104C144.096 37.296 144.336 37.44 144.672 37.632C145.488 38.064 146.208 39.264 146.784 40.944C147.024 41.712 147.216 42.24 147.36 42.432C147.6 42.816 147.792 43.008 148.224 42.912C148.704 42.816 149.136 42.48 149.52 41.952C149.76 41.664 150.048 41.232 150.384 40.512C151.152 38.976 151.392 37.056 151.392 34.704C151.392 33.648 151.344 31.488 151.248 28.416C151.152 25.152 151.104 22.896 151.104 21.6V9.552C151.152 9.456 151.488 9.216 152.16 8.688C152.592 8.352 152.736 8.064 152.736 7.776ZM166.032 30.816C166.944 30.816 167.472 29.952 167.808 29.184C168 28.8 168.096 28.272 168.096 27.648C168.096 26.4 167.52 25.104 166.32 24C164.976 22.752 163.344 21.696 161.28 20.736C158.688 19.584 157.008 18.816 156.048 18.576C154.704 18.24 154.032 18.192 153.888 18.432C153.84 18.528 153.84 18.624 153.84 18.72C153.84 18.96 154.224 19.392 155.136 19.92C156.864 20.88 158.352 21.984 159.696 23.136C160.896 24.096 162.096 25.488 163.248 27.168C163.344 27.36 163.68 27.984 164.16 28.992C164.544 29.76 165.12 30.816 166.032 30.816ZM201.408 26.352C201.264 24.384 201.168 22.848 201.12 21.84C201.168 21.792 202.416 21.744 204.864 21.648C204.96 23.616 205.008 25.104 205.056 26.112L201.408 26.352ZM210.72 21.312C210.672 23.952 210.672 25.392 210.672 25.728C209.28 25.776 208.272 25.824 207.552 25.872C207.456 23.904 207.36 22.464 207.312 21.504C208.704 21.456 209.856 21.36 210.72 21.312ZM217.728 20.832C217.68 22.8 217.632 24.288 217.488 25.392C216.144 25.44 214.752 25.536 213.264 25.584C213.264 24.384 213.312 22.896 213.36 21.12C214.656 21.024 216.096 20.928 217.728 20.832ZM204.912 15.696L204.816 12.864C206.064 12.72 207.264 12.624 208.464 12.528C210.432 12.384 211.632 12.24 212.064 12.192C213.024 12.048 213.504 11.952 213.552 11.904C213.648 11.664 213.36 11.04 212.736 10.128C212.016 10.464 211.104 10.656 210.096 10.8C208.032 11.088 206.208 11.328 204.72 11.472C204.672 10.272 204.672 9.216 204.624 8.352C206.688 8.208 208.272 8.064 209.28 8.016C211.824 7.872 213.6 7.728 214.656 7.68L214.704 14.976L204.912 15.696ZM188.736 16.656C188.736 15.36 188.592 14.688 188.304 14.688C188.112 14.688 187.872 15.12 187.536 15.984C187.296 16.656 186.912 17.376 186.336 18.192C186.048 18.624 185.616 19.104 185.28 19.584C184.896 20.064 184.704 20.544 184.704 21.072C184.704 21.648 184.848 22.176 185.04 22.704C185.328 23.376 185.664 23.712 186.192 23.712C187.104 23.712 187.776 22.704 188.256 20.736C188.592 19.344 188.736 18 188.736 16.656ZM194.784 7.008C194.736 6.528 194.208 6.096 193.2 5.76C192.528 5.52 191.616 5.184 190.464 4.848C190.608 7.008 190.656 8.688 190.704 9.792C190.752 11.856 190.848 14.64 190.848 18.048C190.848 18.768 190.752 24.24 190.512 36.48C190.512 36.912 190.464 37.584 190.416 38.544C190.368 39.552 190.32 40.272 190.32 40.8C190.32 41.904 190.56 42.48 190.992 42.48C191.52 42.48 192.096 42.096 192.72 41.232C193.344 40.416 193.68 39.408 193.728 38.208C193.776 36.816 193.68 34.704 193.584 31.776C193.488 28.32 193.488 25.728 193.44 24C193.392 22.992 193.392 20.64 193.392 16.848C193.392 12.384 193.392 9.792 193.44 8.976C193.776 8.64 194.064 8.256 194.4 7.92C194.688 7.584 194.832 7.296 194.784 7.008ZM226.368 40.704C226.368 40.368 225.648 40.224 224.256 40.224C221.52 40.224 218.976 39.936 216.672 39.312C215.328 38.976 214.032 38.544 212.784 37.968C212.112 37.68 211.584 37.344 211.248 37.104C212.352 36.096 213.6 34.56 214.944 32.448C216.672 32.16 217.536 31.728 217.536 31.2C217.536 30.624 216.432 29.568 214.272 28.032C213.456 28.608 212.88 29.088 212.496 29.424C208.992 29.712 206.88 29.856 206.16 29.904C205.68 29.952 205.056 29.904 204.336 29.856C203.424 29.808 202.8 29.808 202.512 29.808C202.944 30.624 203.232 31.296 203.424 31.824C204.72 31.68 205.68 31.536 206.4 31.392C209.232 31.152 211.296 31.008 212.592 30.864C211.776 32.784 210.576 34.416 209.088 35.808C208.032 35.088 206.736 33.888 205.2 32.304C204.096 33.36 203.28 34.032 202.848 34.368C201.936 34.944 201.216 35.376 200.688 35.664C201.408 36.336 201.984 36.864 202.32 37.296C203.328 36.48 204.24 35.472 205.104 34.32C205.92 35.184 206.784 36.048 207.696 36.96C205.776 38.448 203.568 39.648 201.12 40.512C199.584 41.088 198.384 41.376 197.568 41.568C196.08 41.952 195.408 42.288 195.504 42.624C195.648 43.008 196.416 43.104 197.808 42.912C199.296 42.672 200.688 42.384 202.032 42C203.808 41.472 205.296 40.896 206.496 40.272C207.648 39.648 208.656 39.072 209.472 38.496C211.056 39.744 212.88 40.992 214.992 42.24C215.712 42.672 216.72 43.104 218.016 43.632C218.688 43.872 219.312 43.968 219.84 43.872C220.848 43.392 221.664 42.96 222.192 42.528C223.68 41.904 224.496 41.568 224.736 41.52C225.84 41.28 226.368 40.992 226.368 40.704ZM199.44 16.416C199.488 15.84 199.296 15.12 198.768 14.304C198.24 13.488 197.136 12.864 195.456 12.384C194.736 12.144 194.64 12.192 194.4 12.192C194.208 12.192 194.064 12.336 194.064 12.48C194.064 12.624 194.208 12.816 194.448 13.104C194.784 13.536 194.928 13.728 195.024 13.872C195.6 14.88 196.224 15.936 196.704 17.04C196.992 17.664 197.376 17.952 197.904 17.952C198.816 17.952 199.296 17.424 199.44 16.416ZM222.336 20.832C222.432 20.448 222 19.92 220.992 19.2C220.176 18.576 219.552 18.144 219.12 17.856L217.584 19.536C209.28 19.968 204.144 20.256 202.128 20.352C200.544 19.632 199.2 19.104 198.192 18.816C198.336 20.112 198.528 21.12 198.576 21.744C198.864 24.864 198.912 27.312 198.912 28.992C198.912 29.76 199.008 30.144 199.152 30.144C199.872 30.144 200.544 29.76 201.12 29.04C201.36 28.752 201.456 28.32 201.504 27.696C203.76 27.504 206.304 27.36 209.136 27.216C212.544 27.024 215.232 26.88 217.296 26.736C217.248 28.128 217.344 28.896 217.632 29.04C217.92 29.184 218.496 28.992 219.36 28.368C219.984 27.936 220.368 27.504 220.512 27.12L220.656 21.84C221.76 21.408 222.288 21.072 222.336 20.832ZM218.88 7.344C218.88 7.056 217.968 6.24 216.096 4.896L214.656 6.288C212.16 6.48 210.432 6.672 209.424 6.72C207.456 6.864 206.064 6.912 205.152 6.96C203.808 6.24 202.752 5.712 201.984 5.376C202.224 7.008 202.368 8.496 202.416 9.792C202.512 11.568 202.56 12.576 202.56 12.912V15.408C202.56 16.416 202.608 17.136 202.608 17.664C202.56 19.152 202.608 19.92 202.752 19.968C202.992 20.064 203.376 19.92 203.952 19.584C204.288 19.44 204.528 19.2 204.72 18.864C204.912 18.576 205.008 18 204.96 17.136C207.216 16.944 210.48 16.704 214.656 16.464V17.664C214.656 18.288 214.752 18.624 214.992 18.624C215.424 18.624 215.904 18.48 216.384 18.192C217.248 17.664 217.68 16.944 217.632 16.032C217.584 15.6 217.536 14.784 217.488 13.488C217.44 12.384 217.44 11.568 217.44 10.944C217.44 10.752 217.44 10.416 217.392 9.936C217.344 9.456 217.296 9.12 217.296 8.88C218.352 8.16 218.88 7.632 218.88 7.344Z" fill="white"/>
<path d="M272.938 28.829C272.98 28.535 272.959 28.367 272.896 28.346C272.833 28.325 272.686 28.451 272.434 28.745C272.245 28.976 272.014 29.144 271.762 29.291C271.489 29.438 271.174 29.606 270.817 29.711C270.292 29.879 269.914 29.984 269.641 30.047C269.137 30.278 268.864 30.593 268.801 30.992C268.759 31.265 268.801 31.517 268.906 31.748C269.053 32.063 269.284 32.252 269.599 32.315C270.019 32.399 270.418 32.315 270.796 32.063C271.174 31.811 271.531 31.496 271.846 31.097C272.14 30.74 272.392 30.341 272.581 29.9C272.77 29.459 272.896 29.102 272.938 28.829ZM280.855 26.813C280.855 26.666 280.645 26.414 280.204 26.078C279.952 25.889 279.49 25.553 278.818 25.091C278.419 25.742 278.125 26.225 277.957 26.519L276.403 26.582V25.28C276.823 25.028 277.033 24.818 277.033 24.629C277.012 24.461 276.802 24.272 276.361 24.125C275.479 23.831 274.828 23.642 274.387 23.537C274.429 24.23 274.471 24.797 274.471 25.217V26.666C273.337 26.729 272.371 26.792 271.594 26.834C270.565 26.876 269.746 26.855 269.179 26.855L269.62 27.737C270.607 27.632 271.321 27.548 271.741 27.527L274.492 27.338C274.513 27.905 274.513 28.283 274.513 28.493C274.513 29.564 274.45 30.95 274.345 32.63C274.324 33.05 274.303 33.26 274.303 33.26C274.324 33.491 274.366 33.617 274.471 33.659C274.744 33.764 275.101 33.659 275.563 33.344C276.193 32.903 276.508 32.42 276.508 31.895C276.508 31.454 276.487 30.761 276.466 29.816C276.445 29.081 276.424 28.22 276.424 27.233C277.096 27.191 277.705 27.17 278.272 27.149C278.734 27.128 279.322 27.128 280.036 27.107C280.561 27.107 280.834 27.002 280.855 26.813ZM282.598 30.614C282.577 30.173 282.367 29.753 281.926 29.375C281.611 29.102 281.107 28.892 280.456 28.703C279.805 28.514 279.049 28.409 278.23 28.325C277.705 28.283 277.453 28.283 277.432 28.388C277.411 28.472 277.474 28.556 277.642 28.661C277.81 28.766 277.978 28.85 278.167 28.955C278.734 29.312 279.238 29.774 279.679 30.299C279.91 30.656 280.12 31.034 280.372 31.412C280.666 31.853 281.023 32.063 281.422 32.042C281.779 32.042 282.073 31.895 282.283 31.601C282.493 31.328 282.598 30.992 282.598 30.614ZM285.496 23.831C285.496 23.684 285.265 23.6 284.488 23.537C282.367 23.348 281.044 23.201 280.498 23.054C279.595 22.823 278.65 22.466 277.705 21.962C277.306 21.752 276.823 21.458 276.277 21.059C276.655 20.996 276.844 20.87 276.865 20.702C276.886 20.555 276.613 20.303 276.046 19.988C275.395 19.631 274.912 19.358 274.597 19.19C274.135 20.219 273.631 21.08 273.064 21.794C272.413 22.634 271.804 23.306 271.237 23.81C269.914 24.965 268.171 26.12 265.966 27.233C265.651 27.401 265.525 27.548 265.588 27.674C265.651 27.821 266.176 27.695 267.163 27.296C269.536 26.351 271.363 25.385 272.644 24.398C273.715 23.6 274.723 22.592 275.71 21.353C277.117 23.054 278.23 24.146 279.049 24.65C280.834 25.742 281.989 26.225 282.493 26.099C282.64 26.078 282.745 25.994 282.85 25.868C282.955 25.763 283.039 25.637 283.144 25.532C283.627 25.049 284.152 24.65 284.74 24.356C284.929 24.272 285.097 24.188 285.265 24.104C285.412 24.041 285.496 23.936 285.496 23.831ZM281.926 18.077C282.577 18.077 282.892 17.972 282.892 17.762C282.892 17.657 282.682 17.405 282.262 17.048C281.611 16.523 281.107 16.145 280.75 15.872C280.267 16.607 279.931 17.153 279.721 17.489L278.209 17.573C278.398 17.195 278.566 16.817 278.713 16.46C279.175 16.271 279.406 16.082 279.427 15.893C279.427 15.683 279.112 15.431 278.482 15.116C277.768 14.759 277.201 14.528 276.802 14.381C276.739 15.158 276.697 15.746 276.676 16.103C276.613 16.733 276.571 17.258 276.508 17.657L273.925 17.762C273.988 17.111 274.009 16.649 274.03 16.334C274.387 16.103 274.555 15.893 274.534 15.746C274.534 15.578 274.219 15.41 273.61 15.305C272.749 15.137 272.098 15.053 271.678 14.99C271.93 15.767 272.077 16.271 272.14 16.502C272.287 17.09 272.413 17.531 272.497 17.846C271.825 17.867 271.216 17.93 270.691 17.93H268.087L268.591 18.896C269.368 18.791 270.019 18.707 270.586 18.665L272.665 18.518C272.812 19.106 272.917 19.547 273.022 19.82C273.127 20.093 273.232 20.24 273.379 20.24C273.505 20.24 273.61 20.072 273.694 19.715C273.757 19.379 273.82 18.959 273.862 18.434C274.807 18.371 275.647 18.329 276.424 18.287C276.403 18.518 276.361 18.749 276.319 19.001C276.214 19.61 276.235 19.946 276.382 19.988C276.508 20.009 276.739 19.799 277.075 19.379C277.327 19.064 277.579 18.665 277.852 18.224C278.461 18.203 279.07 18.161 279.7 18.14C281.086 18.098 281.821 18.077 281.926 18.077ZM296.857 21.248L295.597 21.311L295.576 20.366H295.975C296.332 20.366 296.836 20.345 297.487 20.324L296.857 21.248ZM298.537 20.828C297.97 20.492 297.697 20.324 297.676 20.324C298.18 20.303 298.453 20.261 298.474 20.156C298.495 20.051 298.327 19.883 297.97 19.631C297.529 19.316 297.172 19.106 296.941 18.959C297.004 18.56 297.046 18.245 297.067 18.035C297.97 17.972 298.81 17.93 299.566 17.888L299.44 18.644C299.356 19.169 299.356 19.442 299.503 19.463C299.65 19.484 299.839 19.379 300.091 19.106C300.133 19.337 300.154 19.526 300.154 19.631L300.217 20.66L298.537 20.828ZM307.294 29.27C307.357 29.102 307.168 28.85 306.769 28.535C306.37 28.22 305.782 27.8 305.047 27.275C304.543 28.052 304.186 28.598 303.976 28.934C297.697 29.27 293.917 29.48 292.678 29.522C291.376 29.585 290.41 29.585 289.759 29.606L290.2 30.551C291.376 30.383 292.237 30.299 292.762 30.257C293.875 30.173 294.988 30.068 296.143 29.984C295.954 30.488 295.66 31.055 295.261 31.685C294.043 31.748 293.119 31.769 292.489 31.79L293.14 32.882C293.413 33.323 293.623 33.533 293.728 33.533C293.77 33.533 294.022 33.449 294.463 33.302C294.988 33.134 295.471 33.008 295.87 32.945C296.773 32.798 297.991 32.609 299.503 32.315C300.574 32.105 301.435 31.916 302.044 31.79C302.128 31.874 302.296 32.084 302.527 32.441C302.716 32.714 302.905 32.924 303.073 33.05C303.283 33.218 303.535 33.302 303.85 33.302C304.606 33.302 305.005 32.966 305.026 32.273C305.047 31.79 304.732 31.37 304.06 31.013C303.619 30.782 302.905 30.572 301.939 30.383C301.33 30.257 300.847 30.194 300.448 30.173C300.007 30.152 299.776 30.173 299.755 30.257C299.734 30.341 299.902 30.446 300.217 30.593C300.784 30.845 301.225 31.097 301.54 31.328C300.238 31.433 298.978 31.517 297.739 31.58C297.466 31.601 297.13 31.601 296.731 31.622C297.088 31.37 297.361 31.181 297.55 31.034C298.18 30.95 298.495 30.845 298.474 30.698C298.453 30.551 298.264 30.383 297.907 30.236L297.13 29.921C299.251 29.774 301.477 29.669 303.766 29.585C304.921 29.543 305.803 29.501 306.412 29.501H306.937C307.126 29.48 307.231 29.396 307.294 29.27ZM298.579 26.057C298.558 25.973 298.369 25.952 298.033 25.973C297.424 26.036 296.941 26.099 296.626 26.141L295.576 26.246V25.28L296.038 25.259C296.458 25.238 297.046 25.217 297.781 25.196C298.243 25.196 298.495 25.133 298.516 25.007C298.537 24.881 298.348 24.713 297.97 24.482C297.592 24.251 297.193 24.041 296.752 23.81L296.08 24.818L295.576 24.839V24.482C295.807 24.377 295.912 24.272 295.912 24.146C295.933 24.041 295.681 23.957 295.177 23.852C294.883 23.789 294.442 23.705 293.875 23.6C293.896 23.831 293.896 24.104 293.896 24.419V24.923C293.56 24.944 293.182 24.944 292.762 24.944H291.418L291.649 25.553C292.237 25.49 292.993 25.427 293.896 25.364L293.875 26.414C293.056 26.477 292.3 26.54 291.607 26.582C291.019 26.603 290.578 26.624 290.284 26.645C290.683 27.317 290.914 27.695 290.977 27.779C291.124 28.01 291.271 28.136 291.376 28.136C291.481 28.136 291.628 28.073 291.859 27.947C292.006 27.842 292.153 27.779 292.321 27.716C292.678 27.611 293.098 27.506 293.623 27.401L294.589 27.212C295.66 27.002 296.374 26.792 296.752 26.708C297.571 26.498 298.012 26.414 298.117 26.393C298.474 26.288 298.621 26.183 298.579 26.057ZM294.4 22.886C294.421 22.739 294.253 22.592 293.896 22.424C293.413 22.193 293.077 22.046 292.867 21.962C292.678 22.235 292.51 22.466 292.363 22.655C292.027 23.033 291.754 23.306 291.523 23.453C291.061 23.768 290.641 24.02 290.263 24.209C290.032 24.335 289.927 24.44 289.948 24.503C289.969 24.545 289.969 24.566 289.99 24.587C290.032 24.608 290.2 24.608 290.494 24.545C291.124 24.44 291.838 24.188 292.636 23.81C293.098 23.579 293.476 23.348 293.791 23.096C294.19 23.075 294.379 22.991 294.4 22.886ZM304.102 27.779C304.123 27.632 303.976 27.422 303.619 27.191C303.031 26.792 302.569 26.477 302.254 26.246C301.897 26.813 301.624 27.212 301.477 27.464C299.146 27.569 297.046 27.674 295.198 27.737C294.295 27.779 293.56 27.779 292.993 27.758C293.077 27.989 293.203 28.262 293.35 28.577C293.917 28.493 294.589 28.409 295.387 28.367C299.146 28.136 301.12 28.031 301.33 28.031C302.212 27.989 302.884 27.989 303.367 27.968C303.829 27.947 304.081 27.884 304.102 27.779ZM308.239 23.033C308.155 22.97 308.008 23.075 307.798 23.327C307.567 23.621 307.378 23.831 307.273 23.978C307.042 24.272 306.832 24.524 306.622 24.755C306.391 24.986 306.223 25.112 306.118 25.112C305.95 25.133 305.782 25.049 305.614 24.902C305.278 24.587 305.026 24.104 304.879 23.474C304.753 22.991 304.711 22.382 304.753 21.626C305.257 21.395 305.509 21.185 305.53 20.954C305.53 20.786 305.32 20.576 304.921 20.303C304.186 19.799 303.745 19.505 303.598 19.4L302.968 20.408L302.002 20.492C301.981 20.072 301.981 19.841 301.981 19.799C302.359 19.568 302.548 19.379 302.527 19.232C302.506 19.043 302.212 18.875 301.645 18.749C301.12 18.644 300.763 18.56 300.532 18.539C300.721 18.287 300.868 18.035 301.015 17.804C301.666 17.783 302.275 17.762 302.863 17.741C303.808 17.72 304.501 17.72 304.963 17.72C305.614 17.72 305.95 17.636 306.013 17.489C306.076 17.321 305.887 17.048 305.446 16.67C304.795 16.145 304.27 15.725 303.871 15.431C303.346 16.208 302.989 16.775 302.758 17.132L301.414 17.195C301.645 16.838 301.813 16.565 301.897 16.376C302.38 16.187 302.611 16.019 302.632 15.851C302.632 15.662 302.317 15.431 301.666 15.116C300.889 14.759 300.343 14.528 300.007 14.381C299.902 15.452 299.86 16.019 299.839 16.103L299.65 17.3L297.13 17.405C297.172 17.027 297.193 16.67 297.214 16.355C297.529 16.103 297.697 15.893 297.676 15.746C297.655 15.641 297.571 15.536 297.403 15.473C297.319 15.431 297.151 15.389 296.92 15.326C296.038 15.179 295.366 15.053 294.904 14.99C295.135 15.725 295.303 16.208 295.387 16.481C295.534 16.922 295.66 17.258 295.723 17.489C294.946 17.51 294.295 17.531 293.812 17.552C293.203 17.573 292.342 17.573 291.187 17.552L291.607 18.476C292.615 18.371 293.308 18.287 293.707 18.266L295.933 18.119C296.017 18.35 296.08 18.539 296.143 18.728C296.269 19.127 296.395 19.379 296.5 19.442L296.227 19.862L295.576 19.904V19.673C295.87 19.526 296.017 19.4 295.996 19.274C295.975 19.127 295.723 18.959 295.219 18.833L293.854 18.497C293.854 18.581 293.854 18.707 293.875 18.896C293.896 19.085 293.896 19.232 293.896 19.316V19.967C293.581 19.988 293.182 19.967 292.72 19.988L291.313 20.03L291.565 20.639C292.699 20.534 293.476 20.471 293.896 20.45V21.374C292.909 21.416 292.153 21.458 291.67 21.479C290.788 21.5 290.116 21.5 289.654 21.5L289.906 22.151C290.452 22.088 291.04 22.025 291.649 21.983C292.72 21.92 293.875 21.857 295.093 21.794C295.114 21.983 295.114 22.172 295.114 22.382C295.093 22.655 295.093 22.865 295.093 22.97C295.093 23.327 295.156 23.537 295.303 23.642C295.597 23.705 295.828 23.747 296.017 23.768C296.332 23.789 296.668 23.789 297.004 23.768C297.508 23.747 297.907 23.705 298.222 23.663C298.537 23.621 298.684 23.537 298.705 23.39C298.726 23.285 298.663 23.138 298.558 22.928C298.432 22.739 298.306 22.634 298.159 22.613C298.138 22.613 297.907 22.655 297.466 22.739C297.319 22.781 297.13 22.823 296.941 22.802C296.752 22.823 296.647 22.802 296.626 22.781C296.584 22.76 296.563 22.718 296.563 22.634C296.563 22.487 296.563 22.403 296.584 22.361C296.71 22.298 296.773 22.214 296.773 22.13C296.773 22.025 296.416 21.899 295.681 21.773L298.642 21.71C299.083 21.71 299.314 21.647 299.335 21.584C299.356 21.521 299.356 21.458 299.335 21.395L300.217 21.29C300.238 22.067 300.217 22.613 300.175 22.928C299.86 22.886 299.608 22.865 299.44 22.844C299.146 22.802 298.999 22.844 298.978 22.949C298.957 23.012 299.104 23.096 299.377 23.222C299.755 23.369 300.007 23.495 300.112 23.558C299.902 24.797 299.293 25.763 298.306 26.519C298.012 26.729 297.886 26.876 297.886 26.939C297.886 26.96 297.886 26.981 297.907 27.002C297.97 27.086 298.201 27.044 298.621 26.855C299.209 26.603 299.734 26.288 300.175 25.91C300.574 25.595 300.931 25.175 301.246 24.65C301.456 24.944 301.603 25.133 301.666 25.196C301.855 25.364 302.065 25.448 302.317 25.448C302.842 25.448 303.094 25.175 303.094 24.65C303.094 24.398 302.989 24.146 302.779 23.915C302.548 23.684 302.212 23.495 301.771 23.327C301.897 22.97 301.981 22.004 302.002 21.101C302.422 21.059 302.758 21.017 303.031 20.975C303.031 21.353 303.031 21.836 303.052 22.403C303.073 22.865 303.115 23.285 303.199 23.684C303.472 24.944 304.039 25.952 304.9 26.708C305.383 27.149 305.887 27.38 306.454 27.422C307.189 27.485 307.567 27.317 307.588 26.876C307.609 26.771 307.567 26.624 307.504 26.477C307.42 26.33 307.378 26.225 307.378 26.162C307.357 25.889 307.399 25.616 307.504 25.343C307.693 24.818 307.819 24.398 307.924 24.083C308.029 23.852 308.113 23.684 308.176 23.537C308.302 23.243 308.323 23.075 308.239 23.033ZM318.97 23.81V25.7L316.597 25.847V24.23C316.954 24.209 317.185 24.188 317.374 24.167C317.689 24.146 317.941 24.125 318.109 24.104C318.361 24.083 318.466 24.02 318.487 23.957C318.487 23.894 318.382 23.684 318.13 23.369C317.731 23.495 317.269 23.579 316.597 23.621V22.004C317.71 21.941 318.466 21.899 318.991 21.878L318.97 23.81ZM327.706 30.845C326.698 30.908 325.48 30.95 324.031 31.013V28.073C325.774 27.989 327.013 27.926 327.748 27.884L327.706 30.845ZM316.849 21.374C316.639 21.227 316.261 21.038 315.715 20.849C316.24 20.303 316.765 19.694 317.269 19.043V20.765C317.269 21.017 317.269 21.206 317.29 21.353L316.849 21.374ZM326.698 21.92C326.698 22.634 326.698 23.516 326.677 24.545L323.989 24.692C323.968 23.075 323.968 22.193 323.968 22.088C325.249 22.025 326.173 21.962 326.698 21.92ZM321.553 29.732C321.553 29.207 321.343 28.745 320.965 28.388C320.398 27.863 319.663 27.485 318.697 27.212C318.361 27.128 318.172 27.107 318.151 27.17C318.109 27.233 318.172 27.359 318.34 27.527C318.466 27.716 318.592 27.863 318.676 27.989C318.844 28.22 318.991 28.43 319.117 28.661C318.319 28.955 317.521 29.249 316.597 29.564V26.456L318.928 26.309V26.813C318.949 27.023 319.033 27.149 319.201 27.17C319.369 27.191 319.621 27.128 319.915 26.981C320.251 26.792 320.503 26.603 320.608 26.372C320.671 26.246 320.713 25.952 320.692 25.49C320.692 25.427 320.692 25.259 320.671 24.986C320.65 24.755 320.65 24.566 320.65 24.398C320.65 24.167 320.65 23.6 320.629 22.739C320.986 22.508 321.133 22.319 321.133 22.13C321.133 21.962 320.923 21.689 320.482 21.29C320.041 20.891 319.705 20.639 319.516 20.492L318.949 21.269H318.718V20.219C319.117 19.988 319.306 19.799 319.285 19.652C319.264 19.484 319.054 19.337 318.655 19.211C318.067 19.022 317.605 18.896 317.353 18.812C317.605 18.455 317.857 18.098 318.088 17.741C318.529 18.056 318.949 18.518 319.327 19.148C319.558 19.505 319.831 19.673 320.167 19.673C320.398 19.652 320.608 19.547 320.755 19.316C320.902 19.127 320.965 18.917 320.986 18.644C321.007 18.161 320.734 17.825 320.188 17.552C319.915 17.426 319.6 17.342 319.285 17.258C319.243 17.237 318.97 17.195 318.445 17.132C318.529 16.985 318.613 16.859 318.697 16.733C318.865 16.67 319.054 16.607 319.243 16.544C319.411 16.481 319.495 16.397 319.516 16.25C319.558 16.061 319.306 15.809 318.718 15.494C318.109 15.158 317.605 14.906 317.269 14.738C317.122 15.305 316.891 15.935 316.66 16.586C316.345 17.468 315.904 18.371 315.337 19.274C314.812 20.114 314.245 20.912 313.636 21.584C313.006 22.298 312.46 22.781 312.124 23.096C311.935 23.285 311.851 23.432 311.914 23.495C311.935 23.537 312.103 23.495 312.355 23.39C312.628 23.285 312.943 23.096 313.279 22.865C313.384 22.781 313.678 22.571 314.14 22.214C314.413 22.025 314.665 21.815 314.896 21.584C314.917 22.256 314.938 22.739 314.938 23.033L314.959 30.089C314.623 30.194 314.224 30.32 313.804 30.446C313.132 30.635 312.649 30.761 312.292 30.866C313.111 32.063 313.678 32.693 313.972 32.714C314.077 32.714 314.287 32.567 314.602 32.294C314.854 32.063 315.064 31.874 315.253 31.727C316.891 30.698 318.277 29.858 319.369 29.207C319.474 29.564 319.621 29.942 319.747 30.32C319.894 30.719 320.125 30.908 320.503 30.929C320.818 30.95 321.07 30.824 321.259 30.572C321.448 30.341 321.553 30.047 321.553 29.732ZM331.213 19.925C331.213 19.736 331.024 19.358 330.646 18.791C330.121 18.035 329.722 17.489 329.47 17.153C329.008 17.573 328.714 17.846 328.567 17.972L326.929 18.077V17.048C326.929 16.586 326.908 16.292 326.908 16.145C327.055 16.04 327.16 15.956 327.244 15.893C327.391 15.725 327.475 15.599 327.454 15.494C327.454 15.347 327.139 15.179 326.53 14.969C326.089 14.801 325.585 14.654 325.018 14.528C325.06 15.053 325.081 15.662 325.081 16.313C325.102 17.132 325.102 17.741 325.102 18.161L323.002 18.266C322.813 17.342 322.624 16.88 322.435 16.901C322.33 16.922 322.267 17.09 322.246 17.447C322.225 18.056 322.057 18.644 321.784 19.19C321.616 19.442 321.448 19.715 321.28 19.988C321.091 20.261 321.007 20.534 321.007 20.807C321.007 21.08 321.112 21.311 321.301 21.521C321.49 21.752 321.574 21.836 321.889 21.836C322.141 21.836 322.225 21.815 322.288 21.794L322.309 22.844C322.33 24.167 322.33 25.826 322.33 27.863C322.33 29.249 322.309 30.446 322.288 31.454C322.288 31.601 322.267 31.916 322.246 32.399C322.225 32.798 322.225 33.092 322.225 33.323V33.764C322.246 33.869 322.309 33.911 322.435 33.932C322.666 33.953 322.96 33.827 323.296 33.554C323.632 33.26 323.842 32.966 323.947 32.672C324.01 32.441 324.052 32.105 324.052 31.664C325.753 31.58 327.055 31.538 327.958 31.496L329.491 31.433C329.953 31.412 330.205 31.328 330.226 31.181C330.247 31.034 330.037 30.761 329.575 30.362L329.617 28.409C330.037 28.136 330.247 27.884 330.247 27.674C330.247 27.527 329.995 27.254 329.47 26.876C329.134 26.645 328.798 26.393 328.462 26.141C328.105 26.666 327.853 27.023 327.706 27.212C326.929 27.275 325.69 27.338 324.031 27.401L324.01 25.301C325.417 25.217 326.404 25.154 326.971 25.133C327.664 25.112 328.168 25.091 328.441 25.07C328.84 25.049 329.029 24.965 329.029 24.818C329.029 24.734 328.861 24.608 328.609 24.356L328.525 24.272V22.361C328.651 22.277 328.798 22.193 328.945 22.088C329.092 22.004 329.176 21.899 329.155 21.752C329.155 21.647 329.092 21.521 328.987 21.416C328.924 21.353 328.777 21.248 328.546 21.059C328.042 20.681 327.664 20.408 327.412 20.24C327.076 20.723 326.824 21.101 326.635 21.332C326.152 21.353 325.396 21.395 324.367 21.458C323.884 21.101 323.443 20.849 323.065 20.66C323.149 20.177 323.17 19.421 323.107 18.938C324.178 18.875 325.081 18.812 325.816 18.77C327.055 18.707 328.021 18.665 328.672 18.644C328.441 19.127 328.21 19.568 327.979 19.967C327.832 20.219 327.811 20.387 327.874 20.45C327.958 20.513 328.147 20.471 328.42 20.324C328.819 20.114 329.26 20.009 329.722 20.093C330.142 20.156 330.457 20.24 330.646 20.303C331.024 20.408 331.213 20.282 331.213 19.925Z" fill="white"/>
<path d="M248.5 50V2" stroke="white"/>
</svg>
